<svg xmlns="http://www.w3.org/2000/svg" enable-background="new 0 0 66 66" viewBox="0 0 66 66"><path fill="#caeae9" d="M28.94,29.61H10.32l-8.3,8.29v24.15c0,1.07,0.87,1.94,1.94,1.94h24.99c1.07,0,1.94-0.87,1.94-1.94v-30.5
				C30.87,30.48,30,29.61,28.94,29.61z"/><path fill="#fff" d="M26 34.15h-.81c-.54 0-.97.43-.97.97s.43.97.97.97H26c.54 0 .97-.43.97-.97S26.54 34.15 26 34.15zM21.65 34.15h-6.02c-.54 0-.97.43-.97.97s.43.97.97.97h6.02c.54 0 .97-.43.97-.97S22.18 34.15 21.65 34.15z" opacity=".75"/><path fill="#6e6ece" d="M2.01,37.9h6.37c1.07,0,1.94-0.87,1.94-1.94v-6.36L2.01,37.9z"/><path d="M28.94,29.61h-0.97v5.52c0,14.33-11.62,25.95-25.95,25.95v0.97c0,1.07,0.87,1.94,1.94,1.94h24.99
				c1.07,0,1.94-0.87,1.94-1.94v-30.5C30.87,30.48,30,29.61,28.94,29.61z" opacity=".12"/><path fill="#caeae9" d="M62.05,2.01H43.43l-8.3,8.29v24.15c0,1.07,0.87,1.94,1.94,1.94h24.99c1.07,0,1.94-0.87,1.94-1.94V3.95
				C63.99,2.88,63.12,2.01,62.05,2.01z"/><path fill="#fff" d="M59.12 6.55h-.81c-.54 0-.97.43-.97.97s.43.97.97.97h.81c.54 0 .97-.43.97-.97S59.65 6.55 59.12 6.55zM54.76 6.55h-6.02c-.54 0-.97.43-.97.97s.43.97.97.97h6.02c.54 0 .97-.43.97-.97S55.3 6.55 54.76 6.55z" opacity=".75"/><path fill="#6e6ece" d="M35.13,10.3h6.37c1.07,0,1.94-0.87,1.94-1.94V2.01L35.13,10.3z"/><path d="M62.05,2.01h-0.97v5.52c0,14.33-11.62,25.95-25.95,25.95v0.97c0,1.07,0.87,1.94,1.94,1.94h24.99
				c1.07,0,1.94-0.87,1.94-1.94V3.95C63.99,2.88,63.12,2.01,62.05,2.01z" opacity=".12"/><path d="M30.87,64.96H2.01c-0.54,0-0.97-0.43-0.97-0.97V37.9c0-0.26,0.1-0.5,0.28-0.69l8.3-8.29c0.18-0.18,0.43-0.28,0.68-0.28
					h20.56c0.54,0,0.97,0.43,0.97,0.97v34.38C31.84,64.52,31.41,64.96,30.87,64.96z M2.98,63.02H29.9V30.58H10.72l-7.73,7.73V63.02z
					"/><path d="M10.32 38.87h-8.3c-.39 0-.75-.24-.89-.6-.15-.36-.07-.78.21-1.06l8.3-8.29c.28-.28.69-.36 1.06-.21.36.15.6.5.6.89v8.29C11.28 38.44 10.85 38.87 10.32 38.87zM4.35 36.94h4.99v-4.99L4.35 36.94zM8.03 52.52c-.87 0-1.55.33-2.02.98-.45.63-.68 1.48-.68 2.53 0 1.05.23 1.9.68 2.53.46.65 1.14.98 2.02.98.87 0 1.54-.33 2.01-.98.45-.63.68-1.48.68-2.53 0-1.05-.23-1.9-.68-2.53C9.57 52.84 8.9 52.52 8.03 52.52zM9.5 56.02c0 .75-.13 1.35-.4 1.76-.25.39-.6.58-1.07.58-.47 0-.82-.19-1.07-.58-.26-.42-.4-1.01-.4-1.76 0-.75.13-1.34.4-1.75.25-.39.6-.58 1.07-.58.47 0 .82.19 1.07.58C9.36 54.69 9.5 55.28 9.5 56.02zM15.41 58.27h-.72v-5.02c0-.18-.06-.33-.19-.45-.12-.12-.28-.19-.45-.19h-.19c-.12 0-.23.03-.35.09l-1.25.65c-.23.11-.35.3-.35.55 0 .17.06.31.17.42.11.11.26.17.42.17.08 0 .18-.02.3-.07l.66-.33v4.18h-.91c-.16 0-.3.06-.42.17-.11.11-.16.26-.16.41 0 .16.06.3.17.41v0c.11.11.25.17.41.17h2.85c.16 0 .3-.06.42-.16.11-.11.17-.25.17-.42 0-.16-.06-.3-.17-.42C15.72 58.33 15.57 58.27 15.41 58.27zM19.62 52.52c-.87 0-1.55.33-2.02.98-.45.63-.68 1.48-.68 2.53 0 1.05.23 1.9.68 2.53.46.65 1.14.98 2.02.98.87 0 1.54-.33 2.01-.98.45-.63.68-1.48.68-2.53 0-1.05-.23-1.9-.68-2.53C21.17 52.84 20.49 52.52 19.62 52.52zM21.09 56.02c0 .75-.13 1.35-.4 1.76-.25.39-.6.58-1.07.58-.47 0-.82-.19-1.07-.58-.26-.42-.4-1.01-.4-1.76 0-.75.13-1.34.4-1.75.25-.39.6-.58 1.07-.58.47 0 .82.19 1.07.58C20.96 54.69 21.09 55.28 21.09 56.02zM27.42 58.44c-.11-.11-.26-.17-.42-.17h-.72v-5.02c0-.18-.06-.33-.19-.45-.12-.12-.28-.19-.45-.19h-.19c-.12 0-.23.03-.35.09l-1.25.65c-.23.11-.35.3-.35.55 0 .17.06.31.17.42.11.11.26.17.42.17.08 0 .18-.02.3-.07l.66-.33v4.18h-.91c-.16 0-.3.06-.42.17-.11.11-.16.26-.16.41 0 .16.06.3.17.41v0c.11.11.25.17.41.17h2.85c.16 0 .3-.06.42-.16.11-.11.17-.25.17-.42C27.6 58.7 27.54 58.55 27.42 58.44zM6.06 44.68c.08 0 .18-.02.3-.07l.66-.33v4.18H6.11c-.16 0-.3.06-.42.17-.11.11-.16.26-.16.41 0 .16.06.3.17.41v0c.11.11.25.17.41.17h2.85c.16 0 .3-.06.42-.16.11-.11.17-.25.17-.42 0-.16-.06-.3-.17-.42-.11-.11-.26-.17-.42-.17H8.24v-5.02c0-.18-.06-.33-.19-.45-.12-.12-.28-.19-.45-.19H7.42c-.12 0-.23.03-.35.09l-1.25.65c-.23.11-.35.3-.35.55 0 .17.06.31.17.42C5.75 44.62 5.89 44.68 6.06 44.68zM15.19 48.74c.45-.63.68-1.48.68-2.53 0-1.05-.23-1.9-.68-2.53-.47-.65-1.14-.98-2.01-.98-.87 0-1.55.33-2.02.98-.45.63-.68 1.48-.68 2.53 0 1.05.23 1.9.68 2.53.46.65 1.14.98 2.02.98C14.04 49.72 14.72 49.39 15.19 48.74zM14.25 47.97c-.25.39-.6.58-1.07.58-.47 0-.82-.19-1.07-.58-.26-.42-.4-1.01-.4-1.76 0-.75.13-1.34.4-1.75.25-.39.6-.58 1.07-.58.47 0 .82.19 1.07.58.26.42.4 1 .4 1.75C14.65 46.96 14.51 47.56 14.25 47.97zM17.65 44.68c.08 0 .18-.02.3-.07l.66-.33v4.18h-.91c-.16 0-.3.06-.42.17-.11.11-.16.26-.16.41 0 .16.06.3.17.41v0c.11.11.25.17.41.17h2.85c.16 0 .3-.06.42-.16.11-.11.17-.25.17-.42 0-.16-.06-.3-.17-.42-.11-.11-.26-.17-.42-.17h-.72v-5.02c0-.18-.06-.33-.19-.45-.12-.12-.28-.19-.45-.19h-.19c-.12 0-.23.03-.35.09l-1.25.65c-.23.11-.35.3-.35.55 0 .17.06.31.17.42C17.34 44.62 17.49 44.68 17.65 44.68zM26.78 48.74c.45-.63.68-1.48.68-2.53 0-1.05-.23-1.9-.68-2.53-.47-.65-1.14-.98-2.01-.98-.87 0-1.55.33-2.02.98-.45.63-.68 1.48-.68 2.53 0 1.05.23 1.9.68 2.53.46.65 1.14.98 2.02.98C25.64 49.72 26.31 49.39 26.78 48.74zM25.84 47.97c-.25.39-.6.58-1.07.58-.47 0-.82-.19-1.07-.58-.26-.42-.4-1.01-.4-1.76 0-.75.13-1.34.4-1.75.25-.39.6-.58 1.07-.58.47 0 .82.19 1.07.58.26.42.4 1 .4 1.75C26.24 46.96 26.1 47.56 25.84 47.97zM63.99 37.36H35.13c-.54 0-.97-.43-.97-.97V10.3c0-.26.1-.5.28-.69l8.3-8.29c.18-.18.43-.28.68-.28h20.56c.54 0 .97.43.97.97v34.38C64.96 36.92 64.52 37.36 63.99 37.36zM36.1 35.42h26.92V2.98H43.83L36.1 10.7V35.42z"/><path d="M43.43 11.27h-8.3c-.39 0-.75-.24-.89-.6-.15-.36-.07-.78.21-1.06l8.3-8.29c.28-.28.69-.36 1.06-.21.36.15.6.5.6.89v8.29C44.4 10.84 43.97 11.27 43.43 11.27zM37.47 9.34h5V4.35L37.47 9.34zM41.14 24.92c-.87 0-1.55.33-2.02.98-.45.63-.68 1.48-.68 2.53s.23 1.9.68 2.53c.46.65 1.14.98 2.02.98.87 0 1.54-.33 2.01-.98.45-.63.68-1.48.68-2.53s-.23-1.9-.68-2.53C42.69 25.24 42.01 24.92 41.14 24.92zM42.61 28.42c0 .75-.13 1.35-.4 1.76-.25.39-.6.58-1.07.58-.47 0-.82-.19-1.07-.58-.26-.42-.4-1.01-.4-1.76 0-.75.13-1.34.4-1.75.25-.39.6-.58 1.07-.58.47 0 .82.19 1.07.58C42.48 27.09 42.61 27.67 42.61 28.42zM48.53 30.67h-.72v-5.02c0-.18-.06-.33-.19-.45-.12-.12-.28-.19-.45-.19h-.19c-.12 0-.23.03-.35.09l-1.25.65c-.23.11-.35.3-.35.55 0 .17.06.31.17.42.11.11.26.17.42.17.08 0 .18-.02.3-.07l.66-.33v4.18h-.91c-.16 0-.3.06-.42.17-.11.11-.16.26-.16.41 0 .16.06.3.17.41v0c.11.11.25.17.41.17h2.85c.16 0 .3-.06.42-.16.11-.11.17-.25.17-.42 0-.16-.06-.3-.17-.42C48.83 30.73 48.69 30.67 48.53 30.67zM52.74 24.92c-.87 0-1.55.33-2.02.98-.45.63-.68 1.48-.68 2.53s.23 1.9.68 2.53c.46.65 1.14.98 2.02.98.87 0 1.54-.33 2.01-.98.45-.63.68-1.48.68-2.53s-.23-1.9-.68-2.53C54.28 25.24 53.61 24.92 52.74 24.92zM54.21 28.42c0 .75-.13 1.35-.4 1.76-.25.39-.6.58-1.07.58-.47 0-.82-.19-1.07-.58-.26-.42-.4-1.01-.4-1.76 0-.75.13-1.34.4-1.75.25-.39.6-.58 1.07-.58.47 0 .82.19 1.07.58C54.07 27.09 54.21 27.67 54.21 28.42zM60.54 30.84c-.11-.11-.26-.17-.42-.17H59.4v-5.02c0-.18-.06-.33-.19-.45-.12-.12-.28-.19-.45-.19h-.19c-.12 0-.23.03-.35.09l-1.25.65c-.23.11-.35.3-.35.55 0 .17.06.31.17.42.11.11.26.17.42.17.08 0 .18-.02.3-.07l.66-.33v4.18h-.91c-.16 0-.3.06-.42.17-.11.11-.16.26-.16.41 0 .16.06.3.17.41v0c.11.11.25.17.41.17h2.85c.16 0 .3-.06.42-.16.11-.11.17-.25.17-.42C60.71 31.1 60.65 30.95 60.54 30.84zM39.17 17.08c.08 0 .18-.02.3-.07l.66-.33v4.18h-.91c-.16 0-.3.06-.42.17-.11.11-.16.26-.16.41 0 .16.06.3.17.41v0c.11.11.25.17.41.17h2.85c.16 0 .3-.06.42-.16.11-.11.17-.25.17-.42 0-.16-.06-.3-.17-.42-.11-.11-.26-.17-.42-.17h-.72v-5.02c0-.18-.06-.33-.19-.45-.12-.12-.28-.19-.45-.19h-.19c-.12 0-.23.03-.35.09l-1.25.65c-.23.11-.35.3-.35.55 0 .17.06.31.17.42C38.86 17.02 39.01 17.08 39.17 17.08zM48.3 21.14c.45-.63.68-1.48.68-2.53 0-1.05-.23-1.9-.68-2.53-.47-.65-1.14-.98-2.01-.98-.87 0-1.55.33-2.02.98-.45.63-.68 1.48-.68 2.53s.23 1.9.68 2.53c.46.65 1.14.98 2.02.98C47.16 22.12 47.83 21.79 48.3 21.14zM47.36 20.37c-.25.39-.6.58-1.07.58-.47 0-.82-.19-1.07-.58-.26-.42-.4-1.01-.4-1.76 0-.75.13-1.34.4-1.75.25-.39.6-.58 1.07-.58.47 0 .82.19 1.07.58.26.42.4 1 .4 1.75C47.76 19.36 47.63 19.96 47.36 20.37zM50.77 17.08c.08 0 .18-.02.3-.07l.66-.33v4.18h-.91c-.16 0-.3.06-.42.17-.11.11-.16.26-.16.41 0 .16.06.3.17.41v0c.11.11.25.17.41.17h2.85c.16 0 .3-.06.42-.16.11-.11.17-.25.17-.42 0-.16-.06-.3-.17-.42-.11-.11-.26-.17-.42-.17h-.72v-5.02c0-.18-.06-.33-.19-.45-.12-.12-.28-.19-.45-.19h-.19c-.12 0-.23.03-.35.09l-1.25.65c-.23.11-.35.3-.35.55 0 .17.06.31.17.42C50.46 17.02 50.6 17.08 50.77 17.08zM59.9 21.14c.45-.63.68-1.48.68-2.53 0-1.05-.23-1.9-.68-2.53-.47-.65-1.14-.98-2.01-.98-.87 0-1.55.33-2.02.98-.45.63-.68 1.48-.68 2.53s.23 1.9.68 2.53c.46.65 1.14.98 2.02.98C58.75 22.12 59.43 21.79 59.9 21.14zM58.95 20.37c-.25.39-.6.58-1.07.58-.47 0-.82-.19-1.07-.58-.26-.42-.4-1.01-.4-1.76 0-.75.13-1.34.4-1.75.25-.39.6-.58 1.07-.58.47 0 .82.19 1.07.58.26.42.4 1 .4 1.75C59.35 19.36 59.22 19.96 58.95 20.37zM49.56 55.77h-9.88c-.54 0-.97-.43-.97-.97s.43-.97.97-.97h8.91v-5.34c0-.53.43-.97.97-.97s.97.43.97.97v6.3C50.53 55.33 50.09 55.77 49.56 55.77zM49.56 46.18c-.54 0-.97-.43-.97-.97v-1.34c0-.53.43-.97.97-.97s.97.43.97.97v1.34C50.53 45.75 50.09 46.18 49.56 46.18z"/><path d="M42.43,58.53c-0.25,0-0.5-0.09-0.68-0.28l-2.76-2.76c-0.38-0.38-0.38-0.99,0-1.37l2.76-2.76c0.38-0.38,0.99-0.38,1.37,0
					c0.38,0.38,0.38,0.99,0,1.37l-2.08,2.08l2.08,2.08c0.38,0.38,0.38,0.99,0,1.37C42.93,58.43,42.68,58.53,42.43,58.53z"/><g><path d="M16.44 18.47c-.54 0-.97-.43-.97-.97v-6.3c0-.53.43-.97.97-.97h9.88c.54 0 .97.43.97.97s-.43.97-.97.97h-8.91v5.34C17.41 18.04 16.98 18.47 16.44 18.47zM16.44 23.09c-.54 0-.97-.43-.97-.97v-1.34c0-.53.43-.97.97-.97.54 0 .97.43.97.97v1.34C17.41 22.66 16.98 23.09 16.44 23.09z"/><path d="M23.57,14.93c-0.25,0-0.5-0.09-0.68-0.28c-0.38-0.38-0.38-0.99,0-1.37l2.08-2.08l-2.08-2.08
						c-0.38-0.38-0.38-0.99,0-1.37c0.38-0.38,0.99-0.38,1.37,0l2.76,2.76c0.18,0.18,0.28,0.43,0.28,0.68s-0.1,0.5-0.28,0.68
						l-2.76,2.76C24.06,14.84,23.81,14.93,23.57,14.93z"/></g></svg>