<svg xmlns="http://www.w3.org/2000/svg" viewBox="0 0 64 64"><polygon fill="#e9e9ea" points="45 56 46 63 51 56 45 56"/><polygon fill="#64c37d" points="37 18 51 56 45 56 32 21 37 18"/><polygon fill="#64c37d" points="27 18 13 56 19 56 32 21 27 18"/><rect width="6" height="10" x="29" y="1" fill="#e9656c"/><path fill="#16bb87" d="M32,8c-4.418,0-8,3.582-8,8s3.582,8,8,8,8-3.582,8-8-3.582-8-8-8Zm0,11c-1.657,0-3-1.343-3-3s1.343-3,3-3,3,1.343,3,3-1.343,3-3,3Z"/><rect width="6" height="36" x="13" y="20" fill="#eb9a43"/><path fill="#e9e9ea" d="M16,15h0c1.656,0,3,1.344,3,3v2h-6v-2c0-1.656,1.344-3,3-3Z"/><polygon fill="#3e3d42" points="16 63 13 56 19 56 16 63"/><rect width="4" height="8" x="30" y="40" fill="#e9656c"/><polygon fill="#898890" points="25 39 11 39 11 35 27 35 25 39"/><path d="M51.938,55.654l-3.925-10.654h1.987v-2h-2.724l-8.003-21.722c1.081-1.485,1.726-3.305,1.726-5.278,0-3.525-2.042-6.574-5-8.05V1c0-.552-.448-1-1-1h-6c-.552,0-1,.448-1,1V7.95c-2.958,1.476-5,4.526-5,8.05,0,1.973,.646,3.793,1.726,5.278l-4.683,12.722h-.043V18c0-2.206-1.794-4-4-4s-4,1.794-4,4v16h-1c-.552,0-1,.448-1,1v4c0,.552,.448,1,1,1h1v16c0,.135,.027,.27,.081,.394l3,7c.157,.368,.519,.606,.919,.606s.762-.238,.919-.606l3-7c.007-.016,4.233-11.394,4.233-11.394h4.848v3c0,.552,.448,1,1,1h4c.552,0,1-.448,1-1v-3h4.848l4.177,11.248,.985,6.894c.058,.404,.356,.733,.753,.83,.079,.019,.158,.028,.237,.028,.318,0,.624-.152,.814-.419l5-7c.192-.269,.239-.616,.125-.927Zm-14.192-32.735l7.398,20.081h-3.906l-6.812-18.342c1.233-.346,2.361-.941,3.32-1.739ZM30,2h4V7.232c-.644-.147-1.312-.232-2-.232s-1.356,.085-2,.232V2Zm2,7c3.86,0,7,3.14,7,7s-3.14,7-7,7-7-3.14-7-7,3.14-7,7-7Zm-5.747,13.919c.959,.797,2.087,1.393,3.32,1.739l-3.469,9.342h-3.93l4.079-11.081Zm-12.253-4.919c0-1.103,.897-2,2-2s2,.897,2,2v1h-4v-1Zm0,3h4v13h-4v-13Zm-2,15h13.361l-.743,2H12v-2Zm11.875,4l-3.875,10.435v-10.435h3.875Zm-5.875,0v15h-4v-15h4Zm-2,20.461l-1.484-3.461h2.967l-1.484,3.461Zm17-13.461h-2v-6h2v6Zm2-4v-3c0-.552-.448-1-1-1h-4c-.552,0-1,.448-1,1v3h-4.105l6.693-18.021c.138,.006,.273,.021,.413,.021s.275-.015,.413-.021l6.693,18.021h-4.105Zm6.982,2h3.9l3.684,10h-3.871l-3.714-10Zm4.656,15.388l-.484-3.388h2.904l-2.42,3.388Z"/><path d="M32,20c2.206,0,4-1.794,4-4s-1.794-4-4-4-4,1.794-4,4,1.794,4,4,4Zm0-6c1.103,0,2,.897,2,2s-.897,2-2,2-2-.897-2-2,.897-2,2-2Z"/></svg>