<svg xmlns="http://www.w3.org/2000/svg" data-name="Layer 2" viewBox="0 0 1300 1640"><defs><linearGradient id="a" x1="369.71" x2="744.23" y1="370.91" y2="1115.21" gradientUnits="userSpaceOnUse"><stop offset="0" stop-color="#0e52a4"/><stop offset="1" stop-color="#103349"/></linearGradient></defs><path fill="#8095b5" d="M737.62 80.67c-7.21-4.18-17.19-3.59-28.2 2.77L338.63 297.51c-21.87 12.63-39.54 43.23-39.47 68.36l2.39 988c0 12.48 4.44 21.27 11.55 25.4l35.32 20.45c-7.11-4.13-11.52-12.91-11.55-25.4l-2.39-988c-.07-25.14 17.59-55.74 39.47-68.37l370.78-214.06c11-6.36 21-7 28.2-2.76Z"/><path fill="#7589a6" d="m348.42 1399.71-35.32-20.45c-7.11-4.13-11.51-12.92-11.55-25.4l35.32 20.45c.03 12.49 4.44 21.27 11.55 25.4ZM737.62 80.67l35.31 20.46c-7.2-4.19-17.18-3.6-28.2 2.76l-35.31-20.45c11.01-6.36 20.99-6.95 28.2-2.77Z"/><path fill="#94abd1" d="m334.48 386.33-35.32-20.46c-.07-25.13 17.6-55.73 39.47-68.36L374 318c-21.93 12.59-39.59 43.19-39.52 68.33Z"/><path fill="#c0cce2" d="M744.73 103.89c21.88-12.63 39.68-2.51 39.75 22.63l2.39 988c.07 25.13-17.61 55.75-39.49 68.37L376.6 1397c-21.88 12.63-39.66 2.5-39.73-22.64l-2.39-988c-.07-25.14 17.59-55.74 39.47-68.37Z"/><path fill="url(#a)" d="M363.36 386.24c0-14.78 12.12-35.81 25-43.26L755.61 131l2.39 983.58c0 14.79-12.13 35.82-25 43.28l-367.2 212Z"/><path fill="#8cd2e2" d="m613.37 872.98-.06-20.22 97.88-56.51.06 20.22-97.88 56.51zM638.29 797.03 711.08 755l.05 20.23-72.78 42.02-.06-20.22zM613.78 1017.18l-.06-20.22 97.88-56.52.06 20.22-97.88 56.52zM638.7 941.22l72.78-42.02.06 20.24-72.78 42.03-.06-20.25zM600.92 921.48l-.05-20.22 110.44-63.76.06 20.22-110.45 63.76zM601.33 1065.67l-.05-20.22 110.44-63.76.05 20.22-110.44 63.76zM616.95 953.78l.05 20.25-47.68 27.53-.06-20.25 47.69-27.53zM518.92 968.82l-.05-20.22 60.24-34.78.06 20.22-60.25 34.78zM493.71 942.07l-.06-20.22 97.91-56.53.05 20.22-97.9 56.53zM519.33 1113.02l-.05-20.22 60.24-34.79.06 20.22-60.25 34.79zM423.12 1168.56l-.05-20.22 72.78-42.02.06 20.22-72.79 42.02zM470.64 1079.57l.05 20.22-47.68 27.53-.06-20.22 47.69-27.53zM545.83 994.84l.06 20.24-123 71.02-.06-20.25 123-71.01zM494.12 1086.26l-.06-20.22 97.91-56.53.05 20.23-97.9 56.52zM422.71 1024.37l-.05-20.22 72.78-42.02.06 20.22-72.79 42.02zM470.23 935.37l.06 20.22-47.69 27.54-.06-20.23 47.69-27.53zM545.42 850.64l.06 20.22-123 71.02-.06-20.22 123-71.02zM616.54 809.59l.06 20.22-47.69 27.53-.06-20.22 47.69-27.53zM551.37 548.25a14 14 0 0 0 4.41-7.35 119.88 119.88 0 0 1 3.87-13.62c1-2.71.83-5.21-.3-6.62L551 510.23c-.73-.91-.57-2.75.41-4.43l10.46-18.13a6 6 0 0 1 2.09-2.2 2.56 2.56 0 0 1 1.56-.39l13 1.86a5.1 5.1 0 0 0 3.2-.79 11 11 0 0 0 2.8-2.41 121 121 0 0 1 9.27-9.86 13.93 13.93 0 0 0 4-7.36l3.57-20.28a6.61 6.61 0 0 1 2.88-4.3l14.76-8.57c1.38-.8 2.58-.4 2.89 1l3.67 16.1a3.22 3.22 0 0 0 4 2.72 40.32 40.32 0 0 1 8.35-.87 5.47 5.47 0 0 0 2.71-.83 11.13 11.13 0 0 0 3.19-2.9l14.61-19a5.59 5.59 0 0 1 1.57-1.43 2.12 2.12 0 0 1 2.09-.21l10.54 6c1 .56 1.15 2.2.42 4l-9.08 22c-1.12 2.71-1.21 5.36-.25 7a38.77 38.77 0 0 1 3.2 6.7 3.23 3.23 0 0 0 4.35 2L689 470c1.35-.42 2.3.4 2.31 2v17.07a6.61 6.61 0 0 1-2.29 4.62L672 508a14 14 0 0 0-4.38 7.21c-.77 3.33-1.71 6.66-2.79 10-.86 2.63-.72 5 .37 6.4l9.8 12.22c.73.91.56 2.76-.4 4.43l-10.48 18.13a5.91 5.91 0 0 1-2.08 2.2 2.49 2.49 0 0 1-1.56.39L646 566.87a5.14 5.14 0 0 0-3.21.79 11 11 0 0 0-2.86 2.49c-2.43 2.94-5 5.74-7.59 8.38a14 14 0 0 0-3.75 7.1l-3.91 22.16a6.59 6.59 0 0 1-2.86 4.29L604.64 622l-4.18-18.28a3.25 3.25 0 0 0-4.25-2.66 43.62 43.62 0 0 1-8.83 1.32 5.81 5.81 0 0 0-2.54.82 11.32 11.32 0 0 0-3.2 2.9l-14.11 18.36a5.58 5.58 0 0 1-1.53 1.44 2.11 2.11 0 0 1-2.09.2l-10.54-6c-1-.56-1.15-2.19-.42-4l8-19.42c1.16-2.81 1.21-5.56.13-7.14a37.88 37.88 0 0 1-4.29-8.4 3.23 3.23 0 0 0-4.35-2L537 584.06c-1.33.42-2.29-.39-2.29-2l-.05-17.06a6.57 6.57 0 0 1 2.28-4.62ZM612 568.59c19.82-11.44 35.83-39.18 35.77-62s-16.19-32-36-20.52-35.84 39.19-35.77 62 16.18 32 36 20.52Z"/><path fill="#8cd2e2" d="M440.25 692.4a10.33 10.33 0 0 0 2.28-6.33 66.59 66.59 0 0 1 .36-10.1c.23-2.08-.44-3.64-1.77-4.1l-9.86-3.47c-.86-.32-1.13-1.55-.64-3l5.25-15.4a5.2 5.2 0 0 1 2.14-2.78 2.55 2.55 0 0 1 .54-.24l12-3.71a5.45 5.45 0 0 0 1.12-.49 10 10 0 0 0 3.53-3.8 113.09 113.09 0 0 1 6.07-9.75 9.83 9.83 0 0 0 1.91-6.17l-1.42-14.25a5.19 5.19 0 0 1 1.59-3.8l11.37-11a3.68 3.68 0 0 1 .77-.59 1.5 1.5 0 0 1 2 .12l7 8.85c.89 1.12 2.45 1.23 4.23.2l.8-.47a55.81 55.81 0 0 1 6.49-3.22 6.77 6.77 0 0 0 .66-.33 10.23 10.23 0 0 0 3.77-4.26l8.77-17.57a5 5 0 0 1 1.87-2.1 2.13 2.13 0 0 1 1-.32l10.92-.22c1 0 1.53.95 1.28 2.35l-3.13 17.39c-.39 2.15.13 3.86 1.37 4.53a21.72 21.72 0 0 1 4.39 3c.93.83 2.35.79 3.84-.07l.51-.32 14.86-10.36c1-.58 1.91-.37 2.25.56L552.3 602a4.43 4.43 0 0 1-1 3.8l-12 15.54a10.43 10.43 0 0 0-2.29 6.23 64 64 0 0 1-.23 7.4c-.17 2 .51 3.45 1.79 3.91l11.51 4.12c.87.3 1.14 1.53.66 3l-5.26 15.46a5.29 5.29 0 0 1-2.14 2.78 3 3 0 0 1-.55.24l-13.45 4.13a5.38 5.38 0 0 0-1.11.49 10.09 10.09 0 0 0-3.59 3.89q-2.25 4.17-4.9 8.18a9.65 9.65 0 0 0-1.74 5.92l1.54 15.54a5.07 5.07 0 0 1-1.59 3.81l-13.16 12.79-7.91-10c-.89-1.14-2.47-1.23-4.4-.1-.87.55-1.74 1.08-2.6 1.58-1.68 1-3.36 1.84-5 2.6l-.54.27a10.19 10.19 0 0 0-3.75 4.24l-8.48 17a4.88 4.88 0 0 1-1.85 2.08 2.18 2.18 0 0 1-1.05.33l-10.82.16c-1 0-1.53-1-1.28-2.36l2.77-15.36c.4-2.22-.17-4-1.51-4.58a22.26 22.26 0 0 1-5.76-3.72c-.93-.83-2.35-.79-3.84.07a5.91 5.91 0 0 0-.5.32l-13 9c-1 .58-1.93.38-2.27-.54l-3.93-10.83a4.45 4.45 0 0 1 1-3.8Zm22-9.37c4.16 11.47 15.46 13.69 27.54 6.71a48.28 48.28 0 0 0 9.41-7.24c15.16-14.73 23.2-38.38 17.95-52.83C513 618.19 501.72 616 489.64 623a48.28 48.28 0 0 0-9.41 7.24c-15.16 14.73-23.2 38.38-18 52.83ZM526.52 455.29a8.32 8.32 0 0 0 1.81-5 52 52 0 0 1 .29-8c.18-1.64-.36-2.88-1.41-3.25l-7.83-2.76c-.68-.25-.9-1.22-.51-2.36l4.13-12.33a4.14 4.14 0 0 1 1.7-2.2 2.07 2.07 0 0 1 .43-.2l9.56-2.93a4.16 4.16 0 0 0 .87-.39 8 8 0 0 0 2.82-3q2.21-4 4.82-7.75a7.79 7.79 0 0 0 1.51-4.9l-1.12-11.3a4.06 4.06 0 0 1 1.26-3l9-8.76a3 3 0 0 1 .62-.48c.64-.37 1.26-.35 1.61.1l5.53 7c.7.89 2 1 3.35.16l.66-.38a43.76 43.76 0 0 1 5.13-2.56 3.4 3.4 0 0 0 .54-.27 8 8 0 0 0 3-3.37l7-13.94a4 4 0 0 1 1.47-1.67 1.86 1.86 0 0 1 .83-.26l8.58-.11c.8 0 1.22.76 1 1.86L590.72 377c-.31 1.69.1 3.07 1.08 3.59a17.87 17.87 0 0 1 3.49 2.42c.74.66 1.87.63 3.06-.06l.39-.24 11.78-8.22c.81-.47 1.54-.31 1.8.44l3.12 8.59a3.51 3.51 0 0 1-.79 3l-9.54 12.34a8.23 8.23 0 0 0-1.82 4.95 50.55 50.55 0 0 1-.18 5.86c-.14 1.58.4 2.75 1.42 3.11l9.18 3.24c.69.24.91 1.22.52 2.36l-4.17 12.27a4.26 4.26 0 0 1-1.7 2.21 2.78 2.78 0 0 1-.44.19l-10.68 3.28a4.13 4.13 0 0 0-.89.4 7.85 7.85 0 0 0-2.83 3.07q-1.8 3.31-3.89 6.49a7.69 7.69 0 0 0-1.39 4.71l1.23 12.34a4.16 4.16 0 0 1-1.27 3l-10.45 10.14-6.27-8c-.72-.89-2-1-3.51-.06-.67.43-1.35.84-2 1.23q-2 1.17-4 2.08a4.11 4.11 0 0 0-.42.21 8.28 8.28 0 0 0-3 3.37l-6.72 13.48a4.09 4.09 0 0 1-1.47 1.66 1.76 1.76 0 0 1-.84.25l-8.58.12c-.79 0-1.22-.76-1-1.86l2.2-12.2c.31-1.76-.14-3.16-1.2-3.63a17.35 17.35 0 0 1-4.58-3 2.55 2.55 0 0 0-3 .06 4.65 4.65 0 0 0-.41.26l-10.3 7.17c-.8.47-1.53.3-1.79-.43l-3.12-8.6a3.53 3.53 0 0 1 .79-3Zm17.48-7.45c3.31 9.11 12.28 10.87 21.87 5.33a38.55 38.55 0 0 0 7.46-5.75c12-11.69 18.43-30.47 14.27-41.94-3.32-9.11-12.29-10.87-21.87-5.33a38.3 38.3 0 0 0-7.47 5.75c-12 11.69-18.42 30.47-14.26 41.94ZM466.82 517.74a3.11 3.11 0 0 1-1.58-.43 3.14 3.14 0 0 1-1.58-2.73v-66.65a3.16 3.16 0 0 1 6.32 0v61.17l37.41-21.58a3.16 3.16 0 0 1 3.16 5.47l-42.15 24.32a3.08 3.08 0 0 1-1.58.43ZM495.27 421.18l-56.89 32.85v-19.76l56.89-32.84v19.75zM679.64 643.91a3.17 3.17 0 0 1-3.16-3.16v-61.18L651.57 594a3.16 3.16 0 1 1-3.16-5.47l29.65-17.12a3.16 3.16 0 0 1 4.74 2.74v66.65a3.16 3.16 0 0 1-3.16 3.11ZM711.25 652.58l-56.89 32.85v-19.75l56.89-32.85v19.75z"/><path fill="#de762c" d="M934.67 717.35s27.24 8.84 44.08 58.31 22.09 100 22.09 114.71S944 975.51 944 975.51l-33.68-44.59Z"/><path fill="#fba337" d="M810 751.15c11-6.84 34.89-20.9 53.76-27 17.27-5.57 39.91-12.17 55.83-11 21.27 1.57 40.66 21.5 44.81 39.51 16 69.41-13.31 101.95-4.2 166.09 1.92 13.52 7.58 67.69 4.78 74.47-3.23 7.78-.82 14.06-21.36 28.1-18.13 12.4-57.62 23.68-85.36 23.68-25.24 0-39.5-.08-57.59-15.15-6.31-5.26-11.94-2.65-3.24-54.3 2.72-16.16-.36-42.62-.18-59 .32-29.28-17.61-63.68-18.93-93-.58-12.81-14.87-43.55 31.68-72.4Z"/><path fill="#f08b2e" d="M825.87 944.76c-14.63-9.46-15.4-39.48-19.35-58.84s0-52.46 0-52.46l-25.87 7.32c5.17 25 16.86 52 16.6 75.74-.16 14.11 2.11 35.72 1 51.77 3.57 1.77 42.26-14.07 27.62-23.53Z"/><path fill="#f08b2e" d="M869.05 833.46s-22.37-89.24-64.89-78.46c.12 0 21.33.88 30.73 25.57s17.76 36.82 21.46 68.57c3.27 28-19 149.32-54.76 68a44.46 44.46 0 0 0-4.34 2.42c.15 14 2 33.77 1 48.7 1.07.81 2.16 1.62 3.35 2.45 46.41 32.13 90.1-6.33 90.1-6.33Z"/><path fill="#de762c" d="M986.68 1469.86c1.06 6.79 2.27 17.61.11 24.13s-7.55 10.32-14.29 11.66c-11.29 2.25-19.66-6.18-30.69-9.47s-21.89-3.38-32.81-7.18c-4.79-1.67-12.56-4.69-16.31-8.76a32.78 32.78 0 0 1-7-27.63c.72-3.23 4.54-2.57 7.89-3.06 11-1.62 28.16 3.36 38.57-.7 8.83-3.45 19.62-5.47 28.93-7.21 19.84-3.73 23.18 12.77 25.6 28.22Z"/><path fill="#262626" d="M986.44 1460.58c1.06 6.79 2.51 20.3.35 26.83s-7.55 10.31-14.29 11.66c-11.29 2.25-19.66-6.18-30.69-9.47s-21.89-3.39-32.79-7.19c-4.79-1.67-12.56-4.7-16.31-8.77-4.26-4.62-8.07-15.61-6.74-22.74.61-3.26 4.27-7.46 7.62-8 11-1.61 28.16 3.37 38.57-.7 8.83-3.44 19.62-5.46 28.93-7.21 19.83-3.67 22.91 10.14 25.35 25.59Z"/><path fill="#de762c" d="M963.38 1502.07a88.69 88.69 0 0 1 0-21.07c2.5-18.22 22.58-22 22.78-22l.55 3.11c-.73.13-18 3.39-20.2 19.3a87.43 87.43 0 0 0 0 20.22Z"/><path fill="#333" d="M979.27 1236.52c13.75 57.49 24.13 62.92 11.55 194.82-2.22 23.32.6 32.59-16.79 38.71-15 5.3-31 1.13-41.93-10.48-5.61-6-6.34-26.52-8.14-38.64-5.46-36.58-10.56-79.22-16-115.81-3.7-24.8-16.35-54.18-23-78.37-24.35-89.31-75.11-242.3-7-247.09 59-4.15 87.18-52.68 87.18-52.68 7.12 26.8 15.19 61.84 17.12 82.54 6 65-11.21 111.59-6.74 175.45 1.17 15.74-.28 34.7 3.75 51.55Z"/><path fill="#292929" d="M948.35 1075.8c-15.8 12.09-38 9.72-38 9.72l-65-25.25c5.76 51.93 26.5 118.42 39.6 166.48 6.6 24.19 19.25 53.57 23 78.37 5.46 36.59 10.56 79.23 16 115.81 1.8 12.12 2.53 32.68 8.14 38.64a41.69 41.69 0 0 0 9.2 7.37c-.5-29.25-3.75-174.87-4.5-191.73s-5.57-16.85-16.63-31.6-4.21-87.45 0-116.29 44-63.61 28.19-51.52Z"/><path fill="#de762c" d="M820.36 1561.12c-13.27 3.49-30.57-4.41-36.48-5.95-15.2-4-22.78-.25-36-2.72-7.18-1.34-11.83-2.1-16.68-7.56-5.14-5.76-9-10.83-9.88-18.14-.5-4.28.27-16.29 4.2-18.06 3.69-1.67 19 3.13 26.55 3.25 12.76.22 34.11-4.15 46.07-6.48 10.06-2 16.91-10.82 25.81-5 9.68 6.3 9.2 13.76 11.56 23.64 2 8.44 3.93 12.58 4.07 18.88.15 6.81-4.53 14.29-19.22 18.14Z"/><path fill="#262626" d="M820.36 1554c-13.27 3.48-30.57-4.41-36.48-6-15.2-4-22.78-.25-36-2.72-7.18-1.34-12.42-1.63-16.68-7.56-4.11-5.7-8-10.63-8.83-18-.5-4.28.92-10.55 4.85-12.33 3.68-1.66 17.35-2.8 24.85-2.67 12.76.22 34.11-4.15 46.07-6.49 10.06-2 16.91-10.81 25.81-5 9.68 6.3 12.37 13.51 11.56 23.64-1.18 14.79 13.06 29.74-15.15 37.13Z"/><path fill="#de762c" d="M811.08 1557a54.7 54.7 0 0 1 0-15.31c1.16-7.15 6.33-18 11-20.86l1.63 2.71c-3.5 2.1-8.4 11.69-9.53 18.65a52.41 52.41 0 0 0 0 14.32Z"/><path fill="#333" d="M769.21 1258.82c-1 36.87 8.52 68.55 9.17 104.53 1.63 91.05.52 147.16 3.09 151.93 4.63 8.57 20.65 15.11 38.73 12.47 11.32-1.65 14.17-6.36 17.12-17.06 27.54-100 33.66-144.34 29.65-196.5-2.44-31.64 16.51-93.66 24.72-124.32 11.13-41.55 20.17-76.85 34.27-104.36 10.74-20.93.54-61.14-1.58-116.69 0 0-52.79-9.8-93.37-9.8-27.26 0-34.65-55.32-34.65-55.32-5.49 43.81-11.76 140.35-13.82 152.08-8.25 46.96-12.02 156.15-13.33 203.04Z"/><path fill="#f5b38c" d="M870.62 746.91c-19 7.48-31.72 5.74-34.32-.68-1.79-4.43 4.24-11.88 4-16.84a85.31 85.31 0 0 0-5.15-25.59c-1.27-3.44 2-8.9 6.66-10.1 10.33-2.7 36.78-15.7 41.51-2.7.65 1.79 2.27 15.77 5.18 26.4 1.17 4.29 7.72.91 7.48 9.47-.19 6.36-15.5 16.13-25.36 20.04Z"/><path fill="#e69b73" d="M836.31 707.34a86.78 86.78 0 0 1 4 22 8.55 8.55 0 0 1 0 1.12c3.53-4.73 15.84-25.8 17.59-35 1.3-7.14-14.52 5.8-21.59 11.88Z"/><path fill="#f5b38c" d="M814.67 660.53c-1.28 5.32-3.93 13.86 4.78 34.87 1.76 4.25 4.08 18.43 17 20.52 6.42 1 22.84-6 29-8 5-1.64 20.54-16 21.21-24.11s-.22-16.29-1.41-24.35c-5-34.2-14.64-43.83-51.68-44.3-14.5-.19-18.13 5.37-19.2 17-.55 5.78 1.68 22.66.3 28.37Z"/><path fill="#603813" d="M818.36 605.6c-6.8 1.35-12.73 16.21-5.09 21.95 2.32 1.74 15.87 5.1 13.51 26.3-1.32 11.81 2.36 13.42 9.8 15.91 8 2.68 9.7 3.75 10.35 7.38 1.24 6.9.72 17.18 8.52 23 8 6 23.13 1.58 26.61-.52 8.81-5.33 16.4-22.2 18.19-31 4.64-22.79 12.23-36.1-4.79-51.34-1.74-1.56-6.08-2.7-8-4-3.84-2.67-3.16-14.32-34.69-12.07-4.46.33-22.48 2.03-34.41 4.39Z"/><path fill="#f5b38c" d="M835.18 665.53c5.45-4 14.05-3.53 13.07 5.51-2.16 20-18.48 15.43-17.7 7.56.38-3.75.95-10.36 4.63-13.07Z"/><path fill="#fba337" d="M806.26 759.5s35.24-6.89 42.56 34.94c10.82 61.82-122.44 74.55-141.38 77.23s-49-42.73-21.74-59.76 100.14-45.34 120.56-52.41Z"/><path fill="#f5b38c" d="M630.57 734.48c.63-3.27 3.08-4.32 3.3-7.64A81 81 0 0 0 634 715a46.2 46.2 0 0 0-1.48-7c-.62-2.15-1.14-3.34-2.75-3.67-1.8-.36-3 .77-3.35 3.48-.24 2.23.54 5.65.07 8.29-.37 2.12-2.22 3.74-2.59 3.56-.83-.4-6.11-21-9.86-31.27-.69-1.88-1.71-4-3.68-4.36-4.85-.82-4.11 3.44-2.7 10.08.85 4 2.47 10.25 3.42 13-3.33-3.85-10-.26-9.22 3.3-3.29-.79-6.56 2.59-7.11 4.87s.63 2.5-1.31 3.82a32.16 32.16 0 0 0-2.83 2.65c-1.23 1.12-1.06 3.08-.71 4.7 2.52 11.47 9.39 19.6 19.08 26.23 3.08 2.11 6.79 11.08 10.53 11.06 4.2 0 15.38-11.76 16.2-13.77s-5.77-12.23-5.14-15.49Z"/><path fill="#fba337" d="M702.07 870.94c-33.75-11.86-76.38-86.1-95.31-106.41a23.14 23.14 0 0 1 2.61-14.78c4.23-7.45 14.25-14.76 26.34-10.64 18.31 6.25 59.9 57.87 83.22 70.09s3.41 68.87-16.86 61.74Z"/><path fill="#333" d="M814.29 953.78s21.72 18.7 35.15-13.34c10.4-24.79 13.36-94 16-102.94s58.87-28.5 69.48-34.5c5.86-3.35 3.77 81.28 23.55 96.24 5.95 4.5 5.42 25.43 10.76 57.43 0 0-35.38 36.76-69.35 42s-88.88-33.11-85.59-44.89Z"/><path fill="#333" d="M863.77 849.14S849.51 755 804.14 755c0 0 8-8.51 13.89-8.72 0 0 14.2-4.47 32 22.3 8.71 13.06 19.27 39.37 27.56 66ZM938.17 813.56s0-85.67-27.81-100.52c0 0-11.09-2.84-14.38 2.29 0 0 30.64 14.93 28.27 104.22Z"/><path fill="#262626" d="M780.44 1070.43s15.61 21.16 49.58 20.32c0 0-9.67 60.88-9.67 74.31s-49.84 3-51.22-10.48c-4.49-43.85 11.31-84.15 11.31-84.15ZM978 982.26s11 32.79 6.07 58.93c0 0-2.12 5.73-16.47 6.7-9 .6-13.53-53.05-13.53-53.05a35.29 35.29 0 0 0 16.45-6.72ZM903.84 1011.56s10.27 54.26-4.21 59.79c-19.77 7.55-33.74 4.12-41-.21s-5.19-53.85-5.19-53.85 30.35.39 50.4-5.73Z"/></svg>