<svg xmlns="http://www.w3.org/2000/svg" viewBox="0 0 66 66"><path fill="#e1d9e1" d="M51.42 13.91H5.41C3.53 13.91 2 15.44 2 17.32v33.43c0 1.88 1.53 3.41 3.41 3.41h46.01c1.88 0 3.41-1.53 3.41-3.41V17.32c-.01-1.88-1.53-3.41-3.41-3.41z"/><path fill="#1c8fc7" d="M5.98 17.89h44.87V46.2H5.98z"/><path fill="#c3b8c3" d="M39.58 60H17.25l3.04-5.84h16.24z"/><path fill="#e1d9e1" d="M13.29 60h30.24v3.99H13.29z"/><path fill="#e5ac39" d="M28.41 25.8c-5.46 0-9.9-4.44-9.9-9.9S22.95 6 28.41 6s9.9 4.44 9.9 9.9-4.44 9.9-9.9 9.9z"/><path fill="#fff" d="M28.41 22.36c-1.14 0-2.08-.93-2.08-2.08s2.08-8.46 2.08-8.46 2.08 7.31 2.08 8.46-.93 2.08-2.08 2.08z"/><path fill="#e5653f" d="M64 48.91v-4.16l-2.49-.53a9.98 9.98 0 0 0-1.03-2.5l1.38-2.14-2.94-2.94-2.14 1.38c-.77-.45-1.61-.8-2.5-1.03l-.53-2.49h-4.16l-.53 2.49c-.89.23-1.72.58-2.5 1.03l-2.14-1.38-2.94 2.94 1.38 2.14c-.45.77-.8 1.61-1.03 2.5l-2.49.53v4.16l2.49.53c.23.89.58 1.72 1.03 2.5l-1.38 2.14 2.94 2.94 2.14-1.38c.77.45 1.61.8 2.5 1.03l.53 2.49h4.16l.53-2.49a9.98 9.98 0 0 0 2.5-1.03l2.14 1.38 2.94-2.94-1.38-2.14c.45-.77.8-1.61 1.03-2.5l2.49-.53zm-12.33 3.4c-3.02 0-5.47-2.45-5.47-5.47s2.45-5.47 5.47-5.47 5.47 2.45 5.47 5.47-2.45 5.47-5.47 5.47z"/><path fill="#ffc040" d="M28.41 2.01c-7.68 0-13.9 6.22-13.9 13.9s6.22 13.9 13.9 13.9c7.67 0 13.9-6.22 13.9-13.9s-6.22-13.9-13.9-13.9zm0 23.79c-5.46 0-9.9-4.44-9.9-9.9S22.95 6 28.41 6s9.9 4.44 9.9 9.9-4.44 9.9-9.9 9.9z"/><g fill="#2b2a3a"><path d="M43.53 59.25h-3.5l-2.26-4.34h.09c.41 0 .75-.34.75-.75s-.34-.75-.75-.75H5.41c-1.47 0-2.66-1.19-2.66-2.66V17.32c0-1.47 1.19-2.66 2.66-2.66h6.24c.41 0 .75-.34.75-.75s-.34-.75-.75-.75H5.41a4.17 4.17 0 0 0-4.16 4.16v33.43a4.17 4.17 0 0 0 4.16 4.16h13.65l-2.26 4.34h-3.5c-.41 0-.75.34-.75.75v3.99c0 .41.34.75.75.75h30.24c.41 0 .75-.34.75-.75V60a.764.764 0 0 0-.76-.75zm-22.78-4.34h15.33l2.26 4.34H18.48l2.27-4.34zm22.03 8.33H14.04v-2.49h28.75v2.49z"/><path d="M27.42 49.81c0 .55.44.99.99.99s.99-.44.99-.99-.44-.99-.99-.99-.99.44-.99.99zm36.74-5.79-2.05-.44c-.2-.63-.45-1.25-.75-1.83l1.14-1.76c.19-.3.15-.69-.1-.94l-2.94-2.94a.756.756 0 0 0-.94-.1l-1.76 1.14c-.58-.31-1.2-.56-1.83-.76l-.44-2.05a.74.74 0 0 0-.73-.59H49.6a.75.75 0 0 0-.73.59l-.44 2.05c-.63.2-1.25.45-1.83.76l-1.76-1.14a.756.756 0 0 0-.94.1l-2.94 2.94c-.25.25-.29.64-.1.94L42 41.75c-.3.58-.56 1.19-.75 1.83l-2.05.44a.74.74 0 0 0-.59.73v4.16c0 .35.25.66.59.73l2.05.44c.2.63.45 1.25.75 1.83l-1.14 1.76c-.19.3-.15.69.1.94l2.94 2.94c.25.25.64.29.94.1l1.76-1.14c.58.31 1.2.56 1.83.76l.44 2.05c.07.35.38.59.73.59h4.16c.35 0 .66-.25.73-.59l.44-2.05c.63-.2 1.24-.45 1.83-.76l1.76 1.14c.3.19.69.15.94-.1l2.94-2.94c.25-.25.29-.64.1-.94l-1.14-1.76c.3-.58.56-1.19.75-1.83l2.05-.44a.74.74 0 0 0 .59-.73v-4.16a.75.75 0 0 0-.59-.73zm-.91 4.29-1.9.41c-.28.06-.5.27-.57.54-.22.82-.54 1.6-.96 2.31-.14.24-.13.55.02.78l1.05 1.63-2.08 2.08-1.63-1.05a.754.754 0 0 0-.78-.02c-.72.42-1.5.74-2.31.96-.27.07-.48.29-.54.57l-.41 1.9H50.2l-.41-1.9a.748.748 0 0 0-.54-.57c-.81-.22-1.59-.54-2.31-.96a.754.754 0 0 0-.78.02l-1.63 1.05-2.08-2.08 1.05-1.63c.15-.24.16-.54.02-.78-.42-.72-.74-1.5-.96-2.31a.748.748 0 0 0-.57-.54l-1.9-.41v-2.95l1.9-.41c.28-.06.5-.27.57-.54.22-.82.54-1.6.96-2.31.14-.24.13-.55-.02-.78l-1.05-1.63 2.08-2.08 1.63 1.05c.24.15.54.16.78.02.72-.42 1.5-.74 2.31-.96.27-.07.48-.29.54-.57l.41-1.9h2.95l.41 1.9c.06.28.27.5.54.57.81.22 1.59.54 2.31.96.25.14.55.14.78-.02l1.63-1.05 2.08 2.08-1.05 1.63c-.15.24-.16.54-.02.78.42.72.74 1.5.96 2.31.07.27.29.48.57.54l1.9.41v2.95z"/><path d="M51.67 40.61c-3.43 0-6.22 2.79-6.22 6.22s2.79 6.22 6.22 6.22 6.22-2.79 6.22-6.22-2.79-6.22-6.22-6.22zm0 10.95c-2.61 0-4.72-2.12-4.72-4.72s2.12-4.72 4.72-4.72 4.72 2.12 4.72 4.72-2.12 4.72-4.72 4.72zM28.41 30.55c8.08 0 14.65-6.57 14.65-14.65S36.49 1.26 28.41 1.26 13.77 7.83 13.77 15.9s6.57 14.65 14.64 14.65zm0-27.79c7.25 0 13.15 5.9 13.15 13.15s-5.9 13.15-13.15 13.15-13.15-5.9-13.15-13.15 5.9-13.15 13.15-13.15z"/><path d="M28.41 26.55c5.87 0 10.65-4.78 10.65-10.65S34.28 5.26 28.41 5.26s-10.65 4.78-10.65 10.65 4.78 10.64 10.65 10.64zm-5.2-18.16.85 1.47c.14.24.39.38.65.38.13 0 .26-.03.37-.1.36-.21.48-.67.27-1.02l-.84-1.46c.97-.46 2.03-.76 3.15-.85V8.5c0 .41.34.75.75.75s.75-.34.75-.75V6.79c1.12.09 2.18.39 3.15.85l-.84 1.46a.746.746 0 0 0 .64 1.12c.26 0 .51-.13.65-.38l.85-1.47c.9.63 1.68 1.41 2.31 2.31l-1.47.85c-.36.21-.48.67-.27 1.02.14.24.39.38.65.38.13 0 .26-.03.37-.1l1.47-.83c.46.97.76 2.03.85 3.15h-1.69c-.41 0-.75.34-.75.75s.34.75.75.75h1.69a9.027 9.027 0 0 1-.85 3.15l-1.46-.84a.746.746 0 0 0-.75 1.29l1.47.85a9.126 9.126 0 0 1-15.02 0l1.47-.85c.36-.21.48-.67.27-1.02a.742.742 0 0 0-1.02-.27l-1.46.84c-.46-.97-.76-2.03-.85-3.15H21c.41 0 .75-.34.75-.75s-.34-.75-.75-.75h-1.7c.09-1.12.39-2.18.85-3.15l1.46.84c.12.07.25.1.37.1.26 0 .51-.13.65-.38.21-.36.08-.82-.27-1.02l-1.46-.84c.63-.9 1.41-1.68 2.31-2.31z"/><path d="M28.41 23.11c1.56 0 2.83-1.27 2.83-2.83 0-1.19-1.75-7.43-2.11-8.66-.09-.32-.39-.55-.72-.55s-.63.22-.72.55c-.35 1.24-2.1 7.47-2.1 8.66 0 1.56 1.26 2.83 2.82 2.83zm0-8.47c.67 2.47 1.33 5.1 1.33 5.65a1.33 1.33 0 1 1-2.66 0c.01-.56.67-3.19 1.33-5.65zm8.68 31.56c0-.41-.34-.75-.75-.75H6.73V18.64h4.91c.41 0 .75-.34.75-.75s-.34-.75-.75-.75H5.98c-.41 0-.75.34-.75.75V46.2c0 .41.34.75.75.75h30.36c.41 0 .75-.33.75-.75zm8.09-27.56h4.91V31.5c0 .41.34.75.75.75s.75-.34.75-.75V17.89c0-.41-.34-.75-.75-.75h-5.66c-.41 0-.75.34-.75.75s.34.75.75.75z"/><path d="M45.18 14.66h6.24c1.47 0 2.66 1.19 2.66 2.66V31.5c0 .41.34.75.75.75s.75-.34.75-.75V17.32a4.17 4.17 0 0 0-4.16-4.16h-6.24c-.41 0-.75.34-.75.75s.34.75.75.75z"/></g></svg>