<svg xmlns="http://www.w3.org/2000/svg" enable-background="new 0 0 66 66" viewBox="0 0 66 66"><path fill="#e6f3fa" d="M58.95,21.63c-3.43-1.6-7.5-0.88-11.09,1.55c-2.26,1.52-5.04,2.05-7.7,1.48c-0.04-0.01-0.07-0.02-0.11-0.02c-3.34-0.72-6.01-3.12-7.27-6.29c-1.23-3.13-3.33-5.6-6.2-6.94c-7.65-3.56-17.9,2.23-22.89,12.95C-1.3,35.07,0.85,46.64,8.5,50.2c3.89,1.81,8.45,1.2,12.65-1.24c3.98-2.31,8.63-3.16,13.12-2.14c0.48,0.11,0.96,0.22,1.45,0.33c2.74,0.63,5.22,1.97,7.44,3.7c0.52,0.41,1.09,0.75,1.7,1.04c6.09,2.84,14.19-1.63,18.08-9.98C66.83,33.55,65.05,24.47,58.95,21.63z"/><path fill="#e1eef4" d="M48.85,47.89c-0.61-0.28-1.18-0.63-1.7-1.04c-2.22-1.72-4.7-3.07-7.44-3.7c-0.48-0.11-0.96-0.22-1.45-0.33c-4.49-1.01-9.14-0.17-13.12,2.14c-4.2,2.44-8.76,3.05-12.65,1.24c-7.65-3.56-9.8-15.14-4.81-25.85c1.03-2.22,2.3-4.21,3.71-5.96c-3.05,2.42-5.78,5.82-7.71,9.96C-1.3,35.07,0.85,46.64,8.5,50.2c3.89,1.81,8.45,1.2,12.65-1.24c3.98-2.31,8.63-3.16,13.12-2.14c0.48,0.11,0.96,0.22,1.45,0.33c2.74,0.63,5.22,1.97,7.44,3.7c0.52,0.41,1.09,0.75,1.7,1.04c5.03,2.34,11.41-0.3,15.68-5.98C56.8,48.66,52.48,49.57,48.85,47.89z"/><circle cx="59.21" cy="8.21" r="4" fill="#e1eef4"/><circle cx="7.45" cy="57.79" r="4" fill="#f0f8fc"/><path fill="#f0f8fc" d="M61.13,29.22c-0.33-1.27-0.94-2.52-1.92-3.54c-0.97-1.02-2.38-1.68-3.81-1.76c-1.42-0.1-2.8,0.24-4.03,0.77c-0.62,0.26-1.2,0.6-1.76,0.96c-0.5,0.33-0.98,0.61-1.5,0.87c-1.03,0.51-2.12,0.88-3.25,1.1c-4.49,0.96-9.45-0.59-12.61-4.03c-0.8-0.85-1.49-1.81-2.06-2.84c-0.56-0.98-1.01-2.26-1.82-3.29c-0.78-1.03-1.78-1.93-2.95-2.47c-1.16-0.55-2.45-0.75-3.69-0.64c1.23,0.1,2.42,0.49,3.42,1.13c1,0.64,1.81,1.53,2.41,2.53c0.64,0.99,0.92,2.11,1.47,3.33c0.53,1.18,1.24,2.28,2.06,3.28c1.64,2.02,3.89,3.56,6.38,4.43c2.48,0.86,5.21,1.05,7.8,0.53c1.29-0.27,2.55-0.71,3.73-1.32c0.58-0.3,1.16-0.65,1.69-1.01c0.47-0.32,0.96-0.6,1.47-0.85c1.01-0.49,2.09-0.78,3.14-0.75c1.04,0.04,2.04,0.42,2.83,1.14c1.58,1.47,2.29,3.9,2.37,6.26c0.05,1.19-0.05,2.4-0.24,3.6c-0.22,1.2-0.54,2.38-0.95,3.55c0.6-1.08,1.11-2.22,1.49-3.42c0.36-1.2,0.59-2.45,0.68-3.72C61.57,31.79,61.46,30.49,61.13,29.22z"/><path fill="#ffab03" d="M51.32,16.96v32.08c0,1.26-1.02,2.29-2.28,2.29H16.96c-1.26,0-2.28-1.03-2.28-2.29V16.96c0-1.26,1.02-2.28,2.28-2.28h32.08C50.3,14.67,51.32,15.69,51.32,16.96z"/><rect width="26.54" height="26.55" x="19.73" y="19.73" fill="#7cb5e8"/><path fill="#fff" d="M51.32,16.96v23.59h-13.5c-6.73,0-12.19-5.46-12.19-12.19V14.68h23.4C50.3,14.68,51.32,15.69,51.32,16.96z" opacity=".3"/><path fill="#fff" d="M51.32,16.96v23.59h-13.5c-6.73,0-12.19-5.46-12.19-12.19V14.68h23.4C50.3,14.68,51.32,15.69,51.32,16.96z" opacity=".3"/><path fill="#fff" d="M50.81,38.85h0.52V16.96c0-1.26-1.03-2.28-2.28-2.28H27.41v0.77c0,1.29,1.05,2.34,2.34,2.34h18.72v18.72C48.47,37.8,49.52,38.85,50.81,38.85z" opacity=".3"/><path d="M49.04,51.96H16.96c-1.61,0-2.91-1.31-2.91-2.92V16.96c0-1.61,1.31-2.91,2.91-2.91h32.08c1.61,0,2.91,1.31,2.91,2.91v32.08C51.95,50.65,50.65,51.96,49.04,51.96z M16.96,15.31c-0.91,0-1.65,0.74-1.65,1.65v32.08c0,0.91,0.74,1.66,1.65,1.66h32.08c0.91,0,1.65-0.74,1.65-1.66V16.96c0-0.91-0.74-1.65-1.65-1.65H16.96z"/><path d="M46.27,46.91H19.73c-0.35,0-0.63-0.28-0.63-0.63V19.73c0-0.35,0.28-0.63,0.63-0.63h26.54c0.35,0,0.63,0.28,0.63,0.63v20c0,0.35-0.28,0.63-0.63,0.63c-0.35,0-0.63-0.28-0.63-0.63V20.36H20.36v25.29h25.28v-1.79c0-0.35,0.28-0.63,0.63-0.63c0.35,0,0.63,0.28,0.63,0.63v2.42C46.9,46.63,46.62,46.91,46.27,46.91z"/><path fill="#ef4a51" d="M48.2,12.34v2.33h-4.34v-2.33c0-1.2,0.97-2.17,2.17-2.17c0.59,0,1.14,0.24,1.53,0.63C47.96,11.21,48.2,11.74,48.2,12.34z"/><path fill="#fff" d="M47.56,10.8c-0.39-0.39-0.94-0.63-1.53-0.63c-0.27,0-0.53,0.06-0.77,0.15v2.35c0,0.51,0.41,0.92,0.92,0.92h2.02v-1.24C48.2,11.74,47.96,11.21,47.56,10.8z" opacity=".3"/><path fill="#ef4a51" d="M38.88,10.8c0.39,0.4,0.63,0.94,0.63,1.54v2.33h-4.34v-2.33c0-1.2,0.97-2.17,2.17-2.17C37.94,10.17,38.48,10.41,38.88,10.8z"/><path fill="#fff" d="M38.85,10.8c-0.39-0.39-0.94-0.63-1.53-0.63c-0.27,0-0.53,0.06-0.77,0.15v2.35c0,0.51,0.41,0.92,0.92,0.92h2.02v-1.24C39.49,11.74,39.25,11.21,38.85,10.8z" opacity=".3"/><path fill="#ef4a51" d="M21.51 10.8c.4.4.64.94.64 1.54v2.33h-4.34v-2.33c0-1.2.97-2.17 2.17-2.17C20.58 10.17 21.12 10.41 21.51 10.8zM30.19 10.8c.39.4.63.94.63 1.54v2.33h-4.34v-2.33c0-1.2.98-2.17 2.17-2.17C29.26 10.17 29.79 10.41 30.19 10.8z"/><path fill="#fff" d="M30.18 10.8c-.39-.39-.94-.63-1.53-.63-.27 0-.53.06-.77.15v2.35c0 .51.41.92.92.92h2.02v-1.24C30.83 11.74 30.58 11.21 30.18 10.8zM21.48 10.8c-.39-.39-.94-.63-1.53-.63-.27 0-.53.06-.77.15v2.35c0 .51.41.92.92.92h2.02v-1.24C22.12 11.74 21.88 11.21 21.48 10.8z" opacity=".3"/><path fill="#ef4a51" d="M35.17 51.32h4.34v2.34c0 .6-.24 1.14-.63 1.53-.4.4-.94.64-1.54.64-1.2 0-2.17-.98-2.17-2.17V51.32zM17.81 51.32h4.34v2.34c0 .6-.24 1.14-.64 1.53-.39.4-.93.64-1.53.64-1.2 0-2.17-.98-2.17-2.17V51.32zM26.48 51.32h4.34v2.34c0 .6-.24 1.14-.63 1.53-.4.4-.94.64-1.54.64-1.19 0-2.17-.98-2.17-2.17V51.32zM48.2 51.32v2.34c0 .6-.24 1.14-.64 1.53-.39.4-.94.64-1.53.64-1.2 0-2.17-.98-2.17-2.17v-2.34H48.2z"/><path fill="#fff" d="M18.45 55.2c.39.39.94.63 1.53.63.27 0 .53-.06.77-.15v-2.35c0-.51-.41-.92-.92-.92h-2.02v1.24C17.81 54.26 18.05 54.8 18.45 55.2zM27.16 55.2c.39.39.94.63 1.53.63.27 0 .53-.06.77-.15v-2.35c0-.51-.41-.92-.92-.92h-2.02v1.24C26.51 54.26 26.76 54.8 27.16 55.2zM35.82 55.2c.39.39.94.63 1.53.63.27 0 .53-.06.77-.15v-2.35c0-.51-.41-.92-.92-.92h-2.02v1.24C35.18 54.26 35.42 54.8 35.82 55.2zM44.53 55.2c.39.39.94.63 1.53.63.27 0 .53-.06.77-.15v-2.35c0-.51-.41-.92-.92-.92h-2.02v1.24C43.89 54.26 44.13 54.8 44.53 55.2z" opacity=".3"/><path fill="#ef4a51" d="M14.67 17.81v4.34h-2.33c-.6 0-1.15-.24-1.54-.64-.39-.39-.63-.94-.63-1.53 0-1.2.97-2.17 2.17-2.17H14.67zM12.34 35.17h2.33v4.34h-2.33c-.6 0-1.15-.24-1.54-.63-.39-.39-.63-.94-.63-1.54C10.17 36.14 11.14 35.17 12.34 35.17zM14.67 26.48v4.34h-2.33c-.6 0-1.15-.24-1.54-.63-.39-.39-.63-.94-.63-1.54 0-1.19.97-2.17 2.17-2.17H14.67zM12.34 43.86h2.33v4.34h-2.33c-.6 0-1.15-.24-1.54-.64-.39-.39-.63-.93-.63-1.53C10.17 44.83 11.14 43.86 12.34 43.86z"/><path d="M48.2 15.31h-4.34c-.35 0-.63-.28-.63-.63v-2.33c0-1.55 1.26-2.8 2.8-2.8.74 0 1.46.3 1.98.82.53.53.83 1.24.83 1.99v2.33C48.83 15.02 48.55 15.31 48.2 15.31zM44.49 14.04h3.08v-1.7c0-.41-.16-.8-.46-1.09-.28-.28-.68-.45-1.08-.45-.85 0-1.54.69-1.54 1.54V14.04zM39.51 15.31h-4.34c-.35 0-.63-.28-.63-.63v-2.33c0-1.55 1.26-2.8 2.8-2.8.74 0 1.44.29 1.98.81 0 0 .01.01.01.01.52.54.81 1.24.81 1.98v2.33C40.15 15.02 39.86 15.31 39.51 15.31zM35.8 14.04h3.08v-1.7c0-.41-.16-.79-.45-1.09-.3-.29-.69-.45-1.09-.45-.85 0-1.54.69-1.54 1.54V14.04zM22.15 15.31h-4.34c-.35 0-.63-.28-.63-.63v-2.33c0-1.55 1.26-2.8 2.8-2.8.75 0 1.45.29 1.98.82 0 0 0 0 0 0 .53.53.83 1.24.83 1.99v2.33C22.78 15.02 22.5 15.31 22.15 15.31zM18.44 14.04h3.08v-1.7c0-.41-.16-.8-.46-1.09-.29-.29-.67-.45-1.08-.45-.85 0-1.54.69-1.54 1.54V14.04zM30.83 15.31h-4.34c-.35 0-.63-.28-.63-.63s.28-.63.63-.63h3.71v-1.7c0-.41-.16-.8-.45-1.1-.29-.28-.68-.44-1.09-.44-.85 0-1.54.69-1.54 1.54 0 .35-.28.63-.63.63s-.63-.28-.63-.63c0-1.55 1.26-2.8 2.8-2.8.74 0 1.44.29 1.98.81.54.55.82 1.25.82 1.99v2.33C31.46 15.02 31.18 15.31 30.83 15.31z"/><path d="M19.97 10.8c-.35 0-.63-.28-.63-.63V6.89c0-.35.28-.63.63-.63s.63.28.63.63v3.28C20.61 10.52 20.32 10.8 19.97 10.8zM28.66 10.8c-.35 0-.63-.28-.63-.63V6.89c0-.35.28-.63.63-.63s.63.28.63.63v3.28C29.29 10.52 29.01 10.8 28.66 10.8zM37.34 10.8c-.35 0-.63-.28-.63-.63V6.89c0-.35.28-.63.63-.63.35 0 .63.28.63.63v3.28C37.97 10.52 37.69 10.8 37.34 10.8zM46.03 10.8c-.35 0-.63-.28-.63-.63V6.89c0-.35.28-.63.63-.63.35 0 .63.28.63.63v3.28C46.66 10.52 46.38 10.8 46.03 10.8zM37.34 56.47c-1.55 0-2.8-1.26-2.8-2.8v-2.34c0-.35.28-.63.63-.63h4.34c.35 0 .63.28.63.63v2.34c0 .75-.29 1.45-.82 1.98C38.79 56.17 38.09 56.47 37.34 56.47zM35.8 51.95v1.71c0 .85.69 1.54 1.54 1.54.42 0 .79-.16 1.09-.46.29-.29.45-.67.45-1.08v-1.71H35.8zM19.98 56.47c-1.55 0-2.8-1.26-2.8-2.8v-2.34c0-.35.28-.63.63-.63h4.34c.35 0 .63.28.63.63v2.34c0 .75-.3 1.46-.83 1.98C21.43 56.17 20.73 56.47 19.98 56.47zM18.44 51.95v1.71c0 .85.69 1.54 1.54 1.54.41 0 .79-.16 1.08-.45.3-.3.46-.68.46-1.09v-1.71H18.44zM28.65 56.47c-1.55 0-2.8-1.26-2.8-2.8v-2.34c0-.35.28-.63.63-.63h4.34c.35 0 .63.28.63.63 0 .35-.28.63-.63.63h-3.71v1.71c0 .85.69 1.54 1.54 1.54.42 0 .79-.16 1.09-.46.25-.25.41-.58.44-.94.03-.35.33-.6.69-.57.35.03.6.34.57.69-.06.65-.35 1.25-.81 1.71C30.11 56.17 29.4 56.47 28.65 56.47zM46.03 56.47c-1.55 0-2.8-1.26-2.8-2.8v-2.34c0-.35.28-.63.63-.63h4.34c.35 0 .63.28.63.63v2.34c0 .75-.3 1.46-.83 1.98C47.5 56.16 46.77 56.47 46.03 56.47zM44.49 51.95v1.71c0 .85.69 1.54 1.54 1.54.4 0 .8-.16 1.08-.45.3-.3.46-.68.46-1.09v-1.71H44.49z"/><path d="M19.97 59.74c-.35 0-.63-.28-.63-.63v-3.28c0-.35.28-.63.63-.63s.63.28.63.63v3.28C20.61 59.45 20.32 59.74 19.97 59.74zM28.66 59.74c-.35 0-.63-.28-.63-.63v-3.28c0-.35.28-.63.63-.63s.63.28.63.63v3.28C29.29 59.45 29.01 59.74 28.66 59.74zM37.34 59.74c-.35 0-.63-.28-.63-.63v-3.28c0-.35.28-.63.63-.63.35 0 .63.28.63.63v3.28C37.97 59.45 37.69 59.74 37.34 59.74zM46.03 59.74c-.35 0-.63-.28-.63-.63v-3.28c0-.35.28-.63.63-.63.35 0 .63.28.63.63v3.28C46.66 59.45 46.38 59.74 46.03 59.74z"/><path fill="#ef4a51" d="M55.83 37.34c0 .6-.24 1.15-.64 1.54-.39.39-.94.63-1.53.63h-2.34v-4.34h2.34C54.85 35.17 55.83 36.14 55.83 37.34zM53.66 22.15h-2.34v-4.34h2.34c1.19 0 2.17.97 2.17 2.17 0 .59-.24 1.14-.64 1.53C54.8 21.91 54.25 22.15 53.66 22.15z"/><path fill="#fff" d="M55.2,18.45c0.39,0.39,0.63,0.94,0.63,1.53c0,0.27-0.06,0.53-0.15,0.77h-2.35c-0.51,0-0.92-0.41-0.92-0.92v-2.02h1.24C54.26,17.81,54.8,18.05,55.2,18.45z" opacity=".3"/><path fill="#ef4a51" d="M55.83 46.03c0 .6-.24 1.14-.64 1.53-.39.4-.94.64-1.53.64h-2.34v-4.34h2.34C54.85 43.86 55.83 44.83 55.83 46.03zM55.83 28.65c0 .6-.24 1.15-.64 1.54-.39.39-.94.63-1.53.63h-2.34v-4.34h2.34C54.85 26.48 55.83 27.46 55.83 28.65z"/><path fill="#fff" d="M55.2 27.13c.39.39.63.94.63 1.53 0 .27-.06.53-.15.77h-2.35c-.51 0-.92-.41-.92-.92v-2.02h1.24C54.26 26.48 54.8 26.72 55.2 27.13zM55.2 35.8c.39.39.63.94.63 1.53 0 .27-.06.53-.15.77h-2.35c-.51 0-.92-.41-.92-.92v-2.02h1.24C54.26 35.16 54.8 35.4 55.2 35.8zM55.2 44.48c.39.39.63.94.63 1.53 0 .27-.06.53-.15.77h-2.35c-.51 0-.92-.41-.92-.92v-2.02h1.24C54.26 43.84 54.8 44.08 55.2 44.48zM10.81 18.45c-.39.39-.63.94-.63 1.53 0 .27.06.53.15.77h2.35c.51 0 .92-.41.92-.92v-2.02h-1.24C11.74 17.81 11.21 18.05 10.81 18.45zM10.81 27.13c-.39.39-.63.94-.63 1.53 0 .27.06.53.15.77h2.35c.51 0 .92-.41.92-.92v-2.02h-1.24C11.74 26.48 11.21 26.72 10.81 27.13zM10.81 35.8c-.39.39-.63.94-.63 1.53 0 .27.06.53.15.77h2.35c.51 0 .92-.41.92-.92v-2.02h-1.24C11.74 35.16 11.21 35.4 10.81 35.8zM10.81 44.48c-.39.39-.63.94-.63 1.53 0 .27.06.53.15.77h2.35c.51 0 .92-.41.92-.92v-2.02h-1.24C11.74 43.84 11.21 44.08 10.81 44.48z" opacity=".3"/><path d="M53.66 40.14h-2.34c-.35 0-.63-.28-.63-.63v-4.34c0-.35.28-.63.63-.63h2.34c1.55 0 2.8 1.26 2.8 2.8 0 .76-.3 1.47-.83 1.99C55.12 39.85 54.4 40.14 53.66 40.14zM51.95 38.88h1.71c.4 0 .8-.16 1.08-.45.3-.29.46-.68.46-1.09 0-.85-.69-1.54-1.54-1.54h-1.71V38.88zM53.66 22.78c-.35 0-.63-.28-.63-.63s.28-.63.63-.63c.4 0 .8-.16 1.08-.45.3-.29.46-.68.46-1.09 0-.85-.69-1.54-1.54-1.54h-1.71v3.71c0 .35-.28.63-.63.63-.35 0-.63-.28-.63-.63v-4.34c0-.35.28-.63.63-.63h2.34c1.55 0 2.8 1.26 2.8 2.8 0 .74-.3 1.46-.83 1.98C55.13 22.48 54.4 22.78 53.66 22.78zM53.66 48.83h-2.34c-.35 0-.63-.28-.63-.63v-4.34c0-.35.28-.63.63-.63h2.34c1.55 0 2.8 1.26 2.8 2.8 0 .75-.3 1.46-.83 1.98C55.13 48.53 54.4 48.83 53.66 48.83zM51.95 47.57h1.71c.4 0 .8-.16 1.08-.45.3-.3.46-.68.46-1.09 0-.85-.69-1.54-1.54-1.54h-1.71V47.57zM53.66 31.46h-2.34c-.35 0-.63-.28-.63-.63v-4.34c0-.35.28-.63.63-.63h2.34c1.55 0 2.8 1.26 2.8 2.8 0 .76-.3 1.47-.83 1.99C55.12 31.16 54.4 31.46 53.66 31.46zM51.95 30.19h1.71c.4 0 .8-.16 1.08-.45.3-.29.46-.68.46-1.09 0-.85-.69-1.54-1.54-1.54h-1.71V30.19z"/><path d="M59.11 20.6h-3.27c-.35 0-.63-.28-.63-.63s.28-.63.63-.63h3.27c.35 0 .63.28.63.63S59.45 20.6 59.11 20.6zM59.11 29.29h-3.27c-.35 0-.63-.28-.63-.63s.28-.63.63-.63h3.27c.35 0 .63.28.63.63S59.45 29.29 59.11 29.29zM59.11 37.97h-3.27c-.35 0-.63-.28-.63-.63 0-.35.28-.63.63-.63h3.27c.35 0 .63.28.63.63C59.74 37.69 59.45 37.97 59.11 37.97zM59.11 46.66h-3.27c-.35 0-.63-.28-.63-.63 0-.35.28-.63.63-.63h3.27c.35 0 .63.28.63.63C59.74 46.38 59.45 46.66 59.11 46.66zM14.67 22.78h-2.33c-.76 0-1.47-.3-1.99-.83-.51-.51-.81-1.23-.81-1.97 0-1.55 1.26-2.8 2.8-2.8h2.33c.35 0 .63.28.63.63v4.34C15.31 22.5 15.02 22.78 14.67 22.78zM12.34 18.44c-.85 0-1.54.69-1.54 1.54 0 .4.16.8.45 1.08.29.3.68.46 1.09.46h1.7v-3.08H12.34zM14.67 40.14h-2.33c-.74 0-1.47-.3-1.99-.82-.52-.52-.82-1.24-.82-1.99 0-1.55 1.26-2.8 2.8-2.8.35 0 .63.28.63.63 0 .35-.28.63-.63.63-.85 0-1.54.69-1.54 1.54 0 .41.16.81.45 1.09.28.28.68.45 1.09.45h1.7v-3.71c0-.35.28-.63.63-.63s.63.28.63.63v4.34C15.31 39.86 15.02 40.14 14.67 40.14zM14.67 31.46h-2.33c-.74 0-1.47-.3-1.99-.82-.52-.52-.82-1.24-.82-1.99 0-1.55 1.26-2.8 2.8-2.8h2.33c.35 0 .63.28.63.63v4.34C15.31 31.17 15.02 31.46 14.67 31.46zM12.34 27.11c-.85 0-1.54.69-1.54 1.54 0 .41.16.81.45 1.09.28.28.68.45 1.09.45h1.7v-3.08H12.34zM14.67 48.83h-2.33c-.76 0-1.47-.3-1.99-.83-.52-.52-.81-1.22-.81-1.97 0-1.55 1.26-2.8 2.8-2.8h2.33c.35 0 .63.28.63.63v4.34C15.31 48.55 15.02 48.83 14.67 48.83zM12.34 44.49c-.85 0-1.54.69-1.54 1.54 0 .41.16.79.45 1.08.29.3.68.46 1.09.46h1.7v-3.08H12.34z"/><path d="M10.17 20.6H6.89c-.35 0-.63-.28-.63-.63s.28-.63.63-.63h3.28c.35 0 .63.28.63.63S10.52 20.6 10.17 20.6zM10.17 29.29H6.89c-.35 0-.63-.28-.63-.63s.28-.63.63-.63h3.28c.35 0 .63.28.63.63S10.52 29.29 10.17 29.29zM10.17 37.97H6.89c-.35 0-.63-.28-.63-.63 0-.35.28-.63.63-.63h3.28c.35 0 .63.28.63.63C10.8 37.69 10.52 37.97 10.17 37.97zM10.17 46.66H6.89c-.35 0-.63-.28-.63-.63 0-.35.28-.63.63-.63h3.28c.35 0 .63.28.63.63C10.8 46.38 10.52 46.66 10.17 46.66z"/><g><polygon fill="#ef4a51" points="25.76 43.02 32.25 32.44 27.99 32.44 34.13 23.07 40.16 23.07 34.94 29.84 40.24 29.84"/></g><g opacity=".3"><polygon fill="#fff" points="40.24 29.84 38.11 31.78 33.01 31.78 38.23 25.01 32.86 25.01 34.13 23.08 40.16 23.08 34.94 29.84"/></g><g><path d="M25.76,43.65c-0.14,0-0.29-0.05-0.4-0.15c-0.24-0.2-0.3-0.55-0.14-0.82l5.9-9.62h-3.13c-0.23,0-0.44-0.13-0.56-0.33c-0.11-0.2-0.1-0.45,0.03-0.65l2.48-3.78c0.19-0.29,0.58-0.37,0.88-0.18c0.29,0.19,0.37,0.58,0.18,0.87l-1.84,2.81h3.09c0.23,0,0.44,0.12,0.55,0.32c0.11,0.2,0.11,0.44-0.01,0.64l-4.16,6.79l9.98-9.09h-3.66c-0.24,0-0.46-0.14-0.57-0.35c-0.11-0.22-0.08-0.47,0.07-0.66l4.43-5.75h-4.41l-1.45,2.21c-0.19,0.29-0.58,0.37-0.88,0.18c-0.29-0.19-0.37-0.58-0.18-0.87l1.64-2.5c0.12-0.18,0.32-0.29,0.53-0.29h6.04c0.24,0,0.46,0.14,0.57,0.35c0.11,0.22,0.08,0.47-0.07,0.66l-4.43,5.75h4.01c0.26,0,0.5,0.16,0.59,0.4c0.09,0.24,0.03,0.52-0.16,0.69L26.18,43.49C26.06,43.6,25.91,43.65,25.76,43.65z"/></g></svg>