<svg xmlns="http://www.w3.org/2000/svg" viewBox="0 0 4680 3120"><g data-name="14"><rect width="4680" height="3120" fill="#fff" data-name="4" opacity="0"/><path fill="#d5ecfa" d="M4026.22,1865.72c-43.49-222.22-295.8-424.92-295.8-424.92C3534.36,1154,3614.7,988.2,3432.77,745.63a896.14,896.14,0,0,0-236.28-217.87C2954.22,374.41,2556,283.81,2321,445.36,2183.2,540,2203.8,644,2022.07,735.39c-158.21,79.58-327,92.29-327,92.29-73.86,5.56-167.82,2.17-295.37,42.84-32.76,10.45-58.54,20.87-74.44,27.65C1213.53,945.82,1062.69,1071,943.82,1271c-23.19,39-324.11,563.11-109.71,1077.44a980.21,980.21,0,0,0,47.36,97.9c.18,1.6,1.27,3.5,3.34,5.68,19.4,31,126.53,176.59,391.82,107.3,216.39,34.37,538.47,67.23,1005.62,84.31,1103.33,40.34,1578.7-120,1578.7-120C4043.61,2427.79,4069.71,2087.93,4026.22,1865.72Z"/><path fill="#d5ecfa" d="M2068.35,409.88c-23.91-19.73-57.43-25-89.17-27.64-190.09-15.6-385.76,39.81-534.84,151.45-37.12,27.8-73.37,62.23-80.84,106.2s-1.6,83.21,119.23,122q25.39,3.36,51,4.78c137.77,7.82,277.92-25.6,395.5-93.33a648.9,648.9,0,0,0,87.64-60.41c31.73-26,61.67-56.15,75.42-93.52S2100,436,2068.35,409.88Z"/><rect width="2448.7" height="110.59" x="1311.96" y="1193.15" fill="#b1e2f9"/><rect width="1769.32" height="103.34" x="1640.29" y="819.85" fill="#b1e2f9"/><path fill="#b1e2f9" d="M3354.37 500.49h110.49a0 0 0 010 0V934.24a15.6 15.6 0 01-15.6 15.6h-94.89a0 0 0 010 0V500.49A0 0 0 013354.37 500.49zM1640.42 1016.64h0a40.23 40.23 0 01-40.19-40.27v-208a40.23 40.23 0 0140.19-40.27h0a40.24 40.24 0 0140.2 40.27v208A40.24 40.24 0 011640.42 1016.64z"/><rect width="47.57" height="192.86" x="1443.46" y="1152.01" fill="#b1e2f9" rx="4.86"/><path fill="#b1e2f9" d="M1568.49,1152h0a23.8,23.8,0,0,0-23.78,23.83v145.21a23.8,23.8,0,0,0,23.78,23.83h0a23.81,23.81,0,0,0,23.78-23.83V1175.84A23.81,23.81,0,0,0,1568.49,1152Z"/><rect width="33.22" height="312.64" x="2768.66" y="554.32" fill="#b1e2f9"/><rect width="33.22" height="312.64" x="2874.21" y="554.32" fill="#b1e2f9"/><rect width="252.59" height="179.5" x="2969.51" y="783.3" fill="#b1e2f9" rx="3.39"/><rect width="200.73" height="121.74" x="2995.45" y="812.18" fill="#b1e2f9" rx="1.98"/><path fill="#b1e2f9" d="M3031.62 829.47h0a10.06 10.06 0 00-10 10.07v67a10.06 10.06 0 0010 10.07h0a10.06 10.06 0 0010.05-10.07v-67A10.06 10.06 0 003031.62 829.47zM3074.92 829.47h0a10.06 10.06 0 00-10.05 10.07v67a10.06 10.06 0 0010.05 10.07h0a10.06 10.06 0 0010-10.07v-67A10.06 10.06 0 003074.92 829.47zM3118.22 829.47h0a10.06 10.06 0 00-10 10.07v67a10.06 10.06 0 0010 10.07h0a10.06 10.06 0 0010.05-10.07v-67A10.06 10.06 0 003118.22 829.47zM3161.52 829.47h0a10.06 10.06 0 00-10.05 10.07v67a10.06 10.06 0 0010.05 10.07h0a10.06 10.06 0 0010.05-10.07v-67A10.06 10.06 0 003161.52 829.47zM1763.93 789.38h0a24.52 24.52 0 00-24.5 24.55V932.16a24.52 24.52 0 0024.5 24.55h0a24.53 24.53 0 0024.51-24.55V813.93A24.53 24.53 0 001763.93 789.38zM1862.85 789.38h0a24.53 24.53 0 00-24.51 24.55V932.16a24.53 24.53 0 0024.51 24.55h0a24.52 24.52 0 0024.5-24.55V813.93A24.52 24.52 0 001862.85 789.38z"/><ellipse cx="2427.25" cy="2633.98" fill="#b1bedd" rx="1557.36" ry="126.02"/><rect width="1451.24" height="582.58" x="1552.12" y="2022.04" fill="#39a290"/><path fill="#9b268b" d="M3003.36,2276.85v327.77H1552.12V2444.9C1890.77,2329.77,2465.63,2775,3003.36,2276.85Z" opacity=".16"/><path fill="#31415f" d="M3023.4,2569H1548.26a35.56,35.56,0,0,0-35.52,35.59h0a35.56,35.56,0,0,0,35.52,35.6H3023.4a35.57,35.57,0,0,0,35.53-35.6h0A35.57,35.57,0,0,0,3023.4,2569Z"/><rect width="161.97" height="11.88" x="2177.57" y="1398.75" fill="#1d285c"/><rect width="202.6" height="60.03" x="2157.26" y="1340.38" fill="#1d285c"/><rect width="207.77" height="273.67" x="2153.54" y="1053.48" fill="#31415f"/><rect width="33.66" height="273.67" x="2078.2" y="1053.48" fill="#31415f"/><rect width="33.66" height="273.67" x="2402.99" y="1053.48" fill="#31415f"/><rect width="509.65" height="148.09" x="2002.6" y="978.02" fill="#f79831"/><rect width="408.36" height="36.78" x="2053.25" y="1320.89" fill="#f79831"/><rect width="240.04" height="20.03" x="2137.41" y="1152.74" fill="#4a58a6"/><rect width="240.04" height="20.03" x="2137.41" y="1192.73" fill="#4a58a6"/><rect width="240.04" height="20.03" x="2137.41" y="1232.71" fill="#4a58a6"/><rect width="240.04" height="20.03" x="2137.41" y="1272.69" fill="#4a58a6"/><path fill="#1061a0" d="M2785,982.56h-1053a34.21,34.21,0,0,1-34.18-34.25v-110H2819.22v110A34.22,34.22,0,0,1,2785,982.56Z"/><path fill="#5cbee3" d="M2837.38,920.48H1679.74c-11.46,0-20.75-13.71-20.75-30.62V794.71H2858.12v95.15C2858.12,906.77,2848.83,920.48,2837.38,920.48Z"/><path fill="#1d285c" d="M2635.4,1060.14H1885a20.18,20.18,0,0,1,0-40.35H2635.4a20.18,20.18,0,0,1,0,40.35Z"/><rect width="35.11" height="57.93" x="1921.68" y="961.03" fill="#1061a0"/><rect width="35.11" height="57.93" x="2572.73" y="961.03" fill="#1061a0"/><path fill="#1061a0" d="M1634.55,1327.12q-3.24,0-6.51-.09c-203.35-5.13-248-434.87-249.85-453.17a5.65,5.65,0,1,1,11.24-1.1c.44,4.38,45.48,438.07,238.9,443,2.13,0,4.27.07,6.36.07,111.34,0,179.44-74.39,239.66-140.17,43.33-47.36,80.75-88.22,125.47-88.22a5.65,5.65,0,1,1,0,11.3c-39.75,0-75.61,39.2-117.14,84.54C1823.9,1247.48,1751,1327.12,1634.55,1327.12Z"/><path fill="#f79831" d="M1780.36,1470.51c-1.35,0-2.68,0-4-.07-203-5.09-295.84-579.48-299.7-603.93a5.66,5.66,0,1,1,11.18-1.75c.92,5.89,95.09,589.49,288.82,594.39,1.26,0,2.52,0,3.79,0,110.93,0,163.27-123.52,209.5-232.67,33.36-78.76,62.18-146.79,108.31-146.79a5.65,5.65,0,1,1,0,11.3c-38.65,0-66.12,64.84-97.92,139.91C1955.05,1337.8,1898.81,1470.51,1780.36,1470.51Z"/><path fill="#5cbee3" d="M1053.28,852.37h542.64a0,0,0,0,1,0,0V916a.81.81,0,0,1-.81.81h-541a.81.81,0,0,1-.81-.81V852.37A0,0,0,0,1,1053.28,852.37Z"/><path fill="#0b609f" d="M3000.75,2025.43H1567.23c-33.06,0-59.85-28.15-59.85-62.87h0c0-34.73,26.79-62.88,59.85-62.88H3000.75c33.05,0,59.85,28.15,59.85,62.88h0C3060.6,1997.28,3033.8,2025.43,3000.75,2025.43Z"/><path fill="#1d285c" d="M3000.75,1912c26.52,0,48.1,22.67,48.1,50.53s-21.58,50.53-48.1,50.53H1567.23c-26.52,0-48.1-22.67-48.1-50.53s21.58-50.53,48.1-50.53Zm0-12.35H1567.23c-33.06,0-59.85,28.15-59.85,62.88h0c0,34.72,26.79,62.87,59.85,62.87H3000.75c33.05,0,59.85-28.15,59.85-62.87h0c0-34.73-26.8-62.88-59.85-62.88Z"/><ellipse cx="1568.11" cy="1962.56" fill="#00b1d1" rx="39.46" ry="41.46"/><ellipse cx="2997.59" cy="1962.56" fill="#00b1d1" rx="39.46" ry="41.46"/><rect width="65.17" height="101.53" x="2655.32" y="1911.37" fill="#1d285c"/><rect width="65.17" height="101.53" x="2806.52" y="1911.97" fill="#1d285c"/><rect width="65.17" height="101.53" x="1647.66" y="1911.98" fill="#1d285c"/><rect width="65.17" height="101.53" x="1794.75" y="1911.98" fill="#1d285c"/><rect width="65.17" height="101.53" x="1936.26" y="1911.98" fill="#1d285c"/><rect width="65.17" height="102.69" x="2073.07" y="1910.78" fill="#1d285c"/><rect width="65.17" height="102.69" x="2216.71" y="1910.78" fill="#1d285c"/><rect width="65.17" height="102.69" x="2363.5" y="1911.98" fill="#1d285c"/><rect width="65.17" height="102.69" x="2504.58" y="1911.08" fill="#1d285c"/><path fill="#5cbee3" d="M966.72,2499.41c15.1,33.43,27.82,66.4,36.11,91.19,0,0-252.47,34.81-309.35-15.12-47.87-42,10-65.7,10-65.7s-89.65-18.67-118.68-50.59c-28.37-31.2,14.71-45.12,16.77-45.8-2.74-1-36.8-13.47-68.72-39-1-.87-2-1.72-3.08-2.56-29.61-24.51-56.37-60.44-53.13-109,6.95-104.48,157.55,4.3,206.78,63.91a.7.7,0,0,1,.16.15.2.2,0,0,0,.06-.1c.68-2.78,10.81-40.9,40.85-37,9.86,1.24,22.87,12.9,36,28.32,28.44,33.17,57.61,83.61,57.61,83.61v-.07c.9-2.73,24.58-71.86,68.28-32.56C913.6,2393.62,943.07,2447.05,966.72,2499.41Z"/><path fill="#326c90" d="M829.49,2459.6c-30.88-86.85-69-103.12-89.2-59.25s-64.54,53.12-126.63-30.06-86.93-79.11-80.64-20.49a94.57,94.57,0,0,1-.2,24.62c31.92,25.5,66,38,68.72,39-2.06.68-45.14,14.6-16.77,45.8,29,31.92,118.68,50.59,118.68,50.59s-57.84,23.68-10,65.7c56.88,49.93,309.35,15.12,309.35,15.12C954.67,2490.62,860.37,2546.45,829.49,2459.6Zm13.06,115.09c-74.27,6.48-86.72-38.09-53.44-42.22C839.75,2526.13,916.82,2568.22,842.55,2574.69Z" opacity=".3"/><path fill="#326c90" d="M663.47,2343.68c-11.91,14.45,28.65,77.61,47.54,62.13S681.35,2322,663.47,2343.68Z" opacity=".3"/><path fill="#fff" d="M683.39 2326.79c-3.67-2.91-63.15-50-111-77.87-49.39-28.77-94.31-22.7-83.45 43.64 5.45 33.34 23.82 60.57 40.79 79.3-29.61-24.51-56.37-60.44-53.13-109C483.56 2158.4 634.16 2267.18 683.39 2326.79zM724.46 2289.83c9.86 1.24 22.87 12.9 36 28.32-51.56-39-75.51 6-76.87 8.69C684.29 2324.06 694.42 2285.94 724.46 2289.83zM966.72 2499.41c-44.07-79.17-85.43-131.63-107.31-130.64s-40.46 31.69-41.31 32.92c.9-2.73 24.58-71.86 68.28-32.56C913.6 2393.62 943.07 2447.05 966.72 2499.41z" opacity=".5"/><path fill="#4785c5" d="M509.58,2268.25s273.67,224,483.38,316.6C993,2584.85,663,2377.53,509.58,2268.25Z"/><path fill="#5cbee3" d="M1061.72,2513.28c-21.14,30-43.09,57.63-60.25,77.34,0,0-157.69-200.57-143.48-275C870,2253,919.6,2291,919.6,2291s-29.28-86.91-16.47-128.15c12.51-40.3,46.28-10.11,47.91-8.68-.51-2.88-7-38.62-1.21-79.1.25-1.3.45-2.63.65-4,6.12-38,23.51-79.29,66.95-101,93.47-46.86,76,138.32,49.58,211a.77.77,0,0,1,0,.2.11.11,0,0,0,.11,0c2.74-.81,40.68-11.35,52.53,16.59,3.92,9.14.47,26.28-6.16,45.45-14.17,41.35-42.84,92.08-42.84,92.08l.06,0c2.81-.61,74.31-15.12,62.58,42.53C1125.93,2413.85,1094.84,2466.35,1061.72,2513.28Z"/><path fill="#326c90" d="M1026.58,2374.55c59.15-70.63,53.85-111.82,5.88-107.06s-78.38-28.9-38.18-124.64,24.14-115.15-23.15-80a94.66,94.66,0,0,1-21.3,12.28c-5.81,40.48.7,76.22,1.21,79.1-1.63-1.43-35.4-31.62-47.91,8.68C890.32,2204.1,919.6,2291,919.6,2291S870,2253,858,2315.63c-14.21,74.42,143.48,275,143.48,275C1063.2,2498.41,967.42,2445.17,1026.58,2374.55Zm-92.83,81c-56.47-48.76-33.31-88.8-7.13-67.81C966.5,2419.69,990.22,2504.36,933.75,2455.6Z" opacity=".3"/><path fill="#326c90" d="M1042.39,2172.43c-18.46-3-52.33,64-29.44,72.52S1070.11,2176.9,1042.39,2172.43Z" opacity=".3"/><path fill="#fff" d="M1067 2181.11c.65-4.65 11.08-79.86 10.9-135.31-.22-57.24-28.17-93-79.79-50-26 21.57-40.1 51.23-47.64 75.37 6.12-38 23.51-79.29 66.95-101C1110.9 1923.22 1093.43 2108.4 1067 2181.11zM1119.61 2197.9c3.92 9.14.47 26.28-6.16 45.45 7.49-64.28-43.38-62.21-46.37-62C1069.82 2180.5 1107.76 2170 1119.61 2197.9zM1061.72 2513.28c45.87-78.14 70.12-140.42 58.2-158.83s-47.76-18.93-49.25-19c2.81-.61 74.31-15.12 62.58 42.53C1125.93 2413.85 1094.84 2466.35 1061.72 2513.28z" opacity=".5"/><path fill="#4785c5" d="M1029.48,2001.28s-54.45,349.85-28.05,577.9C1001.43,2579.18,1013,2189.12,1029.48,2001.28Z"/><path fill="#4a85c5" d="M1025,2454.47c-6.56,51.21-15.64,100.12-24,136,0,0-328.08-145.17-359.4-247.08C615.23,2257.6,702,2272,702,2272s-93.62-88.71-104.85-148.43c-11-58.37,50.89-43.16,53.86-42.45-2.53-3.24-34.15-43.37-53.57-97.54-.56-1.78-1.18-3.57-1.81-5.35-17.4-51.27-23-114.11,16.72-169.85,85.37-120,185.55,121.75,200.56,229.59a1.08,1.08,0,0,1,.08.29.21.21,0,0,0,.14-.08c2.87-2.82,43.11-41,76.23-14.09,10.89,8.78,17.88,32.37,22.26,60.57,9.6,60.78,7.35,142.8,7.35,142.8l.07-.07c3.1-2.61,82.43-67.9,105.79,11.53C1039.34,2288.43,1035.25,2374.25,1025,2454.47Z"/><path fill="#326c90" d="M889.94,2305.21c27-126.88-6.65-174.6-63.16-137s-116.47,15.86-129.51-129.73-45.79-159.09-81.48-84.22a133.51,133.51,0,0,1-18.39,29.34c19.42,54.17,51,94.3,53.57,97.54-3-.71-64.83-15.92-53.86,42.45C608.34,2183.33,702,2272,702,2272s-86.73-14.44-60.39,71.31c31.32,101.91,359.4,247.08,359.4,247.08C1017,2435,862.89,2432.1,889.94,2305.21Zm-66,154.2c-101.27-57.15-78.15-125.48-31.7-101.46C863,2394.45,925.23,2516.57,824,2459.41Z" opacity=".3"/><path fill="#326c90" d="M776.55,2043.5c-24.92,8.49-22.91,114.16,11.14,109.6S814,2030.74,776.55,2043.5Z" opacity=".3"/><path fill="#fff" d="M812.87 2038c-2.26-6.2-38.79-106.6-75.53-175.42-37.94-71-96.22-97-132.14-9.5-18.05 44-16.12 90.19-9.61 125.18-17.4-51.27-23-114.11 16.72-169.85C697.68 1688.41 797.86 1930.17 812.87 2038zM889.32 2024.13c10.89 8.78 17.88 32.37 22.26 60.57-33-84.85-94.88-48.67-98.49-46.48C816 2035.4 856.2 1997.23 889.32 2024.13zM1025 2454.47c5.59-127.45-5.26-220.9-32.21-235.91s-71.83 8-73.75 8.87c3.1-2.61 82.43-67.9 105.79 11.53C1039.34 2288.43 1035.25 2374.25 1025 2454.47z" opacity=".5"/><path fill="#2f54a4" d="M647.83,1839.25s162.62,470.91,345.56,737C993.39,2576.23,751,2083.67,647.83,1839.25Z"/><path fill="#5cbee3" d="M3797.8,2428.76c-12.49,27.67-23,54.95-29.88,75.47,0,0,208.95,28.81,256-12.51,39.61-34.78-8.26-54.38-8.26-54.38s74.2-15.45,98.23-41.87c23.48-25.82-12.18-37.34-13.88-37.9a219,219,0,0,0,56.87-32.26c.83-.72,1.69-1.42,2.55-2.12,24.51-20.28,46.66-50,44-90.19-5.75-86.48-130.39,3.56-171.14,52.89l-.13.12a.12.12,0,0,1,0-.08c-.57-2.3-8.95-33.85-33.82-30.63-8.15,1-18.92,10.67-29.8,23.44-23.54,27.45-47.69,69.2-47.69,69.2v-.06c-.74-2.26-20.34-59.48-56.51-26.94C3841.77,2341.2,3817.37,2385.42,3797.8,2428.76Z"/><path fill="#326c90" d="M3767.92,2504.23s208.95,28.81,256-12.51c39.61-34.78-8.26-54.38-8.26-54.38s74.2-15.45,98.23-41.87c23.48-25.82-12.18-37.34-13.88-37.9a219,219,0,0,0,56.87-32.26,78.45,78.45,0,0,1-.16-20.37c5.2-48.52-15.35-51.89-66.74,16.95s-88.11,61.19-104.8,24.88-48.27-22.84-73.83,49S3807.78,2421.48,3767.92,2504.23Zm176.88-48.11c27.54,3.42,17.24,40.3-44.23,35S3902.89,2450.88,3944.8,2456.12Z" opacity=".3"/><path fill="#326c90" d="M4048.79,2299.87c9.85,12-23.72,64.23-39.36,51.42S4034,2281.92,4048.79,2299.87Z" opacity=".3"/><path fill="#fff" d="M4032.29 2285.89c3.05-2.4 52.27-41.36 91.86-64.44 40.88-23.82 78.06-18.8 69.07 36.11-4.5 27.59-19.71 50.13-33.76 65.63 24.51-20.28 46.66-50 44-90.19C4197.68 2146.52 4073 2236.56 4032.29 2285.89zM3998.3 2255.3c-8.15 1-18.92 10.67-29.8 23.44 42.66-32.27 62.49 5 63.62 7.19C4031.55 2283.63 4023.17 2252.08 3998.3 2255.3zM3797.8 2428.76c36.47-65.52 70.7-108.94 88.82-108.13s33.48 26.24 34.18 27.25c-.74-2.26-20.34-59.48-56.51-26.94C3841.77 2341.2 3817.37 2385.42 3797.8 2428.76z" opacity=".5"/><path fill="#4785c5" d="M4176.15,2237.45s-226.5,185.42-400.07,262C3776.08,2499.47,4049.2,2327.89,4176.15,2237.45Z"/><path fill="#5cbee3" d="M3719.17,2440.24c17.5,24.79,35.67,47.69,49.87,64,0,0,130.51-166,118.75-227.6-9.91-51.82-51-20.37-51-20.37s24.23-71.94,13.63-106.07c-10.35-33.35-38.3-8.36-39.65-7.18a220.15,220.15,0,0,0,1-65.46c-.2-1.08-.37-2.18-.54-3.28-5.06-31.44-19.46-65.62-55.41-83.63-77.36-38.78-62.9,114.49-41,174.66a.54.54,0,0,0,0,.17.11.11,0,0,1-.09,0c-2.27-.67-33.67-9.39-43.48,13.72-3.24,7.57-.38,21.76,5.1,37.62,11.73,34.23,35.46,76.22,35.46,76.22l-.06,0c-2.32-.51-61.5-12.51-51.78,35.2C3666,2358,3691.76,2401.4,3719.17,2440.24Z"/><path fill="#326c90" d="M3769,2504.25s130.51-166,118.75-227.6c-9.91-51.82-51-20.37-51-20.37s24.23-71.94,13.63-106.07c-10.35-33.35-38.3-8.36-39.65-7.18a220.15,220.15,0,0,0,1-65.46,78.45,78.45,0,0,1-17.63-10.17c-39.14-29-52.44-13-19.16,66.25s8.11,107.1-31.6,103.16-44.09,30.15,4.87,88.61S3718,2427.93,3769,2504.25ZM3831,2336.38c21.67-17.37,40.83,15.77-5.9,56.12S3798,2362.78,3831,2336.38Z" opacity=".3"/><path fill="#326c90" d="M3735.18,2158.14c15.28-2.47,43.3,53,24.36,60S3712.23,2161.84,3735.18,2158.14Z" opacity=".3"/><path fill="#fff" d="M3714.8 2165.32c-.54-3.85-9.18-66.1-9-112 .18-47.37 23.31-77 66-41.42 21.48 17.85 33.19 42.4 39.43 62.38-5.06-31.44-19.46-65.62-55.41-83.63C3678.47 1951.88 3692.93 2105.15 3714.8 2165.32zM3671.26 2179.21c-3.24 7.57-.38 21.76 5.1 37.62-6.2-53.2 35.9-51.48 38.38-51.34C3712.47 2164.82 3681.07 2156.1 3671.26 2179.21zM3719.17 2440.24c-38-64.67-58-116.22-48.16-131.46s39.52-15.66 40.75-15.75c-2.32-.51-61.5-12.51-51.78 35.2C3666 2358 3691.76 2401.4 3719.17 2440.24z" opacity=".5"/><path fill="#4785c5" d="M3745.86,2016.49s45.06,289.55,23.21,478.29C3769.07,2494.78,3759.5,2172,3745.86,2016.49Z"/><path fill="#4a85c5" d="M3749.6,2391.56c5.43,42.39,12.94,82.86,19.86,112.53,0,0,271.52-120.15,297.45-204.49,21.8-71-50-59-50-59s77.49-73.42,86.78-122.85c9.09-48.31-42.12-35.72-44.57-35.13,2.1-2.68,28.27-35.9,44.34-80.73.46-1.47,1-2.95,1.49-4.43,14.4-42.43,19-94.44-13.83-140.57-70.66-99.33-153.57,100.76-166,190a.85.85,0,0,0-.06.23.19.19,0,0,1-.12-.06c-2.38-2.33-35.68-33.92-63.09-11.66-9,7.26-14.8,26.79-18.42,50.13-8,50.31-6.09,118.18-6.09,118.18l-.06-.06c-2.56-2.16-68.22-56.19-87.55,9.55C3737.7,2254.15,3741.09,2325.17,3749.6,2391.56Z"/><path fill="#326c90" d="M3769.46,2504.09S4041,2383.94,4066.91,2299.6c21.8-71-50-59-50-59s77.49-73.42,86.78-122.85c9.09-48.31-42.12-35.72-44.57-35.13,2.1-2.68,28.27-35.9,44.34-80.73a110.33,110.33,0,0,1-15.22-24.28c-29.54-62-56.65-50.8-67.44,69.7s-60.42,138.5-107.19,107.37S3839,2163,3861.35,2268,3756.18,2375.46,3769.46,2504.09Zm172.72-192.41c38.44-19.88,57.58,36.67-26.23,84S3883.63,2341.89,3942.18,2311.68Z" opacity=".3"/><path fill="#326c90" d="M3955.2,2051.43c-31-10.56-37.4,86.94-9.22,90.71S3975.82,2058.46,3955.2,2051.43Z" opacity=".3"/><path fill="#fff" d="M3925.13 2046.89c1.87-5.14 32.11-88.23 62.51-145.19 31.41-58.77 79.64-80.28 109.37-7.86 14.94 36.39 13.34 74.64 7.95 103.6 14.4-42.43 19-94.44-13.83-140.57C4020.47 1757.54 3937.56 1957.63 3925.13 2046.89zM3861.86 2035.4c-9 7.26-14.8 26.79-18.42 50.13 27.31-70.23 78.52-40.28 81.51-38.47C3922.57 2044.73 3889.27 2013.14 3861.86 2035.4zM3749.74 2213.2c-12 41-8.65 112-.14 178.36-4.63-105.48 4.35-182.82 26.66-195.25s59.45 6.64 61 7.34C3834.73 2201.49 3769.07 2147.46 3749.74 2213.2z" opacity=".5"/><path fill="#2f54a4" d="M4061.72,1882.38c-85.37,202.29-286,610-286,610C3927.14,2272.13,4061.72,1882.38,4061.72,1882.38Z"/><path fill="#5cbee3" d="M2626,1681.83h-.48v-17h-119v17H2506a22.67,22.67,0,0,0-22.65,22.69v167.4a22.67,22.67,0,0,0,22.65,22.69h120a22.67,22.67,0,0,0,22.65-22.69v-167.4A22.67,22.67,0,0,0,2626,1681.83Z"/><rect width="133.65" height="170.37" x="2499.17" y="1707" fill="#ffcd4c" rx="3.08"/><path fill="#0b609f" d="M2623,1648.29H2509a9.81,9.81,0,0,0,0,19.62H2623a9.81,9.81,0,0,0,0-19.62Z"/><rect width="107.61" height="107.81" x="2512.2" y="1734.75" fill="#fff"/><path fill="#5cbee3" d="M2324.71,1681.83h-.49v-17h-119v17h-.49a22.67,22.67,0,0,0-22.64,22.69v167.4a22.67,22.67,0,0,0,22.64,22.69h120a22.67,22.67,0,0,0,22.65-22.69v-167.4A22.67,22.67,0,0,0,2324.71,1681.83Z"/><rect width="133.65" height="170.37" x="2197.89" y="1707" fill="#ffcd4c" rx="3.08"/><path fill="#0b609f" d="M2321.75,1648.29H2207.69a9.81,9.81,0,0,0,0,19.62h114.06a9.81,9.81,0,0,0,0-19.62Z"/><rect width="107.61" height="107.81" x="2210.91" y="1734.75" fill="#fff"/><path fill="#e1314c" d="M2015.81,1611.59h-99.67a8.62,8.62,0,0,0-8.59,8.6v42a8.61,8.61,0,0,0,8.59,8.59h99.67a8.56,8.56,0,0,0,8.58-8.59v-42A8.57,8.57,0,0,0,2015.81,1611.59Z"/><path fill="#412f89" d="M2015.81,1611.59h-8.06c-12.67,13.1-39.79,27.81-100.2,24.64v26a8.61,8.61,0,0,0,8.59,8.59h99.67a8.56,8.56,0,0,0,8.58-8.59v-42A8.57,8.57,0,0,0,2015.81,1611.59Z" opacity=".2"/><path fill="#5cbee3" d="M2026,1681.83h-.49v-17h-119v17H1906a22.67,22.67,0,0,0-22.65,22.69v167.4a22.67,22.67,0,0,0,22.65,22.69h120a22.67,22.67,0,0,0,22.65-22.69v-167.4A22.67,22.67,0,0,0,2026,1681.83Z"/><rect width="133.65" height="170.37" x="1899.16" y="1707" fill="#ffcd4c" rx="3.08"/><path fill="#0b609f" d="M2023,1648.29H1909a9.81,9.81,0,0,0,0,19.62H2023a9.81,9.81,0,0,0,0-19.62Z"/><rect width="107.61" height="107.81" x="1912.18" y="1734.75" fill="#fff"/><path fill="#e1314c" d="M1717.09,1611.59h-99.68a8.61,8.61,0,0,0-8.58,8.6v42a8.6,8.6,0,0,0,8.58,8.59h99.68a8.57,8.57,0,0,0,8.58-8.59v-42A8.58,8.58,0,0,0,1717.09,1611.59Z"/><path fill="#412f89" d="M1717.09,1611.59H1709c-12.66,13.1-39.79,27.81-100.19,24.64v26a8.6,8.6,0,0,0,8.58,8.59h99.68a8.57,8.57,0,0,0,8.58-8.59v-42A8.58,8.58,0,0,0,1717.09,1611.59Z" opacity=".2"/><path fill="#5cbee3" d="M1727.25,1681.83h-.49v-17h-119v17h-.48a22.67,22.67,0,0,0-22.65,22.69v167.4a22.67,22.67,0,0,0,22.65,22.69h120a22.67,22.67,0,0,0,22.65-22.69v-167.4A22.67,22.67,0,0,0,1727.25,1681.83Z"/><rect width="133.65" height="170.37" x="1600.43" y="1707" fill="#ffcd4c" rx="3.08"/><path fill="#0b609f" d="M1724.29,1648.29H1610.23a9.81,9.81,0,0,0,0,19.62h114.06a9.81,9.81,0,0,0,0-19.62Z"/><rect width="107.61" height="107.81" x="1613.45" y="1734.75" fill="#fff"/><path fill="#e1314c" d="M1265.05,1566.29h-99.68a8.61,8.61,0,0,0-8.58,8.59v42a8.61,8.61,0,0,0,8.58,8.6h99.68a8.58,8.58,0,0,0,8.58-8.6v-42A8.57,8.57,0,0,0,1265.05,1566.29Z"/><path fill="#412f89" d="M1265.05,1566.29H1257c-12.67,13.09-39.79,27.81-100.2,24.63v26a8.61,8.61,0,0,0,8.58,8.6h99.68a8.58,8.58,0,0,0,8.58-8.6v-42A8.57,8.57,0,0,0,1265.05,1566.29Z" opacity=".2"/><path fill="#5cbee3" d="M1275.21,1636.53h-.49v-17h-119v17h-.48a22.67,22.67,0,0,0-22.65,22.69v167.4a22.67,22.67,0,0,0,22.65,22.69h120a22.67,22.67,0,0,0,22.65-22.69v-167.4A22.67,22.67,0,0,0,1275.21,1636.53Z"/><rect width="133.65" height="170.37" x="1148.39" y="1661.69" fill="#ffcd4c" rx="3.08"/><path fill="#0b609f" d="M1272.25,1603H1158.19a9.81,9.81,0,0,0,0,19.62h114.06a9.81,9.81,0,0,0,0-19.62Z"/><rect width="107.61" height="107.81" x="1161.42" y="1689.44" fill="#fff"/><path fill="#e1314c" d="M2319.67,1486H2220a8.58,8.58,0,0,0-8.58,8.6v42a8.57,8.57,0,0,0,8.58,8.59h99.68a8.61,8.61,0,0,0,8.58-8.59v-42A8.61,8.61,0,0,0,2319.67,1486Z"/><path fill="#412f89" d="M2228.06,1486H2220a8.58,8.58,0,0,0-8.58,8.6v42a8.57,8.57,0,0,0,8.58,8.59h99.68a8.61,8.61,0,0,0,8.58-8.59v-26C2267.85,1513.76,2240.72,1499.05,2228.06,1486Z" opacity=".2"/><path fill="#e1314c" d="M2211.41,1398a8.57,8.57,0,0,0,8.58,8.59h99.68a8.61,8.61,0,0,0,8.58-8.59v-42H2211.41Z"/><path fill="#412f89" d="M2211.41,1398a8.57,8.57,0,0,0,8.58,8.59h99.68a8.61,8.61,0,0,0,8.58-8.59v-26l-116.84-16Z" opacity=".2"/><path fill="#31415f" d="M2211.41,1503.5h-74V1362.86a11.52,11.52,0,1,0-23,0v163.72h97a11.54,11.54,0,0,0,0-23.08Z"/><path fill="#ffcd4c" d="M2125.92,1486a29.09,29.09,0,1,0,29,29.09A29.07,29.07,0,0,0,2125.92,1486Z"/><path fill="#fcbf12" d="M2125.92,1502.25a12.79,12.79,0,1,0,12.76,12.79A12.78,12.78,0,0,0,2125.92,1502.25Z"/><path fill="#31415f" d="M2413.75 1351.32a11.52 11.52 0 00-11.51 11.54V1503.5h-74a11.54 11.54 0 000 23.08h97V1362.86A11.53 11.53 0 002413.75 1351.32zM2224.85 1467.9a11.54 11.54 0 000-23.07h-45.17v140.42h45.17a11.54 11.54 0 000-23.07h-22.14V1467.9z"/><path fill="#31415f" d="M2302.55,1456.37a11.52,11.52,0,0,0,11.51,11.53h22.14v94.28h-22.14a11.54,11.54,0,0,0,0,23.07h45.17V1444.83h-45.17A11.52,11.52,0,0,0,2302.55,1456.37Z"/><path fill="#ffcd4c" d="M2413.75,1486a29.09,29.09,0,1,0,29,29.09A29.07,29.07,0,0,0,2413.75,1486Z"/><path fill="#fcbf12" d="M2413.75,1502.25a12.79,12.79,0,1,0,12.77,12.79A12.78,12.78,0,0,0,2413.75,1502.25Z"/><g style="mix-blend-mode:multiply"><rect width="1448.54" height="86.49" x="1551.93" y="2016.19" fill="#1061a0" rx="7.47"/><rect width="1448.54" height="86.49" x="1551.93" y="2016.19" fill="#1061a0" rx="7.47"/><rect width="1448.54" height="86.49" x="1551.93" y="2016.19" fill="#1061a0" opacity=".2" rx="7.47"/></g><ellipse cx="1692" cy="2283.25" fill="#1061a0" rx="95.96" ry="96.14"/><ellipse cx="1692" cy="2283.25" fill="#fff" rx="64.06" ry="64.18"/><path fill="#5cbee3" d="M1692,2231.91a51.29,51.29,0,0,0-51.24,51.34h102.49A51.29,51.29,0,0,0,1692,2231.91Z"/><rect width="1014.2" height="282.73" x="1873.6" y="2155.68" fill="#237165" rx="5.37"/><path fill="#fcbc68" d="M1968.11 2215a20 20 0 00-20 20.06v136.28a20 20 0 1040 0V2235.08A20 20 0 001968.11 2215zM2055.06 2215a20 20 0 00-20 20.06v136.28a20 20 0 1040 0V2235.08A20 20 0 002055.06 2215zM2142 2215a20 20 0 00-20 20.06v136.28a20 20 0 1040.05 0V2235.08A20 20 0 002142 2215zM2229 2215a20 20 0 00-20 20.06v136.28a20 20 0 1040.05 0V2235.08A20 20 0 002229 2215z"/><rect width="45.96" height="46.05" x="2339.76" y="2215.02" fill="#39b9c7"/><rect width="45.96" height="46.05" x="2439.83" y="2215.02" fill="#39b9c7"/><rect width="45.96" height="46.05" x="2539.9" y="2215.02" fill="#39b9c7"/><rect width="45.96" height="46.05" x="2639.96" y="2215.02" fill="#39b9c7"/><rect width="45.96" height="46.05" x="2740.03" y="2215.02" fill="#39b9c7"/><rect width="45.96" height="46.05" x="2339.76" y="2336.5" fill="#39b9c7"/><rect width="45.96" height="46.05" x="2439.83" y="2336.5" fill="#39b9c7"/><rect width="45.96" height="46.05" x="2539.9" y="2336.5" fill="#39b9c7"/><rect width="45.96" height="46.05" x="2639.96" y="2336.5" fill="#39b9c7"/><rect width="45.96" height="46.05" x="2740.03" y="2336.5" fill="#39b9c7"/><path fill="#ffcd4c" d="M2908.57,1485.58c12.79-46-18.6-73.64-18.6-73.64l-26.72,4.1c-37.2,45,12.2,73.63-29.09,118.64-31,33.77,1.16,71.59,18.6,98.18s-24.41,48.14-24.41,48.14,90.86,62.32,81.56,0,13.78-45.07,24.24-92.16S2895.78,1531.61,2908.57,1485.58Z"/><rect width="365.73" height="89.64" x="2838.84" y="1217.73" fill="#31415f"/><rect width="89.62" height="89.64" x="3114.95" y="1217.73" fill="#412f89" opacity=".2"/><rect width="83.72" height="200.41" x="2838.84" y="1217.73" fill="#31415f"/><ellipse cx="2880.69" cy="1262.55" fill="#ef5e7c" rx="84.57" ry="74.39"/><ellipse cx="2880.69" cy="1262.55" fill="#31415f" rx="41.86" ry="36.82"/><path fill="#5cbee3" d="M2925.51,1400.9h-89.64c-5.19,0-9.38,3.69-9.38,8.26v17.95c0,4.56,4.19,8.26,9.38,8.26h89.64c5.19,0,9.38-3.7,9.38-8.26v-17.95C2934.89,1404.59,2930.7,1400.9,2925.51,1400.9Z"/><path fill="#fcbf12" d="M2909.22,1575.29c-7.36,0-13.32,5.25-13.32,11.72s6,11.72,13.32,11.72,13.33-5.24,13.33-11.72S2916.59,1575.29,2909.22,1575.29Z"/><ellipse cx="2859.99" cy="1557.07" fill="#fcbf12" rx="20.71" ry="18.22"/><path fill="#fcbf12" d="M2860 1593.11c-4.14 0-7.49 3-7.49 6.59s3.35 6.59 7.49 6.59 7.49-3 7.49-6.59S2864.12 1593.11 2860 1593.11zM2884.88 1452c-6.08 0-11 4.33-11 9.69s4.93 9.69 11 9.69 11-4.34 11-9.69S2891 1452 2884.88 1452z"/><path fill="#412f89" d="M2826.49,1427.11c0,4.56,4.19,8.26,9.38,8.26h89.64c5.19,0,9.38-3.7,9.38-8.26v-8.95h-108.4Z" opacity=".2"/><path fill="#1061a0" d="M3796.48,1094.54h-589a6.23,6.23,0,0,0-6.23,6.23v858.11h601.43V1100.77A6.22,6.22,0,0,0,3796.48,1094.54Z"/><path fill="#1d2c2c" d="M3853.78 2490.34a30.35 30.35 0 00-30.23 30.29v81.94a30.23 30.23 0 1060.46 0v-81.94A30.35 30.35 0 003853.78 2490.34zM3150.07 2490.34a30.35 30.35 0 00-30.23 30.29v81.94a30.23 30.23 0 1060.46 0v-81.94A30.35 30.35 0 003150.07 2490.34z"/><path fill="#31415f" d="M3083.84,2547.71a1.42,1.42,0,0,0,1.42,1.42h833.48a1.43,1.43,0,0,0,1.42-1.42V2191.06H3083.84Z"/><path fill="#5cbee3" d="M3909,2110.89H3095a11.14,11.14,0,0,0-11.14,11.14v58.73a10.3,10.3,0,0,0,10.3,10.3h815.72a10.3,10.3,0,0,0,10.3-10.3V2122A11.14,11.14,0,0,0,3909,2110.89Z"/><rect width="790.13" height="80.17" x="3107.86" y="2030.73" fill="#0b609f"/><rect width="836.32" height="80.17" x="3083.84" y="1950.56" fill="#5cbee3" rx="10.72"/><rect width="264.88" height="121.14" x="3368.52" y="2269.78" fill="#b1e2f9"/><rect width="192.04" height="78.83" x="3404.94" y="2290.93" fill="#1d2c2c"/><rect width="192.45" height="80.17" x="3404.53" y="2030.73" fill="#b1e2f9"/><path fill="#1d2c2c" d="M3500.76,2042.09a28.73,28.73,0,1,0,28.67,28.72A28.7,28.7,0,0,0,3500.76,2042.09Z"/><polygon fill="#979797" points="3107.86 2042.09 3897.99 2070.81 3897.99 2030.73 3108.79 2030.73 3107.86 2042.09"/><rect width="113.33" height="51.12" x="3426.39" y="2303.72" fill="#004f82"/><polygon fill="#979797" points="3083.84 2205.61 3920.16 2231.14 3920.16 2191.06 3083.88 2191.06 3083.84 2205.61"/><polygon fill="#979797" points="3368.52 2390.92 3633.4 2269.78 3368.52 2269.78 3368.52 2390.92"/><path fill="#ef5e7c" d="M3500.76 2058.57a12.25 12.25 0 1012.22 12.24A12.23 12.23 0 003500.76 2058.57zM3565.38 2330.34a12.25 12.25 0 1012.22 12.25A12.25 12.25 0 003565.38 2330.34z"/><path fill="#f79831" d="M3441.33,682.92c-65.88-28-136.82-33.19-166.57-6.7s-39.91,98.41,0,131.85,181,16.08,220.51-41.67S3471.24,695.62,3441.33,682.92Z"/><ellipse cx="3336.47" cy="697.14" fill="#ffcd4c" rx="17.45" ry="15.35"/><path fill="#ffcd4c" d="M3393.58,700.16c-17.66,0-32,12.59-32,28.12s14.31,28.12,32,28.12,32-12.59,32-28.12S3411.23,700.16,3393.58,700.16Z"/><path fill="#fcbc68" d="M3828.63,813.81c-22.05-19.36-56.7-21.92-83.1-36.47-28.73-15.83-45.05-44.22-69.91-64.5-45.47-37.09-120.91-41.55-171.6-10.15-31.28,19.38-53.69,50.42-89.53,62.2-53.11,17.45-114.38-14.12-168.25,1.41-43.6,12.57-69.38,52.71-79.91,92-4.71,17.57-7.22,36-3.18,53.66,7,30.65,33.08,55.82,63.54,71.92s65.28,24.42,99.59,32.57l525.8-116C3853.47,869.87,3853.25,835.44,3828.63,813.81Z"/><path fill="#fff" d="M3728.46 822.83c-9.21 0-16.67 6.56-16.67 14.66s7.46 14.66 16.67 14.66 16.67-6.56 16.67-14.66S3737.67 822.83 3728.46 822.83zM3652 737.7c-16.84 0-30.5 12-30.5 26.83s13.66 26.82 30.5 26.82 30.49-12 30.49-26.82S3668.86 737.7 3652 737.7zM3599.16 830c-7 0-12.6 5-12.6 11.09s5.64 11.08 12.6 11.08 12.61-5 12.61-11.08S3606.12 830 3599.16 830z"/><ellipse cx="3530.45" cy="776.33" fill="#fff" rx="24.4" ry="21.46"/><ellipse cx="3425.54" cy="824.97" fill="#fff" rx="30.9" ry="27.18"/><ellipse cx="3306" cy="802.8" fill="#fff" rx="13.01" ry="11.45"/><path fill="#fff" d="M3228.59,816.39c-8.53,0-15.45,6.08-15.45,13.59s6.92,13.59,15.45,13.59S3244,837.48,3244,830,3237.13,816.39,3228.59,816.39Z"/><polygon fill="#5cbee3" points="3178.04 983.33 3228.6 1075 3779.25 1075 3884.14 884.78 3122.96 879.5 3178.04 983.33"/><path fill="#412f89" d="M3178,983.33,3228.6,1075h550.65l104.89-190.22H3811.4C3769.6,928.47,3596.73,1048.05,3178,983.33Z" opacity=".2"/><path fill="#1d285c" d="M3780.14,1062.22H3227.71c-16.71,0-30.25,11.91-30.25,26.61s13.54,26.61,30.25,26.61h552.43c16.71,0,30.25-11.92,30.25-26.61S3796.85,1062.22,3780.14,1062.22Z"/><path fill="#99b6df" d="M3673.64 1585.23a28.33 28.33 0 1028.29 28.33A28.31 28.31 0 003673.64 1585.23zM3565.91 1585.23a28.33 28.33 0 1028.28 28.33A28.3 28.3 0 003565.91 1585.23zM3458.17 1585.23a28.33 28.33 0 1028.29 28.33A28.31 28.31 0 003458.17 1585.23z"/><rect width="318.69" height="262.54" x="3258.93" y="1237.75" fill="#99b6df" rx="2.4"/><polygon fill="#eaebf6" points="3289.57 1264.63 3289.57 1468.84 3546.98 1468.84 3546.98 1264.63 3546.98 1264.63 3289.57 1264.63"/><rect width="48.83" height="19.01" x="3469.27" y="1292.62" fill="#5962a0"/><rect width="48.83" height="19.01" x="3399.88" y="1292.62" fill="#5962a0"/><rect width="122.23" height="19.01" x="3395.87" y="1338.2" fill="#fbcc43"/><rect width="48.83" height="19.01" x="3330.48" y="1292.62" fill="#5962a0"/><rect width="35.49" height="35.55" x="3324.51" y="1340.24" fill="#7eb068"/><rect width="35.49" height="35.55" x="3324.51" y="1397.5" fill="#7eb068"/><path fill="#fff" d="M3495.8,1384.33h-92.1a24.37,24.37,0,0,0,0,48.73h92.1a24.37,24.37,0,0,0,0-48.73Z"/><path fill="#99b6df" d="M3684.38,1235.34a62.47,62.47,0,1,0,62.35,62.46A62.41,62.41,0,0,0,3684.38,1235.34Z"/><path fill="#f5f5f5" d="M3684.38,1260.39a37.41,37.41,0,1,0,37.34,37.41A37.37,37.37,0,0,0,3684.38,1260.39Z"/><rect width="8.03" height="36.64" x="3680.36" y="1268.94" fill="#e0657d"/><path fill="#5962a0" d="M3684.38,1287.88a9.92,9.92,0,1,0,9.9,9.92A9.92,9.92,0,0,0,3684.38,1287.88Z"/><path fill="#99b6df" d="M3684.38,1382.32a62.47,62.47,0,1,0,62.35,62.46A62.41,62.41,0,0,0,3684.38,1382.32Z"/><path fill="#f5f5f5" d="M3684.38,1407.37a37.41,37.41,0,1,0,37.34,37.41A37.37,37.37,0,0,0,3684.38,1407.37Z"/><path fill="#414559" d="M3338.23,1646.51a24.87,24.87,0,0,0-24.78,24.82v198.6a24.78,24.78,0,1,0,49.56,0v-198.6A24.87,24.87,0,0,0,3338.23,1646.51Z"/><rect width="29.09" height="68.21" x="3323.68" y="1710.97" fill="#99b6df"/><path fill="#e0657d" d="M3389.58,1686.51h-102.7a26.62,26.62,0,0,0,0,53.24h102.7a26.62,26.62,0,0,0,0-53.24Z"/><path fill="#e0657d" d="M3389.07 1718.09H3287.39a10.83 10.83 0 000 21.66h101.68a10.83 10.83 0 000-21.66zM3379.6 1686.51h-82.74a9.46 9.46 0 000 18.92h82.74a9.46 9.46 0 000-18.92z" opacity=".5"/><path fill="#99b6df" d="M3338.23,1766.07a14.57,14.57,0,1,0,14.54,14.57A14.57,14.57,0,0,0,3338.23,1766.07Z"/><polygon fill="#e0657d" points="3677.45 1449.75 3684.95 1452.63 3698.05 1418.42 3690.55 1415.54 3677.45 1449.75"/><path fill="#5962a0" d="M3687.53,1434.67a9.92,9.92,0,1,0,5.7,12.82A9.89,9.89,0,0,0,3687.53,1434.67Z"/><path fill="#414559" d="M3714.16 1844.86H3519.4a15.78 15.78 0 000 31.56h194.76a15.78 15.78 0 000-31.56zM3714.16 1783.16H3519.4a15.79 15.79 0 000 31.57h194.76a15.79 15.79 0 000-31.57zM3714.16 1721.47H3519.4a15.78 15.78 0 000 31.56h194.76a15.78 15.78 0 000-31.56z"/><path fill="#5cbee3" d="M2927.27,1681.83h-.48v-17h-119v17h-.48a22.67,22.67,0,0,0-22.65,22.69v167.4a22.67,22.67,0,0,0,22.65,22.69h120a22.67,22.67,0,0,0,22.65-22.69v-167.4A22.67,22.67,0,0,0,2927.27,1681.83Z"/><path fill="#ffcd4c" d="M2800.45,1874.28a3.08,3.08,0,0,0,3.09,3.08H2931a3.08,3.08,0,0,0,3.08-3.08v-63.66H2800.45Z"/><path fill="#0b609f" d="M2924.31,1648.29H2810.25a9.81,9.81,0,0,0,0,19.62h114.06a9.81,9.81,0,0,0,0-19.62Z"/><rect width="107.61" height="107.81" x="2813.48" y="1734.75" fill="#fff"/><rect width="371.74" height="357.78" x="1116.4" y="1899.8" fill="#ffcd4c"/><rect width="209.22" height="357.78" x="948.28" y="1899.8" fill="#f79831"/><polygon fill="#f79831" points="1157.5 1899.8 1217.28 2026.79 1547.92 2026.79 1488.14 1899.8 1157.5 1899.8"/><polygon fill="#e67c25" points="873.43 2026.79 1099.47 2026.79 1159.24 1899.8 933.21 1899.8 873.43 2026.79"/><rect width="277.72" height="116.53" x="1189.26" y="2064.12" fill="#faebd4"/><rect width="389.26" height="383.9" x="1110.58" y="2251.4" fill="#fcbc68"/><rect width="219.08" height="383.9" x="934.53" y="2251.4" fill="#e67c25"/><rect width="59.65" height="245.41" x="1191.66" y="2292.71" fill="#faebd4"/><rect width="184.22" height="21.87" x="1288.15" y="2292.71" fill="#faebd4"/><rect width="184.22" height="21.87" x="1288.15" y="2321.86" fill="#faebd4"/><path fill="#99b6df" d="M1147.9 1610.68l-65-55.1a14.56 14.56 0 00-18.8 22.23l65 55.1a14.55 14.55 0 0018.79-22.23zM1131.74 1449.72a17.55 17.55 0 00-24.46 4l-49.49 68.88a17.54 17.54 0 1028.45 20.52l49.49-68.89A17.63 17.63 0 001131.74 1449.72z"/><path fill="#414559" d="M1060.7,1524.61a27.71,27.71,0,1,0,31.75,22.9A27.71,27.71,0,0,0,1060.7,1524.61Z"/><path fill="#99b6df" d="M1347.59,1556.21,1281,1609.29a14.56,14.56,0,0,0,18.1,22.8l66.62-53.08a14.56,14.56,0,0,0-18.1-22.8Z"/><path fill="#99b6df" d="M1326.38,1453.65a17.54,17.54,0,1,0-29.07,19.63l47.36,70.38a17.54,17.54,0,1,0,29.07-19.64Z"/><path fill="#414559" d="M1370.76,1525.94a27.71,27.71,0,1,0,21.87,32.5A27.67,27.67,0,0,0,1370.76,1525.94Z"/><rect width="47.06" height="440.86" x="1201.73" y="946.17" fill="#99b6df"/><rect width="47.06" height="24.6" x="1201.73" y="966.41" fill="#dad9d8" opacity=".62"/><path fill="#ef5e7c" d="M1265.93,844.84h-81.34a21,21,0,0,0-21,21v79.83a21,21,0,0,0,21,21h81.34a21,21,0,0,0,21-21V865.85A21,21,0,0,0,1265.93,844.84Z"/><path fill="#fff" d="M1225.25,866.05a39.72,39.72,0,1,0,39.65,39.72A39.67,39.67,0,0,0,1225.25,866.05Z"/><path fill="#4a58a6" d="M1302.2,1405.56H1148.32a45.05,45.05,0,0,0,0,90.1H1302.2a45.05,45.05,0,0,0,0-90.1Z"/><path fill="#5962a0" d="M1294.65,1405.65H1155.87a13.1,13.1,0,0,0,0,26.2h138.78a13.1,13.1,0,0,0,0-26.2Z"/><path fill="#fbcc43" d="M1184.66,1437.29a40.6,40.6,0,1,0,81.2,0v-60.86h-81.2Z"/><ellipse cx="1225.26" cy="1437.83" fill="#414559" rx="27.66" ry="27.71"/><path fill="#f9aa75" d="M2984.84,1699.14c-1.87,8.84-3.47,23.09-4.81,40.45-5.47,71.12,5.36,174.1,10.84,187.42,6.81,16.56,21.68,36.31,31.61,32.88,5.17-1.78,32.55-144.51,57.59-280.89,23-125.48,44.12-245.58,44.12-245.58s-69.29,11.27-98.91,36.54S2994.32,1654.13,2984.84,1699.14Z"/><path fill="#f9aa75" d="M2986.83,1906.86s5.12,19.66-2.33,38.91-9,24.74,4.75,35.54,28.71,26,39,21.49,3.94-92.59,3.94-92.59Z"/><path fill="#4a58a6" d="M3030.15,1829.17s-3.81,59.52-6.66,143.19c-5.66,166.13-31.73,445-74,639.85-1.81,8.28,3.65,16.43,11.71,19,19.5,6.21,56.73,25.21,80.38,16.27,15.28-5.77,100.7-253.34,106.24-361.62.22-3.93.7-8.65,1.44-14.06s1.73-11.49,2.94-18.19c10.45-57.81,37.17-160.35,58.38-250.15,16.52-70,29.7-132.25,29.23-159.56C3238.52,1773.47,3030.15,1829.17,3030.15,1829.17Z"/><path fill="#2f3876" d="M3107.34,1907.32l36.48,415.22c.74-5.39,7.13-62.2,8.34-68.9,10.45-57.81,37.17-160.35,58.38-250.15l-51.47-91.39Z"/><path fill="#4a58a6" d="M3325.61,1823.92c-29-19-197.1,44.18-197.1,44.18L3202,2637.61s65.18,15.32,114.35,1.69c0,0,17.82-418.35,15.13-521.19S3354.66,1842.93,3325.61,1823.92Z"/><path fill="#e1314c" d="M3426.63,1497.7s-37.48-99.24-66.19-120.32c-16.57-12.17-50.31-22-75.9-28.06-8.11-1.93-15.39-3.49-21-4.65-7.34-1.49-11.93-2.29-12.06-2.31h0s-1,2.77-2.46,7.61c-8.49,13.14-37.44,23.1-61.75,21.51s-40.06-20.1-40.06-30.12l0,0h0s-2,.58-5.42,1.67c-5.09,1.62-13.44,4.37-23.59,8.18-30.26,11.32-59.53,17.64-79.34,49.68-29.35,47.46-41.48,109.21-41.48,109.21s26.91,23.51,55.8,34.74c1.36.53,2.88.26,4.28.25-1.89,259.29-13.68,299.24-8.1,299.14,0,0,31.17,34.34,112.71,33.41a610.73,610.73,0,0,0,82.89-6.24c65.39-9.72,83.92-23.23,83.66-30-.22-6.15-3.57-170.19-4.35-179-3.62-40.66-4.89-49-1.69-110.81C3383.52,1536.52,3426.63,1497.7,3426.63,1497.7Z"/><path fill="#4a58a6" d="M3285.2,1520.2a27.05,27.05,0,0,0-25.95-25.64l-169.56-6.66a33.27,33.27,0,0,0-34.64,30.62l-24.89,310.65s52.2,49.39,68.75,69c29.6,35,51.13,161,51.13,161l189.5-171.88-15.36-224.87C3295.06,1640.26,3287.28,1561,3285.2,1520.2Z"/><path fill="#4a58a6" d="M3241 1502.63l21.27 3 22.27-156.35c-8.11-1.93-15.39-3.49-21-4.65zM3089.12 1493.39l18.71 3.82 2.35.49 2.2-10.82L3141.7 1343c-5.09 1.62-13.44 4.37-23.59 8.18z"/><path fill="#f9aa75" d="M3322.49 1551.55c12.35 44.21 34 83.08 32.29 89.38-.69 2.57-128.85 85.18-133 92.78-5.52 10.15 12.49 33.61 12.49 33.61 90.7-14.45 204.57-79.52 204.57-79.52 20.42-44.12-1.81-130-17.71-185.43C3407 1514 3359.19 1542.21 3322.49 1551.55zM3166.22 1705.74c2.87 6.21 22.2 16 22.2 16l27.23-2s-13.65-10.46-24.14-12S3163.36 1699.52 3166.22 1705.74z"/><path fill="#fab995" d="M3160.55,1338.61s.49,16.61,31,19c25.64,2,50.6-19,50.6-19V1235l-81.58,11.07Z"/><polygon fill="#f5917e" points="3160.55 1339.07 3218.4 1288.14 3160.55 1312.51 3160.55 1339.07"/><path fill="#fab995" d="M3102.83,1275.46a16.48,16.48,0,0,0,6.88,13.42l32.62,23.14a16,16,0,0,0,15.62,1.72l60.68-25.53a16.48,16.48,0,0,0,10-15.19V1154.31H3102.83Z"/><path fill="#ee8171" d="M3102.83,1215.34v47.72a23.86,23.86,0,0,0,0-47.72Z" opacity=".32"/><path fill="#de7360" d="M3151,1237.37h-16.2l5.09-49.77a1.82,1.82,0,1,0-3.63-.38l-5.29,51.79a1.86,1.86,0,0,0,.46,1.41,1.84,1.84,0,0,0,1.35.6H3151a1.83,1.83,0,1,0,0-3.65Z"/><path fill="#79241c" d="M3241,1122.05c-11.37-66.42-90.61-50.35-139.12-27.44-27.05,12.77-25,52.39,3.31,61.89,21.87,7.34,56.86,9.74,112.83-.73,0,0-13.6,42.81,14.39,69.35l27.68-18.07,8.18-43.79A35.41,35.41,0,0,0,3241,1122.05Z"/><ellipse cx="3250.32" cy="1234.66" fill="#fab995" rx="29.93" ry="30.19"/><path fill="#100f0e" d="M3175.36 1173.86c.13 7 22.91 11.48 24.07 5.13C3201.35 1168.46 3175.16 1162.85 3175.36 1173.86zM3095.46 1177.68c3.16 5.55 23.53-1 21.67-6.63C3114.05 1161.69 3090.46 1168.9 3095.46 1177.68z"/><ellipse cx="3195.42" cy="1237.61" fill="#ee8171" opacity=".32" rx="23.65" ry="23.87"/><path fill="#281c1c" d="M3170.58 1195.07c-2.77.06-4.94 4-4.83 8.83s2.46 8.66 5.24 8.6 4.94-4 4.83-8.84S3173.36 1195 3170.58 1195.07zM3119.5 1195.07c-2.78.06-4.95 4-4.84 8.83s2.46 8.66 5.24 8.6 4.94-4 4.83-8.84S3122.27 1195 3119.5 1195.07z"/><path fill="#de7360" d="M3162.05 1264.2c-.11.1-11.15 10-25 .62a1.83 1.83 0 00-2 3 25 25 0 0014.19 4.67 24.7 24.7 0 0015.36-5.64 1.82 1.82 0 10-2.47-2.68zM3257.56 1216.9c-7.77 1.07-21.94 7.12-19.94 22.34a25.89 25.89 0 004.82 12.66 1.83 1.83 0 001.44.7 1.81 1.81 0 001.12-.38 1.83 1.83 0 00.32-2.56 22.26 22.26 0 01-4.08-10.9c-2-15.41 16.05-18.14 16.82-18.25a1.82 1.82 0 00-.5-3.61z"/><path fill="#de7360" d="M3256.94,1233.36a14.68,14.68,0,0,0-10.2-2c-3.49.74-6.46,3-8.84,6.62a1.82,1.82,0,0,0,.54,2.52,1.79,1.79,0,0,0,1,.3,1.85,1.85,0,0,0,1.53-.83c5.61-8.65,13.13-4.14,14-3.59a1.82,1.82,0,0,0,2-3.05Z"/><path fill="#e1314c" d="M3033.23,2638.61l-66.79-13.89-86,19.91a52,52,0,0,0-18.56,8.45,57.69,57.69,0,0,0-24,42.24l-.58,6.69h206.47l-3.32-20.05Z"/><path fill="#fff" d="M2875.88,2682c-1.79-15.45-7.59-24.23-14-28.88a57.69,57.69,0,0,0-24,42.24l-.58,6.69h206.47l-3.32-20.05Z"/><path fill="#fff" d="M2905 2637.63a1.2 1.2 0 00-1.78.7 1.87 1.87 0 00.56 2.21c.12.08 12.33 8.11 13.6 20.81a1.45 1.45 0 001.31 1.43h.16a1.61 1.61 0 001.15-1.84C2918.54 2646.52 2905.54 2638 2905 2637.63zM2921.87 2631.79a1.2 1.2 0 00-1.77.7 1.84 1.84 0 00.56 2.21c.12.08 12.32 8.1 13.59 20.79a1.46 1.46 0 001.31 1.45l.16 0a1.6 1.6 0 001.15-1.82C2935.42 2640.68 2922.43 2632.15 2921.87 2631.79z"/><path fill="#e1314c" d="M3305.76,2640.91,3239,2627l-86,19.9a51.9,51.9,0,0,0-18.55,8.45,57.66,57.66,0,0,0-24,42.25l-.58,6.68h206.47l-3.32-20Z"/><path fill="#fff" d="M3148.42,2684.27c-1.79-15.46-7.59-24.24-14-28.89a57.66,57.66,0,0,0-24,42.25l-.58,6.68h206.47l-3.32-20Z"/><path fill="#fff" d="M3177.53 2639.93a1.2 1.2 0 00-1.78.7 1.87 1.87 0 00.56 2.21c.12.08 12.32 8.11 13.6 20.81a1.45 1.45 0 001.31 1.43h.16a1.6 1.6 0 001.14-1.84C3191.08 2648.82 3178.08 2640.29 3177.53 2639.93zM3194.41 2634.09a1.21 1.21 0 00-1.78.7 1.86 1.86 0 00.56 2.21c.13.08 12.33 8.1 13.6 20.8a1.46 1.46 0 001.31 1.44l.16 0a1.6 1.6 0 001.14-1.82C3208 2643 3195 2634.45 3194.41 2634.09z"/><path fill="#fab995" d="M3160.55,1339.07l-13.4,2.29s4.28,28.75,40.06,30.12,59.89-9.27,66.78-28.83l-11.86-4Z"/><path fill="#7ad1f6" d="M3099.36,1550.72c-7.47,75.26,7.8,119.6,77.86,116.29s56.56-109.31,56.56-109.31Z"/><path fill="#5cbee3" d="M3196.64,1556.52c-22.17,97.29-88.35,79-88.35,79C3125,1677,3177.22,1667,3177.22,1667c73.83-3.76,56.56-109.31,56.56-109.31Z"/><path fill="#2f3876" d="M3163.19,1652a12.21,12.21,0,0,0-13.17-8.61l-53.33,6.53a12.22,12.22,0,0,0-10.2,15.67L3123,1786.78a12.2,12.2,0,0,0,13.16,8.61l53.33-6.52a12.23,12.23,0,0,0,10.21-15.67Z"/><path fill="#132e50" d="M3144.3,1654.29a12.21,12.21,0,0,0-13.16-8.61l-53.33,6.53a12.23,12.23,0,0,0-10.21,15.67l36.48,121.21a12.21,12.21,0,0,0,13.17,8.61l53.33-6.52a12.23,12.23,0,0,0,10.21-15.67Z"/><path fill="#132e50" d="M3099.05,1559.56a3.69,3.69,0,0,0-3.75-2.41,2.25,2.25,0,0,0-1.9,3.1l35.73,106.35a3.68,3.68,0,0,0,3.75,2.41,2.25,2.25,0,0,0,1.89-3.1Z"/><path fill="#f9aa75" d="M3226.13,1721.78c-5.59-1.47-10.48-2-16.92-6.39-6.8-4.64-21.84,1.49-26.28,4.45-12.44,8.31-54.42,8-54.42,16.28s18.26,31.66,40.37,38.58,65.41-7.38,65.41-7.38l8.08-49.65S3232.88,1723.56,3226.13,1721.78Z"/><path fill="#fff" d="M3307.38 1514.93l15.11 36.62c44.39-6 104.14-53.85 104.14-53.85l-15.9-37.42zM3009.39 1465.46l-12.1 44.6c6.26 7.21 55.8 34.74 55.8 34.74s.51-17.79 1.66-28.14 10.91-19 10.91-19C3051.31 1498.25 3009.39 1465.46 3009.39 1465.46z"/><path fill="#7ad1f6" d="M3197.72 2593.66l4.31 44 41.24 6.29c50.14 6.52 73.49-6.14 73.49-6.14l1.15-41.41C3291.12 2605.17 3197.72 2593.66 3197.72 2593.66zM2946.81 2620.51c18.37 28.18 94.74 30.48 94.74 30.48l16.65-33.94c-38.47-.57-101.63-33.36-101.63-33.36z"/></g></svg>