<svg xmlns="http://www.w3.org/2000/svg" enable-background="new 0 0 66 66" viewBox="0 0 66 66"><path fill="#e6f3fa" d="M58.95,21.63c-3.43-1.6-7.5-0.88-11.09,1.55c-2.26,1.52-5.04,2.05-7.7,1.48c-0.04-0.01-0.07-0.02-0.11-0.02c-3.34-0.72-6.01-3.12-7.27-6.29c-1.23-3.13-3.33-5.6-6.2-6.94c-7.65-3.56-17.9,2.23-22.89,12.95C-1.3,35.07,0.85,46.64,8.5,50.2c3.89,1.81,8.45,1.2,12.65-1.24c3.98-2.31,8.63-3.16,13.12-2.14c0.48,0.11,0.96,0.22,1.45,0.33c2.74,0.63,5.22,1.97,7.44,3.7c0.52,0.41,1.09,0.75,1.7,1.04c6.09,2.84,14.19-1.63,18.08-9.98C66.83,33.55,65.05,24.47,58.95,21.63z"/><path fill="#e1eef4" d="M48.85,47.89c-0.61-0.28-1.18-0.63-1.7-1.04c-2.22-1.72-4.7-3.07-7.44-3.7c-0.48-0.11-0.96-0.22-1.45-0.33c-4.49-1.01-9.14-0.17-13.12,2.14c-4.2,2.44-8.76,3.05-12.65,1.24c-7.65-3.56-9.8-15.14-4.81-25.85c1.03-2.22,2.3-4.21,3.71-5.96c-3.05,2.42-5.78,5.82-7.71,9.96C-1.3,35.07,0.85,46.64,8.5,50.2c3.89,1.81,8.45,1.2,12.65-1.24c3.98-2.31,8.63-3.16,13.12-2.14c0.48,0.11,0.96,0.22,1.45,0.33c2.74,0.63,5.22,1.97,7.44,3.7c0.52,0.41,1.09,0.75,1.7,1.04c5.03,2.34,11.41-0.3,15.68-5.98C56.8,48.66,52.48,49.57,48.85,47.89z"/><circle cx="59.21" cy="8.21" r="4" fill="#e1eef4"/><circle cx="7.45" cy="57.79" r="4" fill="#f0f8fc"/><path fill="#f0f8fc" d="M61.13,29.22c-0.33-1.27-0.94-2.52-1.92-3.54c-0.97-1.02-2.38-1.68-3.81-1.76c-1.42-0.1-2.8,0.24-4.03,0.77c-0.62,0.26-1.2,0.6-1.76,0.96c-0.5,0.33-0.98,0.61-1.5,0.87c-1.03,0.51-2.12,0.88-3.25,1.1c-4.49,0.96-9.45-0.59-12.61-4.03c-0.8-0.85-1.49-1.81-2.06-2.84c-0.56-0.98-1.01-2.26-1.82-3.29c-0.78-1.03-1.78-1.93-2.95-2.47c-1.16-0.55-2.45-0.75-3.69-0.64c1.23,0.1,2.42,0.49,3.42,1.13c1,0.64,1.81,1.53,2.41,2.53c0.64,0.99,0.92,2.11,1.47,3.33c0.53,1.18,1.24,2.28,2.06,3.28c1.64,2.02,3.89,3.56,6.38,4.43c2.48,0.86,5.21,1.05,7.8,0.53c1.29-0.27,2.55-0.71,3.73-1.32c0.58-0.3,1.16-0.65,1.69-1.01c0.47-0.32,0.96-0.6,1.47-0.85c1.01-0.49,2.09-0.78,3.14-0.75c1.04,0.04,2.04,0.42,2.83,1.14c1.58,1.47,2.29,3.9,2.37,6.26c0.05,1.19-0.05,2.4-0.24,3.6c-0.22,1.2-0.54,2.38-0.95,3.55c0.6-1.08,1.11-2.22,1.49-3.42c0.36-1.2,0.59-2.45,0.68-3.72C61.57,31.79,61.46,30.49,61.13,29.22z"/><rect width="18.04" height="7.15" x="20.45" y="19.13" fill="#4e6575" transform="rotate(-27.58 29.474 22.71)"/><polygon fill="#fff" points="39.13 21.71 36.87 22.89 34.74 18.8 21 25.98 19.82 23.72 35.81 15.37" opacity=".3"/><path fill="#ffab03" d="M44.2,20.82l-3.29,1.74c-0.58,0.31-1.3,0.08-1.6-0.5l-3.83-7.29c-0.3-0.58-0.08-1.3,0.5-1.6l3.3-1.74L44.2,20.82z"/><path fill="#fff" d="M44.2,20.81l-1.78,0.93l-4.04-7.69l-2.56,1.35l-0.35-0.65c-0.3-0.57-0.08-1.29,0.5-1.6l3.3-1.73L44.2,20.81z" opacity=".3"/><polygon fill="#4e6575" points="39.27 11.41 42.59 6.89 49.29 8.59 49.43 10.73 44.31 10.4 40.81 14.36"/><polygon fill="#fff" points="49.43 10.73 44.31 10.41 40.8 14.36 39.27 11.42 39.28 11.41 40.08 12.96 43.58 8.99 48.71 9.32 48.65 8.43 49.29 8.59" opacity=".3"/><polygon fill="#4e6575" points="44.23 20.83 49.79 20.69 52.2 14.28 50.54 12.95 47.9 17.3 42.69 17.91"/><polygon fill="#fff" points="52.2 14.28 49.79 20.69 48.37 20.72 50.53 14.98 49.71 14.32 50.54 12.96" opacity=".3"/><path d="M23.13,30.69c-0.23,0-0.45-0.12-0.56-0.34l-3.31-6.34c-0.08-0.15-0.09-0.32-0.04-0.48c0.05-0.16,0.16-0.29,0.31-0.37l15.99-8.35c0.31-0.16,0.69-0.04,0.85,0.27l3.31,6.34c0.16,0.31,0.04,0.69-0.27,0.85l-7.28,3.8c-0.31,0.16-0.69,0.04-0.85-0.27c-0.16-0.31-0.04-0.69,0.27-0.85l6.72-3.51l-2.73-5.22l-14.87,7.77l2.73,5.22l5.14-2.68c0.31-0.16,0.69-0.04,0.85,0.27c0.16,0.31,0.04,0.69-0.27,0.85l-5.7,2.98C23.33,30.67,23.23,30.69,23.13,30.69z"/><path d="M40.36,23.32c-0.18,0-0.36-0.03-0.54-0.08c-0.46-0.14-0.84-0.46-1.07-0.89l-3.83-7.29c-0.47-0.89-0.12-1.99,0.76-2.45l3.3-1.74c0.15-0.08,0.32-0.09,0.48-0.04c0.16,0.05,0.29,0.16,0.37,0.31l4.93,9.39c0.16,0.31,0.04,0.69-0.26,0.85l-3.29,1.74C40.94,23.25,40.65,23.32,40.36,23.32z M39,12.28l-2.74,1.44c-0.27,0.14-0.37,0.48-0.23,0.75l3.83,7.29c0.07,0.13,0.18,0.23,0.33,0.27c0.14,0.04,0.29,0.03,0.42-0.04l2.74-1.44L39,12.28z"/><path d="M40.81 14.99c-.03 0-.05 0-.08 0-.21-.03-.39-.15-.48-.34l-1.53-2.95c-.11-.21-.09-.47.05-.67l3.32-4.52c.15-.21.42-.3.66-.24l6.7 1.69c.27.07.46.3.48.57l.14 2.14c.01.18-.05.36-.18.49-.13.13-.3.2-.49.19l-4.82-.3-3.3 3.73C41.16 14.92 40.98 14.99 40.81 14.99zM40.01 11.47l.93 1.79 2.89-3.27c.13-.15.32-.22.51-.21l4.41.28-.07-.96-5.84-1.48L40.01 11.47zM44.23 21.46c-.23 0-.45-.13-.56-.34l-1.53-2.92c-.1-.18-.1-.4 0-.59.1-.18.28-.31.49-.33.34-.04.69.2.74.53l1.25 2.37 4.74-.12 2.1-5.58L50.7 13.9l-2.27 3.74c-.1.17-.27.28-.47.3l-2.02.23c-.34.04-.66-.21-.7-.55-.04-.35.21-.66.56-.7l1.71-.2L50 12.63c.09-.16.25-.26.43-.29.18-.03.36.01.5.13l1.66 1.33c.21.17.29.46.2.72l-2.41 6.41c-.09.24-.32.4-.58.41l-5.56.14C44.24 21.46 44.23 21.46 44.23 21.46z"/><polygon fill="#4e6575" points="26.66 25.51 32.54 50.12 24.44 52.03 18.57 27.42"/><path fill="#fff" d="M27.37,42.36h3.32L27.8,30.27h-3.47v9.06C24.33,41,25.69,42.36,27.37,42.36z" opacity=".3"/><path d="M24.44,52.66c-0.29,0-0.54-0.19-0.61-0.48l-1.51-6.34c-0.08-0.34,0.13-0.68,0.47-0.76c0.34-0.08,0.68,0.13,0.76,0.47l1.37,5.73l6.87-1.62l-5.58-23.38l-6.87,1.62l3.34,14.01c0.08,0.34-0.13,0.68-0.47,0.76c-0.34,0.08-0.68-0.13-0.76-0.47l-3.49-14.63c-0.04-0.16-0.01-0.34,0.08-0.48c0.09-0.14,0.23-0.24,0.39-0.28l8.1-1.91c0.33-0.08,0.68,0.13,0.76,0.47l5.87,24.61c0.04,0.16,0.01,0.34-0.08,0.48c-0.09,0.14-0.23,0.24-0.39,0.28l-8.1,1.91C24.54,52.65,24.49,52.66,24.44,52.66z"/><path fill="#4e6575" d="M56.16,56.55v2.55H9.84v-2.55c0-1.11,0.9-2.02,2.02-2.02h42.28C55.25,54.54,56.16,55.44,56.16,56.55z"/><path fill="#fff" d="M56.16,57.74v-1.18c0-1.11-0.9-2.02-2.02-2.02H30.03v1.51c0,0.93,0.75,1.68,1.68,1.68H56.16z" opacity=".3"/><path fill="#ffab03" d="M36.26,54.54H17.71l2.32-7.89c0.17-0.57,0.69-0.96,1.29-0.96h11.33c0.59,0,1.12,0.39,1.29,0.96L36.26,54.54z"/><path fill="#fff" d="M35.65,52.47l-1.71-5.82c-0.17-0.57-0.69-0.96-1.29-0.96h-8.39v4.37c0,1.34,1.08,2.42,2.42,2.42H35.65z" opacity=".3"/><path d="M56.16,59.74h-9.95c-0.35,0-0.63-0.28-0.63-0.63c0-0.35,0.28-0.63,0.63-0.63h9.31v-1.92c0-0.76-0.62-1.38-1.38-1.38H17.71c-0.35,0-0.63-0.28-0.63-0.63c0-0.35,0.28-0.63,0.63-0.63h36.43c1.46,0,2.65,1.19,2.65,2.65v2.55C56.79,59.45,56.5,59.74,56.16,59.74z"/><path d="M42.72,59.74H9.84c-0.35,0-0.63-0.28-0.63-0.63v-2.55c0-1.46,1.19-2.65,2.65-2.65h2.67c0.35,0,0.63,0.28,0.63,0.63c0,0.35-0.28,0.63-0.63,0.63h-2.67c-0.76,0-1.38,0.62-1.38,1.38v1.92h32.24c0.35,0,0.63,0.28,0.63,0.63C43.35,59.45,43.07,59.74,42.72,59.74z"/><path d="M36.26,55.17H17.71c-0.2,0-0.39-0.09-0.51-0.25c-0.12-0.16-0.16-0.37-0.1-0.56l2.32-7.89c0.25-0.83,1.02-1.42,1.89-1.42h11.33c0.87,0,1.65,0.58,1.89,1.42l1.37,4.67c0.1,0.33-0.09,0.69-0.43,0.78c-0.34,0.1-0.69-0.09-0.78-0.43l-1.37-4.67c-0.09-0.3-0.37-0.51-0.68-0.51H21.32c-0.31,0-0.59,0.21-0.68,0.51l-2.08,7.08h17.7c0.35,0,0.63,0.28,0.63,0.63C36.89,54.89,36.61,55.17,36.26,55.17z"/><path d="M26.98,52.57c-1.35,0-2.46-1.1-2.46-2.46s1.1-2.46,2.46-2.46s2.45,1.1,2.45,2.46S28.34,52.57,26.98,52.57z M26.98,48.92c-0.66,0-1.19,0.53-1.19,1.19c0,0.66,0.53,1.19,1.19,1.19c0.66,0,1.19-0.53,1.19-1.19C28.18,49.45,27.64,48.92,26.98,48.92z"/><path fill="#e2e2e2" d="M28.81,50.11c0,1-0.81,1.82-1.82,1.82c-1,0-1.82-0.82-1.82-1.82c0-1,0.82-1.82,1.82-1.82C28,48.29,28.81,49.11,28.81,50.11z"/><path d="M26.98,52.57c-1.35,0-2.46-1.1-2.46-2.46s1.1-2.46,2.46-2.46s2.45,1.1,2.45,2.46S28.34,52.57,26.98,52.57z M26.98,48.92c-0.66,0-1.19,0.53-1.19,1.19c0,0.66,0.53,1.19,1.19,1.19c0.66,0,1.19-0.53,1.19-1.19C28.18,49.45,27.64,48.92,26.98,48.92z"/><path fill="#ffab03" d="M28.87,26.42c0,3.33-2.7,6.04-6.04,6.04c-3.33,0-6.04-2.7-6.04-6.04c0-3.34,2.7-6.05,6.04-6.05C26.16,20.37,28.87,23.07,28.87,26.42z"/><path fill="#fff" d="M28.87,26.41c0,2.13-1.1,4-2.78,5.08c0.61-0.93,0.95-2.05,0.95-3.25c0-3.34-2.71-6.05-6.05-6.05c-1.2,0-2.32,0.35-3.26,0.95c1.08-1.68,2.96-2.78,5.09-2.78C26.16,20.37,28.87,23.07,28.87,26.41z" opacity=".3"/><path fill="#e2e2e2" d="M25.1,26.41c0,1.25-1.02,2.27-2.27,2.27c-1.25,0-2.27-1.02-2.27-2.27c0-1.26,1.02-2.27,2.27-2.27C24.08,24.14,25.1,25.16,25.1,26.41z"/><path d="M22.83,29.31c-1.6,0-2.9-1.3-2.9-2.9c0-1.6,1.3-2.9,2.9-2.9c1.6,0,2.9,1.3,2.9,2.9C25.73,28.01,24.43,29.31,22.83,29.31z M22.83,24.77c-0.9,0-1.64,0.74-1.64,1.64c0,0.9,0.73,1.64,1.64,1.64c0.9,0,1.64-0.73,1.64-1.64C24.46,25.51,23.73,24.77,22.83,24.77z"/><path d="M22.83,33.09c-3.68,0-6.67-2.99-6.67-6.67c0-3.68,2.99-6.68,6.67-6.68c3.68,0,6.67,3,6.67,6.68C29.5,30.09,26.51,33.09,22.83,33.09z M22.83,21c-2.98,0-5.41,2.43-5.41,5.42c0,2.98,2.43,5.41,5.41,5.41c2.98,0,5.41-2.43,5.41-5.41C28.24,23.43,25.81,21,22.83,21z"/></svg>