<svg xmlns="http://www.w3.org/2000/svg" viewBox="0 0 4680 3120"><g data-name="17"><rect width="4680" height="3120" fill="#fff" data-name="7" opacity="0"/><path fill="#241e3b" d="M4096.18,1410.19h0a13.23,13.23,0,0,0,2.16,21.63l65.9,36.29a4.15,4.15,0,0,0,5.27-1.09h0a4.17,4.17,0,0,0-.44-5.63l-55.36-50.93A13.2,13.2,0,0,0,4096.18,1410.19Z"/><path fill="#d5ecfa" d="M597.9,1903.8c45-227.83,305.78-435.67,305.78-435.67,202.67-294,119.62-464,307.69-712.75A923.44,923.44,0,0,1,1455.62,532c250.44-157.23,662.08-250.12,905.08-84.48,142.39,97.07,121.1,203.64,309,297.37,163.54,81.59,338,94.62,338,94.62,76.34,5.69,173.48,2.22,305.33,43.92,33.86,10.71,60.52,21.4,77,28.35C3505.47,960.64,3661.4,1089,3784.27,1294c24,40,335,577.35,113.42,1104.69a999.86,999.86,0,0,1-49,100.38c-.19,1.63-1.31,3.59-3.46,5.82-20.05,31.8-130.79,181.06-405,110-223.69,35.25-556.64,68.93-1039.54,86.44-1140.55,41.36-1632-123-1632-123C579.92,2480.08,552.94,2131.63,597.9,1903.8Z"/><path fill="#d5ecfa" d="M2621.81,411.14c24.72-20.23,59.37-25.67,92.18-28.34,196.5-16,398.78,40.82,552.88,155.28,38.37,28.5,75.85,63.81,83.57,108.89s1.66,85.32-123.25,125.08q-26.25,3.45-52.71,4.9c-142.42,8-287.3-26.25-408.84-95.69a671,671,0,0,1-90.59-62c-32.81-26.69-63.76-57.56-78-95.88S2589.09,437.93,2621.81,411.14Z"/><path fill="#5cbee3" d="M799.48,2491.26c11.64,25.79,21.45,51.24,27.84,70.37,0,0-194.68,26.86-238.55-11.67-36.91-32.43,7.69-50.7,7.69-50.7s-69.13-14.4-91.52-39c-21.87-24.07,11.35-34.81,12.94-35.34a203.61,203.61,0,0,1-53-30.07c-.77-.67-1.58-1.33-2.38-2-22.84-18.91-43.47-46.63-41-84.09,5.36-80.62,121.49,3.32,159.46,49.32l.12.11a.12.12,0,0,0,0-.08c.53-2.14,8.33-31.56,31.51-28.55,7.59.95,17.63,9.95,27.77,21.85,21.93,25.59,44.42,64.52,44.42,64.52l0-.06c.69-2.11,19-55.45,52.65-25.12C758.51,2409.63,781.24,2450.86,799.48,2491.26Z"/><path fill="#326c90" d="M693.66,2460.54c-23.82-67-53.24-79.57-68.79-45.72s-49.77,41-97.65-23.2-67-61-62.18-15.81a73.26,73.26,0,0,1-.15,19,203.61,203.61,0,0,0,53,30.07c-1.59.53-34.81,11.27-12.94,35.34,22.39,24.64,91.52,39,91.52,39s-44.6,18.27-7.69,50.7c43.87,38.53,238.55,11.67,238.55,11.67C790.18,2484.47,717.47,2527.56,693.66,2460.54Zm10.07,88.81c-57.28,5-66.88-29.39-41.22-32.58C701.57,2511.88,761,2544.36,703.73,2549.35Z" opacity=".3"/><path fill="#326c90" d="M565.63,2371.09c-9.18,11.15,22.09,59.89,36.66,47.94S579.42,2354.35,565.63,2371.09Z" opacity=".3"/><path fill="#fff" d="M581 2358.06c-2.84-2.25-48.7-38.56-85.59-60.09-38.09-22.2-72.73-17.52-64.36 33.67 4.2 25.73 18.37 46.74 31.46 61.19-22.84-18.91-43.47-46.63-41-84.09C426.9 2228.12 543 2312.06 581 2358.06zM612.67 2329.54c7.59.95 17.63 9.95 27.77 21.85-39.76-30.09-58.23 4.64-59.28 6.7C581.69 2356 589.49 2326.53 612.67 2329.54zM799.48 2491.26c-34-61.09-65.88-101.57-82.76-100.81s-31.19 24.46-31.84 25.4c.69-2.11 19-55.45 52.65-25.12C758.51 2409.63 781.24 2450.86 799.48 2491.26z" opacity=".5"/><path fill="#4785c5" d="M447,2312.89s211,172.88,372.75,244.3C819.71,2557.19,565.24,2397.21,447,2312.89Z"/><path fill="#5cbee3" d="M872.74,2502c-16.31,23.12-33.23,44.47-46.46,59.68,0,0-121.6-154.77-110.65-212.2,9.23-48.32,47.52-19,47.52-19s-22.59-67.07-12.71-98.89c9.64-31.1,35.69-7.81,36.95-6.7a205,205,0,0,1-.94-61c.19-1,.35-2,.5-3.06,4.72-29.31,18.14-61.18,51.63-78,72.08-36.16,58.61,106.74,38.23,162.84a.5.5,0,0,1,0,.16.12.12,0,0,0,.09,0c2.11-.63,31.37-8.76,40.51,12.8,3,7.05.36,20.28-4.75,35.07-10.93,31.91-33,71.06-33,71.06l0,0c2.17-.47,57.3-11.67,48.25,32.82C922.25,2425.24,898.28,2465.75,872.74,2502Z"/><path fill="#326c90" d="M845.63,2394.91c45.62-54.5,41.54-86.29,4.54-82.62s-60.44-22.29-29.44-96.17,18.61-88.85-17.85-61.77a73.46,73.46,0,0,1-16.43,9.48,205,205,0,0,0,.94,61c-1.26-1.11-27.31-24.4-36.95,6.7-9.88,31.82,12.71,98.89,12.71,98.89s-38.29-29.33-47.52,19c-11,57.43,110.65,212.2,110.65,212.2C873.87,2490.49,800,2449.41,845.63,2394.91Zm-71.58,62.55c-43.54-37.63-25.68-68.53-5.5-52.33C799.31,2429.75,817.6,2495.08,774.05,2457.46Z" opacity=".3"/><path fill="#326c90" d="M857.83,2238.94c-14.24-2.29-40.35,49.4-22.7,56S879.21,2242.4,857.83,2238.94Z" opacity=".3"/><path fill="#fff" d="M876.81 2245.64c.5-3.59 8.55-61.62 8.41-104.41-.17-44.17-21.72-71.76-61.53-38.62-20 16.64-30.92 39.53-36.74 58.16 4.72-29.31 18.14-61.18 51.63-78C910.66 2046.64 897.19 2189.54 876.81 2245.64zM917.38 2258.6c3 7.05.36 20.28-4.75 35.07 5.77-49.6-33.45-48-35.76-47.87C879 2245.17 908.24 2237 917.38 2258.6zM872.74 2502c35.37-60.29 54.07-108.35 44.87-122.56s-36.82-14.61-38-14.69c2.17-.47 57.3-11.67 48.25 32.82C922.25 2425.24 898.28 2465.75 872.74 2502z" opacity=".5"/><path fill="#4785c5" d="M847.87,2106.88s-42,270-21.63,445.93C826.24,2552.81,835.16,2251.82,847.87,2106.88Z"/><path fill="#4a85c5" d="M844.39,2456.58c-5.06,39.52-12.06,77.26-18.5,104.91,0,0-253-112-277.15-190.65-20.31-66.18,46.57-55,46.57-55s-72.19-68.45-80.85-114.54c-8.46-45,39.24-33.3,41.53-32.75-2-2.51-26.34-33.47-41.31-75.27-.43-1.38-.91-2.75-1.39-4.13-13.42-39.56-17.7-88,12.89-131.06C592,1865.45,669.26,2052,680.84,2135.22a.86.86,0,0,1,.06.22.16.16,0,0,0,.11-.06c2.21-2.17,33.24-31.63,58.78-10.87,8.4,6.77,13.79,25,17.17,46.74,7.4,46.9,5.67,110.19,5.67,110.19l0-.06c2.39-2,63.57-52.39,81.58,8.9C855.47,2328.46,852.32,2394.68,844.39,2456.58Z"/><path fill="#326c90" d="M740.27,2341.41c20.86-97.92-5.13-134.73-48.71-105.71s-89.81,12.24-99.87-100.1-35.31-122.77-62.83-65a103.1,103.1,0,0,1-14.18,22.64c15,41.8,39.36,72.76,41.31,75.27-2.29-.55-50-12.29-41.53,32.75,8.66,46.09,80.85,114.54,80.85,114.54s-66.88-11.15-46.57,55c24.16,78.64,277.15,190.65,277.15,190.65C838.25,2441.57,719.41,2439.32,740.27,2341.41Zm-50.87,119c-78.09-44.1-60.26-96.83-24.44-78.29C719.51,2410.26,767.48,2504.5,689.4,2460.39Z" opacity=".3"/><path fill="#326c90" d="M652.83,2139.45c-19.21,6.56-17.67,88.09,8.59,84.58S681.68,2129.61,652.83,2139.45Z" opacity=".3"/><path fill="#fff" d="M680.84 2135.22c-1.74-4.79-29.91-82.26-58.24-135.36-29.26-54.8-74.2-74.85-101.9-7.33-13.92 33.92-12.43 69.59-7.41 96.59-13.42-39.56-17.7-88 12.89-131.06C592 1865.45 669.26 2052 680.84 2135.22zM739.79 2124.51c8.4 6.77 13.79 25 17.17 46.74-25.45-65.48-73.17-37.56-76-35.87C683.22 2133.21 714.25 2103.75 739.79 2124.51zM844.39 2456.58c4.31-98.34-4.06-170.46-24.84-182s-55.39 6.19-56.87 6.84c2.39-2 63.57-52.39 81.58 8.9C855.47 2328.46 852.32 2394.68 844.39 2456.58z" opacity=".5"/><path fill="#2f54a4" d="M553.57,1981.84S679,2345.22,820,2550.54C820,2550.54,633.12,2170.45,553.57,1981.84Z"/><path fill="#5cbee3" d="M3738,2477.18c-11.65,25.8-21.45,51.24-27.85,70.37,0,0,194.69,26.86,238.55-11.67,36.91-32.43-7.69-50.69-7.69-50.69s69.13-14.41,91.52-39c21.88-24.08-11.34-34.82-12.93-35.34a204.48,204.48,0,0,0,53-30.08c.77-.67,1.57-1.32,2.38-2,22.83-18.91,43.46-46.64,41-84.09-5.36-80.63-121.49,3.31-159.45,49.31a.67.67,0,0,0-.12.11.16.16,0,0,1,0-.07c-.53-2.15-8.33-31.56-31.5-28.56-7.6,1-17.63,9.95-27.77,21.85-21.93,25.6-44.43,64.52-44.43,64.52v0c-.69-2.11-19-55.46-52.65-25.12C3779,2395.55,3756.26,2436.78,3738,2477.18Z"/><path fill="#326c90" d="M3710.18,2547.55s194.69,26.86,238.55-11.67c36.91-32.43-7.69-50.69-7.69-50.69s69.13-14.41,91.52-39c21.88-24.08-11.34-34.82-12.93-35.34a204.48,204.48,0,0,0,53-30.08,73.6,73.6,0,0,1-.16-19c4.86-45.24-14.29-48.38-62.18,15.81s-82.09,57-97.64,23.19-45-21.3-68.79,45.72S3747.32,2470.4,3710.18,2547.55ZM3875,2502.7c25.66,3.18,16.06,37.57-41.21,32.58S3835.94,2497.8,3875,2502.7Z" opacity=".3"/><path fill="#326c90" d="M3971.88,2357c9.18,11.14-22.1,59.88-36.67,47.94S3958.09,2340.27,3971.88,2357Z" opacity=".3"/><path fill="#fff" d="M3956.51 2344c2.83-2.24 48.7-38.56 85.59-60.08 38.08-22.21 72.72-17.53 64.35 33.66-4.2 25.73-18.37 46.74-31.45 61.2 22.83-18.91 43.46-46.64 41-84.09C4110.6 2214 3994.47 2298 3956.51 2344zM3924.84 2315.46c-7.6 1-17.63 9.95-27.77 21.85 39.75-30.08 58.22 4.64 59.27 6.71C3955.81 2341.87 3948 2312.46 3924.84 2315.46zM3738 2477.18c34-61.09 65.87-101.57 82.75-100.81s31.2 24.46 31.85 25.41c-.69-2.11-19-55.46-52.65-25.12C3779 2395.55 3756.26 2436.78 3738 2477.18z" opacity=".5"/><path fill="#4785c5" d="M4090.55,2298.81s-211.05,172.88-372.76,244.31C3717.79,2543.12,3972.26,2383.13,4090.55,2298.81Z"/><path fill="#5cbee3" d="M3664.77,2487.88c16.3,23.12,33.23,44.47,46.46,59.68,0,0,121.6-154.77,110.64-212.19-9.23-48.32-47.51-19-47.51-19s22.58-67.07,12.71-98.89c-9.65-31.09-35.7-7.8-37-6.69a205.64,205.64,0,0,0,.93-61c-.19-1-.34-2-.5-3.06-4.72-29.31-18.13-61.18-51.62-78-72.09-36.15-58.61,106.74-38.24,162.84a1.3,1.3,0,0,0,0,.16.09.09,0,0,1-.08,0c-2.12-.62-31.38-8.76-40.51,12.8-3,7.06-.36,20.28,4.75,35.07,10.93,31.91,33,71.06,33,71.06l-.06,0c-2.16-.47-57.3-11.66-48.25,32.82C3615.25,2411.16,3639.23,2451.67,3664.77,2487.88Z"/><path fill="#326c90" d="M3711.23,2547.56s121.6-154.77,110.64-212.19c-9.23-48.32-47.51-19-47.51-19s22.58-67.07,12.71-98.89c-9.65-31.09-35.7-7.8-37-6.69a205.64,205.64,0,0,0,.93-61,72.81,72.81,0,0,1-16.42-9.48c-36.47-27.08-48.86-12.11-17.86,61.77s7.56,99.85-29.44,96.18-41.08,28.11,4.54,82.61S3663.63,2476.41,3711.23,2547.56ZM3769,2391.05c20.19-16.2,38.05,14.7-5.5,52.33S3738.19,2415.67,3769,2391.05Z" opacity=".3"/><path fill="#326c90" d="M3679.68,2224.87c14.23-2.3,40.35,49.4,22.7,56S3658.3,2228.32,3679.68,2224.87Z" opacity=".3"/><path fill="#fff" d="M3660.69 2231.56c-.5-3.59-8.55-61.62-8.4-104.41.16-44.17 21.71-71.75 61.52-38.62 20 16.65 30.93 39.53 36.74 58.16-4.72-29.31-18.13-61.18-51.62-78C3626.84 2032.57 3640.32 2175.46 3660.69 2231.56zM3620.13 2244.52c-3 7.06-.36 20.28 4.75 35.07-5.78-49.6 33.45-48 35.76-47.87C3658.52 2231.1 3629.26 2223 3620.13 2244.52zM3664.77 2487.88c-35.37-60.29-54.07-108.35-44.88-122.56s36.83-14.6 38-14.69c-2.16-.47-57.3-11.66-48.25 32.82C3615.25 2411.16 3639.23 2451.67 3664.77 2487.88z" opacity=".5"/><path fill="#4785c5" d="M3689.63,2092.8s42,270,21.63,445.94C3711.26,2538.74,3702.34,2237.75,3689.63,2092.8Z"/><path fill="#4a85c5" d="M3693.12,2442.5c5.06,39.52,12.05,77.26,18.5,104.92,0,0,253-112,277.14-190.66,20.31-66.17-46.57-55-46.57-55s72.19-68.45,80.85-114.54c8.47-45-39.24-33.3-41.53-32.75,2-2.5,26.34-33.47,41.31-75.26.43-1.38.91-2.76,1.4-4.14,13.41-39.56,17.7-88-12.9-131.06-65.83-92.61-143.08,94-154.65,177.16a.76.76,0,0,0-.07.22.19.19,0,0,1-.11-.05c-2.21-2.18-33.24-31.63-58.78-10.88-8.4,6.78-13.78,25-17.16,46.74-7.41,46.91-5.67,110.19-5.67,110.19l-.06-.05c-2.38-2-63.56-52.39-81.58,8.9C3682,2314.38,3685.18,2380.6,3693.12,2442.5Z"/><path fill="#326c90" d="M3711.62,2547.42s253-112,277.14-190.66c20.31-66.17-46.57-55-46.57-55s72.19-68.45,80.85-114.54c8.47-45-39.24-33.3-41.53-32.75,2-2.5,26.34-33.47,41.31-75.26a103.19,103.19,0,0,1-14.18-22.65c-27.52-57.78-52.77-47.36-62.83,65s-56.29,129.13-99.87,100.11-69.56,7.79-48.71,105.7S3699.25,2427.49,3711.62,2547.42ZM3872.55,2368c35.82-18.54,53.65,34.18-24.44,78.29S3818,2396.19,3872.55,2368Z" opacity=".3"/><path fill="#326c90" d="M3884.68,2125.37c19.21,6.56,17.66,88.1-8.6,84.58S3855.82,2115.53,3884.68,2125.37Z" opacity=".3"/><path fill="#fff" d="M3856.67 2121.14c1.74-4.79 29.91-82.25 58.24-135.36 29.26-54.8 74.2-74.85 101.89-7.33 13.93 33.93 12.44 69.59 7.42 96.59 13.41-39.56 17.7-88-12.9-131.06C3945.49 1851.37 3868.24 2037.93 3856.67 2121.14zM3797.71 2110.43c-8.4 6.78-13.78 25-17.16 46.74 25.45-65.47 73.16-37.55 75.94-35.86C3854.28 2119.13 3823.25 2089.68 3797.71 2110.43zM3693.12 2442.5c-4.32-98.34 4.05-170.45 24.83-182s55.39 6.19 56.87 6.85c-2.38-2-63.56-52.39-81.58 8.9C3682 2314.38 3685.18 2380.6 3693.12 2442.5z" opacity=".5"/><path fill="#2f54a4" d="M3983.93,1967.77s-125.4,363.38-266.47,568.69C3717.46,2536.46,3904.38,2156.37,3983.93,1967.77Z"/><path fill="#b1e2f9" d="M3441.13 1255.77h-202.5l202.5-190.69v-14H1070.05v11.24h194.29l-194.29 183V1267h206.58a5.73 5.73 0 001.23.14 5.39 5.39 0 001.2-.14h214.1a5.66 5.66 0 001.23.14 5.3 5.3 0 001.19-.14h212.57a5.73 5.73 0 001.23.14 5.3 5.3 0 001.19-.14h214.1a5.73 5.73 0 001.23.14 5.46 5.46 0 001.2-.14h214.1a5.57 5.57 0 001.22.14 5.32 5.32 0 001.2-.14h214.1a5.66 5.66 0 001.23.14 5.3 5.3 0 001.19-.14h213.34a5.57 5.57 0 001.22.14 5.32 5.32 0 001.2-.14H2790a5.73 5.73 0 001.23.14 5.3 5.3 0 001.19-.14h214.1a5.73 5.73 0 001.23.14 5.3 5.3 0 001.19-.14H3223a5.73 5.73 0 001.23.14 5.39 5.39 0 001.2-.14h215.66zm-2169 0H1075.69l196.43-185zm11.49-193.43h197.25l-197.25 185.74zm205 193.43H1292.22l196.43-185zm11.48-193.43h197.26l-197.26 185.74zm203.51 193.43h-194.9l194.9-183.53zm11.48-193.43h197.26l-197.26 185.74zm205 193.43H1723.73l196.43-185zm11.48-193.43H2128.9l-197.26 185.74zm205 193.43H1940.26l196.42-185zm11.49-193.43h197.25l-197.25 185.74zm205 193.43H2156.78l196.43-185zm11.48-193.43H2562l-197.26 185.74zM2569 1255.77H2373.3L2569 1071.52zm11.49-193.43H2777.7l-197.25 185.74zm205 193.43H2589.06l196.43-185zM2797 1062.34h197.26L2797 1248.08zm205 193.43H2805.58l196.43-185zm11.48-193.43h197.26l-197.26 185.74zm205 193.43H3022.1l196.43-185zM3230 1062.34h197.25L3230 1248.08zM3441.13 1414.62h-9.93V1306.25l9.93 9.35v-9.25l-5.37-5.06h5.37v-6.59H1070.05v6.59h69.87v108.82l-69.87-65.79v9.25l64.83 61h-64.83v6.58h72.54a3.27 3.27 0 00.7.08 3.53 3.53 0 00.72-.08h125.44a3.27 3.27 0 00.7.08 3.53 3.53 0 00.72-.08h124.55a3.27 3.27 0 00.7.08 3.53 3.53 0 00.72-.08h125.44a3.27 3.27 0 00.7.08 3.53 3.53 0 00.72-.08h125.86a3.27 3.27 0 00.7.08 3.53 3.53 0 00.72-.08h125.44a3.34 3.34 0 00.7.08 3.53 3.53 0 00.72-.08h125.44a3.34 3.34 0 00.7.08 3.53 3.53 0 00.72-.08h125.44a3.42 3.42 0 00.7.08 3.38 3.38 0 00.72-.08h125a3.27 3.27 0 00.7.08 3.53 3.53 0 00.72-.08h125.44a3.27 3.27 0 00.7.08 3.53 3.53 0 00.72-.08h125.44a3.34 3.34 0 00.7.08 3.53 3.53 0 00.72-.08h125.44a3.34 3.34 0 00.7.08 3.45 3.45 0 00.72-.08h124.55a3.27 3.27 0 00.7.08 3.53 3.53 0 00.72-.08H2790a3.27 3.27 0 00.7.08 3.53 3.53 0 00.72-.08h128.75a3.27 3.27 0 00.7.08 3.36 3.36 0 00.71-.08H3047a3.27 3.27 0 00.7.08 3.53 3.53 0 00.72-.08h125.44a3.27 3.27 0 00.7.08 3.53 3.53 0 00.72-.08h125.44a3.27 3.27 0 00.7.08 3.53 3.53 0 00.72-.08h125a3.34 3.34 0 00.7.08 3.45 3.45 0 00.72-.08h12.58zm-2294.48 0V1306.25l115.09 108.37zm120.14-4.51l-115.58-108.82h115.58zm6.72 4.51V1307.09l114.2 107.53zm119.24-4.51l-115.57-108.82h115.57zm6.73 4.51V1306.25l115.09 108.37zm120.13-4.51L1404 1301.29h115.57zm6.73 4.51V1306.25l115.09 108.37zm120.55-4.51l-115.57-108.82h115.57zm6.73 4.51V1306.25l115.09 108.37zm120.14-4.51l-115.58-108.82h115.58zm6.72 4.51V1306.25l115.09 108.37zm120.14-4.51L1785 1301.29h115.58zm6.73 4.51V1306.25l115.08 108.37zm120.13-4.51l-115.57-108.82h115.57zm6.73 4.51V1306.67l114.64 107.95zm119.68-4.51l-115.57-108.82h115.57zm6.73 4.51V1306.25l115.09 108.37zm120.14-4.51l-115.58-108.82h115.58zm6.72 4.51V1306.25l115.09 108.37zm120.14-4.51L2292 1301.29h115.58zm6.73 4.51V1306.25l115.08 108.37zm120.13-4.51l-115.57-108.82h115.57zm6.73 4.51V1307.09l114.19 107.53zm119.24-4.51l-115.58-108.82h115.58zm6.72 4.51V1306.25l115.09 108.37zm120.14-4.51l-115.58-108.82h115.58zm6.72 4.51V1306.25l115.09 108.37zm123.44-4.51L2801.9 1301.29h115.57zm6.73 4.51V1306.25l115.09 108.37zm120.13-4.51l-115.57-108.82h115.57zm6.73 4.51V1306.25l115.09 108.37zm120.13-4.51l-115.57-108.82h115.57zm6.73 4.51V1306.25L3293 1414.62zm120.14-4.51l-115.58-108.82h115.58zm6.72 4.51V1306.67l114.64 107.95zm119.69-4.51L3308.9 1301.29h115.57z"/><g data-name="Arm 03"><rect width="163.3" height="36.54" x="1565.05" y="1307.26" fill="#b1e2f9" transform="rotate(180 1646.7 1325.535)"/><path fill="#b1e2f9" d="M1752 1561.74c3.37-15.4-2.45-32.17-14.16-40.78-10.93-8-24.87-7.93-39.25.33-17.1 9.83-29.23.16-33.64-4.45-9.1-9.5-12.3-23.91-7.15-32.13l-2.21-1.39c-5.84 9.33-2.56 24.85 7.48 35.32a29.94 29.94 0 0016 9c6.8 1.27 13.79-.11 20.78-4.12 13.43-7.72 26.36-7.89 36.41-.5 10.9 8 16.31 23.7 13.16 38.12zM1632.1 1470l-.87-7.33c-3.17.38-14.77-2.07-24.67-10.35a38.6 38.6 0 01-14.2-28.25c-.67-10.94 2.12-20 8.29-26.76 12.23-13.5 33.94-14.41 34.16-14.42l-.24-7.38c-1 0-25 1-39.34 16.8-7.58 8.34-11 19.18-10.22 32.22a46.34 46.34 0 0016.83 33.46C1613 1467.29 1626.49 1470.64 1632.1 1470z"/><rect width="125.3" height="44.84" x="1583.87" y="1319.35" fill="#b1e2f9" rx="4.97" transform="rotate(180 1646.525 1341.77)"/><rect width="23.25" height="80.23" x="1635.93" y="1390.2" fill="#b1e2f9"/><path fill="#b1e2f9" d="M1670.78,1338.83v56a23.25,23.25,0,0,1-23.23,23.28h0a23.25,23.25,0,0,1-23.23-23.28v-56Z"/><path fill="#b1e2f9" d="M1635.06 1389.29a13.57 13.57 0 1017.83-7.09A13.62 13.62 0 001635.06 1389.29zM1676.3 1336.88a11.44 11.44 0 1015-6.14A11.49 11.49 0 001676.3 1336.88zM1595.74 1337.33a11.44 11.44 0 1015-6A11.49 11.49 0 001595.74 1337.33zM1756 1435l-104.64-2.87a29.09 29.09 0 00-29.84 28.32h0a29.09 29.09 0 0028.25 29.91l104.64 2.88a29.09 29.09 0 0029.84-28.32h0A29.1 29.1 0 001756 1435z"/><path fill="#b1e2f9" d="M1664 1468a14.86 14.86 0 10-19.66 7.45A14.94 14.94 0 001664 1468zM1768.63 1470.24a14.86 14.86 0 10-19.73 7.24A14.93 14.93 0 001768.63 1470.24z"/><polygon fill="#b1e2f9" points="1717.72 1513.35 1760.26 1461.46 1771.85 1471.01 1729.32 1522.9 1717.72 1513.35"/><path fill="#b1e2f9" d="M1722.6,1493.72l-36,43.62a15.75,15.75,0,0,0,2.08,22.14h0a15.65,15.65,0,0,0,22.08-2.08l36-43.62a15.75,15.75,0,0,0-2.07-22.14h0A15.65,15.65,0,0,0,1722.6,1493.72Z"/><path fill="#b1e2f9" d="M1704.58 1544.6a6.45 6.45 0 10-2.72 8.73A6.45 6.45 0 001704.58 1544.6zM1740.81 1499.64a6.45 6.45 0 10-2.73 8.72A6.45 6.45 0 001740.81 1499.64z"/><polygon fill="#b1e2f9" points="1725.77 1581.4 1689.78 1548.69 1700.66 1536.65 1736.66 1569.36 1725.77 1581.4"/><polygon fill="#b1e2f9" points="1750.82 1602.58 1761.45 1590.57 1756.42 1586.09 1745.79 1598.11 1750.82 1602.58"/><polygon fill="#b1e2f9" points="1758.32 1604.97 1764.71 1597.74 1757.18 1591.05 1750.8 1598.28 1758.32 1604.97"/><polygon fill="#b1e2f9" points="1750.82 1602.58 1761.45 1590.57 1756.42 1586.09 1745.79 1598.11 1750.82 1602.58"/><path fill="#b1e2f9" d="M1757.61,1609.11h0l-.07-1.66a9.7,9.7,0,0,1,2.42-6.88h0a9.66,9.66,0,0,1,6.52-3.23l1.66-.13h0l6,5.3h0l.06,1.68a9.65,9.65,0,0,1-2.43,6.8l0,.06a9.63,9.63,0,0,1-6.44,3.23l-1.68.14h0Z"/><polygon fill="#b1e2f9" points="1769.72 1615.38 1775.8 1608.51 1770.99 1604.23 1764.91 1611.11 1769.72 1615.38"/><polygon fill="#b1e2f9" points="1765.81 1603.26 1786.37 1621.54 1786.5 1624.08 1783.89 1624.34 1763.34 1606.06 1765.81 1603.26"/><polygon fill="#b1e2f9" points="1747.18 1601.57 1760.01 1587.06 1758.51 1572.43 1732.51 1601.83 1747.18 1601.57"/><polygon fill="#b1e2f9" points="1729.41 1558.9 1715.63 1574.47 1714.06 1587.34 1741.96 1555.8 1729.41 1558.9"/><polygon fill="#b1e2f9" points="1731.19 1604.28 1760.79 1570.83 1741.69 1553.85 1712.1 1587.31 1731.19 1604.28"/><path fill="#b1e2f9" d="M1789.23 1632.14a4.89 4.89 0 015-4.74 4.75 4.75 0 014.68 4.9 4.89 4.89 0 01-5 4.75A4.76 4.76 0 011789.23 1632.14zM1792.09 1656.6h0a1.52 1.52 0 001.56 1.48 27.71 27.71 0 0027.1-27.21 1.51 1.51 0 00-1.48-1.56h0a1.58 1.58 0 00-1.63 1.49 24.85 24.85 0 01-24.06 24.17A1.56 1.56 0 001792.09 1656.6z"/><path fill="#b1e2f9" d="M1791.85,1650.13h0a1.54,1.54,0,0,0,1.62,1.48,21.78,21.78,0,0,0,20.83-20.9,1.53,1.53,0,0,0-1.48-1.62h0a1.57,1.57,0,0,0-1.62,1.46,18.92,18.92,0,0,1-17.88,18A1.57,1.57,0,0,0,1791.85,1650.13Z"/><path fill="#b1e2f9" d="M1791.62,1643.85v0a1.52,1.52,0,0,0,1.64,1.48,16,16,0,0,0,14.77-14.81,1.54,1.54,0,0,0-1.48-1.65h0a1.58,1.58,0,0,0-1.61,1.43,13.19,13.19,0,0,1-11.88,11.92A1.58,1.58,0,0,0,1791.62,1643.85Z"/></g><g data-name="Arm 03"><rect width="163.3" height="36.54" x="2363.99" y="1307.78" fill="#b1e2f9"/><path fill="#b1e2f9" d="M2340.39 1562.25c-3.37-15.39 2.45-32.16 14.15-40.77 10.94-8 24.87-7.93 39.25.33 17.11 9.82 29.23.15 33.65-4.46 9.09-9.49 12.3-23.9 7.15-32.12l2.2-1.39c5.85 9.33 2.56 24.84-7.47 35.32a30 30 0 01-16 9c-6.81 1.27-13.8-.12-20.78-4.13-13.43-7.71-26.36-7.89-36.42-.49-10.9 8-16.31 23.7-13.15 38.12zM2460.23 1470.49l.87-7.34c3.17.38 14.78-2.06 24.67-10.34a38.62 38.62 0 0014.2-28.25c.67-11-2.11-20-8.28-26.76-12.23-13.51-33.94-14.42-34.16-14.42l.24-7.39c1 0 25 1 39.34 16.8 7.58 8.35 11 19.19 10.22 32.22a46.33 46.33 0 01-16.84 33.47C2479.35 1467.8 2465.85 1471.16 2460.23 1470.49z"/><rect width="125.3" height="44.84" x="2383.16" y="1319.87" fill="#b1e2f9" rx="4.97"/><rect width="23.25" height="80.23" x="2433.16" y="1390.72" fill="#b1e2f9"/><path fill="#b1e2f9" d="M2421.56,1339.35v56a23.26,23.26,0,0,0,23.22,23.29h0a23.26,23.26,0,0,0,23.23-23.29v-56Z"/><path fill="#b1e2f9" d="M2439.44 1382.71a13.59 13.59 0 1017.83 7.1A13.63 13.63 0 002439.44 1382.71zM2401.06 1331.25a11.46 11.46 0 1015 6.15A11.5 11.5 0 002401.06 1331.25zM2481.56 1331.87a11.46 11.46 0 1015 6A11.49 11.49 0 002481.56 1331.87zM2336.38 1435.5l104.64-2.88a29.09 29.09 0 0129.84 28.32h0a29.09 29.09 0 01-28.25 29.92L2338 1493.73a29.08 29.08 0 01-29.84-28.32h0A29.09 29.09 0 012336.38 1435.5z"/><path fill="#b1e2f9" d="M2448 1475.91a14.89 14.89 0 10-19.66-7.44A14.94 14.94 0 002448 1475.91zM2343.44 1478a14.89 14.89 0 10-19.74-7.23A14.92 14.92 0 002343.44 1478z"/><polygon fill="#b1e2f9" points="2374.61 1513.87 2332.08 1461.98 2320.48 1471.53 2363.01 1523.42 2374.61 1513.87"/><path fill="#b1e2f9" d="M2369.74,1494.24l36,43.62a15.76,15.76,0,0,1-2.08,22.14h0a15.65,15.65,0,0,1-22.08-2.08l-36-43.62a15.76,15.76,0,0,1,2.08-22.14h0A15.65,15.65,0,0,1,2369.74,1494.24Z"/><path fill="#b1e2f9" d="M2390.48 1553.85a6.46 6.46 0 10-2.73-8.73A6.45 6.45 0 002390.48 1553.85zM2354.25 1508.88a6.46 6.46 0 10-2.72-8.73A6.46 6.46 0 002354.25 1508.88z"/><polygon fill="#b1e2f9" points="2366.56 1581.91 2402.56 1549.2 2391.68 1537.17 2355.68 1569.87 2366.56 1581.91"/><polygon fill="#b1e2f9" points="2341.51 1603.1 2330.89 1591.08 2335.92 1586.61 2346.55 1598.62 2341.51 1603.1"/><polygon fill="#b1e2f9" points="2334.02 1605.48 2327.63 1598.26 2335.15 1591.57 2341.54 1598.79 2334.02 1605.48"/><polygon fill="#b1e2f9" points="2341.51 1603.1 2330.89 1591.08 2335.92 1586.61 2346.55 1598.62 2341.51 1603.1"/><path fill="#b1e2f9" d="M2334.73,1609.63h0l.08-1.66a9.74,9.74,0,0,0-2.43-6.88h0a9.67,9.67,0,0,0-6.52-3.24l-1.65-.12h0l-6,5.3h0l-.07,1.69a9.76,9.76,0,0,0,2.43,6.8l.06.06a9.67,9.67,0,0,0,6.44,3.23l1.68.14h0Z"/><polygon fill="#b1e2f9" points="2322.62 1615.9 2316.54 1609.03 2321.35 1604.75 2327.43 1611.62 2322.62 1615.9"/><polygon fill="#b1e2f9" points="2326.52 1603.78 2305.97 1622.06 2305.84 1624.59 2308.44 1624.86 2329 1606.58 2326.52 1603.78"/><polygon fill="#b1e2f9" points="2345.16 1602.09 2332.32 1587.58 2333.82 1572.95 2359.82 1602.34 2345.16 1602.09"/><polygon fill="#b1e2f9" points="2362.93 1559.42 2376.7 1574.99 2378.28 1587.86 2350.38 1556.32 2362.93 1559.42"/><polygon fill="#b1e2f9" points="2361.14 1604.8 2331.55 1571.34 2350.64 1554.37 2380.24 1587.83 2361.14 1604.8"/><path fill="#b1e2f9" d="M2303.1 1632.66a4.89 4.89 0 00-4.95-4.75 4.76 4.76 0 00-4.68 4.91 4.89 4.89 0 005 4.75A4.76 4.76 0 002303.1 1632.66zM2300.25 1657.12h0a1.53 1.53 0 01-1.56 1.48 27.7 27.7 0 01-27.1-27.22 1.52 1.52 0 011.48-1.56h0a1.57 1.57 0 011.62 1.5 24.86 24.86 0 0024.07 24.17A1.57 1.57 0 012300.25 1657.12z"/><path fill="#b1e2f9" d="M2300.48,1650.65h0a1.53,1.53,0,0,1-1.62,1.47,21.76,21.76,0,0,1-20.82-20.9,1.53,1.53,0,0,1,1.48-1.62h0a1.56,1.56,0,0,1,1.61,1.47A18.92,18.92,0,0,0,2299,1649,1.57,1.57,0,0,1,2300.48,1650.65Z"/><path fill="#b1e2f9" d="M2300.71,1644.37v0a1.54,1.54,0,0,1-1.65,1.48,16,16,0,0,1-14.76-14.81,1.52,1.52,0,0,1,1.48-1.65h0a1.56,1.56,0,0,1,1.6,1.42,13.19,13.19,0,0,0,11.89,11.92A1.58,1.58,0,0,1,2300.71,1644.37Z"/></g><g data-name="Arm 03"><rect width="163.3" height="36.54" x="3124.29" y="1308.56" fill="#b1e2f9" transform="rotate(180 3205.945 1326.825)"/><path fill="#b1e2f9" d="M3311.19 1563c3.37-15.39-2.45-32.16-14.16-40.78-10.93-8-24.87-7.92-39.25.33-17.1 9.83-29.22.16-33.64-4.45-9.09-9.49-12.3-23.9-7.15-32.12l-2.21-1.39c-5.84 9.33-2.56 24.84 7.48 35.32a29.92 29.92 0 0016 9c6.8 1.28 13.79-.11 20.78-4.12 13.43-7.71 26.36-7.89 36.41-.49 10.9 8 16.31 23.69 13.16 38.11zM3191.34 1471.27l-.86-7.34c-3.18.38-14.78-2.06-24.68-10.35a38.63 38.63 0 01-14.2-28.24c-.67-10.95 2.12-20 8.29-26.77 12.23-13.5 33.94-14.41 34.16-14.42l-.24-7.38c-1 0-25 1-39.34 16.8-7.58 8.35-11 19.19-10.22 32.22a46.34 46.34 0 0016.83 33.46C3172.23 1468.58 3185.73 1471.94 3191.34 1471.27z"/><rect width="125.3" height="44.84" x="3143.11" y="1320.64" fill="#b1e2f9" rx="4.97" transform="rotate(180 3205.765 1343.065)"/><rect width="23.25" height="80.23" x="3195.17" y="1391.5" fill="#b1e2f9"/><path fill="#b1e2f9" d="M3230,1340.12v56a23.26,23.26,0,0,1-23.23,23.29h0a23.26,23.26,0,0,1-23.22-23.29v-56Z"/><path fill="#b1e2f9" d="M3194.31 1390.59a13.56 13.56 0 1017.82-7.1A13.62 13.62 0 003194.31 1390.59zM3235.54 1338.17a11.44 11.44 0 1015-6.14A11.5 11.5 0 003235.54 1338.17zM3155 1338.62a11.44 11.44 0 1015-6A11.5 11.5 0 003155 1338.62zM3315.2 1436.27l-104.64-2.87a29.09 29.09 0 00-29.85 28.32h0a29.1 29.1 0 0028.25 29.92l104.64 2.87a29.08 29.08 0 0029.84-28.32h0A29.1 29.1 0 003315.2 1436.27z"/><path fill="#b1e2f9" d="M3223.23 1469.25a14.87 14.87 0 10-19.66 7.44A14.92 14.92 0 003223.23 1469.25zM3327.88 1471.54a14.87 14.87 0 10-19.74 7.23A14.94 14.94 0 003327.88 1471.54z"/><polygon fill="#b1e2f9" points="3276.97 1514.65 3319.5 1462.76 3331.09 1472.31 3288.56 1524.2 3276.97 1514.65"/><path fill="#b1e2f9" d="M3281.84,1495l-36,43.62a15.76,15.76,0,0,0,2.08,22.14h0a15.67,15.67,0,0,0,22.08-2.08l36-43.63a15.75,15.75,0,0,0-2.08-22.13h0A15.65,15.65,0,0,0,3281.84,1495Z"/><path fill="#b1e2f9" d="M3263.82 1545.9a6.45 6.45 0 10-2.72 8.72A6.43 6.43 0 003263.82 1545.9zM3300.05 1500.93a6.45 6.45 0 10-2.72 8.73A6.45 6.45 0 003300.05 1500.93z"/><polygon fill="#b1e2f9" points="3285.01 1582.69 3249.02 1549.98 3259.9 1537.94 3295.9 1570.65 3285.01 1582.69"/><polygon fill="#b1e2f9" points="3310.06 1603.88 3320.69 1591.86 3315.66 1587.38 3305.03 1599.4 3310.06 1603.88"/><polygon fill="#b1e2f9" points="3317.56 1606.26 3323.95 1599.04 3316.43 1592.35 3310.04 1599.57 3317.56 1606.26"/><polygon fill="#b1e2f9" points="3310.06 1603.88 3320.69 1591.86 3315.66 1587.38 3305.03 1599.4 3310.06 1603.88"/><path fill="#b1e2f9" d="M3316.85,1610.41h0v0h0l-.07-1.67a9.68,9.68,0,0,1,2.42-6.87h0a9.69,9.69,0,0,1,6.52-3.24l1.66-.12h0l6,5.29h0l.06,1.69a9.66,9.66,0,0,1-2.43,6.8l0,.06a9.71,9.71,0,0,1-6.44,3.23l-1.68.14h0Z"/><polygon fill="#b1e2f9" points="3328.96 1616.68 3335.04 1609.81 3330.23 1605.53 3324.15 1612.4 3328.96 1616.68"/><polygon fill="#b1e2f9" points="3325.06 1604.56 3345.61 1622.83 3345.74 1625.37 3343.14 1625.63 3322.58 1607.36 3325.06 1604.56"/><polygon fill="#b1e2f9" points="3306.42 1602.86 3319.25 1588.35 3317.75 1573.73 3291.76 1603.12 3306.42 1602.86"/><polygon fill="#b1e2f9" points="3288.65 1560.2 3274.87 1575.77 3273.3 1588.63 3301.2 1557.09 3288.65 1560.2"/><polygon fill="#b1e2f9" points="3290.43 1605.58 3320.03 1572.12 3300.94 1555.15 3271.34 1588.6 3290.43 1605.58"/><path fill="#b1e2f9" d="M3348.47 1633.44a4.9 4.9 0 015-4.75 4.76 4.76 0 014.68 4.91 4.89 4.89 0 01-5 4.75A4.78 4.78 0 013348.47 1633.44zM3351.33 1657.89h0a1.52 1.52 0 001.56 1.48 27.71 27.71 0 0027.1-27.21 1.52 1.52 0 00-1.48-1.56h0a1.56 1.56 0 00-1.62 1.5 24.85 24.85 0 01-24.07 24.16A1.58 1.58 0 003351.33 1657.89z"/><path fill="#b1e2f9" d="M3351.09,1651.42h0a1.52,1.52,0,0,0,1.62,1.48,21.78,21.78,0,0,0,20.82-20.9,1.54,1.54,0,0,0-1.48-1.62h0a1.57,1.57,0,0,0-1.62,1.46,18.92,18.92,0,0,1-17.88,18A1.57,1.57,0,0,0,3351.09,1651.42Z"/><path fill="#b1e2f9" d="M3350.87,1645.15v0a1.51,1.51,0,0,0,1.64,1.47,16,16,0,0,0,14.77-14.8,1.52,1.52,0,0,0-1.48-1.65h0a1.58,1.58,0,0,0-1.61,1.42,13.17,13.17,0,0,1-11.88,11.92A1.57,1.57,0,0,0,3350.87,1645.15Z"/></g><rect width="2.84" height="4.56" x="837.6" y="1307.22" fill="#b1e2f9"/><path fill="#b1e2f9" d="M2135.58,1311.78h-5.68v-4.56h5.68Zm-11.36,0h-5.68v-4.56h5.68Zm-11.36,0h-5.68v-4.56h5.68Zm-11.36,0h-5.68v-4.56h5.68Zm-11.36,0h-5.68v-4.56h5.68Zm-11.36,0h-5.68v-4.56h5.68Zm-11.36,0h-5.69v-4.56h5.69Zm-11.37,0h-5.68v-4.56h5.68Zm-11.36,0H2039v-4.56h5.68Zm-11.36,0h-5.68v-4.56h5.68Zm-11.36,0h-5.68v-4.56H2022Zm-11.36,0h-5.68v-4.56h5.68Zm-11.36,0h-5.68v-4.56h5.68Zm-11.36,0h-5.68v-4.56h5.68Zm-11.36,0h-5.68v-4.56h5.68Zm-11.36,0h-5.68v-4.56h5.68Zm-11.36,0h-5.68v-4.56h5.68Zm-11.36,0h-5.68v-4.56h5.68Zm-11.37,0h-5.68v-4.56h5.68Zm-11.36,0H1914v-4.56h5.68Zm-11.36,0h-5.68v-4.56h5.68Zm-11.36,0h-5.68v-4.56H1897Zm-11.36,0H1880v-4.56h5.68Zm-11.36,0h-5.68v-4.56h5.68Zm-11.36,0h-5.68v-4.56h5.68Zm-11.36,0h-5.68v-4.56h5.68Zm-11.36,0h-5.68v-4.56h5.68Zm-11.36,0h-5.68v-4.56h5.68Zm-11.36,0h-5.68v-4.56h5.68Zm-11.37,0h-5.68v-4.56h5.68Zm-11.36,0h-5.68v-4.56h5.68Zm-11.36,0h-5.68v-4.56h5.68Zm-11.36,0h-5.68v-4.56H1772Zm-11.36,0H1755v-4.56h5.68Zm-11.36,0h-5.68v-4.56h5.68Zm-11.36,0h-5.68v-4.56H1738Zm-11.36,0h-5.68v-4.56h5.68Zm-11.36,0h-5.68v-4.56h5.68Zm-11.36,0h-5.68v-4.56h5.68Zm-11.36,0h-5.68v-4.56h5.68Zm-11.37,0h-5.68v-4.56h5.68Zm-11.36,0h-5.68v-4.56h5.68Zm-11.36,0h-5.68v-4.56h5.68Zm-11.36,0h-5.68v-4.56h5.68Zm-11.36,0H1630v-4.56h5.68Zm-11.36,0h-5.68v-4.56h5.68Zm-11.36,0h-5.68v-4.56H1613Zm-11.36,0h-5.68v-4.56h5.68Zm-11.36,0h-5.68v-4.56h5.68Zm-11.36,0h-5.68v-4.56h5.68Zm-11.36,0h-5.68v-4.56h5.68Zm-11.37,0h-5.68v-4.56h5.68Zm-11.36,0h-5.68v-4.56h5.68Zm-11.36,0h-5.68v-4.56h5.68Zm-11.36,0h-5.68v-4.56h5.68Zm-11.36,0h-5.68v-4.56h5.68Zm-11.36,0h-5.68v-4.56h5.68Zm-11.36,0h-5.68v-4.56H1488Zm-11.36,0H1471v-4.56h5.68Zm-11.36,0h-5.68v-4.56h5.68Zm-11.36,0h-5.68v-4.56h5.68Zm-11.36,0h-5.69v-4.56h5.69Zm-11.37,0h-5.68v-4.56h5.68Zm-11.36,0h-5.68v-4.56h5.68Zm-11.36,0h-5.68v-4.56h5.68Zm-11.36,0h-5.68v-4.56h5.68Zm-11.36,0h-5.68v-4.56h5.68Zm-11.36,0h-5.68v-4.56h5.68Zm-11.36,0h-5.68v-4.56H1363Zm-11.36,0H1346v-4.56h5.68Zm-11.36,0h-5.68v-4.56h5.68Zm-11.36,0h-5.68v-4.56H1329Zm-11.36,0h-5.69v-4.56h5.69Zm-11.37,0h-5.68v-4.56h5.68Zm-11.36,0h-5.68v-4.56h5.68Zm-11.36,0h-5.68v-4.56h5.68Zm-11.36,0h-5.68v-4.56h5.68Zm-11.36,0h-5.68v-4.56h5.68Zm-11.36,0h-5.68v-4.56h5.68Zm-11.36,0h-5.68v-4.56h5.68Zm-11.36,0H1221v-4.56h5.68Zm-11.36,0h-5.68v-4.56h5.68Zm-11.36,0h-5.68v-4.56H1204Zm-11.36,0H1187v-4.56h5.68Zm-11.37,0h-5.68v-4.56h5.68Zm-11.36,0h-5.68v-4.56h5.68Zm-11.36,0h-5.68v-4.56h5.68Zm-11.36,0h-5.68v-4.56h5.68Zm-11.36,0h-5.68v-4.56h5.68Zm-11.36,0h-5.68v-4.56h5.68Zm-11.36,0h-5.68v-4.56h5.68Zm-11.36,0h-5.68v-4.56h5.68Zm-11.36,0h-5.68v-4.56h5.68Zm-11.36,0h-5.68v-4.56H1079Zm-11.36,0H1062v-4.56h5.69Zm-11.37,0h-5.68v-4.56h5.68Zm-11.36,0h-5.68v-4.56h5.68Zm-11.36,0h-5.68v-4.56h5.68Zm-11.36,0h-5.68v-4.56h5.68Zm-11.36,0h-5.68v-4.56h5.68Zm-11.36,0h-5.68v-4.56h5.68Zm-11.36,0h-5.68v-4.56h5.68Zm-11.36,0h-5.68v-4.56h5.68Zm-11.36,0h-5.68v-4.56h5.68Zm-11.36,0h-5.68v-4.56h5.68Zm-11.36,0H937v-4.56h5.69Zm-11.37,0h-5.68v-4.56h5.68Zm-11.36,0h-5.68v-4.56H920Zm-11.36,0h-5.68v-4.56h5.68Zm-11.36,0h-5.68v-4.56h5.68Zm-11.36,0H880.2v-4.56h5.68Zm-11.36,0h-5.68v-4.56h5.68Zm-11.36,0h-5.68v-4.56h5.68Zm-11.36,0h-5.68v-4.56h5.68Z"/><rect width="2.84" height="4.56" x="2141.26" y="1307.22" fill="#b1e2f9"/><path fill="#b1e2f9" d="M2152.69,1309.22H834.19a4.28,4.28,0,0,1,0-8.55h1318.5a4.28,4.28,0,0,1,0,8.55Z"/><rect width="2.84" height="4.56" x="2152.18" y="1307.22" fill="#b1e2f9"/><path fill="#b1e2f9" d="M3450.17,1311.78h-5.68v-4.56h5.68Zm-11.36,0h-5.68v-4.56h5.68Zm-11.36,0h-5.68v-4.56h5.68Zm-11.36,0h-5.68v-4.56h5.68Zm-11.36,0h-5.68v-4.56h5.68Zm-11.37,0h-5.68v-4.56h5.68Zm-11.36,0h-5.68v-4.56H3382Zm-11.36,0H3365v-4.56h5.68Zm-11.36,0h-5.68v-4.56h5.68Zm-11.36,0h-5.68v-4.56h5.68Zm-11.36,0h-5.68v-4.56h5.68Zm-11.36,0h-5.68v-4.56h5.68Zm-11.36,0h-5.68v-4.56h5.68Zm-11.36,0h-5.68v-4.56h5.68Zm-11.36,0h-5.68v-4.56h5.68Zm-11.36,0h-5.68v-4.56h5.68Zm-11.37,0h-5.68v-4.56h5.68Zm-11.36,0h-5.68v-4.56H3257Zm-11.36,0H3240v-4.56h5.68Zm-11.36,0h-5.68v-4.56h5.68Zm-11.36,0h-5.68v-4.56H3223Zm-11.36,0h-5.68v-4.56h5.68Zm-11.36,0h-5.68v-4.56h5.68Zm-11.36,0h-5.68v-4.56h5.68Zm-11.36,0h-5.68v-4.56h5.68Zm-11.36,0h-5.68v-4.56h5.68Zm-11.36,0h-5.68v-4.56h5.68Zm-11.37,0h-5.68v-4.56h5.68Zm-11.36,0h-5.68v-4.56h5.68Zm-11.36,0H3115v-4.56h5.68Zm-11.36,0h-5.68v-4.56h5.68Zm-11.36,0h-5.68v-4.56H3098Zm-11.36,0h-5.68v-4.56h5.68Zm-11.36,0h-5.68v-4.56h5.68Zm-11.36,0h-5.68v-4.56h5.68Zm-11.36,0h-5.68v-4.56h5.68Zm-11.36,0h-5.68v-4.56h5.68Zm-11.36,0h-5.68v-4.56h5.68Zm-11.36,0h-5.69v-4.56h5.69Zm-11.37,0h-5.68v-4.56h5.68Zm-11.36,0h-5.68v-4.56h5.68Zm-11.36,0h-5.68v-4.56h5.68Zm-11.36,0h-5.68v-4.56H2973Zm-11.36,0H2956v-4.56h5.68Zm-11.36,0h-5.68v-4.56h5.68Zm-11.36,0h-5.68v-4.56h5.68Zm-11.36,0h-5.68v-4.56h5.68Zm-11.36,0h-5.68v-4.56h5.68Zm-11.36,0h-5.68v-4.56h5.68Zm-11.36,0h-5.69v-4.56h5.69Zm-11.37,0h-5.68v-4.56h5.68Zm-11.36,0h-5.68v-4.56h5.68Zm-11.36,0h-5.68v-4.56h5.68Zm-11.36,0h-5.68v-4.56H2848Zm-11.36,0H2831v-4.56h5.68Zm-11.36,0h-5.68v-4.56h5.68Zm-11.36,0h-5.68v-4.56H2814Zm-11.36,0h-5.68v-4.56h5.68Zm-11.36,0h-5.68v-4.56h5.68Zm-11.36,0h-5.68v-4.56h5.68Zm-11.37,0h-5.68v-4.56h5.68Zm-11.36,0h-5.68v-4.56h5.68Zm-11.36,0h-5.68v-4.56h5.68Zm-11.36,0h-5.68v-4.56h5.68Zm-11.36,0h-5.68v-4.56h5.68Zm-11.36,0H2706v-4.56h5.68Zm-11.36,0h-5.68v-4.56h5.68Zm-11.36,0h-5.68v-4.56H2689Zm-11.36,0H2672v-4.56h5.68Zm-11.36,0h-5.68v-4.56h5.68Zm-11.36,0h-5.68v-4.56h5.68Zm-11.37,0h-5.68v-4.56h5.68Zm-11.36,0h-5.68v-4.56h5.68Zm-11.36,0h-5.68v-4.56h5.68Zm-11.36,0h-5.68v-4.56h5.68Zm-11.36,0h-5.68v-4.56h5.68Zm-11.36,0h-5.68v-4.56h5.68Zm-11.36,0h-5.68v-4.56h5.68Zm-11.36,0h-5.68v-4.56H2564Zm-11.36,0H2547v-4.56h5.68Zm-11.36,0h-5.68v-4.56h5.68Zm-11.36,0h-5.68v-4.56h5.68Zm-11.37,0h-5.68v-4.56h5.68Zm-11.36,0h-5.68v-4.56h5.68Zm-11.36,0h-5.68v-4.56h5.68Zm-11.36,0h-5.68v-4.56h5.68Zm-11.36,0h-5.68v-4.56h5.68Zm-11.36,0h-5.68v-4.56h5.68Zm-11.36,0h-5.68v-4.56h5.68Zm-11.36,0h-5.68v-4.56h5.68Zm-11.36,0H2422v-4.56h5.68Zm-11.36,0h-5.68v-4.56h5.68Zm-11.36,0h-5.68v-4.56H2405Zm-11.37,0h-5.68v-4.56h5.68Zm-11.36,0h-5.68v-4.56h5.68Zm-11.36,0h-5.68v-4.56h5.68Zm-11.36,0h-5.68v-4.56h5.68Zm-11.36,0h-5.68v-4.56h5.68Zm-11.36,0h-5.68v-4.56h5.68Zm-11.36,0h-5.68v-4.56h5.68Zm-11.36,0h-5.68v-4.56h5.68Zm-11.36,0H2297v-4.56h5.68Zm-11.36,0h-5.68v-4.56h5.68Zm-11.36,0h-5.68v-4.56H2280Zm-11.37,0H2263v-4.56h5.68Zm-11.36,0h-5.68v-4.56h5.68Zm-11.36,0h-5.68v-4.56h5.68Zm-11.36,0h-5.68v-4.56h5.68Zm-11.36,0h-5.68v-4.56h5.68Zm-11.36,0h-5.68v-4.56h5.68Zm-11.36,0h-5.68v-4.56h5.68Zm-11.36,0h-5.68v-4.56h5.68Zm-11.36,0h-5.68v-4.56h5.68Zm-11.36,0h-5.68v-4.56h5.68Z"/><rect width="2.84" height="4.56" x="3455.85" y="1307.22" fill="#b1e2f9"/><path fill="#b1e2f9" d="M3467.28,1309.22H2148.78a4.28,4.28,0,0,1,0-8.55h1318.5a4.28,4.28,0,0,1,0,8.55Z"/><ellipse cx="2349.07" cy="2598.12" fill="#b1bedd" rx="1734.92" ry="161.88"/><rect width="28.15" height="130.05" x="4060.78" y="1266.54" fill="#241e3b"/><path fill="#5cbee3" d="M4091.93,1356.9h-33a25.9,25.9,0,0,0-9.58,20.17l.07,23.8,52.14-.1-.07-23.79A25.88,25.88,0,0,0,4091.93,1356.9Z"/><rect width="61.62" height="7.45" x="4044.86" y="1400.77" fill="#241e3b"/><path fill="#241e3b" d="M4061.63 1409a6 6 0 11-6-6A6 6 0 014061.63 1409zM4101.56 1409a6 6 0 11-6-6A6 6 0 014101.56 1409z"/><rect width="106.33" height="43.06" x="3968.15" y="1245" fill="#241e3b"/><path fill="#5cbee3" d="M3984.49 1313.67h-87.2a47.08 47.08 0 01-47-47.14h0a47.08 47.08 0 0147-47.14h87.2zM4069.48 1313.67H4008v-94.28h61.52a47.08 47.08 0 0147 47.14h0A47.08 47.08 0 014069.48 1313.67z"/><path fill="#4a58a6" d="M4080.38,1289a24.85,24.85,0,1,1,13.35-32.51A25,25,0,0,1,4080.38,1289Zm-15.2-36.18a14.39,14.39,0,1,0,18.87,7.71A14.39,14.39,0,0,0,4065.18,1252.85Z"/><polygon fill="#241e3b" points="3699.65 1479.88 3624.71 1364.22 3648.92 1348.62 3723.86 1464.29 3699.65 1479.88"/><path fill="#241e3b" d="M3485.91,1535.35h0a37.47,37.47,0,0,1,11.3-51.87l193.67-124.34,40.72,63.13-193.67,124.34A37.71,37.71,0,0,1,3485.91,1535.35Z"/><path fill="#5cbee3" d="M3714.89,1482.11l209.52-154.73a63.11,63.11,0,0,0,15.44-85.24h0a63.51,63.51,0,0,0-84.38-20.61l-226.53,127.92Z"/><path fill="#4a58a6" d="M3908.6,1310.74a40.6,40.6,0,1,1,12-56.11A40.8,40.8,0,0,1,3908.6,1310.74Zm-35-53.72a23.51,23.51,0,1,0,32.59,6.91A23.48,23.48,0,0,0,3873.61,1257Z"/><path fill="#1061a0" d="M3584,2157.6h0c-62.69-24.89-93.28-95.74-68.33-158.25l113.28-283.76c25-62.52,96-93,158.7-68.13h0a121.71,121.71,0,0,1,68.32,158.25l-113.27,283.76C3717.7,2152,3646.65,2182.49,3584,2157.6Z"/><path fill="#5cbee3" d="M3825.73,1842h0a122.42,122.42,0,0,1-172.35-12.22l-200.65-230.75A121.59,121.59,0,0,1,3465,1427.21h0a122.42,122.42,0,0,1,172.35,12.23L3838,1670.18A121.59,121.59,0,0,1,3825.73,1842Z"/><path fill="#4a58a6" d="M3498.19 1465.39a64.22 64.22 0 1090.74 6.44A64 64 0 003498.19 1465.39zm67.34 77.44a38.4 38.4 0 113.86-54.11A38.54 38.54 0 013565.53 1542.83zM3768.86 1694.4a64.17 64.17 0 1036 83.32A64.38 64.38 0 003768.86 1694.4zm-38 95.24a38.37 38.37 0 1150-21.46A38.32 38.32 0 013730.85 1789.64z"/><path fill="#241e3b" d="M3629.06,2000.93a64.17,64.17,0,1,0,36,83.32A64.38,64.38,0,0,0,3629.06,2000.93Zm-38,95.24a38.37,38.37,0,1,1,50-21.45A38.32,38.32,0,0,1,3591,2096.17Z"/><path fill="#4a58a6" d="M3528.5,2176H3701a24.77,24.77,0,0,1,24.77,24.77v180.9a0,0,0,0,1,0,0h-222a0,0,0,0,1,0,0v-180.9A24.77,24.77,0,0,1,3528.5,2176Z"/><path fill="#9399cc" d="M3582.9,2247a50.41,50.41,0,1,0,71.22,5.05A50.24,50.24,0,0,0,3582.9,2247Zm52.86,60.79a30.15,30.15,0,1,1,3-42.48A30.25,30.25,0,0,1,3635.76,2307.81Z"/><path fill="#4a58a6" d="M3829.56,2489.27H3405.84v-59a54.18,54.18,0,0,1,54.1-54.24h315.52a54.17,54.17,0,0,1,54.1,54.24Z"/><path fill="#241e3b" d="M3842,2567.83H3392.71a56.54,56.54,0,0,1-56.47-56.62h0a56.54,56.54,0,0,1,56.47-56.61H3842a56.54,56.54,0,0,1,56.47,56.61h0A56.54,56.54,0,0,1,3842,2567.83Z"/><rect width="1790.1" height="445.51" x="1723.39" y="2109.18" fill="#39a290"/><path fill="#0a4e45" d="M3513.49,2304v250.65H1723.39V2432.55C2141.11,2344.5,2850.2,2685,3513.49,2304Z" opacity=".1"/><path fill="#0b609f" d="M3654.41,2114.41H2558.9c-25.25,0-45.73-21.52-45.73-48.08h0c0-26.56,20.48-48.08,45.73-48.08H3654.41c25.26,0,45.73,21.52,45.73,48.08h0C3700.14,2092.89,3679.67,2114.41,3654.41,2114.41Z"/><path fill="#1d285c" d="M3654.41,2027.69c20.26,0,36.75,17.33,36.75,38.64s-16.49,38.64-36.75,38.64H2558.9c-20.26,0-36.75-17.33-36.75-38.64s16.49-38.64,36.75-38.64Zm0-9.44H2558.9c-25.25,0-45.73,21.52-45.73,48.08h0c0,26.56,20.48,48.08,45.73,48.08H3654.41c25.26,0,45.73-21.52,45.73-48.08h0c0-26.56-20.47-48.08-45.73-48.08Z"/><ellipse cx="2559.58" cy="2066.33" fill="#00b1d1" rx="30.15" ry="31.7"/><ellipse cx="3651.99" cy="2066.33" fill="#00b1d1" rx="30.15" ry="31.7"/><rect width="49.8" height="77.64" x="3390.43" y="2027.18" fill="#1d285c"/><rect width="49.8" height="77.64" x="3505.97" y="2027.64" fill="#1d285c"/><rect width="49.8" height="77.64" x="2620.37" y="2027.65" fill="#1d285c"/><rect width="49.8" height="77.64" x="2732.78" y="2027.65" fill="#1d285c"/><rect width="49.8" height="77.64" x="2840.92" y="2027.65" fill="#1d285c"/><rect width="49.8" height="78.53" x="2945.47" y="2026.74" fill="#1d285c"/><rect width="49.8" height="78.53" x="3055.24" y="2026.74" fill="#1d285c"/><rect width="49.8" height="78.53" x="3167.42" y="2027.65" fill="#1d285c"/><rect width="49.8" height="78.53" x="3275.23" y="2026.96" fill="#1d285c"/><path fill="#0b609f" d="M2554.09,2114.68H1458.59c-25.26,0-45.74-21.52-45.74-48.08h0c0-26.55,20.48-48.08,45.74-48.08h1095.5c25.26,0,45.73,21.53,45.73,48.08h0C2599.82,2093.16,2579.35,2114.68,2554.09,2114.68Z"/><path fill="#1d285c" d="M2554.09,2028c20.26,0,36.75,17.34,36.75,38.64s-16.49,38.64-36.75,38.64H1458.59c-20.27,0-36.76-17.33-36.76-38.64s16.49-38.64,36.76-38.64Zm0-9.44H1458.59c-25.26,0-45.74,21.53-45.74,48.08h0c0,26.56,20.48,48.08,45.74,48.08h1095.5c25.26,0,45.73-21.52,45.73-48.08h0c0-26.55-20.47-48.08-45.73-48.08Z"/><ellipse cx="1459.26" cy="2066.6" fill="#00b1d1" rx="30.15" ry="31.7"/><ellipse cx="2551.67" cy="2066.6" fill="#00b1d1" rx="30.15" ry="31.7"/><rect width="49.8" height="77.64" x="2290.11" y="2027.45" fill="#1d285c"/><rect width="49.8" height="77.64" x="2405.66" y="2027.91" fill="#1d285c"/><rect width="49.8" height="77.64" x="1520.05" y="2027.92" fill="#1d285c"/><rect width="49.8" height="77.64" x="1632.46" y="2027.92" fill="#1d285c"/><rect width="49.8" height="77.64" x="1740.6" y="2027.92" fill="#1d285c"/><rect width="49.8" height="78.53" x="1845.15" y="2027.01" fill="#1d285c"/><rect width="49.8" height="78.53" x="1954.93" y="2027.01" fill="#1d285c"/><rect width="49.8" height="78.53" x="2067.1" y="2027.92" fill="#1d285c"/><rect width="49.8" height="78.53" x="2174.91" y="2027.24" fill="#1d285c"/><path fill="#0b609f" d="M1813.43,2114.68H717.93c-25.26,0-45.74-21.52-45.74-48.08h0c0-26.55,20.48-48.08,45.74-48.08h1095.5c25.26,0,45.74,21.53,45.74,48.08h0C1859.17,2093.16,1838.69,2114.68,1813.43,2114.68Z"/><path fill="#1d285c" d="M1813.43,2028c20.27,0,36.76,17.34,36.76,38.64s-16.49,38.64-36.76,38.64H717.93c-20.27,0-36.75-17.33-36.75-38.64S697.66,2028,717.93,2028Zm0-9.44H717.93c-25.26,0-45.74,21.53-45.74,48.08h0c0,26.56,20.48,48.08,45.74,48.08h1095.5c25.26,0,45.74-21.52,45.74-48.08h0c0-26.55-20.48-48.08-45.74-48.08Z"/><ellipse cx="718.6" cy="2066.6" fill="#00b1d1" rx="30.15" ry="31.7"/><ellipse cx="1811.01" cy="2066.6" fill="#00b1d1" rx="30.15" ry="31.7"/><rect width="49.8" height="77.64" x="1549.46" y="2027.45" fill="#1d285c"/><rect width="49.8" height="77.64" x="1665" y="2027.91" fill="#1d285c"/><rect width="49.8" height="77.64" x="779.4" y="2027.92" fill="#1d285c"/><rect width="49.8" height="77.64" x="891.8" y="2027.92" fill="#1d285c"/><rect width="49.8" height="77.64" x="999.94" y="2027.92" fill="#1d285c"/><rect width="49.8" height="78.53" x="1104.49" y="2027.01" fill="#1d285c"/><rect width="49.8" height="78.53" x="1214.27" y="2027.01" fill="#1d285c"/><rect width="49.8" height="78.53" x="1326.44" y="2027.92" fill="#1d285c"/><rect width="49.8" height="78.53" x="1434.26" y="2027.24" fill="#1d285c"/><rect width="1786.77" height="66.14" x="1723.16" y="2104.7" fill="#0a4e45" opacity=".2"/><ellipse cx="1811.81" cy="2308.93" fill="#f79831" rx="73.33" ry="73.52"/><ellipse cx="1811.81" cy="2308.93" fill="#fff" rx="48.96" ry="49.08"/><rect width="775.06" height="216.21" x="1950.58" y="2211.38" fill="#237165" rx="5.37"/><path fill="#fcbc68" d="M2022.81 2391.65h0a15.32 15.32 0 01-15.3-15.34V2272.09a15.32 15.32 0 0115.3-15.34h0a15.32 15.32 0 0115.3 15.34v104.22A15.32 15.32 0 012022.81 2391.65zM2089.25 2391.65h0a15.32 15.32 0 01-15.3-15.34V2272.09a15.32 15.32 0 0115.3-15.34h0a15.32 15.32 0 0115.31 15.34v104.22A15.32 15.32 0 012089.25 2391.65zM2155.7 2391.65h0a15.32 15.32 0 01-15.3-15.34V2272.09a15.32 15.32 0 0115.3-15.34h0a15.32 15.32 0 0115.3 15.34v104.22A15.32 15.32 0 012155.7 2391.65zM2222.15 2391.65h0a15.32 15.32 0 01-15.31-15.34V2272.09a15.32 15.32 0 0115.31-15.34h0a15.32 15.32 0 0115.3 15.34v104.22A15.32 15.32 0 012222.15 2391.65z"/><rect width="35.13" height="35.21" x="2306.83" y="2256.75" fill="#39b9c7"/><rect width="35.13" height="35.21" x="2383.3" y="2256.75" fill="#39b9c7"/><rect width="35.13" height="35.21" x="2459.77" y="2256.75" fill="#39b9c7"/><rect width="35.13" height="35.21" x="2536.24" y="2256.75" fill="#39b9c7"/><rect width="35.13" height="35.21" x="2612.71" y="2256.75" fill="#39b9c7"/><rect width="35.13" height="35.21" x="2306.83" y="2349.65" fill="#39b9c7"/><rect width="35.13" height="35.21" x="2383.3" y="2349.65" fill="#39b9c7"/><rect width="35.13" height="35.21" x="2459.77" y="2349.65" fill="#39b9c7"/><rect width="35.13" height="35.21" x="2536.24" y="2349.65" fill="#39b9c7"/><rect width="35.13" height="35.21" x="2612.71" y="2349.65" fill="#39b9c7"/><rect width="590.67" height="223.46" x="2805.33" y="2211.03" fill="#237165" rx="5.37"/><rect width="590.67" height="223.46" x="2805.33" y="2211.03" fill="#237165" rx="5.37"/><rect width="590.67" height="223.46" x="2805.33" y="2211.03" fill="#237165" opacity=".2" rx="5.37"/><rect width="295.65" height="260.18" x="841.82" y="1754.24" fill="#e68b43"/><rect width="295.65" height="260.18" x="930.93" y="1754.24" fill="#fab377"/><rect width="31.93" height="52.5" x="1054.16" y="1754.24" fill="#fff"/><rect width="30.74" height="29.45" x="1138.88" y="1966.16" fill="#e68b43"/><rect width="30.74" height="29.45" x="1181.49" y="1966.16" fill="#e68b43"/><rect width="30.74" height="29.45" x="1095.96" y="1966.16" fill="#e68b43"/><ellipse cx="1258.05" cy="1199.86" fill="#1061a0" rx="26.73" ry="26.79"/><path fill="#1061a0" d="M1163.45,1115.88l-11.35-13c63.63-64,162.81-61.67,223.32,5.28l-12,12.37C1309.21,1060.78,1220.48,1058.67,1163.45,1115.88Z"/><path fill="#1061a0" d="M1187,1142.76l-11.35-12.94c49.93-49.87,127.41-48,174.92,4.09l-12,12.37C1297.36,1101.29,1230.34,1099.72,1187,1142.76Z"/><path fill="#1061a0" d="M1209.82,1168.79l-11.35-13c36.67-36.16,93.12-34.84,128.06,3l-12,12.38C1285.89,1140.51,1239.88,1139.44,1209.82,1168.79Z"/><rect width="2512.18" height="37.86" x="954.02" y="975.05" fill="#1d285c"/><rect width="2512.18" height="37.86" x="954.02" y="796.95" fill="#1d285c"/><rect width="64.3" height="140.28" x="1126.22" y="834.81" fill="#1d285c"/><rect width="64.3" height="140.28" x="1928.39" y="834.81" fill="#1d285c"/><rect width="64.3" height="140.28" x="2730.55" y="834.81" fill="#1d285c"/><polygon fill="#1d285c" points="1559.45 981.92 1436.47 844.73 1313.5 981.91 1182.15 835.96 1188.91 829.85 1313.49 968.27 1436.47 831.08 1559.45 968.26 1682.43 831.08 1805.42 968.27 1932.84 826.99 1939.59 833.12 1805.4 981.9 1682.43 844.73 1559.45 981.92"/><polygon fill="#1d285c" points="2360.2 981.92 2237.22 844.73 2114.25 981.91 1982.89 835.96 1989.65 829.85 2114.23 968.27 2237.22 831.08 2360.2 968.26 2483.18 831.08 2606.16 968.27 2733.58 826.99 2740.34 833.12 2606.14 981.9 2483.18 844.73 2360.2 981.92"/><polygon fill="#1d285c" points="3283.92 831.08 3160.94 968.26 3037.97 831.08 2914.98 968.27 2790.4 829.85 2783.64 835.96 2915 981.91 3037.97 844.73 3160.94 981.92 3283.92 844.73 3406.89 981.9 3406.91 968.27 3283.92 831.08"/><polygon fill="#1d285c" points="1138.8 833.11 1137.27 834.8 1126.23 847.03 1010.77 975.05 1004.58 981.9 998.42 975.05 954.02 925.49 954.02 911.83 1004.62 968.28 1124.99 834.8 1132.05 826.98 1138.8 833.11"/><path fill="#f79831" d="M1987.57,1434.59h38l3.38-94.73a22.44,22.44,0,0,0-22.38-23.6h0a22.43,22.43,0,0,0-22.37,23.6Z"/><path fill="#1061a0" d="M2096,1254.38l96.4,39.4a22.82,22.82,0,0,0,29.78-12.55h0a22.92,22.92,0,0,0-12.53-29.85l-96.4-39.41a22.81,22.81,0,0,0-29.77,12.56h0A22.91,22.91,0,0,0,2096,1254.38Z"/><ellipse cx="2327.52" cy="991.92" fill="#1061a0" rx="46.17" ry="46.28"/><path fill="#1d285c" d="M2307.19,991.92a20.33,20.33,0,1,0,20.33-20.38A20.36,20.36,0,0,0,2307.19,991.92Z"/><ellipse cx="2100.61" cy="991.92" fill="#1061a0" rx="46.17" ry="46.28"/><ellipse cx="2100.61" cy="991.92" fill="#1d285c" rx="20.33" ry="20.38"/><rect width="356.7" height="49.42" x="2035.71" y="1006.42" fill="#1d285c"/><polygon fill="#1d285c" points="2107.79 1140.54 2320.34 1140.54 2360.76 1055.84 2067.36 1055.84 2107.79 1140.54"/><polygon fill="#1061a0" points="2067.37 1055.83 2078.04 1078.2 2350.07 1078.2 2360.74 1055.83 2067.37 1055.83"/><path fill="#f79831" d="M2214.06,1299.57h0a30.17,30.17,0,0,0,30.06-28.08l12.31-134a42.54,42.54,0,0,0-42.37-45.58h0a42.53,42.53,0,0,0-42.36,45.58l12.31,134A30.16,30.16,0,0,0,2214.06,1299.57Z"/><path fill="#f79831" d="M2249.57,1101.3a48.54,48.54,0,0,0-83.93,36.6l.24,2.63,8.9,96.62,3.19,34.9a36.19,36.19,0,0,0,72.2-.13l12-131.39.24-2.51A49,49,0,0,0,2249.57,1101.3Zm-18.68,185.17a9.59,9.59,0,0,1-1.7,1.54,11.28,11.28,0,0,1-1.65,1.26,22,22,0,0,1-4.37,2.39,16.71,16.71,0,0,1-2,.73h0a21,21,0,0,1-2.27.61c-.12,0-.28,0-.44.08-.65.12-1.29.2-1.94.28q-1.22.12-2.43.12a18.79,18.79,0,0,1-2.14-.12,4.44,4.44,0,0,1-1-.12,9,9,0,0,1-1.5-.24,4.65,4.65,0,0,1-.72-.16,12.24,12.24,0,0,1-1.66-.45,11.56,11.56,0,0,1-1.74-.61.15.15,0,0,1-.12,0,6.28,6.28,0,0,1-.77-.32,10,10,0,0,1-1.13-.57,7.56,7.56,0,0,1-1-.57h0a12.28,12.28,0,0,1-1.42-.89,14.31,14.31,0,0,1-1.82-1.38,9.88,9.88,0,0,1-1.69-1.54,13.82,13.82,0,0,1-1.54-1.7,23.89,23.89,0,0,1-5.62-13.7l-2.63-28.77-9.38-101.77-.32-3.61v-.56c0-.69-.08-1.38-.08-2.11a40.09,40.09,0,0,1,.32-5c.08-.44.16-.93.25-1.42.15-.89.36-1.77.58-2.65l.06-.22a36.4,36.4,0,0,1,71.56,7.94,1.27,1.27,0,0,1,0,.32s0,.1,0,.15c0,1.19,0,2.39-.08,3.62,0,.61-.08,1.18-.16,1.75l-.17,1.74-12,130.42a23.87,23.87,0,0,1-5.66,13.82A14.67,14.67,0,0,1,2230.89,1286.47Z"/><path fill="#ffcd4c" d="M2249.57,1101.3a48.54,48.54,0,0,0-83.93,36.6l.24,2.63,8.9,96.62,3.19,34.9a36.19,36.19,0,0,0,72.2-.13l12-131.39.24-2.51A49,49,0,0,0,2249.57,1101.3Zm-18.68,185.17a9.59,9.59,0,0,1-1.7,1.54,11.28,11.28,0,0,1-1.65,1.26,22,22,0,0,1-4.37,2.39,16.71,16.71,0,0,1-2,.73h0a21,21,0,0,1-2.27.61c-.12,0-.28,0-.44.08-.65.12-1.29.2-1.94.28q-1.22.12-2.43.12a18.79,18.79,0,0,1-2.14-.12,4.44,4.44,0,0,1-1-.12,9,9,0,0,1-1.5-.24,4.65,4.65,0,0,1-.72-.16,12.24,12.24,0,0,1-1.66-.45,11.56,11.56,0,0,1-1.74-.61.15.15,0,0,1-.12,0,6.28,6.28,0,0,1-.77-.32,10,10,0,0,1-1.13-.57,7.56,7.56,0,0,1-1-.57h0a12.28,12.28,0,0,1-1.42-.89,14.31,14.31,0,0,1-1.82-1.38,9.88,9.88,0,0,1-1.69-1.54,13.82,13.82,0,0,1-1.54-1.7,23.89,23.89,0,0,1-5.62-13.7l-2.63-28.77-9.38-101.77-.32-3.61v-.56c0-.69-.08-1.38-.08-2.11a40.09,40.09,0,0,1,.32-5c.08-.44.16-.93.25-1.42.15-.89.36-1.77.58-2.65l.06-.22a36.4,36.4,0,0,1,71.56,7.94,1.27,1.27,0,0,1,0,.32s0,.1,0,.15c0,1.19,0,2.39-.08,3.62,0,.61-.08,1.18-.16,1.75l-.17,1.74-12,130.42a23.87,23.87,0,0,1-5.66,13.82A14.67,14.67,0,0,1,2230.89,1286.47Z"/><ellipse cx="2214.06" cy="1134.23" fill="#1061a0" rx="36.42" ry="36.51"/><path fill="#1d285c" d="M2188.53,1134.23a25.53,25.53,0,1,0,25.53-25.59A25.56,25.56,0,0,0,2188.53,1134.23Z"/><ellipse cx="2214.06" cy="1269.6" fill="#1061a0" rx="23.83" ry="23.89"/><path fill="#1d285c" d="M2197.36 1269.6a16.7 16.7 0 1016.7-16.74A16.72 16.72 0 002197.36 1269.6zM2023.78 1353.62l97.39-104.86a23 23 0 00-1.15-32.37h0a22.79 22.79 0 00-32.28 1.16l-97.39 104.86a22.93 22.93 0 001.15 32.36h0A22.8 22.8 0 002023.78 1353.62z"/><path fill="#1061a0" d="M2095.26 1233.86a8.53 8.53 0 108.53-8.55A8.54 8.54 0 002095.26 1233.86zM1998 1338.54a8.53 8.53 0 108.53-8.55A8.54 8.54 0 001998 1338.54z"/><rect width="51.64" height="13.32" x="1980.75" y="1434.59" fill="#1d285c"/><rect width="37.31" height="51.41" x="1987.92" y="1447.92" fill="#1061a0" transform="rotate(180 2006.57 1473.62)"/><rect width="74.89" height="26.21" x="1969.13" y="1499.32" fill="#1d285c"/><path fill="#1061a0" d="M2023.07 1512.43a6.45 6.45 0 106.45-6.47A6.46 6.46 0 002023.07 1512.43zM1977.18 1512.43a6.45 6.45 0 106.45-6.47A6.46 6.46 0 001977.18 1512.43z"/><polygon fill="#1061a0" points="2060.72 1584.56 2080.86 1584.56 2037.05 1525.53 2007.18 1525.53 2060.72 1584.56"/><polygon fill="#1061a0" points="2046.12 1628.42 2056.52 1628.42 2080.86 1584.56 2060.72 1584.56 2046.12 1628.42"/><polygon fill="#1061a0" points="1952.42 1584.56 1932.29 1584.56 1976.09 1525.53 2005.97 1525.53 1952.42 1584.56"/><polygon fill="#1061a0" points="1967.03 1628.42 1956.63 1628.42 1932.29 1584.56 1952.42 1584.56 1967.03 1628.42"/><path fill="#f79831" d="M3189,1482.09h-36.25l-3.22-87c-.62-11.79,9.12-21.69,21.35-21.69h0c12.22,0,22,9.9,21.34,21.69Z"/><path fill="#1061a0" d="M3090.28,1300.56l-93.85-31.3c-11.38-3.79-17.41-15.77-13.49-26.75h0c3.93-11,16.33-16.82,27.71-13l93.85,31.29c11.37,3.79,17.41,15.77,13.48,26.76h0C3114.05,1298.52,3101.65,1304.35,3090.28,1300.56Z"/><ellipse cx="2895.75" cy="993.54" fill="#1061a0" rx="44.03" ry="42.53"/><path fill="#1d285c" d="M2915.14,993.54c0,10.34-8.68,18.73-19.39,18.73s-19.38-8.39-19.38-18.73,8.68-18.73,19.38-18.73S2915.14,983.2,2915.14,993.54Z"/><ellipse cx="3112.16" cy="993.54" fill="#1061a0" rx="44.03" ry="42.53"/><path fill="#1d285c" d="M3131.55,993.54c0,10.34-8.68,18.73-19.39,18.73s-19.39-8.39-19.39-18.73,8.68-18.73,19.39-18.73S3131.55,983.2,3131.55,993.54Z"/><rect width="340.19" height="45.41" x="2833.86" y="1006.86" fill="#1d285c"/><polygon fill="#1d285c" points="3105.31 1130.1 2902.6 1130.1 2864.05 1052.27 3143.87 1052.27 3105.31 1130.1"/><polygon fill="#1061a0" points="2864.06 1052.26 2874.24 1072.82 3133.68 1072.82 3143.85 1052.26 2864.06 1052.26"/><path fill="#f79831" d="M3004,1276.22h0c-15.09,0-27.6-11.26-28.67-25.8l-11.74-123.14c-1.65-22.64,16.91-41.88,40.41-41.88h0c23.49,0,42.06,19.24,40.4,41.88l-11.74,123.14C3031.56,1265,3019,1276.22,3004,1276.22Z"/><path fill="#f79831" d="M3037.81,1094a47.4,47.4,0,0,0-67.7,0,43.84,43.84,0,0,0-12.3,33.74l.23,2.31,11.49,120.73c1.27,17.39,16.39,31,34.43,31a35,35,0,0,0,17-4.35,33.22,33.22,0,0,0,17.43-26.52l1.12-11.84,10.37-109,.23-2.42A43.75,43.75,0,0,0,3037.81,1094Zm-10.95,156a21.63,21.63,0,0,1-8.48,15.56,8.38,8.38,0,0,1-1.74,1.27c-.5.34-1,.63-1.54.93a11,11,0,0,1-1.19.6,14.11,14.11,0,0,1-1.31.59c-.62.23-1.24.45-1.89.64s-1.47.41-2.2.55a18,18,0,0,1-2.12.34h-.23c-.73.07-1.47.11-2.2.11a20.88,20.88,0,0,1-2.12-.11,16.76,16.76,0,0,1-2.89-.45.35.35,0,0,1-.27-.07,10.2,10.2,0,0,1-1.47-.37c-.54-.15-1.08-.34-1.58-.53a.4.4,0,0,1-.19-.07c-.62-.26-1.23-.52-1.81-.82a20.76,20.76,0,0,1-4.36-2.79,14.68,14.68,0,0,1-1.12-1,2,2,0,0,1-.42-.41,15.64,15.64,0,0,1-1.31-1.41,9,9,0,0,1-1.31-1.68,8.56,8.56,0,0,1-1.16-1.79,20.48,20.48,0,0,1-2.89-9.23l-11.41-119.84-.16-1.6c-.08-.52-.11-1-.15-1.6-.08-1.14-.11-2.24-.08-3.34,0,0,0-.09,0-.13a1,1,0,0,1,0-.29,32.64,32.64,0,0,1,9.25-21.49,35.64,35.64,0,0,1,50.82,0,32.9,32.9,0,0,1,9,18.13.31.31,0,0,0,0,.19,27.08,27.08,0,0,1,.27,3.5,30.67,30.67,0,0,1-.08,3.32c0,.89-.15,1.78-.27,2.64l0,.67-10,105.28Z"/><path fill="#ffcd4c" d="M3037.81,1094a47.4,47.4,0,0,0-67.7,0,43.84,43.84,0,0,0-12.3,33.74l.23,2.31,11.49,120.73c1.27,17.39,16.39,31,34.43,31a35,35,0,0,0,17-4.35,33.22,33.22,0,0,0,17.43-26.52l1.12-11.84,10.37-109,.23-2.42A43.75,43.75,0,0,0,3037.81,1094Zm-10.95,156a21.63,21.63,0,0,1-8.48,15.56,8.38,8.38,0,0,1-1.74,1.27c-.5.34-1,.63-1.54.93a11,11,0,0,1-1.19.6,14.11,14.11,0,0,1-1.31.59c-.62.23-1.24.45-1.89.64s-1.47.41-2.2.55a18,18,0,0,1-2.12.34h-.23c-.73.07-1.47.11-2.2.11a20.88,20.88,0,0,1-2.12-.11,16.76,16.76,0,0,1-2.89-.45.35.35,0,0,1-.27-.07,10.2,10.2,0,0,1-1.47-.37c-.54-.15-1.08-.34-1.58-.53a.4.4,0,0,1-.19-.07c-.62-.26-1.23-.52-1.81-.82a20.76,20.76,0,0,1-4.36-2.79,14.68,14.68,0,0,1-1.12-1,2,2,0,0,1-.42-.41,15.64,15.64,0,0,1-1.31-1.41,9,9,0,0,1-1.31-1.68,8.56,8.56,0,0,1-1.16-1.79,20.48,20.48,0,0,1-2.89-9.23l-11.41-119.84-.16-1.6c-.08-.52-.11-1-.15-1.6-.08-1.14-.11-2.24-.08-3.34,0,0,0-.09,0-.13a1,1,0,0,1,0-.29,32.64,32.64,0,0,1,9.25-21.49,35.64,35.64,0,0,1,50.82,0,32.9,32.9,0,0,1,9,18.13.31.31,0,0,0,0,.19,27.08,27.08,0,0,1,.27,3.5,30.67,30.67,0,0,1-.08,3.32c0,.89-.15,1.78-.27,2.64l0,.67-10,105.28Z"/><ellipse cx="3003.96" cy="1124.3" fill="#1061a0" rx="34.73" ry="33.55"/><ellipse cx="3003.96" cy="1124.3" fill="#1d285c" rx="24.35" ry="23.51"/><path fill="#1061a0" d="M3004,1226.74c-12.55,0-22.73,9.82-22.73,22s10.18,22,22.73,22,22.72-9.83,22.72-22S3016.51,1226.74,3004,1226.74Z"/><path fill="#1d285c" d="M3004 1233.3a15.67 15.67 0 00-15.93 15.39c0 8.49 7.13 15.38 15.93 15.38s15.93-6.89 15.93-15.38S3012.75 1233.3 3004 1233.3zM3117.12 1270.8a22.24 22.24 0 00-30-6.78 20.63 20.63 0 00-7 29l71.9 111.83a22.23 22.23 0 0030 6.78 20.64 20.64 0 007-29z"/><path fill="#1061a0" d="M3100.67 1275a8.12 8.12 0 00-9.55 6.19 7.88 7.88 0 006.42 9.23 8.14 8.14 0 009.55-6.2A7.87 7.87 0 003100.67 1275zM3172.45 1386.59a8.13 8.13 0 00-9.55 6.2 7.87 7.87 0 006.42 9.22 8.12 8.12 0 009.55-6.19A7.89 7.89 0 003172.45 1386.59z"/><rect width="49.25" height="12.24" x="3146.26" y="1482.09" fill="#1d285c"/><rect width="35.58" height="47.24" x="3153.1" y="1494.33" fill="#1061a0"/><rect width="71.42" height="24.08" x="3135.17" y="1541.56" fill="#1d285c"/><path fill="#1061a0" d="M3149 1547.66a5.94 5.94 0 106.15 5.94A6.05 6.05 0 003149 1547.66zM3192.77 1547.66a5.94 5.94 0 106.15 5.94A6 6 0 003192.77 1547.66z"/><polygon fill="#1061a0" points="3084.62 1619.88 3107.68 1619.88 3170.31 1565.64 3137.96 1565.64 3084.62 1619.88"/><polygon fill="#1061a0" points="3084.62 1619.88 3100.12 1660.18 3110.04 1660.18 3107.68 1619.88 3084.62 1619.88"/><polygon fill="#1061a0" points="3171.46 1565.64 3234.09 1619.88 3257.15 1619.88 3203.81 1565.64 3171.46 1565.64"/><polygon fill="#1061a0" points="3231.73 1660.18 3241.65 1660.18 3257.15 1619.88 3234.09 1619.88 3231.73 1660.18"/><rect width="699.05" height="80.12" x="867.58" y="1264.85" fill="#31415f"/><rect width="543.95" height="80.04" x="1022.68" y="1264.85" fill="#1061a0"/><rect width="797.69" height="1181.27" x="818.26" y="1409.64" fill="#5cbee3"/><rect width="861.32" height="64.67" x="786.44" y="2526.11" fill="#31415f" rx="28.68"/><rect width="861.32" height="64.67" x="786.44" y="1344.96" fill="#31415f" rx="28.68"/><rect width="663.99" height="665.77" x="885.11" y="1486.61" fill="#005387"/><path fill="#31415f" d="M1614.5,2223.92H826.81c-26.2,0-47.44,22.9-47.44,51.15s21.24,51.16,47.44,51.16H1614.5c26.21,0,47.45-22.91,47.45-51.16S1640.71,2223.92,1614.5,2223.92Z"/><path fill="#005387" d="M1488.66 2452.41H1325.4c-7.26 0-13.2 6.41-13.2 14.24s5.94 14.24 13.2 14.24h163.26c7.26 0 13.2-6.41 13.2-14.24S1495.92 2452.41 1488.66 2452.41zM1488.66 2396.76H1325.4c-7.26 0-13.2 6.41-13.2 14.24s5.94 14.24 13.2 14.24h163.26c7.26 0 13.2-6.41 13.2-14.24S1495.92 2396.76 1488.66 2396.76zM1488.66 2341.11H1325.4c-7.26 0-13.2 6.41-13.2 14.24s5.94 14.24 13.2 14.24h163.26c7.26 0 13.2-6.41 13.2-14.24S1495.92 2341.11 1488.66 2341.11z"/><path fill="#e67c25" d="M946.14,1145c-22.6,0-41.09,19.94-41.09,44.3v38h82.18v-38C987.23,1164.93,968.74,1145,946.14,1145Z"/><rect width="41.09" height="83.46" x="946.14" y="1163.51" fill="#ffcd4c" rx="18.27"/><rect width="107.64" height="39.26" x="892.32" y="1227.34" fill="#99b6df"/><path fill="#e67c25" d="M1093.54,1145c-22.6,0-41.09,19.94-41.09,44.3v38h82.18v-38C1134.63,1164.93,1116.14,1145,1093.54,1145Z"/><path fill="#ffcd4c" d="M1114.08,1163.51c-11.3,0-20.54,10-20.54,22.15v39.16c0,12.18,9.24,22.15,20.54,22.15s20.55-10,20.55-22.15v-39.16C1134.63,1173.48,1125.38,1163.51,1114.08,1163.51Z"/><rect width="107.64" height="39.26" x="1039.72" y="1227.34" fill="#99b6df"/><path fill="#99b6df" d="M977.48 1859.76c-13 0-23.61 11.4-23.61 25.46s10.57 25.45 23.61 25.45 23.61-11.39 23.61-25.45S990.52 1859.76 977.48 1859.76zM1067.43 1859.76c-13 0-23.61 11.4-23.61 25.46s10.57 25.45 23.61 25.45 23.61-11.39 23.61-25.45S1080.47 1859.76 1067.43 1859.76z"/><path fill="#9399cc" d="M1157.38,1859.76c-13,0-23.62,11.4-23.62,25.46s10.58,25.45,23.62,25.45,23.61-11.39,23.61-25.45S1170.42,1859.76,1157.38,1859.76Z"/><path fill="#fff" d="M1264 1874l31.7 37.56c15.5-15.21 39.19-15.21 54.7 0l31.69-37.56C1348.61 1841.17 1297.46 1841.17 1264 1874zM1264 1964.37q15.84 18.78 31.7 37.55c15.5-15.21 39.19-15.21 54.7 0l31.69-37.55C1348.61 1931.53 1297.46 1931.53 1264 1964.37z"/><rect width="254.04" height="121.26" x="940.41" y="1988.85" fill="#fff" rx="1.29"/><rect width="46.19" height="35.82" x="959.92" y="2008.94" fill="#5962a0"/><rect width="46.19" height="35.82" x="1127.23" y="2008.94" fill="#5962a0"/><rect width="46.19" height="35.82" x="961.43" y="2054.2" fill="#5962a0"/><rect width="46.19" height="35.82" x="1015.69" y="2008.94" fill="#5962a0"/><rect width="46.19" height="35.82" x="1071.46" y="2008.94" fill="#5962a0"/><rect width="46.19" height="35.82" x="1017.2" y="2054.2" fill="#5962a0"/><rect width="46.19" height="35.82" x="1072.97" y="2054.2" fill="#5962a0"/><rect width="46.19" height="35.82" x="1128.74" y="2054.2" fill="#5962a0" rx=".04"/><rect width="238.36" height="14.76" x="949.41" y="2110.11" fill="#dad9d8" opacity=".62" rx=".95"/><rect width="266.08" height="235.89" x="1057.65" y="1547.55" fill="#9399cc" rx="2.4"/><polygon fill="#b1bedd" points="1083.23 1571.71 1083.23 1755.19 1298.15 1755.19 1298.15 1571.71 1083.23 1571.71 1083.23 1571.71"/><rect width="40.77" height="17.08" x="1107.34" y="1596.86" fill="#5962a0"/><rect width="40.77" height="17.08" x="1165.28" y="1596.86" fill="#5962a0"/><rect width="102.05" height="17.08" x="1107.34" y="1637.82" fill="#fbcc43"/><rect width="40.77" height="17.08" x="1223.22" y="1596.86" fill="#5962a0"/><rect width="29.63" height="31.94" x="1239.35" y="1639.64" fill="#7eb068"/><rect width="29.63" height="31.94" x="1239.35" y="1691.09" fill="#39a290"/><path fill="#5cbee3" d="M1202.85,1679.26H1126c-11.17,0-20.3,9.85-20.3,21.89s9.13,21.89,20.3,21.89h76.89c11.17,0,20.31-9.85,20.31-21.89S1214,1679.26,1202.85,1679.26Z"/><path fill="#9399cc" d="M968.52,1545.39c-28.75,0-52.06,25.13-52.06,56.12s23.31,56.13,52.06,56.13,52.06-25.13,52.06-56.13S997.27,1545.39,968.52,1545.39Z"/><path fill="#f5f5f5" d="M968.52,1567.9c-17.22,0-31.18,15-31.18,33.61s14,33.62,31.18,33.62,31.17-15.05,31.17-33.62S985.74,1567.9,968.52,1567.9Z"/><rect width="6.7" height="32.92" x="965.17" y="1575.58" fill="#e0657d"/><path fill="#5962a0" d="M968.52,1592.6c-4.57,0-8.27,4-8.27,8.91s3.7,8.92,8.27,8.92,8.27-4,8.27-8.92S973.08,1592.6,968.52,1592.6Z"/><path fill="#99b6df" d="M968.52,1677.45c-28.75,0-52.06,25.13-52.06,56.12s23.31,56.13,52.06,56.13,52.06-25.13,52.06-56.13S997.27,1677.45,968.52,1677.45Z"/><path fill="#f5f5f5" d="M968.52,1700c-17.22,0-31.18,15-31.18,33.61s14,33.61,31.18,33.61,31.17-15,31.17-33.61S985.74,1700,968.52,1700Z"/><path fill="#414559" d="M1415.82,1556c-11.38,0-20.69,10-20.69,22.31v178.43c0,12.27,9.31,22.31,20.69,22.31s20.68-10,20.68-22.31V1578.33C1436.5,1566.06,1427.2,1556,1415.82,1556Z"/><rect width="24.29" height="61.29" x="1403.67" y="1613.94" fill="#99b6df"/><path fill="#e0657d" d="M1458.69,1592h-85.75c-12.2,0-22.19,10.77-22.19,23.92s10,23.92,22.19,23.92h85.75c12.2,0,22.19-10.76,22.19-23.92S1470.89,1592,1458.69,1592Z"/><path fill="#e0657d" d="M1458.26 1620.34h-84.89c-5 0-9 4.38-9 9.73s4.06 9.73 9 9.73h84.89c5 0 9-4.38 9-9.73S1463.22 1620.34 1458.26 1620.34zM1450.35 1592h-69.07c-4.34 0-7.89 3.83-7.89 8.5s3.55 8.51 7.89 8.51h69.07c4.34 0 7.89-3.83 7.89-8.51S1454.69 1592 1450.35 1592z" opacity=".5"/><path fill="#99b6df" d="M1415.82,1663.45c-6.71,0-12.15,5.86-12.15,13.09s5.44,13.09,12.15,13.09,12.14-5.86,12.14-13.09S1422.52,1663.45,1415.82,1663.45Z"/><rect width="41.38" height="15.06" x="1395.13" y="1639.8" fill="#dad9d8"/><polygon fill="#414559" points="1404.72 2109.73 1424.14 2123.77 1468.91 2051.8 1449.49 2037.76 1404.72 2109.73"/><path fill="#ef5880" d="M1475.72,2018.23c-10.83-7.83-25.5-4.71-32.76,7s-4.37,27.49,6.46,35.32,25.49,4.72,32.76-7S1486.55,2026.06,1475.72,2018.23Z"/><polygon fill="#e0657d" points="957.1 1709.89 968.04 1740.63 974.3 1738.04 963.36 1707.3 957.1 1709.89"/><path fill="#5962a0" d="M965.89,1724.49a9.13,9.13,0,0,0-4.76,11.51,8.1,8.1,0,0,0,10.68,5.13,9.15,9.15,0,0,0,4.76-11.51A8.1,8.1,0,0,0,965.89,1724.49Z"/><rect width="137.67" height="29.8" x="1363.6" y="2104.83" fill="#9399cc" rx="1.92"/><path fill="#ffcd4c" d="M1304.21,1859.53l3.21,12.48a74.29,74.29,0,0,1,34.32.78l3.18-12.34A74.43,74.43,0,0,0,1304.21,1859.53Z"/><path fill="#39a290" d="M1274.36,1874.85l6.82,8.08a77,77,0,0,1,23-10.32c1.06-.28,2.15-.37,3.21-.6l-3.21-12.48A77.93,77.93,0,0,0,1274.36,1874.85Z"/><path fill="#e1314c" d="M1341.74,1872.79c1,.28,2.13.42,3.18.74a78.31,78.31,0,0,1,20,9.41l6.83-8.09a78.22,78.22,0,0,0-26.79-14.4Z"/><path fill="#ffcd4c" d="M1304.21,1950.68l3.21,12.48a74.29,74.29,0,0,1,34.32.79l3.18-12.34A74.52,74.52,0,0,0,1304.21,1950.68Z"/><path fill="#39a290" d="M1274.36,1966l6.82,8.07a77,77,0,0,1,23-10.31c1.06-.28,2.15-.38,3.21-.61l-3.21-12.48A78.09,78.09,0,0,0,1274.36,1966Z"/><path fill="#e1314c" d="M1341.74,1964c1,.27,2.13.42,3.18.74a78,78,0,0,1,20,9.41l6.83-8.09a78.22,78.22,0,0,0-26.79-14.4Z"/><polygon fill="#dad9d8" points="1292.23 1869.75 1304.54 1900.01 1308.23 1898.27 1295.93 1868.01 1292.23 1869.75" opacity=".62"/><polygon fill="#dad9d8" points="1283.13 1962.08 1298.45 1990.69 1301.94 1988.51 1286.62 1959.9 1283.13 1962.08" opacity=".62"/><polygon fill="#5962a0" points="1285.04 1960.88 1300.37 1989.5 1303.86 1987.32 1288.54 1958.71 1285.04 1960.88"/><polygon fill="#5962a0" points="1294.45 1868.71 1306.76 1898.96 1310.45 1897.22 1298.15 1866.96 1294.45 1868.71"/><rect width="239.9" height="258.08" x="1918.78" y="1758.57" fill="#fcbc68"/><rect width="135.02" height="258.08" x="1810.29" y="1758.57" fill="#e67c25"/><polygon fill="#f79831" points="1945.31 1758.57 1983.88 1850.18 2197.26 1850.18 2158.68 1758.57 1945.31 1758.57"/><polygon fill="#f79831" points="1761.99 1850.18 1907.86 1850.18 1946.43 1758.57 1800.57 1758.57 1761.99 1850.18"/><rect width="179.22" height="84.06" x="1965.8" y="1877.1" fill="#faebd4"/><rect width="239.9" height="258.08" x="2566.42" y="1755.93" fill="#fcbc68"/><rect width="135.02" height="258.08" x="2457.92" y="1755.93" fill="#e67c25"/><polygon fill="#f79831" points="2592.94 1755.93 2631.52 1847.54 2844.89 1847.54 2806.31 1755.93 2592.94 1755.93"/><polygon fill="#f79831" points="2409.62 1847.54 2555.49 1847.54 2594.07 1755.93 2448.2 1755.93 2409.62 1847.54"/><rect width="179.22" height="84.06" x="2613.43" y="1874.46" fill="#faebd4"/><rect width="239.9" height="258.08" x="3137.71" y="1758.57" fill="#fcbc68"/><rect width="135.02" height="258.08" x="3029.21" y="1758.57" fill="#e67c25"/><rect width="179.22" height="84.06" x="3184.72" y="1877.1" fill="#faebd4"/><rect width="116.71" height="16.29" x="3242.71" y="1778.04" fill="#faebd4"/><rect width="116.71" height="16.29" x="3242.71" y="1799.76" fill="#faebd4"/><rect width="239.9" height="258.08" x="4018.77" y="1455.93" fill="#fcbc68"/><rect width="135.02" height="258.08" x="3910.27" y="1455.93" fill="#e67c25"/><rect width="179.22" height="84.06" x="4065.78" y="1574.46" fill="#faebd4"/><rect width="116.71" height="16.29" x="4123.78" y="1475.4" fill="#faebd4"/><rect width="116.71" height="16.29" x="4123.78" y="1497.12" fill="#faebd4"/><path fill="#ffcd4c" d="M2041.83,1591.19h-70.59a5.65,5.65,0,0,0-5.66,5.66v70.58h81.91v-70.58A5.66,5.66,0,0,0,2041.83,1591.19Z"/><rect width="43.08" height="7.44" x="1985" y="1585.67" fill="#ffcd4c"/><rect width="53.25" height="11.19" x="1979.91" y="1574.48" fill="#79241c"/><rect width="81.9" height="25.39" x="1965.58" y="1627.21" fill="#ef5e7c"/><rect width="1861.29" height="68.62" x="1685.64" y="2518.06" fill="#31415f" rx="30.43"/><path fill="#241e3b" d="M4041.51,1411.49,3986.63,1463a4.18,4.18,0,0,0-.61,5.36,4.14,4.14,0,0,0,5.47,1.33l65.5-36.91a13.25,13.25,0,1,0-15.48-21.29Z"/><g style="mix-blend-mode:overlay"><polygon fill="#fff" points="3021.18 2248.32 3021.18 2264.41 3021.18 2264.51 3037.34 2264.51 3037.34 2264.41 3037.34 2248.32 3037.34 2248.21 3021.18 2248.21 3021.18 2248.32"/><polygon fill="#fff" points="3065.87 2248.32 3065.87 2264.41 3065.87 2264.51 3082.02 2264.51 3082.02 2264.41 3082.02 2248.32 3082.02 2248.21 3065.87 2248.21 3065.87 2248.32"/><polygon fill="#fff" points="3021.18 2292.72 3021.18 2292.82 3021.18 2292.93 3021.18 2308.8 3021.18 2308.91 3021.18 2309.02 3021.18 2309.12 3037.34 2309.12 3037.34 2309.02 3037.34 2308.91 3037.34 2308.8 3037.34 2292.93 3037.34 2292.82 3037.34 2292.72 3037.34 2292.61 3021.18 2292.61 3021.18 2292.72"/><polygon fill="#fff" points="3065.87 2292.72 3065.87 2292.82 3065.87 2292.93 3065.87 2308.8 3065.87 2308.91 3065.87 2309.02 3065.87 2309.12 3082.02 2309.12 3082.02 2309.02 3082.02 2308.91 3082.02 2308.8 3082.02 2292.93 3082.02 2292.82 3082.02 2292.72 3082.02 2292.61 3065.87 2292.61 3065.87 2292.72"/><rect width="16.15" height="16.2" x="2842.46" y="2248.21" fill="#fff"/><polygon fill="#fff" points="2842.46 2292.82 2842.46 2308.8 2842.46 2309.02 2858.61 2309.02 2858.61 2308.8 2858.61 2292.82 2858.61 2292.61 2842.46 2292.61 2842.46 2292.82"/><polygon fill="#fff" points="2887.14 2248.32 2887.14 2264.41 2887.14 2264.51 2903.29 2264.51 2903.29 2264.41 2903.29 2248.32 2903.29 2248.21 2887.14 2248.21 2887.14 2248.32"/><polygon fill="#fff" points="2887.14 2292.72 2887.14 2292.82 2887.14 2292.93 2887.14 2308.8 2887.14 2308.91 2887.14 2309.02 2887.14 2309.12 2903.29 2309.12 2903.29 2309.02 2903.29 2308.91 2903.29 2308.8 2903.29 2292.93 2903.29 2292.82 2903.29 2292.72 2903.29 2292.61 2887.14 2292.61 2887.14 2292.72"/><polygon fill="#fff" points="2931.82 2248.32 2931.82 2264.41 2931.82 2264.51 2947.97 2264.51 2947.97 2264.41 2947.97 2248.32 2947.97 2248.21 2931.82 2248.21 2931.82 2248.32"/><polygon fill="#fff" points="2976.5 2248.32 2976.5 2264.41 2976.5 2264.51 2992.66 2264.51 2992.66 2264.41 2992.66 2248.32 2992.66 2248.21 2976.5 2248.21 2976.5 2248.32"/><polygon fill="#fff" points="2931.82 2292.72 2931.82 2292.82 2931.82 2292.93 2931.82 2308.8 2931.82 2308.91 2931.82 2309.02 2931.82 2309.12 2947.97 2309.12 2947.97 2309.02 2947.97 2308.91 2947.97 2308.8 2947.97 2292.93 2947.97 2292.82 2947.97 2292.72 2947.97 2292.61 2931.82 2292.61 2931.82 2292.72"/><polygon fill="#fff" points="2976.5 2292.72 2976.5 2292.82 2976.5 2292.93 2976.5 2308.8 2976.5 2308.91 2976.5 2309.02 2976.5 2309.12 2992.66 2309.12 2992.66 2309.02 2992.66 2308.91 2992.66 2308.8 2992.66 2292.93 2992.66 2292.82 2992.66 2292.72 2992.66 2292.61 2976.5 2292.61 2976.5 2292.72"/><polygon fill="#fff" points="3021.18 2337.33 3021.18 2353.42 3021.18 2353.52 3037.34 2353.52 3037.34 2353.42 3037.34 2337.33 3037.34 2337.22 3021.18 2337.22 3021.18 2337.33"/><polygon fill="#fff" points="3065.87 2337.33 3065.87 2353.42 3065.87 2353.52 3082.02 2353.52 3082.02 2353.42 3082.02 2337.33 3082.02 2337.22 3065.87 2337.22 3065.87 2337.33"/><polygon fill="#fff" points="3021.18 2381.73 3021.18 2397.81 3021.18 2397.92 3037.34 2397.92 3037.34 2397.81 3037.34 2381.73 3037.34 2381.62 3021.18 2381.62 3021.18 2381.73"/><polygon fill="#fff" points="3065.87 2381.73 3065.87 2397.81 3065.87 2397.92 3082.02 2397.92 3082.02 2397.81 3082.02 2381.73 3082.02 2381.62 3065.87 2381.62 3065.87 2381.73"/><rect width="16.15" height="16.2" x="2842.46" y="2337.22" fill="#fff"/><rect width="16.15" height="16.19" x="2842.46" y="2381.62" fill="#fff"/><polygon fill="#fff" points="2887.14 2337.33 2887.14 2353.42 2887.14 2353.52 2903.29 2353.52 2903.29 2353.42 2903.29 2337.33 2903.29 2337.22 2887.14 2337.22 2887.14 2337.33"/><polygon fill="#fff" points="2887.14 2381.73 2887.14 2397.81 2887.14 2397.92 2903.29 2397.92 2903.29 2397.81 2903.29 2381.73 2903.29 2381.62 2887.14 2381.62 2887.14 2381.73"/><polygon fill="#fff" points="2931.82 2337.33 2931.82 2353.42 2931.82 2353.52 2947.97 2353.52 2947.97 2353.42 2947.97 2337.33 2947.97 2337.22 2931.82 2337.22 2931.82 2337.33"/><polygon fill="#fff" points="2976.5 2337.33 2976.5 2353.42 2976.5 2353.52 2992.66 2353.52 2992.66 2353.42 2992.66 2337.33 2992.66 2337.22 2976.5 2337.22 2976.5 2337.33"/><polygon fill="#fff" points="2931.82 2381.73 2931.82 2397.81 2931.82 2397.92 2947.97 2397.92 2947.97 2397.81 2947.97 2381.73 2947.97 2381.62 2931.82 2381.62 2931.82 2381.73"/><polygon fill="#fff" points="2976.5 2381.73 2976.5 2397.81 2976.5 2397.92 2992.66 2397.92 2992.66 2397.81 2992.66 2381.73 2992.66 2381.62 2976.5 2381.62 2976.5 2381.73"/><rect width="16.15" height="16.19" x="3110.55" y="2248.32" fill="#fff"/><polygon fill="#fff" points="3110.55 2292.93 3110.55 2308.91 3110.55 2309.12 3126.7 2309.12 3126.7 2308.91 3126.7 2292.93 3126.7 2292.72 3110.55 2292.72 3110.55 2292.93"/><rect width="16.15" height="16.2" x="3110.55" y="2337.33" fill="#fff"/><rect width="16.15" height="16.19" x="3110.55" y="2381.73" fill="#fff"/><rect width="3.34" height="149.6" x="3157.76" y="2248.32" fill="#fff"/></g><rect width="51.25" height="8.1" x="3196.75" y="2256.41" fill="#ef5e7c"/><rect width="108.63" height="8.1" x="3196.75" y="2276.64" fill="#ef5e7c"/><rect width="84.39" height="8.1" x="3196.75" y="2296.87" fill="#ef5e7c"/><rect width="158.95" height="58.68" x="3195.29" y="2337.88" fill="#fcbc68" rx="4.46"/><ellipse cx="2980.16" cy="2649.02" fill="#7f93b8" rx="313.78" ry="48.51"/><ellipse cx="1108.62" cy="2665.62" fill="#7f93b8" rx="241.52" ry="37.46"/><path fill="#faba97" d="M2873.18,1556l-124.69,68-63.44-157.24-32.62,8.22s21.14,182.67,55.07,216.1,207.07-40.23,207.07-40.23C2957,1623.62,2918.35,1537.37,2873.18,1556Z"/><path fill="#faba97" d="M2676.62,1423.84c-2.75,3.48-8.94,12.22,10.78,24.25-18.15,9.11-41.82,30.87-3.13,40.67,0,0,22.66-28.77,23.58-38.13S2679.36,1420.36,2676.62,1423.84Z"/><path fill="#faba97" d="M2677.76,1415.78s-40.59,16.5-43,20.91,16.93,41.22,16.93,41.22,14.93,25.49,33.84,12.83c0,0,11.15-28.62,9.79-41.83C2693.57,1431.32,2677.76,1415.78,2677.76,1415.78Z"/><path fill="#faba97" d="M2693.56,1374.13c-5.6-.56-18.23,71.67-18.23,71.67l17.4,5.23S2705.7,1375.33,2693.56,1374.13Z"/><path fill="#e5826e" d="M2680.67,1423.8c-2.32-.94-3.75-1-4.37-.22-1.17,1.48-3.9,4.93-3.06,9.63.87,4.88,5.35,9.88,13.32,14.85-7.53,3.88-16.85,10.41-21.16,17.53a.41.41,0,1,0,.69.43c4.35-7.18,13.95-13.78,21.49-17.56l.66-.33-.63-.39c-8.15-5-12.72-9.91-13.57-14.67-.68-3.82,1.08-6.68,2.9-9,.12-.16.75-.61,3.42.47,9,3.63,27.79,18.82,27.08,26-.54,5.48-11,20.74-17.13,29.35a.41.41,0,0,0,.1.57.4.4,0,0,0,.23.08.39.39,0,0,0,.33-.17c6.22-8.68,16.73-24.08,17.28-29.75C2709,1442.87,2689.75,1427.48,2680.67,1423.8Z"/><path fill="#e5826e" d="M2677.3,1440.38c-.15.15-14.83,14-22.44,14h0c-2.78-8.95-12.87-15-13.3-15.27a.41.41,0,1,0-.41.7c.1.06,10.45,6.3,13,15.09l.08.28h.65c8,0,22.39-13.6,23-14.19a.41.41,0,0,0,0-.58A.42.42,0,0,0,2677.3,1440.38Z"/><path fill="#e1314c" d="M2895.94 1548s-26.11 3.49-88.8 43.64c7 27 27.86 97.75 27.86 97.75s95.77-29.68 108.83-62S2943 1534.91 2895.94 1548zM3170.52 2587.24l-15.61-54.9-68.93 2.81s7.34 35.54 12.44 109.33a11.87 11.87 0 004.43 4h99C3221.14 2637 3193.61 2603.07 3170.52 2587.24z"/><path fill="#ae1e3c" d="M3211.69,2633.44l-116.64.66c-3.06,0-2.76,15.7.3,15.7h117.34C3215.67,2649.8,3214.67,2633.44,3211.69,2633.44Z"/><path fill="#79241c" d="M2919,1876.17c15.4,127.88,27.38,263.89,85.26,395,24.17,148.56,42.15,192.59,63.26,295.65l94.1-7.29c-47.52-386.9-72.71-643.87-107.2-697C3022.13,1729.14,2904.06,1779.76,2919,1876.17Z"/><path fill="#79241c" d="M2822.07,1883c-32.89,235.44-18.61,605.18-13.27,683.87l91.56-2.08c14.56-183.65,24.93-178.38,32.6-335.95,0,0,33.46-159.83,38.42-348C2981.53,1741.78,2838,1776.88,2822.07,1883Z"/><path fill="#e1314c" d="M2836.87,2563.9c-23.53,38.95-59.87,26-79,48.34s-3.92,37.15-3.92,37.15l153.77-3c2.38-27.52-1.68-51.24-7.35-81.65Z"/><path fill="#ae1e3c" d="M2909.55,2633.44l-162.68.66c-3.06,0-3,15.7.09,15.7h163.37C2913.31,2649.8,2912.53,2633.44,2909.55,2633.44Z"/><path fill="#e1314c" d="M2883.8,1553.66c-21.81,8.41-51.1,42.68-60.46,97.32-4.82,28.09,15.81,60.8,19.07,83.51,7.55,52.55-14.07,129.87-15.61,137.42,0,32.53,230.49,23.12,230.49-9.42,13.21-284,81.67-254.94,64.16-283.52C3091.25,1529.68,2938.71,1532.47,2883.8,1553.66Z"/><path fill="#4a58a6" d="M2952.88,1649.6s-22.39-50.63-20.5-107.06c0,0-29.25,1-56.21,13.53-19.22,20.78-45.93,131.73-44.58,171.31a53,53,0,0,0,.61,6.61c.91,5.45.9,13.46.23,23.49-.28,4.19-.67,8.74-1.16,13.62-.88,9-2.09,19.15-3.46,30.12-5.29,42.12-13,96.67-15.19,149.82h270s-4.81-72.32-8-149.82c-.39-10-.78-20.09-1.13-30.12-.14-4.55-.29-9.1-.44-13.62-.31-10.21-.55-20.31-.75-30.1-.06-2.59-.1-5.16-.14-7.69-17.8-34.38,7.6-159.81,33.52-156.7-12.09-11.18-37-16.7-64.43-21.1C3010,1600.41,2952.88,1649.6,2952.88,1649.6Z"/><path fill="#5cbee3" d="M2831.59 1727.38a53 53 0 00.61 6.61c.91 5.45.9 13.46.23 23.49H3073c-.31-10.21-.55-20.31-.75-30.1zM2831.27 1771.1c-.88 9-2.09 19.15-3.46 30.12h246.77c-.39-10-.78-20.09-1.13-30.12z"/><path fill="#faba97" d="M3074.94,1704.2l37.73,84-153.23,76.59,2.85,32.32s202.25-25.81,220-70.29-54.21-235.21-54.21-235.21C3107.85,1542.94,3080.82,1663.61,3074.94,1704.2Z"/><path fill="#faba97" d="M2960,1866.86l-75,1.9s23,36.94,75.42,30.24C3029.4,1890.18,3002.14,1863.94,2960,1866.86Z"/><path fill="#5e5099" d="M2706.13,1871.49a3.68,3.68,0,0,0,0,.58c.4,2.47,3.35,4.39,6.94,4.39h320.33c3.58,0,6.53-1.92,6.93-4.39a2.78,2.78,0,0,0,0-.58v-3.81h-334.3Z"/><path fill="#241e3b" d="M2713.12,1876.46h320.33c3.58,0,6.53-1.92,6.93-4.39h-334.2C2706.58,1874.54,2709.53,1876.46,2713.12,1876.46Z"/><polygon fill="#241e3b" points="2667.11 1649.91 2668.12 1651.33 2670.5 1647.98 2668.97 1648.09 2667.11 1649.91"/><path fill="#5e5099" d="M2943.05,1654.25a9.89,9.89,0,0,0-9.37-8H2673.81a6.62,6.62,0,0,0-6.68,8l34.3,204.82a9.88,9.88,0,0,0,9.37,8h259.87a6.61,6.61,0,0,0,6.67-8Z"/><path fill="#1d285c" d="M2941.14,1656.12a9.88,9.88,0,0,0-9.37-8H2671.9a6.61,6.61,0,0,0-6.67,8L2699.52,1861a9.89,9.89,0,0,0,9.37,8h259.87a6.62,6.62,0,0,0,6.68-8Z"/><path fill="#89cfc0" d="M2813.4,1728.6c-18.83,2.18-32.26,19.82-30,39.42s19.33,33.71,38.16,31.54,32.26-19.82,30-39.41S2832.22,1726.43,2813.4,1728.6Z"/><path fill="#e1314c" d="M3107.78,1564.89c-14.15,8.51-21,28.06-28.74,63.2-6.67,30.34-9.66,61-4.31,89.45l87.53-44.45S3136.77,1582.26,3107.78,1564.89Z"/><path fill="#faba97" d="M2947.16,1543.88s1.55,17.17,26.48,21.91c21,4,40.8-14.44,40.8-14.44l9.39-84.88-68.29,1.59Z"/><polygon fill="#f5927e" points="2947.11 1544.25 2999.44 1507.82 2949.51 1522.48 2947.11 1544.25"/><path fill="#faba97" d="M2905.26,1486.83a13.57,13.57,0,0,0,4.47,11.63l24.8,22a13.39,13.39,0,0,0,12.73,2.85l52.37-15.37a13.59,13.59,0,0,0,9.64-11.53l10.75-97.29-103.46-16Z"/><path fill="#f08372" d="M2910.71,1437.56l-4.32,39.1a19.67,19.67,0,0,0,4.32-39.1Z" opacity=".32"/><path fill="#de7360" d="M2948.43,1460l-13.37-1.48,8.7-40.32a1.5,1.5,0,1,0-2.94-.64l-9.06,42a1.51,1.51,0,0,0,1.31,1.83l15,1.66a1.5,1.5,0,0,0,1.66-1.33A1.52,1.52,0,0,0,2948.43,1460Z"/><path fill="#0e0d0b" d="M2962.25 1412.22c-.52 5.7 17.85 11.51 19.38 6.41C2984.18 1410.18 2963.09 1403.18 2962.25 1412.22zM2912.06 1410.47c2.1 4.83 19.49 1.34 18.47-3.45C2928.83 1399.06 2908.73 1402.81 2912.06 1410.47z"/><ellipse cx="2985.07" cy="1464.3" fill="#f08372" opacity=".32" rx="19.68" ry="19.63" transform="rotate(-89.92 2985.032 1464.306)"/><path fill="#281c1c" d="M2966.17 1427.66c-2.29-.2-4.44 2.84-4.78 6.79s1.24 7.33 3.54 7.53 4.44-2.84 4.78-6.8S2968.47 1427.86 2966.17 1427.66zM2925.21 1423.08c-2.29-.2-4.44 2.84-4.78 6.8s1.24 7.32 3.53 7.52 4.45-2.84 4.79-6.8S2927.51 1423.28 2925.21 1423.08z"/><path d="M2956,1476.25a15.45,15.45,0,0,0-5.27-.28,41.81,41.81,0,0,1-16-2,18.52,18.52,0,0,0-2.9-.77,5.29,5.29,0,0,0-1.59.1c-2.24.63-2.94,3.09-2.78,5.15a14.54,14.54,0,0,0,5.24,9.59,17.34,17.34,0,0,0,6.58,3.47,18.87,18.87,0,0,0,16.21-3.11,13.34,13.34,0,0,0,1.77-1.67c1.93-2.25,3.12-5.26,2-8A4.43,4.43,0,0,0,2956,1476.25Z"/><path fill="#fff" d="M2950.76,1476a41.81,41.81,0,0,1-16-2,18.52,18.52,0,0,0-2.9-.77,4.6,4.6,0,0,0,.16,3.56,5.59,5.59,0,0,0,3,2.08,35,35,0,0,0,15.31,2.17,6.71,6.71,0,0,0,4-1.27,5.63,5.63,0,0,0,1.7-3.51A15.45,15.45,0,0,0,2950.76,1476Z"/><path fill="#d66b5e" d="M2942,1484.55c-3.39.14-7,1.19-9.29,3.51a17.34,17.34,0,0,0,6.58,3.47,18.87,18.87,0,0,0,16.21-3.11A20.94,20.94,0,0,0,2942,1484.55Z"/><path fill="#3e3a39" d="M3030.39,1354.75c-22.77-38.26-61.08-19.29-61.08-19.29-40.49-10.15-55.55,23.49-55.55,23.49l0,0c-13.12,11.33-20.9,34.22-2.25,64.91a90.35,90.35,0,0,0,2.07-14.09c-.05,0-.22-.37-.22-.37,5.94-32.67,26-45.47,26-45.47.94-.27,1.87-.53,2.79-.77,37.78-9.77,69.66,17.28,72,56.33,1.61,27.38.11,41,.11,41,37.72,1.48,45.12-30.57,46.08-50.82C3062.25,1368.06,3030.39,1354.75,3030.39,1354.75Z"/><path fill="#3e3a39" d="M2913.63,1409.6c0,.05,0,.1,0,.15S2913.64,1409.71,2913.63,1409.6Z"/><path fill="#dbdcdc" d="M2962.75 1345c60.87 3.45 70.89 78.93 70.89 78.93C3026.94 1333.65 2962.75 1345 2962.75 1345zM3038 1451.55c8.57-11.39 10.76-30.28 10.76-30.28-4.52 13.34-9.36 20.65-9.36 20.65A28.82 28.82 0 013038 1451.55z"/><g style="mix-blend-mode:multiply"><path fill="#dbdcdc" d="M2962.73 1341.3l-.21 0zM2962.73 1341.3c3.8-.9 60.89-13.07 81.79 64.12C3044.52 1405.42 3034.28 1322.64 2962.73 1341.3z"/></g><path fill="#dbdcdc" d="M3022,1430.44a12.89,12.89,0,0,1,3.24-1.31,40.9,40.9,0,0,0-3.69-14.22A130,130,0,0,1,3022,1430.44Z"/><path fill="#3e3a39" d="M2912.49,1413.06a19.48,19.48,0,0,0,.6,3.72C2912.85,1415.51,2912.66,1414.28,2912.49,1413.06Z"/><path fill="#3e3a39" d="M2977.2,1355.56s-24.66-7.14-47,8.08c0,0-22.26,16.38-17.75,49.42-.43-5.55.55-16.37,12.14-26,0,0,23.67,28.66,75.59,18a45.46,45.46,0,0,1,20,29.21.88.88,0,0,0,1.74-.14c.05-1.14.07-2.37.05-3.64C3022,1430.44,3031.84,1369.24,2977.2,1355.56Z"/><path fill="#dbdcdc" d="M3001.34 1391.07s-52.79-1.41-73.88-21.15C2927.46 1369.92 2940.9 1399.89 3001.34 1391.07zM2934.05 1356.7c49.86-3.73 77.79 33.31 77.79 33.31C2983.44 1339.53 2934.05 1356.7 2934.05 1356.7z"/><path fill="#faba97" d="M3033.35,1442.16a24.9,24.9,0,1,0,22,27.49A24.86,24.86,0,0,0,3033.35,1442.16Z"/><path fill="#de7360" d="M3038.2,1453c-6.51.17-18.74,3.83-18.47,16.49a21.35,21.35,0,0,0,2.83,10.82,1.49,1.49,0,0,0,1.12.71,1.51,1.51,0,0,0,1-.21,1.53,1.53,0,0,0,.49-2.08,18.39,18.39,0,0,1-2.39-9.3c-.27-12.8,14.87-13.39,15.53-13.41a1.51,1.51,0,0,0-.07-3Z"/><path fill="#de7360" d="M3020.08,1468.51a1.52,1.52,0,0,0,.2,2.13,1.51,1.51,0,0,0,2.12-.21c5.42-6.57,11.23-2.18,11.88-1.65a1.51,1.51,0,0,0,1.91-2.34C3033.22,1464,3026,1461.28,3020.08,1468.51Z"/><path fill="#ef5e7c" d="M1052.26,1416.52s-31.15-28.33-79.48,5.92c-26.21,18.57-44.68,60.85-36.31,88.62l.67,2.56s.53,2.75.54,2.76c.46,1.39,1.45,5,2,6.33,2.44,8.32,17.52,42.79,37.26,47.23l47.52,6.87c23.76-32.3,67.07-58.55,67.07-58.55C1135.29,1474.15,1101.11,1403.36,1052.26,1416.52Z"/><path fill="#faba97" d="M960.52,1584.37c-9.21,16.82,8.2,23.09,26.57,28.49a29.94,29.94,0,0,0,37.17-20.38l17.79-60.83-51.62-23Z"/><polygon fill="#f5927e" points="1024.26 1592.48 1029.34 1575.1 995.9 1547.96 1024.26 1592.48"/><path fill="#faba97" d="M1082.54,1459.07l-67.79-.68L992,1536.08a11.26,11.26,0,0,0,3.7,11.88s20.6,34.21,45.7,30.34l25.9-8.83a11.16,11.16,0,0,0,7.1-7.42l19.27-65.94A35.42,35.42,0,0,0,1082.54,1459.07Z"/><polygon fill="#faba97" points="1080.21 1542.32 1092.69 1541.61 1090.66 1506.54 1080.21 1542.32"/><path fill="#faba97" d="M990.88,1487a20.59,20.59,0,1,0,13.94,25.55A20.54,20.54,0,0,0,990.88,1487Z"/><path fill="#de7360" d="M987.17,1498.88a1.25,1.25,0,1,0-2.12,1.31l9.82,16a1.24,1.24,0,0,0,1.06.59,1.28,1.28,0,0,0,.65-.18,1.25,1.25,0,0,0,.41-1.72Z"/><path fill="#490302" d="M1067.94,1487.53c-.45,4.37,15.42,5.81,16.83,1.29C1087,1481.66,1068.69,1480.26,1067.94,1487.53Z"/><path fill="#f08372" d="M1051.67,1509.37a18.45,18.45,0,1,0,10.76,19.73A18.41,18.41,0,0,0,1051.67,1509.37Z" opacity=".24"/><path fill="#de7360" d="M1090.55,1504.55a1.26,1.26,0,0,0-1.18,1.32l2,33.89-11.27,1.32a1.25,1.25,0,0,0,.14,2.49h.15l12.44-1.45a1.24,1.24,0,0,0,1.1-1.31l-2-35.07A1.24,1.24,0,0,0,1090.55,1504.55Z"/><path fill="#281c1c" d="M1077.6,1501.74c-1.82-.58-4.1,1.48-5.09,4.61s-.33,6.14,1.49,6.72,4.1-1.49,5.09-4.62S1079.42,1502.32,1077.6,1501.74Z"/><path fill="#ef5e7c" d="M1011.47,1425.4l-9.71,70.53s67,5.16,84-44.48l-.65-14.36Z"/><path fill="#cc5b73" d="M996.19,1477.93l.26,3.85c.45,0,45.56-3.43,73.83-45.61l-3.19-2.15C1039.91,1474.57,996.63,1477.9,996.19,1477.93Z"/><path fill="#5d1314" d="M1104.31 1491.37c-2.74-.58-5.74 1.1-8.45 4.73a39.9 39.9 0 00-6.26 28.48c1 4.42 3 7.17 5.72 7.76a5.58 5.58 0 001.23.11c2.39-.06 4.91-1.74 7.23-4.84a40 40 0 006.25-28.49C1109.08 1494.71 1107.05 1492 1104.31 1491.37zm3.65 22.22a34.63 34.63 0 01-5.54 13c-2.26 3-4.73 4.53-6.74 4.1s-3.64-2.8-4.43-6.48a34.5 34.5 0 01.43-14.13h0a34.62 34.62 0 015.53-13c2-2.65 4.1-4.12 6-4.17a3.56 3.56 0 01.8.07c2 .43 3.64 2.79 4.43 6.48A34.5 34.5 0 011108 1513.59zM1080.86 1488.41c-5.45-1.23-11.75 7.31-14.28 19.47h0c-2.52 12.16-.19 22.66 5.29 23.9a5 5 0 001.23.12c2.39-.07 4.91-1.85 7.23-5.13a39.65 39.65 0 005.82-14.47 40.34 40.34 0 00.43-15.68C1085.63 1491.94 1083.6 1489 1080.86 1488.41zm3.65 23.52a37.91 37.91 0 01-5.54 13.81c-2.26 3.21-4.72 4.79-6.74 4.33-4.42-1-6.25-11-4-21.82 2.1-10.16 7.18-18.09 11.45-18.21a2.89 2.89 0 01.83.08c2 .45 3.64 3 4.43 6.85A38.62 38.62 0 011084.51 1511.93z"/><polygon fill="#5d1314" points="1002.86 1497.13 1067.39 1504.98 1067.74 1503.27 1003.39 1495.25 1002.86 1497.13"/><path fill="#481610" d="M1088.92,1506.87l-2.67.29Z"/><polygon fill="#5d1314" points="1086.34 1508.03 1090.37 1508.59 1090.66 1506.54 1086.16 1506.29 1086.34 1508.03"/><path fill="#faba97" d="M1038.43,1578.69l18.06-3c15.84-3.9,18-13.65,18-13.65C1073.93,1560.75,1038.43,1578.69,1038.43,1578.69Z"/><ellipse cx="946.63" cy="1421.73" fill="#ef5e7c" rx="31.78" ry="33.07"/><path fill="#ef5e7c" d="M923.11 1457.12c-11.85-9.27-1.47-45.23-1.37-45.59l-1.62-.48c-.45 1.52-10.8 37.43 1.94 47.4A12.46 12.46 0 00930 1461q8 0 20.18-7.16l-.86-1.47C937.08 1459.54 928.26 1461.15 923.11 1457.12zM921.77 1565.1l46.14.65-23.59-102.4S908.88 1527.15 921.77 1565.1z"/><path fill="#fff" d="M1072.08,1561.93c3.53-1.93,5.13-11.26,5.13-11.26l-11.23-1S1068.55,1563.86,1072.08,1561.93Z"/><path fill="#faba97" d="M1454.93,1586.44c-2-4.66-9-5.15-14.94-4.71s-17.46.7-17.46.7L1396,1596.34s5.17,17.06,9,28.48,32.77,25.52,39,23.09,27.54-32.26,24.26-39.1S1457,1591.09,1454.93,1586.44Z"/><path fill="#395469" d="M1261,1623.32c-23.31,7.88-59.68,7.24-69.35,7.55s-43.72-9.22-103.48-20-86.49,29.28-86.49,29.28c-8.12,41.85,71.25,32.58,87.29,38.2s147.85,5.64,166.64,3.64,154.57-52,154.57-52l-11-34.94S1284.25,1615.45,1261,1623.32Z"/><path fill="#faba97" d="M1261 1623.32c-15 6.43-60 7.39-60 7.39 8.87 30.45-4.08 61.54-4.08 61.54s37.59-3.58 60.56-4.51 154-58 154-58L1399.15 1595S1275.9 1616.9 1261 1623.32zM896.76 1788.06l-1.59.28q.35-1.93.72-3.87.75-4 1.54-8c6-30.42 12.9-57 12.9-57s49.45-121.5-10.69-112c0 0-31.13 17-37.89 55.9s-17.11 92.12-15.89 115-.15 70.17 16 71.8c5.11.52 15.91-1.48 31.83-5 .83-.18 13.21-1.77 14.07-2 3.47-.78-5.32-5.2-1.57-6.08.79-.18 1.59-.36 2.39-.56 57.58-13.77 142.68-39 142.68-39l-32.3-38.92S931.47 1782 896.76 1788.06z"/><path fill="#e1314c" d="M896.76,1788.06l-1.56.12,0,.16Z"/><path fill="#e1314c" d="M899.64,1607.43s-31.13,17-37.89,55.9-17.11,92.12-15.89,115l.07,13.6,49.27-3.7c.22-1.24.45-2.47.69-3.71q.75-4,1.54-8c6-30.42,12.9-57,12.9-57S959.78,1597.94,899.64,1607.43Z"/><path fill="#ae1e3c" d="M886.39,1812.1l12.42-1.69-19.58-102.67C872.32,1764.12,886.39,1812.1,886.39,1812.1Z"/><path fill="#79241c" d="M1200.21 2644.5c-13.11-4.25-30.66-32.49-35.5-36.88s-9.07 3.81-15.78 5.3-32.72 4.07-32.72 4.07-14.65 74.92-1.75 71.41 140.67 11.37 139.66-10.43S1213.61 2648.84 1200.21 2644.5zM1023.78 2628.32c-13.11-4.25-30.66-32.5-35.5-36.88s-9.07 3.81-15.78 5.3-32.72 4.07-32.72 4.07-14.65 74.92-1.75 71.41 140.67 11.37 139.66-10.43S1037.18 2632.66 1023.78 2628.32z"/><path fill="#e1314c" d="M1059.11,1604c-14.45-3.08-46.42-14.18-46.42-14.18-15-5-53.59-7-63.84,0s-29.92,4.93-54.1,20.55-13.52,86.33-11.07,102.37,55.34,117.58,55.75,129.91-15.58,60-15.58,60c90.17,18.91,166.82,0,166.82,0-5.33-28-7.38-85.52-4.1-108.13s12.29-68.24,14.75-120.87S1073.55,1607.1,1059.11,1604Z"/><path fill="#f79831" d="M1159.73,2101.94c-3-31.92-52.67-149.5-53.9-157.85s-15.16-41.39-15.16-41.39-83.62-63.32-132.25,5.6,2.73,132.53,10.93,144,82.09,122.82,95.95,159,9.79,71.23,7.33,160.85,23,243.65,23,243.65c26.23,14.8,78.65,1.38,78.65,1.38-14.76-99.49,3.11-284.3,4.75-296.64s9.44-97.6,6.16-109.94S1162.8,2134.21,1159.73,2101.94Z"/><path fill="#f79831" d="M923.85,1902.7c-43.75,73.08-22.54,125-20.9,134s3.15,136.5,7.47,165.28,12.2,61.65,3.19,166.91,5.59,232.77,5.59,232.77c31.15,10.69,77.2-.09,77.2-.09-.83-7.4,13.41-248.92,13.41-271.12s2.47-55.23,4.11-80.71c1.12-17.37-.36-49.17,8.7-81.85,2.72-9.8,5.52-19.64,8.25-29.17h0c1.54-5.34,3-10.6,4.5-15.68,12.77-44.4,29.93-215.85,29.93-215.85S968,1829,923.85,1902.7Z"/><path fill="#e1314c" d="M1090.18,1771.86c-15.11-121.45-195.43-161.47-210.5-123s29.21,203.94,31.45,218.12-13.47,110.93-13.47,110.93c130.95,33.92,221.82,5.2,221.82,5.2C1088.74,1908.52,1090.18,1771.86,1090.18,1771.86Z"/><path fill="#a07e47" d="M1022.62,2167.91c2.72-9.8,5.52-19.64,8.25-29.17h0s-67-94-68.58-96.3C963,2044.07,1010.43,2149.6,1022.62,2167.91Z"/><path fill="#f79831" d="M1091.26,1765.15c-63.62,1.19-97.46-73.08-97.46-73.08-34.78-8.35-100.94-5.82-100.94-5.82,0,7.59-4.92,75.84-4.92,75.84s19,95.09,22.74,102.58-13.5,113.59-13.5,113.59c102.36,56.28,222.3,4.88,222.3,4.88C1086.79,1871.06,1091.26,1765.15,1091.26,1765.15Z"/><path fill="#f79831" d="M976.26 1689c-25.56 93.08 17.54 3.08 17.54 3.08s4.11-61 44.52-93.82c0 0-7.38-4.28-12.59-4C1025.73 1594.22 1001.82 1595.91 976.26 1689zM892.86 1686.25s10.21 45.76 11.65 0S925 1597.4 925 1597.4c-5.13 0-7.13 2.08-7.13 2.08C895.17 1626.85 892.86 1686.25 892.86 1686.25z"/><path fill="#ffcd4c" d="M3014.42,1318.57c-49.14-14.31-84.4,15.3-101.06,34.82-7.21,1.11-26.63-4.17-30.05-.14-.8,2.4,0,7,19.7,14.9a1.94,1.94,0,0,0-.1.19c71.38,15.7,132.25,35.68,158,70,0,0,4.62,2.11,7.34,2.11,2.36,0-3.54-9.58-5.62-18.81C3065.94,1397.27,3069.73,1334.67,3014.42,1318.57Z"/><path fill="#fddb59" d="M2934.28,1360.14c11.51,5.92,30.12,9.38,30.12,9.38s22.47-53.12,75.73-38.93l1-2.27a133.9,133.9,0,0,0-28.64-13C2995.69,1312.63,2956.72,1319.14,2934.28,1360.14Z"/><path fill="#ae1e3c" d="M1085.18,1666.81l10.17,61.76s5.85-25.32,9.85-33.35,91.8,1.85,91.8,1.85l6.16-25.94-111.82-18.53Z"/><path fill="#fff" d="M1179.44,1628.2,1169,1694.29l28,2.78s16.94-31.81,8.94-68.25Z"/><polygon fill="#fff" points="845.93 1791.88 846.34 1818.64 898.51 1813.29 892.76 1785.29 845.93 1791.88"/><path fill="#fff" d="M916.06 2572.58l3.14 29.1c18.84 13.66 78.8.86 78.8.86l-.61-29C962.58 2584 916.06 2572.58 916.06 2572.58zM1090.32 2585.35l5.31 30.49c26.26 16.08 78.65 1.38 78.65 1.38l-3.46-32.29C1134.26 2600.58 1090.32 2585.35 1090.32 2585.35z"/><polygon fill="#fff" points="3068.79 1692.23 3074.72 1717.54 3162.26 1673.1 3155.04 1647.35 3068.79 1692.23"/><polygon fill="#fff" points="2807.14 1591.64 2821.94 1646.12 2843.3 1645.7 2844.53 1639.12 2830.16 1577.35 2807.14 1591.64"/><polygon fill="#fff" points="2808.8 2566.82 2899.98 2565.99 2903.27 2531.82 2806.33 2531.41 2808.8 2566.82"/><polygon fill="#fff" points="3061.4 2531.82 3067.56 2566.82 3162.43 2557.76 3157.09 2521.52 3061.4 2531.82"/><path fill="#e1314c" d="M1006.54,1665.89c1,1,77.86,12.83,77.86,12.83l84.57,15.57,9.89-64.83-138.06-29.13C1019.69,1603.79,1005.51,1664.85,1006.54,1665.89Z"/><polygon fill="#f5927e" points="3079.75 1715.14 3164.18 1699.65 3156.57 1675.83 3079.75 1715.14"/><polygon fill="#f5927e" points="2808.71 1646.23 2821.94 1646.12 2807.14 1591.64 2808.71 1646.23"/><path fill="#f5927e" d="M1199.62,1691.21l-.35,1,18.34-1.73s-5.71-52.56-12.11-60C1205.5,1630.5,1213.81,1662.77,1199.62,1691.21Z"/><polygon fill="#f5927e" points="850.95 1837.25 897.78 1813.43 847.72 1818.52 850.95 1837.25"/></g></svg>