<svg xmlns="http://www.w3.org/2000/svg" viewBox="0 0 64 64"><path fill="#5aaae7" d="M59 11v42a2 2 0 0 1-2 2H5a2.006 2.006 0 0 1-2-2V11Z"/><path fill="#ff5023" d="M59 5v6H3V5a2.006 2.006 0 0 1 2-2h52a2.006 2.006 0 0 1 2 2Z"/><path fill="#3d9ae2" d="M31 48v4l-3.32.47A9.427 9.427 0 0 1 26.64 55H9.36a9.427 9.427 0 0 1-1.04-2.53L5 52v-4l3.32-.47a9.8 9.8 0 0 1 1.09-2.62l-2.02-2.69 2.83-2.83 2.69 2.02a9.8 9.8 0 0 1 2.62-1.09L16 37h4l.47 3.32a9.8 9.8 0 0 1 2.62 1.09l2.69-2.02 2.83 2.83-2.02 2.69a9.8 9.8 0 0 1 1.09 2.62Z"/><path fill="#ff9811" d="M25.68 50.47a9.8 9.8 0 0 1-1.09 2.62L26.02 55l.59.78-2.83 2.83-2.69-2.02a9.8 9.8 0 0 1-2.62 1.09L18 61h-4l-.47-3.32a9.8 9.8 0 0 1-2.62-1.09l-2.69 2.02-2.83-2.83.59-.78 1.43-1.91a9.8 9.8 0 0 1-1.09-2.62L3 50v-4l3.32-.47a9.8 9.8 0 0 1 1.09-2.62l-2.02-2.69 2.83-2.83 2.69 2.02a9.8 9.8 0 0 1 2.62-1.09L14 35h4l.47 3.32a9.8 9.8 0 0 1 2.62 1.09l2.69-2.02 2.83 2.83-2.02 2.69a9.8 9.8 0 0 1 1.09 2.62L29 46v4Z"/><circle cx="16" cy="48" r="5" fill="#ffd422"/><path fill="#3d9ae2" d="M58 39v2h1v4h-1.08A6.952 6.952 0 0 1 54 50.32V53l2.7 1.2 1.25.56A2.028 2.028 0 0 1 57 55H43.5l1.8-.8L48 53v-2.68A6.946 6.946 0 0 1 44.08 45H43a2 2 0 0 1 0-4h1v-2a2.015 2.015 0 0 1-2-2 2.006 2.006 0 0 1 2-2 5.47 5.47 0 0 1 .09-1A5.992 5.992 0 0 1 49 29.09V28a1 1 0 0 1 1-1h2a1 1 0 0 1 1 1v1.09A5.984 5.984 0 0 1 57.91 34a5.47 5.47 0 0 1 .09 1 2 2 0 0 1 1 .27v3.46a2 2 0 0 1-1 .27Z"/><path fill="#3d9ae2" d="M61 58.9V61h-9l-1.82-6.18L51 54l3 1 .7-2.8 2.74 1.22A6 6 0 0 1 61 58.9Z"/><path fill="#f7910c" d="M57.41 33.59A1.955 1.955 0 0 1 58 35a2.006 2.006 0 0 1-2 2H42a2.015 2.015 0 0 1-2-2 2.006 2.006 0 0 1 2-2h14a1.955 1.955 0 0 1 1.41.59Z"/><path fill="#ff9811" d="M56 33h-5v-5.91A5.984 5.984 0 0 1 55.91 32a5.47 5.47 0 0 1 .09 1Z"/><path fill="#1e81ce" d="M54.7 52.2 54 55l-3-1-1-2 2-1 2.7 1.2z"/><path fill="#ed1c24" d="M50.18 54.82 52 61h-6l1.82-6.18L49 56l1.18-1.18z"/><path fill="#ffa733" d="M51 27.09V33h-4v-7a1 1 0 0 1 1-1h2a1 1 0 0 1 1 1Z"/><path fill="#ed1c24" d="m50 52 1 2-.82.82L49 56l-1.18-1.18L47 54l1-2h2z"/><path fill="#1e81ce" d="m48 52-1 2-3 1-.7-2.8L46 51l2 1z"/><path fill="#3d9ae2" d="M47.82 54.82 46 61h-9v-2.1a6 6 0 0 1 3.56-5.48l2.74-1.22.7 2.8 3-1Z"/><path fill="#ff9811" d="M47 27.09V33h-5a5.47 5.47 0 0 1 .09-1A5.992 5.992 0 0 1 47 27.09Z"/><path fill="#ffc477" d="M52 48v3l-2 1h-2l-2-1v-3h6z"/><path fill="#ffb655" d="M43 39v4h-2a2 2 0 0 1 0-4zm16 2a2.006 2.006 0 0 1-2 2h-2v-4h2a2.006 2.006 0 0 1 2 2zm-7 7v2.32a6.958 6.958 0 0 1-6 0V48z"/><path fill="#ffc477" d="M56 39v3a5.474 5.474 0 0 1-.08 1A6.952 6.952 0 0 1 52 48.32 6.982 6.982 0 0 1 42.08 43a5.474 5.474 0 0 1-.08-1v-5h14Z"/><path fill="#ffb655" d="M42 37h14v2H42z"/><path d="M8 6h2v2H8zM12 6h2v2h-2zM16 6h2v2h-2z"/><path d="M4 12h54v18h2V5a3 3 0 0 0-3-3H5a3 3 0 0 0-3 3v38h2Zm1-8h52a1 1 0 0 1 1 1v5H4V5a1 1 0 0 1 1-1ZM29 54h6v2h-6z"/><path d="M24 6h26v2H24zM18.293 16.293l-3 3a1 1 0 0 0 0 1.414l3 3 1.414-1.414L17.414 20l2.293-2.293ZM21.064 23.649l3-8 1.872.702-3 8zM28.707 23.707l3-3a1 1 0 0 0 0-1.414l-3-3-1.414 1.414L29.586 20l-2.293 2.293ZM18 26h4v2h-4zM24 26h8v2h-8zM20 30h4v2h-4zM26 30h8v2h-8zM25.781 53.012a10.86 10.86 0 0 0 .679-1.639l2.682-.383A1 1 0 0 0 30 50v-4a1 1 0 0 0-.858-.99l-2.682-.383a10.86 10.86 0 0 0-.679-1.639l1.625-2.166a1 1 0 0 0-.093-1.307l-2.828-2.828a1 1 0 0 0-1.306-.093l-2.167 1.624a10.9 10.9 0 0 0-1.639-.678l-.383-2.682A1 1 0 0 0 18 34h-4a1 1 0 0 0-.99.858l-.383 2.682a10.855 10.855 0 0 0-1.639.678l-2.167-1.624a1 1 0 0 0-1.306.093l-2.828 2.828a1 1 0 0 0-.093 1.307l1.625 2.166a10.86 10.86 0 0 0-.679 1.639l-2.682.383A1 1 0 0 0 2 46v4a1 1 0 0 0 .858.99l2.682.383a10.86 10.86 0 0 0 .679 1.639l-1.625 2.166a1 1 0 0 0 .093 1.307l2.828 2.828a1 1 0 0 0 1.306.093l2.167-1.624a10.855 10.855 0 0 0 1.639.678l.383 2.682A1 1 0 0 0 14 62h4a1 1 0 0 0 .99-.858l.383-2.682a10.9 10.9 0 0 0 1.639-.678l2.167 1.624a1 1 0 0 0 1.306-.093l2.828-2.828a1 1 0 0 0 .093-1.307Zm-1.987.683 1.492 1.99-1.6 1.6-1.991-1.492a1 1 0 0 0-1.11-.06 8.859 8.859 0 0 1-2.356.975 1 1 0 0 0-.744.828L17.133 60h-2.266l-.351-2.463a1 1 0 0 0-.744-.828 8.859 8.859 0 0 1-2.356-.975 1 1 0 0 0-1.11.06l-1.991 1.492-1.6-1.6L8.206 53.7a1 1 0 0 0 .061-1.111 8.923 8.923 0 0 1-.977-2.357 1 1 0 0 0-.827-.742L4 49.133v-2.266l2.463-.352a1 1 0 0 0 .827-.742 8.923 8.923 0 0 1 .977-2.357 1 1 0 0 0-.061-1.111l-1.492-1.99 1.6-1.6 1.991 1.492a1 1 0 0 0 1.11.06 8.859 8.859 0 0 1 2.356-.975 1 1 0 0 0 .744-.828L14.867 36h2.266l.351 2.463a1 1 0 0 0 .744.828 8.859 8.859 0 0 1 2.356.975 1 1 0 0 0 1.11-.06l1.991-1.492 1.6 1.6-1.492 1.99a1 1 0 0 0-.061 1.111 8.923 8.923 0 0 1 .977 2.357 1 1 0 0 0 .827.742l2.464.353v2.266l-2.463.352a1 1 0 0 0-.827.742 8.923 8.923 0 0 1-.977 2.357 1 1 0 0 0 .061 1.116Z"/><path d="M16 42a6 6 0 1 0 6 6 6.006 6.006 0 0 0-6-6Zm0 10a4 4 0 1 1 4-4 4 4 0 0 1-4 4ZM45 40h2v2h-2zM51 40h2v2h-2z"/><path d="M57.85 52.51 53 50.35v-1.43A8.06 8.06 0 0 0 56.74 44H57a3 3 0 0 0 0-6v-.18a2.983 2.983 0 0 0-.05-5.65 6.934 6.934 0 0 0-2-4.11A6.756 6.756 0 0 0 52 26.31V26a2.006 2.006 0 0 0-2-2h-2a2.006 2.006 0 0 0-2 2v.3a6.96 6.96 0 0 0-4.95 5.87 2.983 2.983 0 0 0-.05 5.65V38a3 3 0 0 0 0 6h.26A8.06 8.06 0 0 0 45 48.92v1.43l-4.85 2.16A7 7 0 0 0 36 58.9V61a1 1 0 0 0 1 1h24a1 1 0 0 0 1-1v-2.1a7 7 0 0 0-4.15-6.39ZM41 42a1 1 0 0 1 0-2Zm12.53 10.77-.24.94-1.58-.53-.37-.73.69-.34ZM58 41a1 1 0 0 1-1 1v-2a1 1 0 0 1 1 1Zm-6-12.57a5.106 5.106 0 0 1 1.54 1.04A4.913 4.913 0 0 1 54.9 32H52ZM48 26h2v6h-2Zm-2 2.43V32h-2.9a4.961 4.961 0 0 1 2.9-3.57ZM41 35a1 1 0 0 1 1-1h14a1 1 0 0 1 0 2H42a1 1 0 0 1-1-1Zm2 7v-4h12v4a6 6 0 0 1-12 0Zm2.97 10.11.69.34-.37.73-1.58.53-.24-.94ZM45.25 60H38v-1.1a5 5 0 0 1 2.97-4.57l1.65-.73.41 1.64a1.017 1.017 0 0 0 .49.64A1 1 0 0 0 44 56a1.185 1.185 0 0 0 .32-.05l2.36-.79Zm2.09 0 .96-3.29a.99.99 0 0 0 1.4 0l.96 3.29Zm.88-6.2.4-.8h.76l.4.8-.78.79ZM51 50.38l-1.24.62h-1.52L47 50.38v-.64a7.822 7.822 0 0 0 4 0ZM60 60h-7.25l-1.43-4.84 2.36.79A1.185 1.185 0 0 0 54 56a1 1 0 0 0 .48-.12 1.017 1.017 0 0 0 .49-.64l.41-1.64 1.65.73A5 5 0 0 1 60 58.9Z"/></svg>