<svg xmlns="http://www.w3.org/2000/svg" viewBox="0 0 66 66"><circle cx="36.83" cy="30.62" r="24.61" fill="#f6f0f5"/><path fill="#ff7146" d="M36.83 50.27c-10.84 0-19.65-8.82-19.65-19.65S26 10.97 36.83 10.97c10.84 0 19.66 8.82 19.66 19.65s-8.82 19.65-19.66 19.65z"/><path fill="#f6f0f5" d="M36.83 45.32c-8.11 0-14.7-6.59-14.7-14.7s6.59-14.7 14.7-14.7 14.7 6.59 14.7 14.7-6.59 14.7-14.7 14.7z"/><path fill="#ff7146" d="M36.83 40.37c-5.38 0-9.75-4.37-9.75-9.75s4.37-9.75 9.75-9.75 9.75 4.37 9.75 9.75-4.37 9.75-9.75 9.75z"/><path fill="#f6f0f5" d="M36.83 35.41c-2.64 0-4.79-2.15-4.79-4.8s2.15-4.8 4.79-4.8 4.8 2.15 4.8 4.8-2.16 4.8-4.8 4.8z"/><path d="M16.45 31.65c-1.44 0-2.83.21-4.17.56.71 11.06 8.71 20.12 19.25 22.44.88-2.01 1.37-4.22 1.37-6.55 0-9.07-7.38-16.45-16.45-16.45z" opacity=".08"/><circle cx="16.45" cy="48.1" r="14.45" fill="#1c8fc7"/><path fill="#c7b69a" d="M16.45 53.77c-.88 0-1.72-.19-2.48-.53v1.98a2.48 2.48 0 1 0 4.96 0v-1.98c-.76.34-1.6.53-2.48.53z"/><path fill="#ffc040" d="M21.61 55.09h-2.69v.13a2.48 2.48 0 1 1-4.96 0v-.13h-2.69c-2.24 0-4.1 1.6-4.5 3.72a14.396 14.396 0 0 0 19.34 0 4.585 4.585 0 0 0-4.5-3.72z"/><path fill="#1a5464" d="M13.83 37.68c-2.93 0-4.97 2.93-3.95 5.68l.45 1.2c2.51 0 4.35-2.35 3.75-4.79 0 0-.25-1.71-.25-2.09z"/><path fill="#0e4b5c" d="M18.74 37.68h-4.91c0 3.8 3.08 6.88 6.88 6.88h1.86c1.86-3.01-.3-6.88-3.83-6.88z"/><path fill="#d8c5a7" d="M22.57 44.55h-1.86c-3.29 0-6.04-2.31-6.71-5.4.05.35.09.61.09.61.6 2.43-1.24 4.79-3.75 4.79-.72.24-1.25.92-1.25 1.72 0 .81.53 1.49 1.26 1.72.18 3.22 2.84 5.78 6.1 5.78s5.92-2.56 6.1-5.78a1.81 1.81 0 0 0 1.26-1.72c0-.8-.52-1.47-1.24-1.72z"/><path fill="#ffc040" d="M36.83 31.86c-.32 0-.63-.12-.88-.36-.48-.48-.48-1.27 0-1.75L60.56 5.14c.48-.48 1.27-.48 1.75 0s.48 1.27 0 1.75l-24.6 24.6c-.25.25-.56.37-.88.37z"/><path fill="#ffc040" d="M57.44 8.26V4.69a1.24 1.24 0 1 0-2.48 0v6.04l2.48-2.47zm5.32 1.75h-3.57l-2.48 2.48h6.04c.68 0 1.24-.55 1.24-1.24s-.54-1.24-1.23-1.24z"/><g fill="#2b2a3a"><path d="M12.23 31.93h.04a.75.75 0 0 0 .71-.79c-.01-.18-.01-.34-.01-.52 0-13.16 10.7-23.86 23.86-23.86 4.95 0 9.69 1.5 13.71 4.34a.753.753 0 1 0 .87-1.23 25.1 25.1 0 0 0-14.57-4.62c-13.98 0-25.36 11.38-25.36 25.36 0 .2 0 .4.01.6.01.4.34.72.74.72zm44.3-16.07c-.34.24-.42.71-.18 1.05 2.84 4.01 4.34 8.75 4.34 13.71 0 13.16-10.7 23.86-23.86 23.86-1.4 0-2.8-.12-4.16-.37-.41-.07-.8.2-.87.61s.2.8.61.87c1.45.26 2.93.39 4.42.39 13.98 0 25.36-11.38 25.36-25.36 0-5.26-1.6-10.3-4.62-14.57a.742.742 0 0 0-1.04-.19z"/><path d="M36.83 39.62c-2 0-3.88-.64-5.45-1.84a.749.749 0 1 0-.91 1.19c1.83 1.41 4.04 2.16 6.37 2.16 5.79 0 10.5-4.71 10.5-10.5 0-1.18-.2-2.34-.58-3.46a.74.74 0 0 0-.95-.46c-.39.14-.6.56-.46.95.33.96.5 1.95.5 2.96-.02 4.96-4.05 9-9.02 9zm2.96-17.5a.75.75 0 1 0 .51-1.41c-1.09-.39-2.26-.59-3.46-.59-5.79 0-10.5 4.71-10.5 10.5 0 1.74.44 3.47 1.27 5.01.14.25.39.39.66.39.12 0 .24-.03.36-.09.36-.2.5-.65.3-1.02a8.968 8.968 0 0 1-1.09-4.29c0-4.96 4.04-9 9-9 1.02 0 2.02.17 2.95.5z"/><path d="M48.02 14.47c.22-.35.13-.81-.22-1.04a20.125 20.125 0 0 0-10.97-3.22c-11.25 0-20.41 9.15-20.41 20.4v.06c0 .41.34.72.75.72s.75-.37.75-.78c0-10.42 8.48-18.9 18.91-18.9 3.62 0 7.13 1.03 10.15 2.98.35.23.82.13 1.04-.22zM36.83 49.53c-1 0-1.98-.08-2.93-.23-.4-.07-.79.21-.86.62-.07.41.21.79.62.86 1.02.17 2.09.25 3.17.25 11.25 0 20.4-9.16 20.4-20.41 0-3.91-1.11-7.71-3.22-10.97a.745.745 0 0 0-1.04-.22c-.35.22-.45.69-.22 1.04 1.95 3.02 2.98 6.53 2.98 10.15 0 10.42-8.48 18.91-18.9 18.91z"/><path d="M44.44 18.04c.2-.36.06-.82-.3-1.02a15.32 15.32 0 0 0-7.31-1.85c-8.52 0-15.45 6.93-15.45 15.45 0 .36.01.73.04 1.08.04.39.36.68.75.68h.07c.41-.04.72-.4.68-.82-.03-.31-.04-.62-.04-.94 0-7.69 6.26-13.95 13.95-13.95 2.31 0 4.59.58 6.59 1.67.37.19.82.06 1.02-.3zm-7.61 26.53c-1.05 0-2.08-.11-3.06-.34a.75.75 0 0 0-.34 1.46c1.09.25 2.24.38 3.4.38 8.52 0 15.45-6.93 15.45-15.45 0-2.56-.64-5.09-1.85-7.31-.2-.36-.65-.5-1.02-.3-.36.2-.5.65-.3 1.02 1.09 2 1.67 4.28 1.67 6.59 0 7.69-6.25 13.95-13.95 13.95z"/><path d="M62.76 9.26H61l1.84-1.84c.78-.78.77-2.04 0-2.81-.75-.75-2.06-.75-2.81 0l-1.84 1.84V4.69c0-1.1-.89-1.99-1.99-1.99s-1.99.89-1.99 1.99v5.73L39.14 25.5c-.67-.28-1.36-.42-2.06-.42-3.06 0-5.54 2.49-5.54 5.54s2.49 5.55 5.54 5.55c3.06 0 5.55-2.49 5.55-5.55 0-.83-.2-1.65-.57-2.41l14.98-14.98h5.73c1.1 0 1.99-.89 1.99-1.99s-.9-1.98-2-1.98zm-7.04-4.57a.49.49 0 0 1 .98 0v3.26l-.98.98V4.69zm5.37.98c.09-.09.21-.14.35-.14.13 0 .25.05.34.14.19.19.19.5 0 .69l-24.6 24.6a.489.489 0 0 1-.69-.69L55.5 11.26l.51-.51 5.08-5.08zM41.12 30.62c0 2.23-1.82 4.05-4.05 4.05-2.23 0-4.04-1.81-4.04-4.05s1.81-4.04 4.04-4.04c.29 0 .59.04.88.11l-2.53 2.53c-.78.78-.77 2.04 0 2.81.38.38.88.58 1.41.58s1.03-.21 1.41-.58l2.67-2.67c.13.41.21.83.21 1.26zm21.64-18.89h-4.23l.98-.98h3.26c.27 0 .49.22.49.49s-.23.49-.5.49zM16.45 32.9c-8.38 0-15.2 6.82-15.2 15.2 0 4.51 1.98 8.55 5.11 11.33 2.69 2.39 6.21 3.86 10.09 3.86s7.4-1.47 10.09-3.86c3.13-2.79 5.11-6.83 5.11-11.33 0-8.38-6.82-15.2-15.2-15.2zM7.63 58.56c.49-1.59 1.96-2.72 3.66-2.72h2c.29 1.48 1.6 2.61 3.17 2.61s2.88-1.12 3.17-2.61h2c1.7 0 3.17 1.13 3.66 2.72-2.39 2.01-5.46 3.23-8.82 3.23s-6.46-1.21-8.84-3.23zm2.96-15.47c-.4-1.08-.25-2.24.4-3.18s1.69-1.49 2.84-1.49c-.38.08-.64.44-.58.83l.1.69c.23.94.02 1.91-.57 2.66a3.12 3.12 0 0 1-1.95 1.14l-.24-.65zm11.53.71h-1.41c-2.86 0-5.37-2.02-5.98-4.81a.757.757 0 0 0-.56-.57h4.58c1.38 0 2.61.72 3.28 1.93.6 1.09.62 2.36.09 3.45zm-11.65 1.5c1.37-.04 2.64-.68 3.49-1.77.3-.38.53-.8.7-1.23 1.41 1.84 3.64 3 6.05 3h1.72a1.059 1.059 0 0 1-.12 1.98c-.29.1-.5.36-.52.67-.16 2.84-2.51 5.07-5.35 5.07s-5.2-2.23-5.35-5.07a.74.74 0 0 0-.52-.67c-.45-.14-.75-.55-.75-1.01.01-.42.27-.8.65-.97zm5.98 9.22c.6 0 1.17-.08 1.73-.23v.92c0 .95-.78 1.73-1.73 1.73s-1.73-.77-1.73-1.73v-.93c.55.16 1.13.24 1.73.24zm9.99 2.92c-.86-1.85-2.71-3.1-4.82-3.1h-1.94v-.63a6.87 6.87 0 0 0 3.58-5.21c.8-.45 1.31-1.29 1.31-2.23 0-.81-.38-1.54-1-2.02a5.18 5.18 0 0 0-.23-4.63 5.193 5.193 0 0 0-4.59-2.7h-4.91c-1.62 0-3.15.8-4.07 2.13a4.97 4.97 0 0 0-.58 4.56l.21.59c-.66.47-1.07 1.24-1.07 2.07 0 .94.51 1.78 1.31 2.23a6.87 6.87 0 0 0 3.58 5.21v.63h-1.94c-2.11 0-3.96 1.25-4.82 3.1-2.29-2.45-3.71-5.73-3.71-9.34 0-7.55 6.14-13.7 13.7-13.7s13.7 6.15 13.7 13.7c0 3.61-1.42 6.89-3.71 9.34z"/><path d="M14.54 47.4a.86.86 0 1 0 0-1.72c-.47 0-.86.39-.86.86-.01.47.38.86.86.86zm3.82 0a.86.86 0 1 0 0-1.72c-.47 0-.86.39-.86.86s.39.86.86.86zm-3.81 1.63c-.29.29-.29.77 0 1.06.51.51 1.18.78 1.89.78.72 0 1.39-.28 1.89-.78.29-.29.29-.77 0-1.06a.754.754 0 0 0-1.06 0c-.45.44-1.22.45-1.67 0a.742.742 0 0 0-1.05 0z"/></g></svg>