<svg xmlns="http://www.w3.org/2000/svg" viewBox="0 0 64 64"><path fill="#47cbf4" d="M61 53c-10-8-24-15-36-16V15c12 0 28 4 36 14Z"/><path fill="#ffd3b6" d="M10 28h10v11a4 4 0 0 1-4 4h-2a4 4 0 0 1-4-4V28Z"/><path fill="#ffa31d" d="M19.5 25H12a4 4 0 0 0-4 4v7l2.813-4.219A4 4 0 0 1 14.141 30H19.5a2.5 2.5 0 0 0 2.5-2.5 2.5 2.5 0 0 0-2.5-2.5Z"/><path fill="#1db4d8" d="M10 34h9v4h-9a2 2 0 0 1-2-2 2 2 0 0 1 2-2Z"/><rect width="4" height="6" x="18" y="33" fill="#47cbf4" rx="2"/><path fill="#ffd3b6" d="M48 27h-2a4 4 0 0 1-4-4V13h10v10a4 4 0 0 1-4 4Z"/><path fill="#ffa31d" d="m40 7 1.466.733A12.006 12.006 0 0 0 46.833 9H50a4 4 0 0 1 4 4v7l-1.625-2.438A8 8 0 0 0 45.719 14H42a2 2 0 0 1-2-2Z"/><path fill="#04aa6e" d="M52 22h-9v-4h9a2 2 0 0 1 2 2 2 2 0 0 1-2 2Z"/><rect width="10" height="6" x="40" y="17" fill="#00c383" rx="2" transform="rotate(-180 45 20)"/><path fill="#706ecf" d="M56.753 42.779 55.4 30.558A4 4 0 0 0 51.42 27h-7.461a8 8 0 0 0-5.206 1.926L34 33l-4-5-3 3 5.7 6.51a2 2 0 0 0 2.807.2L41 33v12h13.765a2 2 0 0 0 1.988-2.221zM31 46l-3 3-4.753-4.074A8 8 0 0 0 18.041 43H9.873A4 4 0 0 0 6.8 44.439l-2.9 3.486A3.865 3.865 0 0 0 3 50.4a3.865 3.865 0 0 0 1.132 2.733L6 55l-1 6h16V49l5.594 4.8a2 2 0 0 0 2.716-.105L34 49z"/><path fill="#ffd3b6" d="M43 45h-2a2 2 0 0 1-2-2 2 2 0 0 1 2-2h2zM30 28l-3 3-1.379-1.379a2.12 2.12 0 0 1-.621-1.5A2.122 2.122 0 0 1 27.121 26a2.12 2.12 0 0 1 1.5.621zm1 18 3 3 1.5-1.5a2.122 2.122 0 0 0 0-3 2.122 2.122 0 0 0-3 0z"/><path fill="#00c383" d="m25 6 3-3 3.001 3-3 3zM55 8l3-3 3.001 3-3 3zM7 16l3-3 3.001 3-3 3zM39 54l3-3 3.001 3-3 3z"/><path d="M56.6 23.4a1 1 0 1 0-1.2 1.59 27.206 27.206 0 0 1 4.6 4.364v21.6A86.676 86.676 0 0 0 52.674 46h2.092a3 3 0 0 0 2.981-3.331l-1.358-12.221a4.979 4.979 0 0 0-4.454-4.4A4.954 4.954 0 0 0 53 23v-.184A3 3 0 0 0 55 20v-7a5.006 5.006 0 0 0-5-5h-3.167a11.049 11.049 0 0 1-4.919-1.161l-1.467-.734A1 1 0 0 0 39 7v5a3 3 0 0 0 2 2.816v1.368A3 3 0 0 0 39 19v2a2.993 2.993 0 0 0 2.085 2.842 4.963 4.963 0 0 0 1.093 2.343 9.018 9.018 0 0 0-4.078 1.982l-3.967 3.4-3.354-4.192c-.012-.014-.03-.021-.042-.034s-.018-.034-.032-.048l-1.379-1.379A3.121 3.121 0 0 0 24 28.121a3.142 3.142 0 0 0 .914 2.207l1.357 1.358 4.552 5.2a45.42 45.42 0 0 0-4.823-.8V33a1 1 0 0 0-2 0v4a1 1 0 0 0 .917 1 51.088 51.088 0 0 1 13.628 3.289A2.993 2.993 0 0 0 41 46h7.691a83.954 83.954 0 0 1 11.684 7.781A1 1 0 0 0 62 53V29a1 1 0 0 0-.219-.625A28.981 28.981 0 0 0 56.6 23.4ZM45.719 15a6.974 6.974 0 0 1 4.881 2h-.38A2.985 2.985 0 0 0 48 16h-5v-1Zm4.5 8H51a3 3 0 0 1-3 3h-2a3 3 0 0 1-2.816-2H48a2.985 2.985 0 0 0 2.22-1ZM52 21h-1v-2h1a1 1 0 0 1 0 2ZM41 8.618l.019.01A13.075 13.075 0 0 0 46.833 10H50a3 3 0 0 1 3 3v3.71A8.98 8.98 0 0 0 45.719 13H42a1 1 0 0 1-1-1ZM41 19a1 1 0 0 1 1-1h6a1 1 0 0 1 1 1v2a1 1 0 0 1-1 1h-6a1 1 0 0 1-1-1Zm-13.879 8a1.112 1.112 0 0 1 .793.328l.672.672L27 29.586l-.672-.672A1.121 1.121 0 0 1 27.121 27Zm2.8 2.5 3.3 4.128a1 1 0 0 0 1.432.134l4.747-4.076A7.009 7.009 0 0 1 43.959 28h7.461a3 3 0 0 1 2.98 2.669l1.359 12.221a1 1 0 0 1-.993 1.11H44v-2h8a1 1 0 0 0 .99-1.142l-1-7a1 1 0 0 0-1.98.284L50.847 40H42v-7a1 1 0 0 0-1.651-.759l-5.5 4.712a1 1 0 0 1-1.4-.1l-5.08-5.806ZM40 35.174V39.7q-1.89-.736-3.729-1.333ZM40 43a1 1 0 0 1 1-1h1v2h-1a1 1 0 0 1-1-1Z"/><path d="M25 24a1 1 0 0 0 1-1v-6.99a61.216 61.216 0 0 1 10.8 1.19 1 1 0 0 0 .394-1.961A62.91 62.91 0 0 0 25 14a1 1 0 0 0-1 1v8a1 1 0 0 0 1 1zm6.793 19.793-1.5 1.5-2.345 2.345-4.048-3.472a9.008 9.008 0 0 0-4.075-1.981 4.963 4.963 0 0 0 1.093-2.343A2.993 2.993 0 0 0 23 37v-2a3 3 0 0 0-2-2.816v-1.535A3.492 3.492 0 0 0 19.5 24H12a5.006 5.006 0 0 0-5 5v7a3 3 0 0 0 2 2.816V39a4.948 4.948 0 0 0 1.026 3h-.152a4.985 4.985 0 0 0-3.841 1.8l-2.906 3.485a4.865 4.865 0 0 0 .3 6.554l1.5 1.5-.915 5.493A1 1 0 0 0 5 62h16a1 1 0 0 0 1-1v-9.826l3.943 3.381a3.015 3.015 0 0 0 4.074-.158l4.69-4.69 1.5-1.5a3.121 3.121 0 0 0-4.414-4.414zM10 37a1 1 0 0 1 0-2h7v2zm7.78-4H11.2l.443-.664A2.991 2.991 0 0 1 14.141 31H19v1.184a3 3 0 0 0-1.22.816zM21 37a1 1 0 0 1-2 0v-2a1 1 0 0 1 2 0zM9 29a3 3 0 0 1 3-3h7.5a1.5 1.5 0 0 1 0 3h-5.359a4.987 4.987 0 0 0-4.161 2.227L9 32.7zm2 10h6.78a3.011 3.011 0 0 0 1.1.78A3 3 0 0 1 16 42h-2a3 3 0 0 1-3-3zm17.6 13.983a1 1 0 0 1-1.357.053l-5.594-4.8A1 1 0 0 0 20 49v11H6.181l.792-4.757 1.976-5.927a1 1 0 0 0-1.9-.632l-1.486 4.465-.724-.724a2.865 2.865 0 0 1-.175-3.86l2.905-3.486A2.994 2.994 0 0 1 9.874 44h8.167a7.009 7.009 0 0 1 4.559 1.685l4.753 4.074a1 1 0 0 0 1.358-.052L31 47.414 32.586 49zm6.191-6.19-.791.793L32.414 46l.793-.793a1.125 1.125 0 0 1 1.586 0 1.12 1.12 0 0 1 0 1.586zM27.293 9.707a1 1 0 0 0 1.414 0l3-3a1 1 0 0 0 0-1.414l-3-3a1 1 0 0 0-1.414 0l-3 3a1 1 0 0 0 0 1.414zM28 4.414 29.586 6 28 7.586 26.414 6zm29.293 7.293a1 1 0 0 0 1.414 0l3-3a1 1 0 0 0 0-1.414l-3-3a1 1 0 0 0-1.414 0l-3 3a1 1 0 0 0 0 1.414zM58 6.414 59.586 8 58 9.586 56.414 8zM9.293 19.707a1 1 0 0 0 1.414 0l3-3a1 1 0 0 0 0-1.414l-3-3a1 1 0 0 0-1.414 0l-3 3a1 1 0 0 0 0 1.414zM10 14.414 11.586 16 10 17.586 8.414 16zm32.707 35.879a1 1 0 0 0-1.414 0l-3 3a1 1 0 0 0 0 1.414l3 3a1 1 0 0 0 1.414 0l3-3a1 1 0 0 0 0-1.414zM42 55.586 40.414 54 42 52.414 43.586 54z"/></svg>