<svg xmlns="http://www.w3.org/2000/svg" viewBox="0 0 66 66"><path fill="#e1d9e1" d="M2 10.63v29.82c0 2.36 1.91 4.27 4.27 4.27h43.37c2.36 0 4.27-1.91 4.27-4.27V10.63H2z"/><path d="m50.37 12.5-1.33-1.18-1.33 1.18c-2.66 2.36-4.85 5.07-6.52 8.05h-.03l-1.81 4a27.75 27.75 0 0 0-1.76 10.1c-2.85 2.84-4.63 6.33-5.25 10.07h17.3c2.36 0 4.27-1.91 4.27-4.27V16.18c-1.07-1.3-2.24-2.54-3.54-3.68z" opacity=".08"/><path fill="#658c99" d="M53.91 6.36c0-2.36-1.91-4.27-4.27-4.27H6.27C3.91 2.1 2 4.01 2 6.36v4.27h51.91V6.36z"/><circle cx="7.96" cy="6.36" r="1.5" fill="#fff"/><circle cx="13.85" cy="6.36" r="1.5" fill="#fff"/><circle cx="19.74" cy="6.36" r="1.5" fill="#fff"/><path fill="#1c8fc7" d="M5.99 16.61h8.99v8.99H5.99z"/><path fill="#ffc040" d="M5.99 29.75h8.99v8.99H5.99z"/><path fill="#1c8fc7" d="M42.39 22.54c-4.51 8.93-3.63 19.47 2.65 27.77h8c6.28-8.29 7.16-18.84 2.65-27.77h-13.3z"/><path fill="#ff7146" d="M49.05 14.37c-2.87 2.54-5.08 5.45-6.65 8.55h13.3c-1.57-3.1-3.78-6.01-6.65-8.55z"/><circle cx="49.05" cy="30.54" r="4.94" fill="#fff"/><path fill="#ff7146" d="M34.12 48.98c.05.99 1.4 1.32 1.87.44 1.45-2.66 3.48-4.15 5.57-4.83a25.705 25.705 0 0 1-1.95-8.73c-3.76 3.41-5.77 8.14-5.49 13.12zm24.37-13.5a25.89 25.89 0 0 1-1.95 8.73c2.09.68 4.12 2.17 5.57 4.83.48.87 1.82.55 1.87-.44.27-4.98-1.74-9.7-5.49-13.12z"/><path fill="#ffc040" d="M45.6 50.31c-.37.61-.6 1.32-.6 2.09 0 1.54 1.93 6.44 3.12 9.33.34.82 1.5.82 1.84 0 1.19-2.89 3.12-7.79 3.12-9.33 0-.77-.23-1.48-.6-2.09H45.6z"/><g fill="#2b2a3a"><path d="M7.96 8.61c1.24 0 2.25-1.01 2.25-2.25S9.2 4.12 7.96 4.12 5.71 5.13 5.71 6.36s1.01 2.25 2.25 2.25zm0-2.99c.41 0 .75.34.75.75s-.34.74-.75.74-.75-.33-.75-.75.33-.74.75-.74zm5.89 2.99c1.24 0 2.25-1.01 2.25-2.25s-1.01-2.25-2.25-2.25-2.25 1.02-2.25 2.25 1.01 2.25 2.25 2.25zm0-2.99c.41 0 .75.34.75.75s-.34.75-.75.75-.75-.34-.75-.76.34-.74.75-.74zm5.89 2.99c1.24 0 2.25-1.01 2.25-2.25s-1.01-2.25-2.25-2.25a2.251 2.251 0 0 0 0 4.5zm0-2.99a.749.749 0 1 1 0 1.5c-.42 0-.74-.34-.74-.76s.33-.74.74-.74zm29.8 7.81a.76.76 0 0 0-1 0c-2.87 2.55-5.17 5.5-6.82 8.77-4.67 9.24-3.63 20.18 2.72 28.56.14.19.36.3.6.3h8c.23 0 .46-.11.6-.3 6.35-8.38 7.39-19.32 2.72-28.56-1.65-3.27-3.95-6.22-6.82-8.77zm-.5 1.57a28.06 28.06 0 0 1 5.37 6.79H43.68A28.21 28.21 0 0 1 49.04 15zm3.63 34.56h-7.25c-5.71-7.75-6.68-17.74-2.56-26.27h12.37c4.12 8.52 3.15 18.51-2.56 26.27z"/><path d="M49.04 24.85c-3.14 0-5.69 2.55-5.69 5.69 0 3.14 2.55 5.69 5.69 5.69 3.14 0 5.69-2.55 5.69-5.69 0-3.14-2.55-5.69-5.69-5.69zm0 9.88c-2.31 0-4.19-1.88-4.19-4.19s1.88-4.19 4.19-4.19 4.19 1.88 4.19 4.19-1.88 4.19-4.19 4.19zM15.72 16.61c0-.41-.34-.75-.75-.75H5.99c-.41 0-.75.34-.75.75v8.99c0 .41.34.75.75.75h8.99c.41 0 .75-.34.75-.75v-8.99zm-1.5 8.24H6.74v-7.49h7.49v7.49zm.75 4.15H5.99c-.41 0-.75.34-.75.75v8.99c0 .41.34.75.75.75h8.99c.41 0 .75-.34.75-.75v-8.99a.758.758 0 0 0-.76-.75zm-.75 8.99H6.74V30.5h7.49v7.49zM33.69 19.3c0-.41-.34-.75-.75-.75H19.07c-.41 0-.75.34-.75.75s.34.75.75.75h13.88c.41 0 .74-.34.74-.75zm-14.62 2.87c-.41 0-.75.34-.75.75s.34.75.75.75h9.68c.41 0 .75-.34.75-.75s-.34-.75-.75-.75h-9.68zm14.62 10.26c0-.41-.34-.75-.75-.75H19.07c-.41 0-.75.34-.75.75s.34.75.75.75h13.88c.41 0 .74-.34.74-.75zm-4.94 4.37c.41 0 .75-.34.75-.75s-.34-.75-.75-.75h-9.68c-.41 0-.75.34-.75.75s.34.75.75.75h9.68z"/><path d="M9.01 23.27c.15.15.34.22.53.22s.38-.07.53-.22l3.26-3.26c.29-.29.29-.77 0-1.06s-.77-.29-1.06 0l-2.73 2.73-.85-.85c-.29-.29-.77-.29-1.06 0s-.29.77 0 1.06l1.38 1.38zm0 13.13a.75.75 0 0 0 1.06 0l3.26-3.26c.29-.29.29-.77 0-1.06s-.77-.29-1.06 0l-2.73 2.73-.85-.85a.754.754 0 0 0-1.06 0c-.29.29-.29.77 0 1.06l1.38 1.38z"/><path d="M31.32 43.97H6.27c-1.94 0-3.52-1.58-3.52-3.52V11.38h50.41v3.25c0 .41.34.75.75.75s.75-.34.75-.75V6.36c0-2.77-2.25-5.02-5.02-5.02H6.27c-2.77 0-5.02 2.25-5.02 5.02v34.08c0 2.77 2.25 5.02 5.02 5.02h25.05c.41 0 .75-.34.75-.75s-.34-.74-.75-.74zM6.27 2.85h43.37c1.94 0 3.52 1.58 3.52 3.52v3.52H2.75V6.36c0-1.94 1.58-3.51 3.52-3.51z"/><path d="M38.45 45.01c-1.47 1.11-2.65 2.6-3.52 4.45-.42-3.69.48-7.33 2.6-10.46.23-.34.14-.81-.2-1.04a.753.753 0 0 0-1.04.2c-2.87 4.23-3.68 9.3-2.3 14.28.09.32.39.55.72.55s.63-.22.72-.55c.77-2.76 2.08-4.85 3.92-6.23.33-.25.4-.72.15-1.05a.758.758 0 0 0-1.05-.15zm23.34-6.85a.753.753 0 0 0-1.04-.2c-.34.23-.43.7-.2 1.04 2.12 3.13 3.01 6.77 2.6 10.46-.87-1.85-2.04-3.35-3.52-4.45a.75.75 0 0 0-.9 1.2c1.83 1.37 3.15 3.47 3.91 6.23.09.32.39.55.72.55s.63-.22.72-.55c1.4-4.97.58-10.04-2.29-14.28zm-8.68 14.41c-.41-.09-.8.17-.89.58-.46 2.16-2.2 6.48-3.18 8.83-.98-2.36-2.72-6.68-3.18-8.83a.752.752 0 0 0-.89-.58c-.41.09-.66.48-.58.89.68 3.19 3.83 10.43 3.96 10.74.12.27.39.45.69.45s.57-.18.69-.45c.13-.31 3.28-7.55 3.96-10.74a.75.75 0 0 0-.58-.89z"/></g></svg>