<?xml version="1.0" encoding="UTF-8" standalone="no"?>
<!-- Created with Inkscape (http://www.inkscape.org/) -->

<svg
   version="1.1"
   id="svg2"
   xml:space="preserve"
   width="169.31699"
   height="191.05653"
   viewBox="0 0 169.31698 191.05653"
   sodipodi:docname="logo_flat_k7.svg"
   inkscape:version="1.2.2 (732a01da63, 2022-12-09)"
   inkscape:export-filename="logo_final.png"
   inkscape:export-xdpi="283.29001"
   inkscape:export-ydpi="283.29001"
   xmlns:inkscape="http://www.inkscape.org/namespaces/inkscape"
   xmlns:sodipodi="http://sodipodi.sourceforge.net/DTD/sodipodi-0.dtd"
   xmlns="http://www.w3.org/2000/svg"
   xmlns:svg="http://www.w3.org/2000/svg"><defs
     id="defs6" /><sodipodi:namedview
     id="namedview4"
     pagecolor="#ffffff"
     bordercolor="#666666"
     borderopacity="1.0"
     inkscape:pageshadow="2"
     inkscape:pageopacity="0.0"
     inkscape:pagecheckerboard="0"
     inkscape:showpageshadow="2"
     inkscape:deskcolor="#d1d1d1"
     showgrid="false"
     inkscape:zoom="3.112686"
     inkscape:cx="90.436362"
     inkscape:cy="83.207878"
     inkscape:window-width="2560"
     inkscape:window-height="1017"
     inkscape:window-x="1042"
     inkscape:window-y="276"
     inkscape:window-maximized="1"
     inkscape:current-layer="g8"
     showguides="false" /><g
     id="g8"
     inkscape:groupmode="layer"
     inkscape:label="ink_ext_XXXXXX"
     transform="matrix(1.3333333,0,0,-1.3333333,-94.348894,576.70762)"><path
       id="path48"
       style="font-variation-settings:normal;opacity:1;vector-effect:none;fill:#2e4765;fill-opacity:1;fill-rule:nonzero;stroke:none;stroke-width:0.999997;stroke-linecap:butt;stroke-linejoin:miter;stroke-miterlimit:4;stroke-dasharray:none;stroke-dashoffset:0;stroke-opacity:1;-inkscape-stroke:none;stop-color:#000000;stop-opacity:1"
       d="m 1116.61,3047.85 c 14.62,140.94 50.66,281.49 106.19,413.58 53.74,128.24 125.94,248.54 214.81,353.57 v 94.9 H 877.051 v 19.88 H 1457.49 V 3807.7 l -2.31,-2.83 c -88.49,-104 -160.44,-223.53 -214.04,-351.13 -54.76,-130.42 -90.29,-269.06 -104.78,-407.94 l -19.75,2.05 m 134.27,872.06 213.91,234.3 h 320.23 l -337.54,-356.9 v 122.6 z m 83.62,-278.68 450.52,-594.41 h -658.53 c 5.64,64.63 18.46,135.04 38.34,211.09 28.21,108.11 69.51,210.19 123.38,306.25 15.51,27.57 30.9,53.22 46.29,77.07 z M 950.023,3046.82 h -72.972 v 702.01 H 1235.75 C 1148.8,3639.57 1079.81,3515.3 1027.74,3376.54 986.059,3264.97 960.152,3155.05 950.023,3046.82 Z m -72.972,873.09 v 234.3 h 283.159 v -234.3 H 877.051"
       transform="scale(0.1)" /></g></svg>
