<svg width="122" height="149" viewBox="0 0 122 149" fill="none" xmlns="http://www.w3.org/2000/svg">
<path d="M32.5324 148.328C34.4818 129.536 39.2871 110.796 46.6911 93.1836C53.8564 76.085 63.4831 60.045 75.3324 46.041V33.3876H0.591248V30.737H77.9831V47.0143L77.6751 47.3916C65.8764 61.2583 56.2831 77.1956 49.1364 94.209C41.8351 111.598 37.0978 130.084 35.1658 148.601L32.5324 148.328ZM50.4351 32.053L78.9564 0.812973H121.654L76.6484 48.3996V32.053H50.4351ZM61.5844 69.2103L121.654 148.465H33.8498C34.6018 139.848 36.3111 130.46 38.9618 120.32C42.7231 105.905 48.2298 92.2943 55.4124 79.4863C57.4804 75.8103 59.5324 72.3903 61.5844 69.2103ZM10.3208 148.465H0.591248V54.8636H48.4178C36.8244 69.4316 27.6258 86.001 20.6831 104.502C15.1256 119.378 11.6714 134.034 10.3208 148.465ZM0.591248 32.053V0.812973H38.3458V32.053H0.591248Z" fill="white"/>
</svg>
