<svg width="789" height="151" viewBox="0 0 789 151" fill="none" xmlns="http://www.w3.org/2000/svg">
<g id="g8">
<path id="path48" d="M32.5324 150.328C34.4818 131.536 39.2871 112.796 46.6911 95.1836C53.8564 78.085 63.4831 62.045 75.3324 48.041V35.3876H0.591248V32.737H77.9831V49.0143L77.6751 49.3916C65.8764 63.2583 56.2831 79.1956 49.1364 96.209C41.8351 113.598 37.0978 132.084 35.1658 150.601L32.5324 150.328ZM50.4351 34.053L78.9564 2.81297H121.654L76.6484 50.3996V34.053H50.4351ZM61.5844 71.2103L121.654 150.465H33.8498C34.6018 141.848 36.3111 132.46 38.9618 122.32C42.7231 107.905 48.2298 94.2943 55.4124 81.4863C57.4804 77.8103 59.5324 74.3903 61.5844 71.2103ZM10.3208 150.465H0.591248V56.8636H48.4178C36.8244 71.4316 27.6258 88.001 20.6831 106.502C15.1256 121.378 11.6714 136.034 10.3208 150.465ZM0.591248 34.053V2.81297H38.3458V34.053H0.591248Z" fill="white"/>
<g id="g5282">
<path id="path14" d="M180.698 38.3902L213.006 2.67495H199.026L171.183 34.8648V2.67495H160.726V75.7499H171.183V43.5585L200.788 75.7499H214.652L180.698 38.3902Z" fill="white"/>
<path id="path16" d="M247.352 39.2117C247.352 58.8313 262.507 74.927 281.774 76.4553V65.9982C268.263 64.5874 257.807 53.1927 257.807 39.2117C257.807 25.2306 268.263 13.836 281.774 12.4252V1.85201C262.507 3.37883 247.352 19.4745 247.352 39.2117ZM287.765 1.85201V12.4252C301.393 13.836 311.733 25.2306 311.733 39.2117C311.733 53.1927 301.393 64.5874 287.765 65.9982V76.4553C307.032 74.927 322.208 58.8313 322.208 39.2117C322.208 19.4745 307.032 3.37883 287.765 1.85201Z" fill="white"/>
<path id="path18" d="M367.341 75.7499H377.797V34.6297L367.341 24.1741V75.7499ZM417.859 2.67496V52.7225L367.341 0.912992V15.2452L428.315 77.5119V2.67496H417.859Z" fill="white"/>
<path id="path20" d="M513.157 2.67495H473.566V13.1306H506.343L513.157 2.67495ZM529.252 2.67495H517.975L471.803 75.7499H527.49V65.2927H489.896L529.252 2.67495Z" fill="white"/>
<path id="path22" d="M567.924 2.67495V13.1306H609.748V2.67495H567.924ZM604.462 44.3815V34.161H567.924V44.3815H604.462ZM578.381 65.2927H567.924V75.7499H609.748V65.2927H578.381Z" fill="white"/>
<path id="path24" d="M674.267 2.67495H651.592V13.1306H676.967C684.605 13.1306 691.655 17.1247 691.655 26.6414C691.655 36.158 685.192 40.0346 677.555 40.0346H651.592V75.7499H662.049V50.4903H677.438C692.946 50.4903 702.11 39.6819 702.11 26.0536C702.11 12.1901 693.3 2.67495 674.267 2.67495Z" fill="white"/>
<path id="path26" d="M788.245 12.8955V2.67495H739.489V12.8955H788.245ZM769.096 75.7499V18.8882H758.64V75.7499H769.096Z" fill="white"/>
</g>
<g id="g5273">
<path id="path28" d="M170.34 132.024L185.928 114.812H179.191L165.758 130.32V114.812H160.706V150.037H165.758V134.511L180.033 150.037H186.711L170.34 132.024Z" fill="white"/>
<path id="path30" d="M248.31 113.951L231.549 150.037H236.974L240.44 142.499L248.31 125.054L256.241 142.499L259.629 150.037H265.13L248.31 113.951Z" fill="white"/>
<path id="path32" d="M328.258 137.409C333.525 136 336.521 131.514 336.521 126.071C336.521 119.394 332.272 114.812 323.089 114.812H312.163V119.846H324.792C328.473 119.846 331.488 121.783 331.488 126.365C331.488 130.947 328.357 132.827 324.674 132.827H312.163V150.037H317.214V137.858H322.697L331.488 150.037H337.364L328.258 137.409Z" fill="white"/>
<path id="path34" d="M386.548 150.037H391.601V114.812H386.548V150.037ZM405.876 150.037V145.005H394.48V150.037H405.876Z" fill="white"/>
<path id="path36" d="M466.203 129.479C460.662 128.401 458.214 127.089 458.214 124.387C458.214 121.254 460.937 119.394 465.812 119.394C470.178 119.394 472.998 121.315 474.878 123.135L477.248 118.553C472.94 114.519 467.34 114.363 465.871 114.363C457.646 114.363 453.182 118.886 453.182 124.604C453.182 129.302 455.962 132.827 465.812 134.511C470.629 135.372 473.8 137.076 473.8 139.895C473.8 143.244 470.904 145.397 465.635 145.397C461.503 145.397 457.431 143.458 454.533 140.247L451.988 144.713C452.498 145.397 457.02 150.43 465.517 150.43C473.742 150.43 478.832 145.848 478.832 139.739C478.832 133.787 474.585 131.123 466.203 129.479Z" fill="white"/>
<path id="path38" d="M543.527 137.409C548.794 136 551.79 131.514 551.79 126.071C551.79 119.394 547.541 114.812 538.357 114.812H527.432V119.846H540.061C543.744 119.846 546.757 121.783 546.757 126.365C546.757 130.947 543.624 132.827 539.943 132.827H527.432V150.037H532.485V137.858H537.966L546.757 150.037H552.633L543.527 137.409Z" fill="white"/>
<path id="path40" d="M623.063 114.812V136.155C623.063 141.658 619.95 145.397 614.682 145.397C609.415 145.397 606.302 141.658 606.302 136.155V114.812H601.269V134.511C601.269 143.811 605.225 150.43 614.682 150.43C623.924 150.43 628.114 143.811 628.114 134.511V114.812H623.063Z" fill="white"/>
<path id="path42" d="M697.509 134.922V129.87H686.681V134.922H697.509ZM678.691 150.037H683.743V114.812H678.691V150.037ZM700.503 114.812V129.87H700.445V134.922H700.503V150.037H705.556V114.812H700.503Z" fill="white"/>
<path id="path44" d="M754.449 114.812V119.846H774.617V114.812H754.449ZM772.052 134.922V129.987H754.449V134.922H772.052ZM759.481 145.005H754.449V150.037H774.617V145.005H759.481Z" fill="white"/>
</g>
<path id="rect23665" d="M788.245 96.1322H160.726V97.1322H788.245V96.1322Z" fill="white"/>
</g>
</svg>
