<?xml version="1.0" encoding="UTF-8" standalone="no"?>
<!-- Created with Inkscape (http://www.inkscape.org/) -->

<svg
   version="1.1"
   id="svg2"
   xml:space="preserve"
   width="164.11386"
   height="191.05653"
   viewBox="0 0 164.11386 191.05653"
   sodipodi:docname="logo_k7_onwhite.svg"
   inkscape:version="1.2.2 (732a01da63, 2022-12-09)"
   inkscape:export-filename="logo_k7_onwhite.png"
   inkscape:export-xdpi="283.29001"
   inkscape:export-ydpi="283.29001"
   xmlns:inkscape="http://www.inkscape.org/namespaces/inkscape"
   xmlns:sodipodi="http://sodipodi.sourceforge.net/DTD/sodipodi-0.dtd"
   xmlns:xlink="http://www.w3.org/1999/xlink"
   xmlns="http://www.w3.org/2000/svg"
   xmlns:svg="http://www.w3.org/2000/svg"><defs
     id="defs6"><linearGradient
       inkscape:collect="always"
       id="linearGradient2816-9"><stop
         style="stop-color:#2e4765;stop-opacity:1;"
         offset="0.03333334"
         id="stop2812-8" /><stop
         style="stop-color:#566885;stop-opacity:1;"
         offset="0.19272986"
         id="stop5084" /><stop
         style="stop-color:#a4b3c5;stop-opacity:1;"
         offset="0.6118598"
         id="stop10093-0" /><stop
         style="stop-color:#d2d8e3;stop-opacity:1;"
         offset="0.77613807"
         id="stop6739-2" /><stop
         style="stop-color:#7e94a3;stop-opacity:1;"
         offset="1"
         id="stop2814-8" /></linearGradient><linearGradient
       inkscape:collect="always"
       xlink:href="#linearGradient2816-9"
       id="linearGradient7525"
       gradientUnits="userSpaceOnUse"
       gradientTransform="translate(-146.31359,-26.670907)"
       x1="1030.8628"
       y1="3768.0007"
       x2="1931.3336"
       y2="3777.0396"
       spreadMethod="pad" /></defs><sodipodi:namedview
     id="namedview4"
     pagecolor="#ffffff"
     bordercolor="#666666"
     borderopacity="1.0"
     inkscape:pageshadow="2"
     inkscape:pageopacity="0.0"
     inkscape:pagecheckerboard="0"
     inkscape:showpageshadow="2"
     inkscape:deskcolor="#d1d1d1"
     showgrid="false"
     inkscape:zoom="1.556343"
     inkscape:cx="479.00751"
     inkscape:cy="134.93169"
     inkscape:window-width="2560"
     inkscape:window-height="1017"
     inkscape:window-x="1042"
     inkscape:window-y="276"
     inkscape:window-maximized="1"
     inkscape:current-layer="g8"
     showguides="false"
     inkscape:lockguides="false" /><g
     id="g8"
     inkscape:groupmode="layer"
     inkscape:label="ink_ext_XXXXXX"
     transform="matrix(1.3333333,0,0,-1.3333333,-94.348894,576.70762)"><rect
       style="fill:#ffffff;stroke-width:0.044013;-inkscape-stroke:none;stop-color:#000000"
       id="rect11639"
       width="123.0854"
       height="143.2924"
       x="70.761673"
       y="-432.53073"
       transform="scale(1,-1)" /><path
       id="path48-3"
       style="font-variation-settings:normal;opacity:1;vector-effect:none;fill:#333333;fill-opacity:1;fill-rule:nonzero;stroke:none;stroke-width:0.0999997;stroke-linecap:butt;stroke-linejoin:miter;stroke-miterlimit:4;stroke-dasharray:none;stroke-dashoffset:0;stroke-opacity:1;-inkscape-stroke:none;stop-color:#000000;stop-opacity:1"
       d="m 112.41082,304.03498 c 1.462,14.094 5.066,28.149 10.619,41.358 5.374,12.824 12.594,24.854 21.481,35.357 v 9.49 H 88.454923 v 1.988 h 58.043897 v -12.208 l -0.231,-0.283 c -8.849,-10.4 -16.044,-22.353 -21.404,-35.113 -5.476,-13.042 -9.029,-26.906 -10.478,-40.794 l -1.975,0.205 m 13.427,87.206 21.391,23.43 h 32.023 l -33.754,-35.69 v 12.26 z m 8.362,-27.868 45.052,-59.441 h -65.853 c 0.564,6.463 1.846,13.504 3.834,21.109 2.821,10.811 6.951,21.019 12.338,30.625 1.551,2.757 3.09,5.322 4.629,7.707 z m -38.447697,-59.441 h -7.2972 v 70.201 h 35.869897 c -8.695,-10.926 -15.594,-23.353 -20.801,-37.229 -4.168097,-11.157 -6.758797,-22.149 -7.771697,-32.972 z m -7.2972,87.309 v 23.43 h 28.315897 v -23.43 H 88.454923" /><path
       id="path48"
       style="font-variation-settings:normal;opacity:1;vector-effect:none;fill:url(#linearGradient7525);fill-opacity:1;fill-rule:nonzero;stroke:none;stroke-width:0.999997;stroke-linecap:butt;stroke-linejoin:miter;stroke-miterlimit:4;stroke-dasharray:none;stroke-dashoffset:0;stroke-opacity:1;-inkscape-stroke:none;stop-color:#000000;stop-opacity:1"
       d="m 1116.61,3047.85 c 14.62,140.94 50.66,281.49 106.19,413.58 53.74,128.24 125.94,248.54 214.81,353.57 v 94.9 H 877.051 v 19.88 H 1457.49 V 3807.7 l -2.31,-2.83 c -88.49,-104 -160.44,-223.53 -214.04,-351.13 -54.76,-130.42 -90.29,-269.06 -104.78,-407.94 l -19.75,2.05 m 134.27,872.06 213.91,234.3 h 320.23 l -337.54,-356.9 v 122.6 z m 83.62,-278.68 450.52,-594.41 h -658.53 c 5.64,64.63 18.46,135.04 38.34,211.09 28.21,108.11 69.51,210.19 123.38,306.25 15.51,27.57 30.9,53.22 46.29,77.07 z M 950.023,3046.82 h -72.972 v 702.01 H 1235.75 C 1148.8,3639.57 1079.81,3515.3 1027.74,3376.54 986.059,3264.97 960.152,3155.05 950.023,3046.82 Z m -72.972,873.09 v 234.3 h 283.159 v -234.3 H 877.051"
       transform="scale(0.1)" /></g></svg>
