<svg width="1000" height="354" viewBox="0 0 1000 354" fill="none" xmlns="http://www.w3.org/2000/svg">
<g id="audi 1" clip-path="url(#clip0_1_2)">
<g id="layer1">
<path id="path36902" d="M821.184 -0.000305176C781.321 -0.000305176 744.305 13.0977 714.123 35.3073C683.941 13.0977 646.925 -0.000305176 607.061 -0.000305176C567.198 -0.000305176 530.182 13.0977 500 35.3073C469.818 13.0977 433.371 -0.000305176 392.939 -0.000305176C353.075 -0.000305176 316.059 13.0977 285.877 35.3073C256.264 13.0977 219.248 -0.000305176 178.815 -0.000305176C80.2961 -0.000305176 3.05176e-05 79.1569 3.05176e-05 176.537C3.05176e-05 273.918 80.2961 353.075 178.815 353.075C218.679 353.075 255.695 339.977 285.877 317.767C316.059 339.977 353.075 353.075 392.939 353.075C432.802 353.075 469.818 339.977 500 317.767C529.613 339.977 566.629 353.075 607.061 353.075C646.925 353.075 683.941 339.977 714.123 317.767C743.736 339.977 780.752 353.075 821.184 353.075C919.704 353.075 1000 273.918 1000 176.537C1000 79.1569 919.704 -0.000305176 821.184 -0.000305176ZM714.123 267.654C692.483 243.166 679.385 211.275 679.385 176.537C679.385 141.799 692.483 109.909 714.123 85.4211C735.763 109.909 748.861 141.799 748.861 176.537C748.861 211.275 735.763 243.166 714.123 267.654ZM500 267.654C478.36 243.166 465.262 211.275 465.262 176.537C465.262 141.799 478.36 109.909 500 85.4211C521.64 109.909 534.738 141.799 534.738 176.537C534.738 211.275 521.64 243.166 500 267.654ZM285.877 267.654C264.237 243.166 251.139 211.275 251.139 176.537C251.139 141.799 264.237 109.909 285.877 85.4211C307.517 109.909 320.615 141.799 320.615 176.537C321.185 211.275 307.517 243.166 285.877 267.654ZM37.0159 176.537C37.0159 99.6581 100.797 37.0156 178.815 37.0156C207.859 37.0156 235.194 45.5579 257.973 60.9336C230.638 91.6853 214.123 132.118 214.123 176.537C214.123 220.956 230.638 261.389 257.973 292.141C235.194 306.947 208.428 316.059 178.815 316.059C100.797 316.059 37.0159 253.417 37.0159 176.537ZM313.781 292.141C341.116 261.389 357.631 220.956 357.631 176.537C357.631 132.118 341.116 91.6853 313.781 60.9336C336.56 46.1272 363.326 37.0156 392.939 37.0156C422.551 37.0156 449.317 45.5579 472.096 60.9336C444.761 91.6853 427.676 132.118 427.676 176.537C427.676 220.956 444.191 261.389 472.096 292.141C449.317 306.947 422.551 316.059 392.939 316.059C363.895 316.059 336.56 306.947 313.781 292.141ZM527.904 292.141C555.239 261.389 572.323 220.956 572.323 176.537C572.323 132.118 555.809 91.6853 527.904 60.9336C550.683 46.1272 577.449 37.0156 607.061 37.0156C636.674 37.0156 663.44 45.5579 686.219 60.9336C658.884 91.6853 641.8 132.118 641.8 176.537C641.8 220.956 658.314 261.389 686.219 292.141C663.44 306.947 636.674 316.059 607.061 316.059C577.449 316.059 550.683 306.947 527.904 292.141ZM821.184 316.059C792.141 316.059 764.806 307.517 742.027 292.141C769.362 261.389 786.446 220.956 786.446 176.537C786.446 132.118 769.932 91.6853 742.027 60.9336C764.806 46.1272 791.572 37.0156 821.184 37.0156C899.203 37.0156 962.984 99.6581 962.984 176.537C962.984 253.417 899.203 316.059 821.184 316.059Z" fill="#949494"/>
</g>
</g>
<defs>
<clipPath id="clip0_1_2">
<rect width="1000" height="353.075" fill="white"/>
</clipPath>
</defs>
</svg>
