<svg width="411" height="64" viewBox="0 0 411 64" fill="none" xmlns="http://www.w3.org/2000/svg">
<g id="aumann-ag-logo 1">
<g id="Group">
<path id="Vector" d="M382.93 54.033V26.26C382.93 21.372 381.904 17.257 378.56 14.001C375.989 11.516 372.302 10.058 367.844 10.058C363.473 10.058 359.275 11.687 356.273 14.945V10.574H347.703V54.035H356.446V27.545C356.446 20.859 360.56 17.858 365.446 17.858C370.332 17.858 374.187 20.774 374.187 27.545V54.033H382.93ZM334.242 54.033V26.26C334.242 21.372 333.216 17.257 329.873 14.001C327.302 11.516 323.611 10.058 319.158 10.058C314.787 10.058 310.586 11.687 307.585 14.945V10.574H299.015V54.035H307.758V27.545C307.758 20.859 311.873 17.858 316.758 17.858C321.643 17.858 325.5 20.774 325.5 27.545V54.033H334.242ZM276.814 38.345C276.814 41.432 276.213 43.49 274.926 44.775C272.612 47.004 270.128 47.26 266.78 47.26C261.298 47.26 258.808 45.031 258.808 41.088C258.808 37.145 261.465 34.83 266.61 34.83H276.811L276.814 38.345ZM285.556 54.033V24.973C285.556 15.118 279.558 10.057 267.641 10.057C260.441 10.057 256.153 11.515 252.042 16.315L257.784 21.714C260.182 18.629 262.498 17.515 267.297 17.515C274.068 17.515 276.814 20.173 276.814 25.66V28.745H265.329C255.386 28.745 250.331 33.974 250.331 41.262C250.331 44.948 251.525 48.29 253.758 50.606C256.416 53.264 260.015 54.548 265.416 54.548C270.812 54.548 273.813 53.264 276.984 50.091V54.034L285.556 54.033ZM240.125 54.033V26.26C240.125 21.372 238.841 17.257 235.497 14.001C232.926 11.516 228.979 10.058 224.522 10.058C218.778 10.058 214.411 12.117 210.893 16.403C208.151 12.203 203.952 10.058 198.549 10.058C194.179 10.058 189.892 11.774 186.979 14.945V10.574H178.41V54.035H187.15V27.545C187.15 20.859 191.264 17.858 196.15 17.858C201.039 17.858 204.895 20.774 204.895 27.545V54.033H213.637V27.118C213.637 20.859 217.92 17.858 222.637 17.858C227.522 17.858 231.379 20.774 231.379 27.545V54.033H240.125ZM164.524 54.033V10.573H155.781V37.057C155.781 43.745 151.669 46.745 146.781 46.745C141.894 46.745 138.04 43.832 138.04 37.057V10.573H129.297V38.344C129.297 43.231 130.326 47.344 133.668 50.603C136.239 53.087 139.927 54.545 144.382 54.545C148.753 54.545 152.955 52.917 155.955 49.658V54.03L164.524 54.033ZM107.522 38.345C107.522 41.432 106.921 43.49 105.637 44.775C103.322 47.004 100.835 47.26 97.492 47.26C92.007 47.26 89.516 45.031 89.516 41.088C89.516 37.145 92.176 34.83 97.319 34.83H107.519L107.522 38.345ZM116.265 54.033V24.973C116.265 15.118 110.265 10.057 98.349 10.057C91.15 10.057 86.867 11.515 82.748 16.315L88.492 21.714C90.89 18.629 93.207 17.515 98.008 17.515C104.779 17.515 107.522 20.173 107.522 25.66V28.745H96.037C86.094 28.745 81.035 33.974 81.035 41.262C81.035 44.948 82.236 48.29 84.465 50.606C87.121 53.264 90.723 54.548 96.121 54.548C101.519 54.548 104.52 53.264 107.692 50.091V54.034L116.265 54.033Z" fill="#949494"/>
</g>
<path id="Vector_2" d="M42.865 31.33C42.865 37.531 37.838 42.559 31.634 42.559C25.43 42.559 20.402 37.531 20.402 31.33C20.402 25.126 25.43 20.099 31.634 20.099C37.838 20.099 42.865 25.126 42.865 31.33ZM61.96 31.33C61.96 14.579 48.383 1 31.633 1C14.882 1 1.30499 14.579 1.30499 31.33C1.30499 48.079 14.882 61.654 31.633 61.654C48.383 61.655 61.96 48.079 61.96 31.33Z" fill="#949494"/>
</g>
</svg>
