<svg width="600" height="600" viewBox="0 0 600 600" fill="none" xmlns="http://www.w3.org/2000/svg">
<g clip-path="url(#clip0_1_9)">
<path d="M298.5 298.5H123.728C124.529 202.271 202.271 124.529 298.5 123.728V298.5ZM301.5 301.5H476.271C475.471 397.729 397.729 475.471 301.5 476.272V301.5Z" stroke="#949494" stroke-width="3"/>
<path d="M300 121.722H299.5V122.222V299.5H122.222H121.722V300C121.722 398.525 201.475 478.278 300 478.278H300.5V477.778V300.5H477.778H478.278V300C478.278 201.475 398.525 121.722 300 121.722Z" fill="#949494" stroke="black"/>
<mask id="path-3-outside-1_1_9" maskUnits="userSpaceOnUse" x="-1" y="-1" width="602" height="602" fill="black">
<rect fill="white" x="-1" y="-1" width="602" height="602"/>
<path d="M300 122.222V131.97C392.643 131.97 468.031 207.339 468.031 300H477.778C477.778 201.822 398.178 122.222 300 122.222ZM300 468.031C207.357 468.031 131.97 392.661 131.97 300H122.222C122.222 398.178 201.822 477.778 300 477.778M300 0C134.319 0 0 134.319 0 300C0 465.681 134.319 600 300 600C465.681 600 600 465.681 600 300C600 134.319 465.681 0 300 0ZM580.492 300C580.492 454.904 454.921 580.492 300 580.492C145.079 580.492 19.5085 454.904 19.5085 300C19.5085 145.096 145.096 19.5085 300 19.5085C454.904 19.5085 580.492 145.096 580.492 300Z"/>
</mask>
<path d="M300 122.222V131.97C392.643 131.97 468.031 207.339 468.031 300H477.778C477.778 201.822 398.178 122.222 300 122.222ZM300 468.031C207.357 468.031 131.97 392.661 131.97 300H122.222C122.222 398.178 201.822 477.778 300 477.778M300 0C134.319 0 0 134.319 0 300C0 465.681 134.319 600 300 600C465.681 600 600 465.681 600 300C600 134.319 465.681 0 300 0ZM580.492 300C580.492 454.904 454.921 580.492 300 580.492C145.079 580.492 19.5085 454.904 19.5085 300C19.5085 145.096 145.096 19.5085 300 19.5085C454.904 19.5085 580.492 145.096 580.492 300Z" fill="#949494"/>
<path d="M300 122.222V121.222H299V122.222H300ZM300 131.97H299V132.97H300V131.97ZM468.031 300H467.031V301H468.031V300ZM477.778 300V301H478.778V300H477.778ZM131.97 300H132.97V299H131.97V300ZM122.222 300V299H121.222V300H122.222ZM299 122.222V131.97H301V122.222H299ZM300 132.97C392.091 132.97 467.031 207.891 467.031 300H469.031C469.031 206.787 393.196 130.97 300 130.97V132.97ZM468.031 301H477.778V299H468.031V301ZM478.778 300C478.778 201.27 398.73 121.222 300 121.222V123.222C397.626 123.222 476.778 202.374 476.778 300H478.778ZM300 467.031C207.909 467.031 132.97 392.109 132.97 300H130.97C130.97 393.213 206.805 469.031 300 469.031V467.031ZM131.97 299H122.222V301H131.97V299ZM121.222 300C121.222 398.73 201.27 478.778 300 478.778V476.778C202.374 476.778 123.222 397.626 123.222 300H121.222ZM300 -1C133.767 -1 -1 133.767 -1 300H1C1 134.871 134.871 1 300 1V-1ZM-1 300C-1 466.233 133.767 601 300 601V599C134.871 599 1 465.129 1 300H-1ZM300 601C466.233 601 601 466.233 601 300H599C599 465.129 465.129 599 300 599V601ZM601 300C601 133.767 466.233 -1 300 -1V1C465.129 1 599 134.871 599 300H601ZM579.492 300C579.492 454.351 454.369 579.492 300 579.492V581.492C455.474 581.492 581.492 455.456 581.492 300H579.492ZM300 579.492C145.631 579.492 20.5085 454.351 20.5085 300H18.5085C18.5085 455.456 144.526 581.492 300 581.492V579.492ZM20.5085 300C20.5085 145.649 145.649 20.5085 300 20.5085V18.5085C144.544 18.5085 18.5085 144.544 18.5085 300H20.5085ZM300 20.5085C454.351 20.5085 579.492 145.649 579.492 300H581.492C581.492 144.544 455.456 18.5085 300 18.5085V20.5085Z" fill="black" mask="url(#path-3-outside-1_1_9)"/>
<path d="M177.602 122.272L177.602 122.272C172.293 116.163 163.465 114.792 156.103 117.658C156.603 116.032 156.924 113.172 156.295 109.964C155.606 106.449 153.773 102.492 149.765 99.2662L149.765 99.2661C145.841 96.109 140.929 94.9468 135.99 95.448C131.363 95.9157 127.291 97.7257 122.025 102.018C116.777 106.296 110.307 113.072 100.883 123.507C95.182 129.817 86.8911 139.768 81.9139 146.218L81.6371 146.577L81.9669 146.887L133.759 195.68L134.13 196.029L134.472 195.653C148.037 180.743 155.246 173.238 164.359 163.752C166.774 161.239 169.322 158.586 172.158 155.619C176.976 150.58 180.799 145.1 182.186 139.443C183.582 133.75 182.499 127.922 177.602 122.272ZM136.293 111.672L136.296 111.671C139.386 110.828 142.639 113.01 143.378 116.236C144.109 119.448 142.085 122.578 139.634 125.311L139.633 125.312C136.882 128.393 130.451 135.185 124.702 141.215C121.829 144.228 119.128 147.048 117.146 149.114C116.154 150.148 115.343 150.993 114.779 151.58L114.243 152.137L104.897 143.296C115.231 130.782 126.137 119.477 131.089 114.99C132.678 113.553 134.325 112.197 136.293 111.672ZM305.921 97.583H306.245L306.377 97.288L322.778 60.8006L324.507 109.649L324.522 110.088L324.96 110.129C330.762 110.67 336.759 111.474 342.671 112.452L343.274 112.552L343.252 111.94L340.556 38.9262L340.54 38.4948L340.111 38.4477C331.818 37.5365 323.559 36.888 315.3 36.5375L314.948 36.5226L314.815 36.8491L298.479 77.1189L298.461 77.1639L298.452 77.2115L298.361 77.6784L298.27 77.2115L298.261 77.164L298.243 77.1191L281.925 36.8493L281.792 36.5226L281.44 36.5375C273.181 36.888 264.922 37.5365 256.629 38.4477L256.2 38.4948L256.184 38.9262L253.488 111.94L253.466 112.552L254.069 112.452C259.98 111.474 265.978 110.688 271.782 110.129L272.218 110.087L272.233 109.649L273.962 60.8006L290.363 97.288L290.495 97.583H290.819H305.921ZM443.197 173.174L443.033 173.488L443.276 173.747C447.334 178.074 453.192 185.062 456.48 189.305L456.758 189.663L457.142 189.421L517.834 151.164L518.298 150.871L517.963 150.436C514.927 146.492 510.093 140.5 506.474 136.275L506.188 135.941L505.82 136.182L467.499 161.345L484.407 127.83L484.571 127.506L484.313 127.25L472.312 115.332L472.058 115.079L471.737 115.239L437.995 132.02L463.336 94.0002L463.583 93.6288L463.242 93.3408C458.76 89.5552 454.454 86.0851 448.967 81.8803L448.535 81.5492L448.242 82.0077L409.719 142.229L409.471 142.616L409.837 142.896C414.704 146.613 421.126 152.081 425.224 155.802L425.481 156.035L425.789 155.876L461.935 137.247L443.197 173.174ZM125.207 162.43L125.719 161.892C126.27 161.314 127.065 160.48 128.039 159.459C129.986 157.416 132.65 154.624 135.514 151.625C141.244 145.626 147.776 138.802 150.991 135.496C153.562 132.855 155.139 131.334 156.807 130.522C158.977 129.47 161.263 129.287 163.291 130.629C165.306 131.969 166.223 134.265 165.722 136.545C165.104 139.35 162.773 142.074 160.752 144.24C159.392 145.686 152.874 152.614 146.691 159.186C143.598 162.473 140.589 165.671 138.351 168.049L135.658 170.91C135.374 171.212 135.147 171.453 134.98 171.631L125.207 162.43Z" fill="#949494" stroke="black"/>
</g>
<defs>
<clipPath id="clip0_1_9">
<rect width="600" height="600" fill="white"/>
</clipPath>
</defs>
</svg>
