<svg width="2500" height="2032" viewBox="0 0 2500 2032" fill="none" xmlns="http://www.w3.org/2000/svg">
<g clip-path="url(#clip0_1_43)">
<path d="M2461.92 800.885C2438.12 738.416 2389.26 682.645 2329.78 642.431C2158.08 533.407 1896.41 525.643 1719.49 624.206C1623.01 673.399 1559.59 770.747 1539.85 871C1504.05 1035.71 1513.3 1231.68 1640.19 1355.13C1788.16 1484.84 2003.51 1513.5 2195 1460.22C2204.1 1458.47 2232.94 1451.21 2252.82 1440.66L2258.42 1438.26C2317.9 1413.54 2374.62 1373.3 2416.97 1318.8C2514.7 1175.91 2521.4 961.799 2461.92 800.885ZM2150.14 1170.75C2143.38 1201.98 2122.37 1234.34 2089.24 1246.08C2036.49 1269.28 1965.13 1262.85 1916.27 1235.71C1875.28 1207.05 1870.01 1159.07 1864.73 1113.67C1860.73 1024.18 1854.27 929.409 1879.34 847.589C1898.99 796.914 1953.19 783.875 2002.2 780.052C2053.68 780.052 2103.79 787.906 2135.59 829.423C2155.38 859.205 2154.17 898.174 2158.08 933.261C2156.69 1007.2 2163.33 1095.39 2150.14 1170.75ZM584.653 1251.35C541.032 1248.69 492.165 1252.51 449.936 1247.32L451.24 791.61L453.907 787.817L584.653 786.542C586.016 712.575 587.32 633.245 583.29 565.827L85.3465 564.434L3.34869 565.857C2.04479 634.608 2.04479 715.005 3.34869 785.179C48.3038 786.572 90.5029 785.179 134.124 789.239V1230.58L132.85 1248.72L2.04479 1251.38C-0.681597 1322.76 -0.681597 1394.21 2.04479 1465.58H584.623L584.653 1251.35ZM2050.95 1562.84C1995.54 1642.11 1925.51 1718.69 1849.06 1778.25C1846.27 1782.31 1838.36 1780.77 1835.84 1777.04C1802.71 1756.32 1767.06 1739.37 1735.29 1718.69C1777.61 1668.1 1818.59 1617.49 1850.3 1561.45H1809.2C1776.36 1609.66 1741.93 1660.25 1698.37 1702.95C1640.19 1679.63 1587.39 1658.88 1527.94 1643.18L1521.33 1638.23C1530.58 1612 1547.71 1587.38 1552.95 1561.39H1517.3L1481.65 1631.53C1403.8 1614.67 1317.89 1605.48 1238.62 1600.36C1234.62 1588.71 1239.87 1571.82 1234.62 1561.39H1200.27C1197.55 1577.01 1204.24 1588.77 1196.3 1601.72C1114.39 1605.48 1035.15 1614.67 958.607 1630.41L922.809 1561.39C909.74 1561.39 895.042 1558.9 885.914 1562.78L918.868 1639.38L914.926 1643.18C855.719 1660.31 797.507 1680.71 740.559 1704.28L735.313 1701.62C698.241 1661.37 662.561 1617.43 633.461 1573.27C626.911 1551.08 600.478 1564.05 585.927 1561.45C617.517 1618.64 659.924 1669.2 702.123 1721.2C666.473 1742.04 630.942 1765.27 593.78 1782.31C512.974 1720.77 442.532 1646.7 385.126 1562.9C369.242 1560.35 358.781 1561.51 342.808 1562.9C437.934 1710.89 585.927 1840.66 740.499 1917.26C740.499 1917.26 740.499 1916.11 741.922 1916.11C743.048 1916.11 745.685 1918.51 743.048 1919.87C847.479 1970.52 958.518 2006.85 1075.99 2022.5C1481.59 2075.66 1868.7 1903.1 2093.15 1562.9C2079.12 1561.45 2064.99 1561.43 2050.95 1562.84ZM1500.2 1679.66L1504.08 1677.05C1561.04 1690.03 1615.09 1708.23 1665.32 1732.82C1623.01 1780.74 1568.83 1822.38 1518.69 1857.4C1488.35 1875.51 1457.85 1895.19 1426.12 1910.66L1369.43 1886L1373.31 1877.02C1420.96 1813.46 1463.25 1748.47 1500.2 1679.66ZM1239.87 1640.69C1315.22 1642.11 1390.56 1649.88 1460.46 1666.68L1461.85 1670.62C1424.93 1740.65 1378.58 1808.3 1328.47 1871.78C1305.89 1874.44 1284.85 1865.46 1262.42 1864.07L1239.84 1861.4C1237.26 1784.8 1235.86 1717.29 1239.87 1640.69ZM985.011 1664.04C1053.7 1651.06 1125 1640.69 1198.94 1640.69L1200.3 1860.31C1172.51 1866.59 1142.13 1866.59 1115.7 1873.26C1061.53 1809.49 1016.66 1740.65 978.403 1669.2L985.011 1664.04ZM772.208 1734.21C823.86 1709.47 877.943 1691.19 933.359 1677.02L938.723 1678.38C976.921 1749.8 1024.54 1817.25 1072.08 1884.76C1053.73 1895.22 1031.15 1901.47 1012.72 1912.02C923.382 1867.89 842.091 1809.07 772.238 1738.01V1734.21H772.208ZM942.693 1956.17C831.713 1927.52 728.586 1878.21 633.49 1810.82V1806.79C665.199 1787.5 697.026 1766.66 731.253 1752.23C806.613 1826.44 884.492 1882.27 969.038 1935.37C962.459 1943.17 951.91 1950.99 942.693 1956.17ZM1432.75 1972.95C1292.76 2003 1136.8 2004.15 996.835 1970.46C994.168 1964 1003.44 1962.61 1007.38 1958.81C1130.25 1879.54 1321.71 1879.54 1442.06 1965.12C1445.97 1972.95 1435.42 1970.46 1432.75 1972.95ZM1559.62 1936.73L1497.53 1956.14C1486.93 1950.96 1477.74 1943.17 1468.4 1935.34L1471.07 1931.37C1555.65 1882.24 1632.22 1822.35 1704.91 1750.96C1740.59 1765.21 1774.97 1784.8 1806.77 1806.76C1732.71 1865.46 1646.8 1904.23 1559.62 1936.73ZM382.548 465.812C415.224 420.591 450.968 377.669 489.527 337.347C523.755 304.898 555.582 273.752 592.625 250.282C627 272.33 665.258 290.703 698.271 311.388C657.346 361.766 615.058 412.618 584.683 466.997C593.869 471.057 611.116 469.782 624.363 466.997C657.346 419.049 692.907 371.041 735.343 328.161C792.004 348.994 847.568 370.982 905.769 386.629L910.896 391.785L878.002 466.997C892.582 469.782 901.828 468.419 916.26 466.997C928.113 445.068 937.3 420.471 950.517 398.275C1027.24 415.226 1107.84 424.264 1189.75 426.783C1200.24 436 1192.36 455.38 1196.33 466.997H1231.98C1235.86 454.254 1230.65 439.793 1235.86 428.235C1312.56 424.205 1393.1 416.411 1467.34 398.216L1473.77 399.579L1509.45 466.938C1521.36 466.938 1537.19 469.723 1546.43 464.271L1513.33 389.178L1516.09 386.57C1576.75 370.982 1633.64 347.63 1691.76 324.308C1732.83 367.13 1771.03 417.745 1805.49 466.908C1819.95 466.908 1834.51 468.33 1845.08 464.241C1828.77 435.259 1809.74 407.892 1788.25 382.51C1770.8 357.649 1751.33 334.267 1730.04 312.603V305.876L1822.53 252.742L1835.87 247.556C1916.3 308.436 1986.69 381.552 2044.46 464.241C2060.32 464.241 2073.56 469.694 2086.81 463.144C1909.6 198.541 1617.7 28.2923 1302.13 3.78479L1300.73 6.30369L1298.04 3.78479C1262.42 -0.0380235 1218.65 -1.54937 1180.39 2.27344C1165.9 1.14734 1148.77 2.27344 1131.55 3.78479C814.555 28.2923 522.629 190.658 340.23 467.056C353.447 465.812 369.301 471.086 382.548 465.812ZM930.869 351.75L925.595 352.876C871.364 338.74 818.467 321.7 768.267 299.712L770.815 291.918C843.478 223.137 920.083 165.973 1004.63 121.936C1024.54 129.73 1044.34 136.161 1064.13 145.377L1060.25 155.512C1009.96 217.981 970.431 285.339 930.869 351.75ZM1193.67 386.688C1156.77 391.874 1123.73 385.532 1086.6 382.658C1051.1 377.442 1006.08 373.679 970.431 361.825C1008.75 290.762 1053.73 221.833 1107.84 158.386L1192.42 169.914C1196.33 237.302 1193.67 315.24 1193.67 386.688ZM1234.59 388.081C1231.98 319.063 1233.35 242.577 1234.59 171.159C1261.11 167.366 1290.04 163.335 1316.53 159.512C1368.03 224.322 1418.35 290.762 1452.73 361.825C1381.3 379.107 1308.08 387.92 1234.59 388.081ZM1656.14 297.074C1604.51 319.033 1551.62 339.837 1494.9 351.75C1453.97 282.939 1409.08 214.158 1358.73 147.688C1377.25 137.524 1399.83 129.73 1419.6 119.388C1505.62 162.18 1588.75 223.137 1658.69 293.015L1656.14 297.074ZM1486.93 75.1143C1597.91 103.741 1702.28 152.993 1797.4 220.5L1794.77 225.686L1703.7 276.242H1696.97C1627.07 206.394 1545.19 145.377 1461.85 97.2214C1464.49 88.1237 1477.77 81.5746 1486.93 75.1143ZM1434.15 62.0753V64.8312C1319.14 147.688 1132.92 155.512 1011.44 78.9075C1004.63 73.7215 991.59 71.2026 990.167 62.1049C1130.28 29.8036 1295.31 27.1958 1434.15 62.0753ZM628.245 223.137C711.547 162.18 803.976 116.75 901.769 85.5752C905.769 81.5153 908.318 77.6925 913.533 77.6925V80.3596C924.083 82.9081 932.055 71.1433 941.271 78.8482C949.243 85.5752 958.577 90.7019 965.097 97.1621C883.247 147.688 802.613 207.52 728.616 280.064C692.936 267.322 660.043 247.733 628.215 225.686L628.245 223.137ZM1195.03 1261.49C1070.86 1295.3 936.026 1269.52 846.234 1175.91C835.714 1162.93 829.046 1147.46 818.437 1134.54L640.158 1135.78C637.343 1240.89 636.098 1361.65 640.158 1465.55L838.233 1464.28L840.87 1401.93C863.422 1412.3 885.914 1425.25 908.318 1436.89C1045.7 1494.09 1222.56 1507.07 1358.67 1436.89C1457.82 1382.52 1510.69 1277.4 1496.11 1164.23C1481.65 1054.02 1375.92 954.005 1269 926.831L949.213 834.579L925.565 822.844C914.986 813.835 908.347 802.219 910.926 787.817C936.026 745.084 994.227 758.064 1037.82 759.22C1130.28 772.229 1225.37 803.375 1279.58 887.802C1337.63 887.802 1404.99 888.929 1468.34 886.439C1471.04 780.023 1467.31 686.616 1465.74 578.836C1406.29 577.473 1333.6 577.473 1274.24 580.2C1271.57 595.639 1276.79 617.628 1270.18 633.274L1209.46 600.795C1064.08 539.808 860.607 533.437 728.557 628.207C642.647 690.409 616.302 802.16 638.765 900.782C655.864 994.1 745.685 1062.97 831.595 1095.33C949.154 1136.82 1071.96 1166.87 1191.06 1207.05C1202.85 1212.33 1218.68 1224.09 1216.13 1238.35C1216.19 1249.87 1204.22 1256.54 1195.03 1261.49Z" fill="#949494"/>
</g>
<defs>
<clipPath id="clip0_1_43">
<rect width="2500" height="2032" fill="white"/>
</clipPath>
</defs>
</svg>
