<svg xmlns="http://www.w3.org/2000/svg" viewBox="0 0 66 66"><path fill="#f6f0f5" d="M33.11 2.65s-6.6 9.36-18.75 9.99v23.5c0 1.63.49 3.22 1.43 4.56 2.54 3.64 8.42 9.47 17.33 13.48 8.9-4.01 14.78-9.84 17.31-13.48a7.997 7.997 0 0 0 1.43-4.56v-23.5c-12.16-.63-18.75-9.99-18.75-9.99z"/><path fill="#ff7146" d="M33.11 48.87c-6.61-3.38-11.29-7.88-13.4-10.91-.37-.53-.57-1.16-.57-1.83v-19.3c6.27-1.33 10.96-4.53 13.97-7.2 3 2.67 7.69 5.87 13.96 7.2v19.31c0 .66-.2 1.29-.57 1.83-2.11 3.02-6.79 7.52-13.39 10.9z"/><path d="M48.81 30.97c-9.48 0-17.19 7.71-17.19 17.19 0 2.04.38 3.99 1.03 5.81.15.07.3.15.46.22 8.9-4.01 14.78-9.84 17.31-13.48a7.997 7.997 0 0 0 1.43-4.56v-4.89c-.99-.18-2-.29-3.04-.29zM14.36 17.32h15.78v11.73H14.36z" opacity=".08"/><circle cx="48.81" cy="48.16" r="15.19" fill="#1c8fc7"/><path fill="#ffc040" d="M2 19.32h26.14v7.73H2z"/><path fill="#fff" d="M29.61 36.81c-.4 0-.78-.16-1.06-.44l-3.14-3.14a1.49 1.49 0 0 1 0-2.12 1.49 1.49 0 0 1 2.12 0l2.08 2.07 9.07-9.07a1.49 1.49 0 0 1 2.12 0c.59.59.59 1.54 0 2.12L30.67 36.37c-.28.28-.67.44-1.06.44z"/><path fill="#d8c5a7" d="m52.05 41.02-8.04 4.86v2.5c0 2.64 2.16 4.8 4.8 4.8s4.8-2.16 4.8-4.8v-3.84c0-1.4-.61-2.65-1.56-3.52z"/><path fill="#0e4b5c" d="m41.85 54.31 4.22-1.41v1.14-1.74a4.807 4.807 0 0 1-2.06-3.93v-2.5l8.04-4.86c.95.88 1.56 2.13 1.56 3.52v3.84c0 1.62-.82 3.06-2.06 3.93v.61l4.22 1.41c.26.09.49.2.72.33V44.53c0-4.24-3.44-7.68-7.68-7.68s-7.68 3.44-7.68 7.68v10.11c.23-.13.46-.24.72-.33z"/><path fill="#c7b69a" d="M48.81 53.18c-1.02 0-1.96-.33-2.74-.88v2.1c0 1.51 1.23 2.74 2.74 2.74 1.51 0 2.74-1.23 2.74-2.74v-2.1c-.78.55-1.72.88-2.74.88z"/><path fill="#ffc040" d="m55.77 54.31-4.22-1.41v1.49c0 1.51-1.23 2.74-2.74 2.74-1.51 0-2.74-1.23-2.74-2.74V52.9l-4.22 1.41a4.27 4.27 0 0 0-2.92 4.05v1.32c2.66 2.28 6.1 3.67 9.88 3.67 3.78 0 7.22-1.39 9.88-3.67v-1.32a4.28 4.28 0 0 0-2.92-4.05z"/><g fill="#2b2a3a"><path d="M48.81 32.22c-8.79 0-15.94 7.15-15.94 15.94S40.02 64.1 48.81 64.1s15.94-7.15 15.94-15.94-7.15-15.94-15.94-15.94zm-9.13 27.12v-.97c0-1.52.97-2.86 2.41-3.34l3.23-1.08v.45c0 1.93 1.57 3.49 3.49 3.49s3.49-1.57 3.49-3.49v-.45l3.23 1.08c1.44.48 2.41 1.82 2.41 3.34v.97c-2.49 2.04-5.67 3.26-9.13 3.26s-6.64-1.23-9.13-3.26zm16.06-5.83-3.18-1.06c1.1-1.02 1.8-2.47 1.8-4.08v-3.84c0-1.53-.66-3.01-1.8-4.07a.754.754 0 0 0-.9-.09l-8.04 4.86c-.22.14-.36.38-.36.64v2.5c0 1.61.7 3.07 1.8 4.08l-3.18 1.06v-8.98c0-3.82 3.11-6.93 6.93-6.93s6.93 3.11 6.93 6.93v8.98zm-6.93-1.08c-2.23 0-4.05-1.82-4.05-4.05V46.3l7.17-4.33c.61.73.94 1.62.94 2.56v3.84c-.01 2.24-1.83 4.06-4.06 4.06zm-1.99 1.12c.62.24 1.29.38 1.99.38s1.37-.14 1.99-.38v.85c0 1.1-.89 1.99-1.99 1.99s-1.99-.89-1.99-1.99v-.85zm12.58 4.39a4.994 4.994 0 0 0-2.16-3.71v-9.7c0-4.65-3.78-8.43-8.43-8.43s-8.43 3.78-8.43 8.43v9.7a4.994 4.994 0 0 0-2.16 3.71c-2.38-2.58-3.85-6-3.85-9.78 0-7.96 6.48-14.44 14.44-14.44s14.44 6.48 14.44 14.44c0 3.77-1.47 7.2-3.85 9.78zM38.14 23.59l-8.54 8.54-1.54-1.54c-.88-.88-2.3-.88-3.18 0-.42.42-.66.99-.66 1.59s.23 1.17.66 1.59l3.14 3.14c.42.42 1 .66 1.59.66s1.17-.24 1.59-.66l10.13-10.13c.42-.42.66-.99.66-1.59 0-.6-.23-1.17-.66-1.59-.86-.86-2.34-.86-3.19-.01zm2.34 1.6c0 .2-.08.39-.22.53L30.14 35.84c-.28.28-.78.28-1.06 0l-3.14-3.14A.75.75 0 1 1 27 31.64l2.08 2.07c.29.29.77.29 1.06 0l9.07-9.07c.29-.29.77-.29 1.06 0 .14.16.21.34.21.55zm-32.12-3.6a.754.754 0 0 0-1.06 0l-.53.53-.53-.53c-.29-.29-.77-.29-1.06 0s-.29.77 0 1.06l.53.53-.53.53c-.29.29-.29.77 0 1.06.14.15.33.23.53.23s.38-.07.53-.22l.53-.53.53.53c.15.14.34.22.53.22s.38-.07.53-.22c.29-.29.29-.77 0-1.06l-.53-.53.53-.53c.3-.3.3-.78 0-1.07zm5.54 0a.754.754 0 0 0-1.06 0l-.53.53-.53-.53c-.29-.29-.77-.29-1.06 0s-.29.77 0 1.06l.53.53-.53.53c-.29.29-.29.77 0 1.06.15.15.34.22.53.22s.38-.07.53-.22l.53-.53.53.53c.15.15.34.22.53.22s.38-.07.53-.22c.29-.29.29-.77 0-1.06l-.53-.53.53-.53c.29-.29.29-.77 0-1.06zm2.34 3.19c.15.15.34.22.53.22s.38-.07.53-.22l.53-.53.53.53c.15.14.35.22.54.22s.38-.07.53-.22c.29-.29.29-.77 0-1.06l-.53-.53.53-.53c.29-.29.29-.77 0-1.06s-.77-.29-1.06 0l-.53.53-.53-.53c-.29-.29-.77-.29-1.06 0s-.29.77 0 1.06l.53.53-.53.53c-.3.29-.3.77-.01 1.06zm5.54 0c.15.15.34.22.53.22s.38-.07.53-.22l.53-.53.53.53c.15.15.34.22.53.22s.38-.07.53-.22c.29-.29.29-.77 0-1.06l-.53-.53.53-.53c.29-.29.29-.77 0-1.06s-.77-.29-1.06 0l-.53.53-.53-.53c-.29-.29-.77-.29-1.06 0s-.29.77 0 1.06l.53.53-.53.53c-.3.29-.3.77 0 1.06z"/><path d="M31.72 52.69c-7.53-3.75-12.85-8.87-15.32-12.42a7.215 7.215 0 0 1-1.29-4.13V27.8h3.29v8.34c0 .82.24 1.6.7 2.25.87 1.25 4.25 5.65 11.17 9.77.12.07.25.11.38.11.26 0 .51-.13.65-.37.21-.36.09-.82-.26-1.03-5.29-3.15-9-6.89-10.71-9.33-.28-.41-.43-.89-.43-1.4V27.8h8.25c.41 0 .75-.34.75-.75v-7.73c0-.41-.34-.75-.75-.75H19.9v-1.14c5.89-1.38 10.36-4.36 13.21-6.81 2.86 2.45 7.32 5.42 13.21 6.81v12.63c0 .41.34.75.75.75s.75-.34.75-.75V16.83a.75.75 0 0 0-.59-.73C41 14.77 36.38 11.54 33.61 9.07a.76.76 0 0 0-1 0c-2.78 2.48-7.4 5.7-13.62 7.03a.74.74 0 0 0-.59.73v1.74h-3.29v-5.22c9.99-.8 16.12-7.19 18-9.47 1.88 2.28 8 8.68 17.99 9.47v16.9c0 .41.34.75.75.75s.75-.34.75-.75v-17.6c0-.4-.31-.73-.71-.75-11.62-.6-18.1-9.58-18.17-9.68-.14-.2-.37-.32-.61-.32s-.47.12-.61.32c-.06.09-6.53 9.07-18.18 9.68-.4.02-.71.35-.71.75v5.93H2c-.41 0-.75.34-.75.75v7.73c0 .41.34.75.75.75h11.61v8.34c0 1.8.54 3.52 1.56 4.99 2.58 3.7 8.1 9.03 15.89 12.91a.733.733 0 0 0 1-.34c.18-.38.03-.83-.34-1.02zM2.75 20.07h24.64v6.23H2.75v-6.23z"/></g></svg>