<svg xmlns="http://www.w3.org/2000/svg" viewBox="0 0 66 66"><path fill="#ff7146" d="M40.05 50.91h-.92a2.78 2.78 0 0 1 2.78 2.78c0 .77-.31 1.46-.81 1.97-.5.5-1.2.81-1.97.81h-.96a2.78 2.78 0 0 1 2.78 2.78c0 .77-.31 1.46-.81 1.97-.5.5-1.2.81-1.97.81H23.01c-1.84 0-3.33-1.49-3.33-3.33V42.2l5.3-5.65s2.55-2.63 3.35-7.33v-.06c0-.57.23-1.09.61-1.46.37-.37.89-.6 1.46-.6 1.02 0 1.88.74 2.05 1.74.39 2.35.72 6.74-1.03 10.94h7.72a2.78 2.78 0 0 1 2.78 2.78c0 .77-.31 1.46-.81 1.97-.5.5-1.2.81-1.97.81h.92a2.78 2.78 0 0 1 2.78 2.78c0 .77-.31 1.46-.81 1.97-.51.51-1.21.82-1.98.82z"/><path fill="#658c99" d="M2 43.7h8.8v15.84H2z"/><path fill="#e1d9e1" d="M18.51 40.73h-6.53c-.65 0-1.18.53-1.18 1.18v19.41c0 .65.53 1.18 1.18 1.18h6.53c.65 0 1.18-.53 1.18-1.18V41.91c0-.65-.53-1.18-1.18-1.18z"/><circle cx="15.24" cy="58.07" r="1.59" fill="#658c99"/><path fill="#1c8fc7" d="M62 14.62H38.31c-1.1 0-2 .9-2 2v13.46c0 1.1.9 2 2 2h3.52v4.93l5.09-4.93H62c1.1 0 2-.9 2-2V16.62a2 2 0 0 0-2-2z"/><circle cx="41.99" cy="23.35" r="2.23" fill="#fff"/><circle cx="50.16" cy="23.35" r="2.23" fill="#fff"/><circle cx="58.32" cy="23.35" r="2.23" fill="#fff"/><circle cx="15.04" cy="16.54" r="13.04" fill="#ffc040"/><path fill="#0e4b5c" d="M15.04 22.64c-1.65 0-3.19-.64-4.35-1.8a.93.93 0 0 1 0-1.31.93.93 0 0 1 1.31 0c1.63 1.63 4.46 1.63 6.09 0a.93.93 0 0 1 1.31 0c.36.36.36.95 0 1.31a6.143 6.143 0 0 1-4.36 1.8z"/><ellipse cx="11.56" cy="13.59" fill="#0e4b5c" rx="1.51" ry="2.22"/><ellipse cx="18.52" cy="13.59" fill="#0e4b5c" rx="1.51" ry="2.22"/><path d="M8.8 43.7h2v15.84h-2z" opacity=".08"/><g fill="#2b2a3a"><path d="M43.58 48.13c0-1.36-.77-2.54-1.89-3.13.63-.66.97-1.53.97-2.44a3.53 3.53 0 0 0-3.53-3.53H32.5c1.39-4.07 1.04-8.15.69-10.31a2.825 2.825 0 0 0-2.79-2.37c-.75 0-1.46.29-2 .82-.52.52-.81 1.2-.83 1.99-.75 4.36-3.11 6.86-3.14 6.89l-4.4 4.7c-.35-.46-.9-.76-1.53-.76h-6.53c-1.06 0-1.93.87-1.93 1.93v1.03H2c-.41 0-.75.34-.75.75s.34.75.75.75h8.05v14.34H2c-.41 0-.75.34-.75.75s.34.75.75.75h8.05v1.04c0 1.06.87 1.93 1.93 1.93h6.53c.9 0 1.65-.62 1.86-1.45.71.61 1.63 1 2.64 1h15.17c.94 0 1.83-.37 2.5-1.04a3.51 3.51 0 0 0 1.03-2.5c0-.94-.37-1.79-.96-2.42.32-.17.62-.38.89-.65a3.51 3.51 0 0 0 1.03-2.5c0-.94-.37-1.8-.98-2.43.31-.16.6-.38.86-.63.67-.69 1.03-1.57 1.03-2.51zM18.51 61.75h-6.53c-.24 0-.43-.19-.43-.43V41.91c0-.24.19-.43.43-.43h6.53c.24 0 .43.19.43.43v19.4c0 .25-.2.44-.43.44zm22.98-12.19c-.38.38-.89.59-1.44.59h-.92c-.41 0-.75.34-.75.75s.34.75.75.75c1.12 0 2.03.91 2.03 2.03 0 .54-.21 1.05-.59 1.44-.38.38-.89.59-1.44.59h-.96c-.41 0-.75.34-.75.75s.34.75.75.75c1.12 0 2.03.91 2.03 2.03 0 .54-.21 1.05-.59 1.44-.38.38-.9.6-1.44.6H23.01c-1.42 0-2.57-1.15-2.58-2.57v-16.2l5.09-5.43c.11-.11 2.72-2.85 3.55-7.73.01-.04.01-.15.01-.19 0-.35.14-.68.39-.93s.58-.39.94-.39c.65 0 1.2.47 1.31 1.12.36 2.19.71 6.48-.98 10.53-.1.23-.07.5.07.7.14.21.37.33.62.33h7.72c1.12 0 2.03.91 2.03 2.03 0 .54-.21 1.05-.59 1.44-.38.38-.89.59-1.44.59-.41 0-.75.34-.75.75s.34.75.75.75h.92c1.12 0 2.03.91 2.03 2.03-.02.56-.23 1.07-.61 1.45z"/><path d="M15.24 55.73c-1.29 0-2.34 1.05-2.34 2.34s1.05 2.34 2.34 2.34c1.29 0 2.34-1.05 2.34-2.34s-1.05-2.34-2.34-2.34zm0 3.18c-.46 0-.84-.38-.84-.84s.38-.84.84-.84c.47 0 .84.38.84.84s-.37.84-.84.84zM62 13.87H38.31c-1.52 0-2.75 1.23-2.75 2.75v13.46c0 1.52 1.23 2.75 2.75 2.75h2.77v4.18a.751.751 0 0 0 1.27.54l4.87-4.72H62c1.52 0 2.75-1.23 2.75-2.75V16.62c0-1.52-1.23-2.75-2.75-2.75zm1.25 16.21c0 .69-.56 1.25-1.25 1.25H46.92c-.19 0-.38.08-.52.21l-3.81 3.7v-3.16c0-.41-.34-.75-.75-.75h-3.52c-.69 0-1.25-.56-1.25-1.25V16.62c0-.69.56-1.25 1.25-1.25H62c.69 0 1.25.56 1.25 1.25v13.46z"/><path d="M41.99 20.38c-1.64 0-2.98 1.34-2.98 2.98s1.34 2.98 2.98 2.98 2.98-1.34 2.98-2.98-1.34-2.98-2.98-2.98zm0 4.45c-.81 0-1.48-.66-1.48-1.48s.66-1.48 1.48-1.48 1.48.66 1.48 1.48-.67 1.48-1.48 1.48zm8.17-4.45c-1.64 0-2.98 1.34-2.98 2.98s1.34 2.98 2.98 2.98 2.98-1.34 2.98-2.98-1.34-2.98-2.98-2.98zm0 4.45c-.81 0-1.48-.66-1.48-1.48s.66-1.48 1.48-1.48 1.48.66 1.48 1.48-.67 1.48-1.48 1.48zm8.16-4.45c-1.64 0-2.98 1.34-2.98 2.98s1.34 2.98 2.98 2.98S61.3 25 61.3 23.35s-1.34-2.97-2.98-2.97zm0 4.45c-.81 0-1.48-.66-1.48-1.48s.66-1.48 1.48-1.48 1.48.66 1.48 1.48-.66 1.48-1.48 1.48zm-43.28 5.5c7.6 0 13.79-6.19 13.79-13.79S22.65 2.75 15.04 2.75 1.25 8.94 1.25 16.54s6.19 13.79 13.79 13.79zm0-26.08c6.78 0 12.29 5.51 12.29 12.29s-5.51 12.29-12.29 12.29S2.75 23.32 2.75 16.54 8.26 4.25 15.04 4.25z"/><path d="M10.69 19.52a.93.93 0 0 0 0 1.31 6.12 6.12 0 0 0 4.35 1.8c1.65 0 3.19-.64 4.35-1.8a.93.93 0 0 0 0-1.31.93.93 0 0 0-1.31 0c-1.63 1.63-4.46 1.63-6.09 0a.917.917 0 0 0-1.3 0zm.87-3.72c.84 0 1.51-.99 1.51-2.22 0-1.22-.68-2.22-1.51-2.22s-1.51.99-1.51 2.22c0 1.23.68 2.22 1.51 2.22zm6.96 0c.84 0 1.51-.99 1.51-2.22 0-1.22-.68-2.22-1.51-2.22-.84 0-1.51.99-1.51 2.22 0 1.23.67 2.22 1.51 2.22z"/></g></svg>