<svg xmlns="http://www.w3.org/2000/svg" enable-background="new 0 0 1440 1080" viewBox="0 0 1440 1080"><path fill="#af452c" d="M1081.36 579.37c33.98 38.42 40.25 81.98 41.41 96.21l.75-3.44c2.39-11.55 5.27-22.95 8.48-34.2-27.69-41.87-27.92-93.35-27.92-93.35 24.92 35.89 28.96 72.5 29.47 87.97 2.35-7.95 4.86-15.83 7.48-23.63.62-1.85 1.26-3.68 1.9-5.52-20.46-40.47-16.87-85.34-16.87-85.34 18.55 35.05 19.16 67.6 18.43 80.93.63-1.74 1.25-3.48 1.9-5.21h-.07s.05-.07.13-.17a507.01 507.01 0 0 1 9.12-22.65c-19.24-37.58-15.88-79.5-15.88-79.5 18.34 34.65 17.73 66.67 16.91 77.17 2.81-6.44 5.72-12.8 8.74-19.06 1.6-3.3 3.24-6.57 4.9-9.82-7.35-28.81-.41-55.13-.41-55.13 6.82 25.47 3.4 45.36 1.57 52.87 5.88-11.37 12.16-22.36 18.97-32.75 3.43-10.12 12.67-31.33 33.86-48.9 0 0-9.6 32.79-35.01 54.33-4.19 6.71-8.19 13.69-12.01 20.83 4.08-4.36 18.1-17.23 40.7-15.99 0 0-17.46 18.41-41.46 17.43-3.24 6.11-6.37 12.33-9.38 18.63-1.82 3.83-3.58 7.7-5.32 11.59 5.34-5.7 23.61-22.43 52.97-20.81 0 0-22.66 23.91-53.82 22.7-3.54 8-6.9 16.13-10.06 24.39 8.86-8.53 30.58-25.21 63.44-23.4 0 0-27.38 28.9-65.29 28.29-1.99 5.39-3.91 10.82-5.71 16.32-2.12 6.44-4.16 12.94-6.1 19.48 6.21-8.22 31.18-37.42 75.29-41.37 0 0-30.47 38.75-75.9 43.43-3.97 13.53-7.48 27.26-10.28 41.2l-.2.94c7.48-11.5 32.21-44.16 77.88-55.21 0 0-29.79 45.99-78.64 58.82l-.73 3.44c-.27 1.33-.59 2.66-.83 4l-.67 4.04-2.67 16.16c-1.01 5.37-1.48 10.81-2.15 16.22l-1.91 16.25-3.26-.13 2.03-16.43c.71-5.47 1.23-10.97 2.27-16.39l2.79-16.32.7-4.08c.25-1.35.57-2.69.86-4.04l.23-1.07c-35.87-41.72-40.63-99.73-40.63-99.73z"/><linearGradient id="a" x1="-685.497" x2="-607.122" y1="736.299" y2="736.299" gradientTransform="scale(-1 1) rotate(-10.206 -997.948 3249.25)" gradientUnits="userSpaceOnUse"><stop offset="0" stop-color="#c27429"/><stop offset="1" stop-color="#ffb031"/></linearGradient><path fill="url(#a)" d="M1082.57 575.78s107.22 109.6 10.38 272.62c-.01-.01-39.93-142.26-10.38-272.62z"/><path fill="#af452c" d="M1088.92 653.15h36.25v2.02h-36.25z" transform="rotate(-68.87 1107.004 654.14)"/><path fill="#af452c" d="M1089.26 672.11h2.02v37.07h-2.02z" transform="rotate(-41.027 1090.155 690.642)"/><path fill="#af452c" d="M1094.55 742.09h34.08v2.02h-34.08z" transform="rotate(-55.932 1111.515 743.069)"/><path fill="#af452c" d="M1091.54 744.79h2.02v40.33h-2.02z" transform="rotate(-22.947 1092.557 764.947)"/><path fill="#af452c" d="M1092.07 845.12c.04.15.08.31.12.45l1.81.29c21.47-136.15 2.06-229.64-8.59-266.92-1.79-2.08-2.84-3.16-2.84-3.16-.03.12-.05.23-.08.35 10.29 34.46 31.58 129.02 9.58 268.99z"/><linearGradient id="b" x1="1952.059" x2="1905.421" y1="-220.723" y2="-483.064" gradientTransform="rotate(35.816 -46.533 -1026.708)" gradientUnits="userSpaceOnUse"><stop offset="0" stop-color="#af452c"/><stop offset=".183" stop-color="#be592d"/><stop offset="1" stop-color="#ffb031"/></linearGradient><path fill="url(#b)" d="M1183.25 539.55s73.97 134.3-62.98 265.45c.01-.01-.38-147.76 62.98-265.45z"/><path fill="#af452c" d="M1167.73 620.61h36.25v2.02h-36.25z" transform="rotate(-53.352 1185.855 621.643)"/><path fill="#af452c" d="M1158.92 633.75h2.02v37.07h-2.02z" transform="rotate(-25.498 1159.839 652.233)"/><path fill="#af452c" d="M1149.39 707.52h34.08v2.02h-34.08z" transform="rotate(-40.403 1166.523 708.503)"/><path fill="#af452c" d="M1141.22 704.33h2.02v40.33h-2.02z" transform="rotate(-7.432 1141.948 724.555)"/><path fill="#af452c" d="M1120.31 801.61c0 .16-.01.32-.01.47l1.67.76c57.13-125.43 63.46-220.71 63.17-259.48-1.16-2.48-1.89-3.8-1.89-3.8-.06.1-.11.21-.17.31.69 35.96-4.1 132.76-62.77 261.74z"/><path fill="#af452c" d="M1093 845.7s53.27-176.09 240.4-224.9c0 0-117.43 198.84-236.71 228.78l-3.69-3.88z"/><path fill="#ffb031" d="m1246.67 689.36-.6-1.93c.2-.06 20.11-6.28 39.26-9.61l.34 1.99c-19.01 3.31-38.8 9.49-39 9.55zM1213.87 718.33l-1.93-.61c.07-.23 7.31-22.96 18.53-42.33l1.75 1.01c-11.1 19.18-18.28 41.7-18.35 41.93zM1178.75 752.07l-.69-1.9c.25-.09 25.34-9.1 52.31-14.29l.38 1.98c-26.81 5.17-51.75 14.12-52 14.21z"/><path fill="#ffb031" d="m1093.4 846.12 1.41 1.48c88.66-118.14 217.34-211.07 237.81-225.48.52-.86.79-1.32.79-1.32-1.33.35-2.63.72-3.95 1.08-25.76 18.3-149.74 109.32-236.06 224.24z"/><linearGradient id="c" x1="2709.005" x2="2932.666" y1="794.743" y2="794.743" gradientTransform="rotate(10.199 2021.292 -8190.764)" gradientUnits="userSpaceOnUse"><stop offset="0" stop-color="#af452c"/><stop offset=".134" stop-color="#b04c2e"/><stop offset=".326" stop-color="#b55f34"/><stop offset=".555" stop-color="#bb7e3d"/><stop offset=".809" stop-color="#c5aa4a"/><stop offset="1" stop-color="#cdcf55"/></linearGradient><path fill="url(#c)" d="M1092.53 848.32s116.54-140.78 246.5-107.12c0 0-4.27 38.87-42.68 58.61l-10.07-16.17-6.1 22.48s-121.34 36.14-180.75 43.44l-6.9-1.24z"/><path fill="#af452c" d="m1234.98 776.79-.15-2.01c12.86-.95 36.01 4.24 36.99 4.46l-.44 1.97c-.24-.06-23.84-5.34-36.4-4.42zM1180.04 802.88l-.01-2.02c.25 0 25.71-.12 62.39 3.19l-.18 2.01c-36.6-3.29-61.95-3.18-62.2-3.18zM1217.95 784.36l-1.51-1.34c6.05-6.81 17.13-25.71 17.24-25.9l1.74 1.02c-.45.78-11.28 19.27-17.47 26.22z"/><path fill="#af452c" d="M1329.73 739.11c-37.68 12.01-148.83 50.57-228.09 110.17 1.36-.18 2.74-.37 4.16-.57 81.43-60.1 194.66-98.31 227.99-108.76-1.36-.3-2.71-.57-4.06-.84z"/><linearGradient id="d" x1="-694.779" x2="-520.22" y1="778.583" y2="778.583" gradientTransform="scale(-1 1) rotate(-10.206 -997.948 3249.25)" gradientUnits="userSpaceOnUse"><stop offset="0" stop-color="#af452c"/><stop offset="1" stop-color="#af452c"/></linearGradient><path fill="url(#d)" d="M1118.95 866.12s-7.46-182.61-131.25-234.54c0 0-20.15 33.52-1.54 72.49l17.81-6.76-8.76 21.58s74.65 102.25 117.51 144.05l6.23 3.18z"/><path fill="#ffb031" d="m1048.93 722.93 1.34-1.51c-9.66-8.54-31.22-18.44-32.14-18.86l-.84 1.84c.23.09 22.21 10.18 31.64 18.53zM1076.84 776.96l1.23-1.6c-.2-.16-20.38-15.66-51.57-35.25l-1.07 1.71c31.11 19.54 51.21 34.99 51.41 35.14zM1057.89 739.26l2.01-.15c-.69-9.08 1.94-30.83 1.97-31.05l-2-.25c-.11.9-2.68 22.17-1.98 31.45z"/><path fill="#ffb031" d="M996.37 635.55c22.7 32.38 87.78 130.39 114.76 225.82-.97-.96-1.96-1.96-2.96-2.97-28.39-97.14-95.34-196.14-115.53-224.63 1.26.57 2.49 1.17 3.73 1.78z"/><path fill="#af452c" d="M281.19 604.07c-10.62 33.38-2.51 62.33.69 71.53l-1.42-1.94c-4.68-6.56-9.62-12.88-14.74-19.03 5.74-33.81-8.33-66.03-8.33-66.03-5.66 29.3 1.92 53.29 5.87 63.1-3.66-4.32-7.41-8.54-11.2-12.69-.9-.98-1.81-1.95-2.71-2.92 1.61-30.93-13.02-57.97-13.02-57.97-1.91 27.02 6.69 47.52 10.83 55.65-.87-.91-1.75-1.83-2.63-2.73.01-.01.03-.01.04-.02 0 0-.05-.03-.13-.07-3.91-4-7.9-7.87-11.95-11.63 1.65-28.79-12.03-54.05-12.03-54.05-1.89 26.71 7.33 46.55 10.74 52.88-3.53-3.25-7.11-6.42-10.72-9.5-1.91-1.62-3.84-3.21-5.77-4.78-3.36-20.03-14.96-34.55-14.96-34.55 2.77 17.79 10.4 29.28 13.62 33.46-6.82-5.48-13.77-10.61-20.89-15.22-4.94-5.37-16.56-16.07-34.65-21.2 0 0 15.05 17.84 36.87 24.28 4.47 3.04 8.89 6.29 13.26 9.7-3.75-1.6-16.07-5.77-29.84 1.25 0 0 15.99 6.68 30.71-.56 3.71 2.92 7.38 5.94 11 9.05 2.19 1.89 4.36 3.82 6.53 5.77-4.91-2.09-20.94-7.49-38.84 1.62 0 0 20.76 8.68 39.89-.68 4.42 4.02 8.76 8.17 13.02 12.46-7.89-2.88-26.06-7.31-46.09 2.9 0 0 25.08 10.5 48.6-.35 2.73 2.81 5.43 5.68 8.07 8.62 3.11 3.44 6.17 6.94 9.19 10.49-6.15-3.42-29.81-14.77-58.46-5.06 0 0 29.73 15.8 59.41 6.18 6.21 7.36 12.2 14.96 17.79 22.9l.39.53c-7.85-5.12-32.31-18.7-63.89-12.99 0 0 31.31 20.51 65.37 15.04l1.41 1.95c.54.76 1.1 1.5 1.62 2.27l1.53 2.34 6.13 9.36c2.11 3.08 3.91 6.34 5.82 9.54l5.68 9.62 2-.98-5.8-9.71c-1.96-3.22-3.79-6.51-5.95-9.61l-6.25-9.42-1.56-2.35c-.53-.78-1.1-1.52-1.65-2.29l-.44-.6c10.88-36-2.16-73.56-2.16-73.56zM387.16 386.35c47.25 19.94 71.75 56.51 78.95 68.83l-.81-3.43c-2.84-11.45-5.18-22.97-7.15-34.5-43.08-25.78-65.55-72.09-65.55-72.09 38 21.58 57.47 52.84 64.63 66.57a670.17 670.17 0 0 1-3.47-24.54c-.24-1.93-.45-3.87-.67-5.8-35.95-27.64-52.12-69.65-52.12-69.65 31.89 23.58 46.52 52.66 51.63 65-.19-1.84-.38-3.68-.54-5.52-.02.01-.04.02-.07.03 0 0 .02-.09.05-.21-.73-8.15-1.24-16.28-1.57-24.36-33.61-25.56-48.71-64.81-48.71-64.81 31.52 23.31 44.83 52.44 48.62 62.27-.25-7.02-.38-14.02-.37-20.97.02-3.67.08-7.32.17-10.97-19.09-22.8-24.22-49.53-24.22-49.53 17.16 20.01 22.68 39.43 24.28 46.99.39-12.8 1.29-25.42 2.94-37.73-1.28-10.61-2.13-33.72 9.38-58.74 0 0 5.53 33.71-8.07 64.13-.88 7.86-1.46 15.88-1.82 23.98 1.79-5.69 8.87-23.37 29.78-32.02 0 0-7.78 24.15-29.84 33.65-.28 6.91-.41 13.87-.39 20.86.02 4.24.1 8.49.21 12.76 2.35-7.44 11.59-30.43 38.76-41.67 0 0-10.08 31.36-38.7 43.75.27 8.74.75 17.52 1.48 26.34 4.3-11.52 16.67-35.95 47.08-48.54 0 0-12.19 37.9-46.63 53.75.53 5.72 1.16 11.45 1.91 17.19.87 6.73 1.85 13.47 2.93 20.2 2.04-10.1 11.92-47.23 49.99-69.87 0 0-10.71 48.12-49.65 71.99 2.28 13.91 5.04 27.81 8.55 41.59l.23.94c1.77-13.6 9.93-53.75 46.33-83.46 0 0-6.97 54.35-45.46 87.05l.83 3.42c.33 1.32.62 2.65.99 3.97l1.15 3.93 4.58 15.72c1.42 5.27 3.34 10.39 5.07 15.56l5.3 15.48-2.99 1.3-5.28-15.69c-1.72-5.24-3.64-10.42-5.04-15.76l-4.54-15.92-1.13-3.98c-.36-1.33-.65-2.68-.97-4.01l-.25-1.07c-50.42-22.16-79.81-72.41-79.81-72.41z"/><linearGradient id="e" x1="519.751" x2="322.076" y1="475.419" y2="441.772" gradientTransform="rotate(-7.115 417.45 485.668)" gradientUnits="userSpaceOnUse"><stop offset="0" stop-color="#f77c1d"/><stop offset=".262" stop-color="#f78120"/><stop offset=".563" stop-color="#f88f2a"/><stop offset=".882" stop-color="#faa639"/><stop offset="1" stop-color="#fbb040"/></linearGradient><linearGradient id="f" x1="329.221" x2="518.801" y1="459.875" y2="459.875" gradientTransform="rotate(-7.115 417.45 485.668)" gradientUnits="userSpaceOnUse"><stop offset="0" stop-color="#f77c1d"/><stop offset=".614" stop-color="#fa9f35"/><stop offset="1" stop-color="#fbb040"/></linearGradient><path fill="url(#e)" stroke="url(#f)" stroke-miterlimit="10" d="M504.78 619.28c4.44-.63 30.62-239.53-18.01-224-48.63 15.53-61.32.66-57.63-42.14s-39.94-23.36-51.14 2.64c-11.2 26-9.62-62.63-34.24-57.33-24.62 5.3-26.31 42.47.69 77.96 27 35.49-31.21 10.42-24.5 35.23 6.71 24.81 78.37 41.92 49.92 59.99-28.45 18.06-46.21 34.91-2.55 66.39s137.46 81.26 137.46 81.26z"/><path fill="#722a09" d="M504.89 620.15a.89.89 0 0 1-.85-.39c-1.41-2.17-141.07-217.82-153.3-272.8-.11-.47.19-.94.67-1.05.48-.1.94.19 1.05.67 12.16 54.67 151.65 270.06 153.06 272.23.26.41.15.95-.26 1.21-.11.07-.24.11-.37.13z"/><path fill="#722a09" d="M397.82 444.56h-.03a.883.883 0 0 1-.95-.8c-3.27-38.28 5.54-69.63 5.63-69.94.13-.47.62-.74 1.08-.6.47.13.74.62.6 1.08-.09.31-8.81 31.37-5.57 69.31.05.48-.29.89-.76.95zM450.52 533.67c-.02 0-.04 0-.06.01a.88.88 0 0 1-.93-.82c-3.12-51.79 15.52-90.32 15.71-90.7a.88.88 0 0 1 1.17-.4c.43.21.61.74.4 1.17-.19.38-18.62 38.52-15.54 89.82.04.47-.3.87-.75.92zM382.27 416.28a.84.84 0 0 1-.38-.04c-.18-.06-18.76-6-40.84-2.37-.47.1-.93-.25-1.01-.72-.08-.48.24-.93.72-1.01 22.51-3.71 41.48 2.37 41.67 2.44.46.15.71.65.56 1.11-.11.32-.4.55-.72.59zM433.35 505.39a.91.91 0 0 1-.51-.09c-.34-.17-33.91-17.22-62.36-8.43a.886.886 0 0 1-1.1-.58.89.89 0 0 1 .58-1.1c29.15-9 63.34 8.38 63.68 8.55a.878.878 0 0 1-.29 1.65z"/><path fill="#426867" d="M635.71 941.2s510.71 7.99 497.21 29.65-271.2 36.43-361.15 36.36c-89.94-.07-322.3-5.82-355.73-8.57-33.43-2.75-282.04 9.43-193.17-23.09 88.87-32.53 412.84-34.35 412.84-34.35z" opacity=".65"/><g><path fill="#426867" d="M1022.08 979.9s92.17-4.17 80.57 7.16c-11.6 11.33-54.97 11.34-39.78 20.59s76.51 15.02 19.85 30.38c-56.66 15.36-158.06 9.36-120.13-8.14 37.92-17.5 56.71-23.16 44.59-26.83-12.12-3.67-57.08-13.16 14.9-23.16z" opacity=".95"/><path fill="#426867" d="M285.03 969.08s-75.9 6.36-54.9 14.84 55.12 19.08 93.05 14.78c37.93-4.3 8.96-18.29 56.45-18.79s134.48 3.58 119.48-6.71c-15.01-10.31-157.12-13.98-214.08-4.12z" opacity=".65"/></g><g><path fill="#205664" d="M674.73 950.92s329.97 42.99 470.96-88.16-118.49-449.68-239.23-489.9-299.57-96.34-388.64 23.22S419.64 620.87 302.71 677 74.1 847.8 262.67 905.2s412.06 45.72 412.06 45.72z"/><linearGradient id="g" x1="591.05" x2="703.541" y1="291.082" y2="966.025" gradientUnits="userSpaceOnUse"><stop offset="0" stop-color="#75c4c6"/><stop offset=".447" stop-color="#3aaab1"/><stop offset=".813" stop-color="#1097a3"/><stop offset="1" stop-color="#00909d"/></linearGradient><path fill="url(#g)" d="M672.62 942.22s329.97 42.99 470.96-88.16-118.49-449.68-239.23-489.9-299.57-96.34-388.64 23.22-98.17 224.79-215.11 280.91S72 839.1 260.57 896.5s412.05 45.72 412.05 45.72z"/><path fill="none" d="M791.44 845.37c1.15 0 2.24.11 3.29.3.94-.19 1.87-.3 2.81-.3 4.51 0 8.18 1.61 11.19 4.21 3.06-5.49 6.34-10.8 9.91-15.9 5.3-7.56 11.51-14.83 20.4-17.57 3.35-1.04 7.49-1.25 10.88 1.31 1.7 1.29 2.9 3.02 3.78 4.94 13.86-20.55 30.29-40.08 47.08-49.24 3.3-1.8 9.07-2.58 15.09-2.17 9.08-.65 20.87 1.7 25.69 7.71 2.72 3.4 3.76 7.68 4.49 11.71 3.83 21.08-.81 50.87-5.96 74.03 21.46-32.07 47.46-59.64 67.78-59.64 31.32 0 27.22 44.11 22.57 66.29 8.45-13.9 19.87-25.39 34.52-23.13 14.03 2.16 10.16 25.39 5.7 41.46 12.22-21.68 27.14-41.96 42.39-44.55 12.45-2.11 16.53 8.76 17.41 20.63 4.58-3.64 9.01-7.44 13.26-11.39 140.99-131.15-118.49-449.68-239.23-489.9-120.74-40.22-299.57-96.34-388.64 23.22S417.68 612.18 300.74 668.3 72.13 839.12 260.7 896.52c188.57 57.4 412.06 45.72 412.06 45.72s22.97 2.99 59.38 4.99c10.78-38.65 35.79-101.86 59.3-101.86z"/><path fill="#ffb031" d="M1113.05 844.84c-15.25 2.59-30.17 22.87-42.39 44.55a184.41 184.41 0 0 1-4.54 14.09c.23-.1.45-.2.68-.3 3.61-4.7 15.25-18.78 27.48-22.35l-.62-15.02.75-.03.61 14.85c3.2-.82 6.43-.9 9.56.13l7.33-18.96.7.27-7.32 18.94c.19.07.38.14.56.22.44.19.85.45 1.24.75 8.16-5.11 15.97-10.6 23.36-16.49-.87-11.88-4.95-22.76-17.4-20.65z"/><path fill="#ce5f15" d="m1094.41 865.77-.75.03.62 15.02c.25-.07.5-.14.74-.2l-.61-14.85zM1112.61 862.05l-.7-.27-7.33 18.96c.24.08.47.16.71.25l7.32-18.94z"/><path fill="#af452c" d="M821.12 879.59c6.32-13.02 18.03-35.68 32.56-57.22-.88-1.93-2.08-3.66-3.78-4.94-3.39-2.57-7.52-2.35-10.88-1.31-8.89 2.74-15.1 10.01-20.4 17.57-3.57 5.1-6.85 10.41-9.91 15.9 7.83 6.77 11.07 20.33 12.41 30zM1064.95 847.93c-14.65-2.26-26.07 9.23-34.52 23.13 4.66-22.18 8.76-66.29-22.57-66.29-20.33 0-46.32 27.57-67.78 59.64-1.77 7.96-3.6 15.15-5.16 20.92 11.55-14.62 31.31-35.14 51.22-35.14.99 0 1.92.07 2.8.19 1.1-.12 2.2-.19 3.3-.19 23.59 0 12.46 36.06 5.84 53.18 7.11-5.47 17.09-11.2 26.43-9.75 3.13-.43 6.27-.27 9.3.79 6.56 2.3 9.65 9.27 10.65 17.8 6.04-2.23 11.99-4.59 17.85-7.08 2.61-5.17 5.41-10.5 8.36-15.74 4.44-16.07 8.31-39.3-5.72-41.46z"/><path fill="#af452c" d="M1062.29 905.13c1.28-.54 2.56-1.09 3.82-1.65.85-2.3 2.74-7.61 4.54-14.09-2.95 5.24-5.75 10.56-8.36 15.74zM1105.29 880.99l-1.06 2.73c.96-.58 1.91-1.17 2.86-1.76-.39-.3-.79-.56-1.24-.75a9.31 9.31 0 0 0-.56-.22zM1095.02 880.61l.34 8.32c2.64-1.49 5.25-3.01 7.82-4.56l1.4-3.63c-3.12-1.02-6.36-.95-9.56-.13zM1066.8 903.17c9.59-4.23 18.89-8.83 27.83-13.83l-.35-8.52c-12.23 3.58-23.87 17.66-27.48 22.35z"/><path fill="#af452c" d="m1094.28 880.82.35 8.52c.24-.14.49-.27.73-.41l-.34-8.32-.74.21zM1104.59 880.74l-1.4 3.63c.35-.21.7-.43 1.05-.64l1.06-2.73c-.24-.1-.48-.18-.71-.26z"/><path fill="#b27928" d="M935.45 778.67c2.72 3.4 3.76 7.68 4.49 11.71 4.76 26.21-3.56 65.86-9.68 89.52 3.13-5.21 6.42-10.4 9.82-15.48 5.15-23.16 9.79-52.95 5.96-74.03-.73-4.03-1.77-8.32-4.49-11.71-4.83-6.02-16.61-8.36-25.69-7.71 7.7.51 15.8 2.97 19.59 7.7zM806.42 853.85c.75-1.43 1.51-2.86 2.3-4.27-3-2.6-6.68-4.21-11.19-4.21-.93 0-1.87.11-2.81.3 4.98.95 8.78 4.04 11.7 8.18z"/><path fill="#b27928" d="M815.97 890.58s1.84-4.18 5.15-10.99c-1.34-9.67-4.58-23.23-12.4-30.01-.78 1.41-1.54 2.84-2.3 4.27 9.23 13.09 9.55 36.73 9.55 36.73zM988.29 912.21s3.92-4.33 9.78-8.84c6.62-17.13 17.75-53.18-5.84-53.18-1.1 0-2.2.07-3.3.19 26.32 3.73-.64 61.83-.64 61.83zM924.65 899.7s3.88-6.28 10.27-14.37c1.57-5.77 3.4-12.95 5.16-20.92-3.4 5.08-6.69 10.27-9.82 15.48-3.08 11.94-5.61 19.81-5.61 19.81zM1033.79 894.41c-3.03-1.06-6.17-1.22-9.3-.79 1.08.17 2.15.42 3.2.79 7.09 2.49 10.13 10.45 10.85 19.92 1.97-.7 3.93-1.41 5.89-2.13-.99-8.51-4.08-15.49-10.64-17.79z"/><path fill="#ffb031" d="M906.86 773.13c2.15-1.17 5.36-1.91 9-2.17-6.01-.41-11.79.37-15.09 2.17-16.79 9.17-33.22 28.7-47.08 49.24.92 2.02 1.48 4.25 1.86 6.42 14.68-22.8 32.77-45.54 51.31-55.66zM794.72 845.68c-1.04-.2-2.14-.3-3.29-.3-23.51 0-48.51 63.21-59.3 101.86 1.96.11 3.97.21 6 .31 10.33-37.1 33.86-97.17 56.59-101.87z"/><path fill="#ffb031" d="M822.06 890.58s13.62-30.95 33.48-61.79c-.39-2.17-.94-4.4-1.86-6.42-14.53 21.54-26.24 44.2-32.56 57.22.88 6.33.94 10.99.94 10.99zM988.94 850.38c-.87-.12-1.8-.19-2.8-.19-19.92 0-39.68 20.52-51.22 35.14-2.4 8.83-4.17 14.37-4.17 14.37s28.42-46.05 58.19-49.32zM1024.5 893.62c-9.34-1.45-19.31 4.28-26.43 9.75-2.06 5.33-3.69 8.84-3.69 8.84s14.92-16.49 30.12-18.59zM778.11 906.68l.47-.32 12.95-40.04.71.23-12.65 39.11 7.06-4.85c5.7-16.28 11.98-32.19 19.78-46.97-2.92-4.14-6.73-7.23-11.7-8.17-22.73 4.7-46.27 64.77-56.58 101.87 8.33.41 17.29.77 26.78 1.02l13.43-41.53-.25-.35z"/><path fill="#ffb031" d="m848.81 923.05-71.27 4.99c2.83-8.69 5.68-17.41 8.68-26.03l-7.01 4.82-13.51 41.76c28.1.73 60.77.57 95.36-1.58l-6.4-46.72c-1.48 7.8-3.43 15.42-5.85 22.76zM939.95 790.38c-.73-4.03-1.77-8.32-4.49-11.71-3.8-4.73-11.9-7.19-19.6-7.71-3.64.26-6.84 1-9 2.17-18.53 10.12-36.63 32.86-51.31 55.66.11.63.21 1.26.3 1.88 3.31 23.1 3.01 45.89-.76 67.23l6.72 49.06c.1-.01.21-.01.31-.02l33.59-97.33-.19-.19.39-.39 15.32-44.38.71.24-14.81 42.92 28.28-28.38.53.53-29.37 29.47-25.83 74.84 49.51-44.98.5.55-50.52 45.9-7.29 21.13a887.7 887.7 0 0 0 38.01-3.24c4.07-15.98 15.11-40.08 29.32-63.75 6.11-23.63 14.44-63.29 9.68-89.5z"/><path fill="#ffb031" d="M821.12 879.59c-3.31 6.81-5.15 10.99-5.15 10.99s-.32-23.64-9.55-36.73c-7.8 14.77-14.08 30.69-19.78 46.97l13.79-9.47.42.62-14.64 10.05c-3 8.62-5.85 17.34-8.68 26.03l71.27-4.99c2.42-7.35 4.37-14.96 5.85-22.77l-6.13-44.71.74-.1 5.82 42.43c3.77-21.34 4.06-44.13.76-67.23-.09-.62-.19-1.24-.3-1.88-19.86 30.84-33.48 61.79-33.48 61.79s-.06-4.67-.94-11zM1027.7 894.41c-1.06-.37-2.13-.63-3.2-.79-15.2 2.1-30.11 18.59-30.11 18.59s1.62-3.5 3.69-8.84c-5.86 4.51-9.78 8.84-9.78 8.84s26.96-58.1.64-61.83c-29.77 3.27-58.19 49.32-58.19 49.32s1.78-5.53 4.17-14.37c-6.39 8.09-10.27 14.37-10.27 14.37s2.53-7.87 5.61-19.8c-14.21 23.67-25.25 47.77-29.32 63.75 13.95-1.49 28.04-3.35 42.12-5.64l11.88-25v-33.43h.75v31.85l16.45-34.6.68.32-28.86 60.71c2.71-.45 5.43-.9 8.14-1.38l20.14-17.65.49.56-19.2 16.83c20.12-3.6 40.14-8.11 59.59-13.74l4.74-7.89.64.39-4.32 7.2c8.24-2.41 16.39-5.01 24.39-7.83-.74-9.49-3.77-17.45-10.87-19.94z"/><path fill="#ce5f15" d="m972.23 918.82-20.14 17.65c.48-.08.95-.17 1.43-.26l19.2-16.83-.49-.56zM972.14 876.82l-16.45 34.6v-31.85h-.75V913l-11.88 25 .9-.15 28.86-60.71-.68-.32zM1017.85 914.58l-4.74 7.89c.35-.1.71-.2 1.06-.31l4.32-7.2-.64-.38zM920.75 879.86l-.5-.55-49.51 44.98 25.83-74.84 29.37-29.47-.53-.53-28.28 28.38 14.81-42.92-.71-.24-15.32 44.38-.39.39.19.19-33.59 97.33c.27-.02.54-.03.81-.05l7.29-21.13 50.53-45.92zM854.66 900.28l6.4 46.72c.25-.02.5-.03.75-.05l-6.72-49.06c-.14.8-.28 1.6-.43 2.39z"/><path fill="#ce5f15" d="m848.53 855.57 6.13 44.71c.15-.79.29-1.59.43-2.38l-5.82-42.43-.74.1zM786.22 902.02l.42-1.2-7.06 4.85 12.65-39.11-.71-.23-12.95 40.04-.47.32.25.36-13.43 41.53c.26.01.52.01.78.02l13.51-41.76 7.01-4.82zM800.44 891.35l-13.79 9.47-.42 1.2 14.64-10.05-.43-.62z"/></g><g><path fill="#414042" d="M1054.18 1030.26c-4.62-.37-44.37 7.5-50.62 7.75s-19-2.75-22.25-4.25c0 0 19.5 3.25 28 1.37 8.5-1.87 43.62-9.12 46.37-9.44 2.75-.31 14.5-16.31 14.87-18.19.21-1.05-11.15 1-23.06.74 0 0-37.69 16.01-49.56 16.39-10.24.32-21.11-.85-16.07-5.63-4.02 1.62-5.31 9.15-5.31 11-2.87 6.12 2.12 10.12 17.25 13 15.12 2.87 47.12-9 52.37-8.87 5.25.13 1.5 2.12 6.75 3.12s28.44-2.56 29.37-4.25c.94-1.69 0-7.31 0-7.31s-23.49 4.95-28.11 4.57z"/><path fill="#6d6e71" d="M997.93 1024.64c11.87-.37 49.56-16.39 49.56-16.39-9.26-.21-18.86-1.82-23.6-7.39-14.46 9.64-38.71 16.94-41.9 18.09-.05.02-.09.04-.13.06-5.04 4.77 5.83 5.95 16.07 5.63z"/><path fill="#231f20" d="M1081.36 993.45c.75-6.75-40.31-15.56-48-1.69-1.75 3.16-5.16 6.2-9.41 9.05-.02.01-.04.03-.06.04 4.75 5.57 14.34 7.19 23.6 7.39 11.91.27 23.27-1.79 23.06-.74-.38 1.87-12.12 17.87-14.87 18.19-2.75.31-37.87 7.56-46.37 9.44-8.5 1.87-28-1.37-28-1.37 3.25 1.5 16 4.5 22.25 4.25s46-8.12 50.62-7.75c4.62.38 28.12-4.56 28.12-4.56 1.88-4.87-.94-32.25-.94-32.25z"/><path fill="#6d6e71" d="M979.62 1021.54s-2.84 5.75-2.28 8.37c0 0-1.72 2.84-.97 4.87 0 0 .44-4.06 2.09-3.47.01.01-.99-6.64 1.16-9.77z"/><path fill="#414042" d="M1096.55 927.15c0-8-22.76-22.75-22.76-22.75-5.64-2.58-11.05-2.18-15.97.15 0 .08-1.77 29.49-4.58 39.22-2.81 9.75-27.81 33-35.06 35.25-7.25 2.25-11-.53-11.01-.53-1.01.87-1.75 1.59-2.12 2.15-1.56 2.42-1.35 6.45-.87 9.48.01 0 1.13-.1 4.87 1.52 3.75 1.63 20.19-2.88 20.19-2.88-9.8 7.87-24.19 5.37-24.19 5.37s-1 2.75-.37 3.75c.62 1 10.62 1 17.39 0s38.48-28.25 41.57-33.92c3.09-5.67 11.41-7.83 15.6-8.83 4.19-1 22.31-18.25 23.31-21.5 1-3.23-6-6.48-6-6.48z"/><path fill="#231f20" d="M1029.25 988.77s-16.45 4.5-20.19 2.88c-3.74-1.62-4.86-1.52-4.87-1.52.36 2.3.87 4.02.87 4.02s14.39 2.49 24.19-5.38z"/><path fill="#6d6e71" d="M1018.18 979.02c7.25-2.25 32.25-25.5 35.06-35.25 2.81-9.74 4.58-39.14 4.58-39.22-12.72 6.03-22.13 25.03-23.71 39.1-1.9 16.92-20.31 29.13-26.94 34.84.01 0 3.77 2.78 11.01.53z"/><path fill="#293a54" d="m949.06 802.41 17-3.25s12.75-45.5 19.62-56.75c6.87-11.25-14.12-82.43-14.12-82.43s-44 110.93-49 113.43 0 37.5 0 37.5l103.49 101.49S973.3 810.91 971.3 807.91c-1.99-3-22.24-5.5-22.24-5.5z"/><path fill="#1a2535" d="m984.56 801.41 20.73-41-33.73-100.43s21 71.18 14.12 82.43c-6.87 11.25-19.62 56.75-19.62 56.75l-17 3.25s20.25 2.5 22.25 5.5 54.75 104.49 54.75 104.49l-16.5-86.49-25-24.5z"/><path fill="#5a7196" d="m928.09 771.94 34.5-84.27s-17 74.49-19.5 77.99-15 6.28-15 6.28zM924.56 809.72l26.5 25.69s-7.69-13.32-10.69-18-5.44-8.62-8.06-11.25c-2.62-2.62-9.94-18-9.94-18s.45 19.86 2.19 21.56z"/><path fill="#374b72" d="M1036.3 963.14c2.75 3.5 36.25 1.75 33-2s-27.25-10.5-27.25-10.5 19.25-4.5 21.75-11.75 5-39.5 3.75-41-5.12-57.62-5.12-57.62l-6.82-11.25-21.49-5.81s9.19-2.06 12.61-11.44c3.42-9.37 26.69-118.09 26.7-118.1 2.23-21.04-6.51-54.76-6.51-54.76s-29.8 21-52.58 25.5c-12.53 2.47-30.41 3.13-43.97 3.23 4.17 17.43 27.19 121.24 27.19 126.89 0 6 1.87 26.25 1.87 35.62 0 9.37 9.75 18.75 12 24 1.79 4.18 13.09 76.32 17.62 105.57 0 0 4.5-.08 7.25 3.42z"/><path fill="#1a2535" d="M1066.91 638.92c-20.64-19-99.35 5.75-99.35 5.75s.5 14.5 2.25 20.75c.1.37.29 1.13.55 2.23 13.56-.09 31.44-.75 43.97-3.23 22.78-4.5 52.58-25.5 52.58-25.5z"/><path fill="#293a54" d="M1077.05 971.14c.38-1.5 3.56-15.56 1.5-17.81-2.06-2.25-11.06-5.25-11.06-5.25l11.44-46.68c-3-1.5-16.5-61.12-16.5-61.12s3.87 56.12 5.12 57.62-1.25 33.75-3.75 41-21.75 11.75-21.75 11.75 24 6.75 27.25 10.5-30.25 5.5-33 2-7.25-3.42-7.25-3.42c1.16 7.49 1.88 12.17 1.88 12.17l-4.12 2.25-3 26.62s14.06-8.81 26.25-9.56c12.18-.76 26.62-18.57 26.99-20.07zM1034.12 823.22l21.49 5.81s1.2-9.37.07-12.37c-1.12-3 10.87-96.74 16.5-116.24.58-2.03.99-4.3 1.25-6.74 0 .01-23.27 108.73-26.7 118.1-3.43 9.37-12.61 11.44-12.61 11.44z"/><path fill="#1a2535" d="M1084.55 994.39v-31.87s-.75-4.5-5.62-14.62 3-45 0-46.5l-11.44 46.68s9 3 11.06 5.25c2.06 2.25-1.12 16.31-1.5 17.81s-14.81 19.31-27 20.06-26.25 9.56-26.25 9.56 27.37 1.5 41.62 2.25c14.26.75 19.13-8.62 19.13-8.62z"/><path fill="#5a7196" d="m981.81 695.92 18.92 99.74s-.92 25.87 2.08 26.25c3 .38 8.62-18 6.75-22.5-1.88-4.5-27.75-103.49-27.75-103.49z"/><path fill="#ba2525" d="M1027.81 606.42c-.75 10-22.51 49.62-22.52 49.63 9.02 1.23 17.73 2.46 24.14 3.49 21 3.37 50.62-13.87 50.62-13.87l-4.78-71.53s-46.71 22.28-47.46 32.28z"/><path fill="#8e2121" d="M1035.05 500.35c6-3.16 41.5-60.41 41.5-60.41s-28.25 37.75-34.06 41.5c-5.81 3.75-5.32-56.5-2.07-57.25 3.25-.75 27.37-7.12 27.37-7.12s-23.62 4.62-26.74 4.62c-3.12 0-2.44-3.25-2.44-3.25l17.9-11.17-18.63-1.04s-26.95 1.21-29.95 2.58-7.25 9.7-7.25 9.7-11.7 39.82-21.51 73.28c16.82 3.3 51.29 10.98 55.88 8.56zM1017.81 604.67c-.25 4.25-3.5 24.5-3.5 24.5l-51.72-1.25c0 13.36.1 22.62.1 22.62s22.08 2.72 42.6 5.5c0 0 21.77-39.63 22.52-49.63s47.46-32.28 47.46-32.28-57.21 26.29-57.46 30.54zM1076.56 439.94s-33 71.49-33.5 75.24l33.5-75.24zM1043.05 515.18c-.5 3.75-.75 9.25-.75 9.25l.75-9.25z"/><path fill="#6d1818" d="m986.31 550.43 41.75-11.25 1.25-6.07 13-8.68s.25-5.5.75-9.25 33.5-75.24 33.5-75.24-35.5 57.25-41.5 60.41c-4.59 2.42-39.07-5.26-55.88-8.55-5.53 18.88-10.47 35.74-12.36 42.29-3.64 12.58-4.21 63.67-4.23 93.84l51.72 1.25s3.25-20.25 3.5-24.5 57.46-30.53 57.46-30.53l-72.96 19.28-16-43z"/><path fill="#db4646" d="m1073.3 580.18 3.26 62.74s-18 12.76-26.25 13.13c-8.25.37 6.01-8.88 9.5-15.13s13.49-60.74 13.49-60.74z"/><path fill="#205664" d="m1032.08 441.35-64.96-48a9.476 9.476 0 0 0-5.13-2.29l-159.98-19.27a9.517 9.517 0 0 0-10.59 8.31l-19.58 162.53c-.41 3.43 1.06 6.64 3.59 8.63v.01l.25.18c.05.04.1.08.15.11l65.3 48.28 41.33-34.3 57.66 6.95c5.22.63 9.96-3.09 10.59-8.31l7.4-61.43 73.97-61.4z"/><path fill="#3e899b" d="m867.87 420.48-65.86-48.7s-8.81-1.15-10.59 8.31l65.86 48.7c1.66-9.35 10.59-8.31 10.59-8.31z"/><path fill="#29697c" d="M968.06 500.35c10.98-36.52 63.84-58.92 64.01-59a9.451 9.451 0 0 0-4.23-1.6l-159.98-19.27a9.517 9.517 0 0 0-10.59 8.31L837.7 591.32a9.517 9.517 0 0 0 8.31 10.59c73.44.48 111.05-64.98 122.05-101.56z"/><path fill="#235b68" d="m1016.57 612.87 19.58-162.53c.44-3.64-1.25-7.05-4.08-8.99-.17.07-53.03 22.48-64.01 59-11 36.58-48.61 102.04-122.05 101.56l159.98 19.27c5.22.63 9.96-3.09 10.58-8.31z"/><circle cx="866.79" cy="429.48" r="4.35" fill="#3e899b"/><circle cx="1026.89" cy="449.17" r="4.35" fill="#3e899b"/><circle cx="1006.51" cy="610.75" r="4.35" fill="#3e899b"/><circle cx="848.52" cy="591.05" r="4.35" fill="#3e899b"/><path fill="#ba2525" d="M1102.67 424.56c-1.5-1-22.62-12.25-22.62-12.25.25-1.25-7.01-4.13-7.01-4.13l-16.53-.92-17.9 11.17s-.68 3.25 2.44 3.25 26.74-4.62 26.74-4.62-24.12 6.37-27.37 7.12-3.74 60.99 2.07 57.25c5.81-3.75 34.06-41.5 34.06-41.5l-33.5 75.24-.75 9.25-13 8.68-1.25 6.07-41.75 11.25 16 43 72.96-19.28 6.28-3.66s6.37-6.56 10.86-18.56c4.49-12 18.57-85.31 19.32-103.12s-7.55-23.24-9.05-24.24z"/><path fill="#8e2121" d="m1042.3 524.43 3.06 17.56 14.06 15s-14.06-6.56-18-14.44c-3.94-7.87-7.4-12.6-7.4-12.6l8.28-5.52zM1029.31 533.11l9.62 21.07-10.87-15z"/><path fill="#db4646" d="M1106.8 459.19s-14.25 87.49-17.75 92.99-13.74 16.5-12.49 12.25c1.24-4.25 10.74-33.75 12.24-40s18-65.24 18-65.24zM995.31 567.43s7.71 22 9.98 21.75c2.27-.25 38.76-10.87 38.76-10.87s-12.47-.12-24.48 0-24.26-10.88-24.26-10.88z"/><path fill="#121314" d="M1041.55 289.39s-7.26 7.19-7.13 7.87c.13.69 1.13 15.19 1.13 15.19s16.87-9.92 16.87-10.99c.01-1.07-10.87-12.07-10.87-12.07z"/><path fill="#f0c19f" d="M1094.11 341.2s13.63-39.95-36.79-39.74c2.61 1.78 4.15 3.9 4.6 5.61 0 0-13.31 1.5-14.87 1.56-1.56.06-5.37 11-4 13.06 1.37 2.06 1.31 3.75 1.31 3.75l-14.62 23.06 7.25 5.19-11.79 21.87c3.91 7.14 13.79 23.75 13.79 23.75l42.93-43s-8.37 29.87-9.12 32.12c-.75 2.25-18.37 17.25-21.25 19.62-2.87 2.37-12.94 10.37-12.94 10.37 3.19.94 34.12-6.75 34.12-7.87s5.06-34.5 8.62-41.62c3.56-7.12 4.87-8.58 4.87-8.58s14.81 2.77 19.69-11.48c4.89-14.24-11.8-7.67-11.8-7.67z"/><path fill="#c88861" d="m1029.74 348.51 14.62-23.06s.06-1.69-1.31-3.75c-1.38-2.06 2.44-13 4-13.06 1.56-.06 14.87-1.56 14.87-1.56-.45-1.71-2-3.84-4.6-5.61-3.75.02-7.84.25-12.33.74 0 0-9.56 5.81-15.75 23.25-6.19 17.44-7.12 43.68-5.44 47.43.24.54.74 1.48 1.39 2.68l11.79-21.87-7.24-5.19zM1072.8 388.44c.75-2.25 9.12-32.12 9.12-32.12l-42.93 43s26.44-6.37 33.18-16.5c0 0-11.44 18.19-18.75 20.25-7.31 2.06-15.54 3.16-15.54 3.16-.69 5.25-1.12 11.66.73 12.21 0 0 10.06-8 12.94-10.37 2.88-2.38 20.5-17.38 21.25-19.63z"/><path fill="#814621" d="M1053.43 403.07c7.31-2.06 18.75-20.25 18.75-20.25-6.75 10.12-33.18 16.5-33.18 16.5s-.62 3.16-1.11 6.91 8.23-1.1 15.54-3.16z"/><path fill="#c88861" d="M1097.92 343.57s6.62-.56 4.5 4.87c-2.12 5.44-6.75 6.94-6.75 6.94s5.19-6.25 4.19-7.94c-1-1.68-1.94-3.87-1.94-3.87z"/><path fill="#f9d9c4" d="M1077.52 379.63s-5.54 28.39-5.34 29.81c.2 1.42-8.21 3.19-6.17.66 2.04-2.53 6.54-9.75 7.01-12.47.47-2.72 1.59-14.34 4.5-18zM1039.32 334.82s-8.3 12.89-8.25 13.17 2.91 2.48 2.91 2.48.56-.94.66-2.86 4.68-12.79 4.68-12.79zM1069.68 354.93c.79-.99 7.41-8.5 6.84-10.39-.56-1.89-5.72-4.42-5.34-2.73.37 1.68-6.63 19.55-1.5 13.12z"/><path fill="#3b3b3a" d="M1058.24 333.9c-.48 1.17-1.43.95-2.53.5-1.1-.45-1.94-.96-1.45-2.13s1.77-1.76 2.87-1.3c1.09.44 1.59 1.76 1.11 2.93zM1038.55 325.22c-.48 1.17-1.43.95-2.53.5-1.1-.45-1.94-.96-1.45-2.13s1.77-1.76 2.87-1.3c1.09.44 1.6 1.75 1.11 2.93zM1057.87 322.12s4.12 2.7 4.81 3.64c.69.94 3.33 5.05 3.33 5.05s1.48-1.99 1.23-3.24c-.25-1.25-6.44-6.12-7.75-6.56-1.31-.44-2.44-.47-1.62 1.11zM1044.3 317.32s-3.12-.31-4.44-.87c-1.31-.56-4.67-.69-4.67-.69s.23-.44 2.3-1.06c2.06-.62 6.94 1.12 7.44 1.31.5.19.29 1.42-.63 1.31z"/><path fill="#3b3b3a" d="M1094.48 320.75c1.57-2.18-3.8-7.93-3.8-7.93l20.03-3.12-24.84 2.53c-3.21.77-7.5 9.28-7.5 9.28l3.56 17.9s-1.5 6.19-9.09 15.19-22.31 14.81-22.31 14.81c-2.96-3.3-10.95-6.83-17.07-9.16 0 0-8.15 8.99-9.15 11.46-1 2.48-8.5 10.6-6.37 20.23 0 0-4-11.5-2.5-17 0 0-3.69 12.31 2.47 24.84 0 0 10.84 1.53 17.3.56 30.49-4.58 36.98-17.53 36.98-17.53s11.44-35.81 14.62-39.26c.32-.35.66-.64.99-.91-.01.01 5.1-19.71 6.68-21.89zM1063.46 301.65c6.14.19 16.59-.2 21.46 1.8 4.87 2 15.62 2.12 20 .25 4.37-1.87 5.5-3.62 4.75-5-.75-1.37-7.75-9.31-7.75-9.31-4.72-4.35-9.63-8.89-9.78-8.94-.28-.09-3.56-2.62-6.28-3.37s-12.84-1.31-19.22-2.44c-6.37-1.12-16.59-4.03-17.06-3.84-.47.19-8.25 7.41-9.39 8.72-1.14 1.31-2.14 2.72-2.14 6 0 1.71 2.51 6.97 5.36 11.79 0 .01.01.01.01.02 1.4 2.44 13.91 4.13 20.04 4.32z"/><path fill="#121314" d="M1050.43 306.42c-1.48-.58-4.39-4.67-7.02-9.11-1.33-2.31 4.64 12.15 5.02 12.4.37.25 37.43 2.53 37.43 2.53s-6.43-4.5-9.31-4.31c-2.87.17-23.03-.29-26.12-1.51z"/><path fill="#121314" d="M1113.05 300.04c.75-1.41-.94-1.5-2.53-2.81-.73-.6-4.59-4.16-8.59-7.84 0 0 7 7.94 7.75 9.31s-.37 3.12-4.75 5c-4.37 1.87-15.12 1.75-20-.25-4.87-2-15.32-1.61-21.46-1.8-6.14-.19-18.64-1.88-20.04-4.32-.01-.01-.01-.01-.01-.02 2.62 4.45 5.53 8.53 7.02 9.11 3.09 1.22 23.25 1.69 26.13 1.5 2.88-.19 9.31 4.31 9.31 4.31l24.84-2.53c-.02 0 1.58-8.25 2.33-9.66zM1087.8 342.65l6.32-1.45c-.01 0-3.34-.88-6.32 1.45z"/><path fill="#121314" d="m1104.19 340.14 10.46-9.33s.19-4.61-.19-6.71c-.38-2.1.84-7.18.84-8.15 0-.97-4.59-6.25-4.59-6.25l-20.03 3.12s5.37 5.75 3.8 7.93-6.68 21.9-6.68 21.9c2.99-2.33 6.32-1.45 6.32-1.45 6.1-2.24 10.07-1.06 10.07-1.06zM1025.77 357.6c.27.04 3.54 1.07 7.68 2.65l-8.19-19s-.14 16.26.51 16.35z"/><path fill="#121314" d="M1015.43 374.94c-1.5 5.5 2.5 17 2.5 17-2.12-9.62 5.37-17.75 6.37-20.23 1-2.48 9.15-11.46 9.15-11.46-4.14-1.58-7.42-2.61-7.68-2.65-.66-.09-.51-16.35-.51-16.35s-12.15 27.88-13.36 30.88c-1.22 3 2.06 19.12 2.16 19.5.09.37 3.84 8.16 3.84 8.16-6.16-12.54-2.47-24.85-2.47-24.85z"/><path fill="#6d1419" d="M1034.59 366.55c-1.55-.14-2.48.66-2.48.66 2.8-1.07 7.38 1.36 8.96 2.29 1.75-.44 3.09-.86 3.09-.86l-16.97-7.03c.15.93.42 1.82.76 2.66 2.75-.69 6.64 2.28 6.64 2.28z"/><path fill="#df4847" d="M1034.63 370.51c1.66.08 4.33-.49 6.43-1.02-1.58-.92-6.16-3.36-8.96-2.29 0 0 .94-.8 2.48-.66 0 0-3.88-2.98-6.65-2.28 1.42 3.52 4.25 6.14 6.7 6.25z"/><path fill="#787779" d="M1045.19 297.05s-7.14-10.32-5.87-13.7 8.2-8.34 8.2-8.34-4.59 6.66-3.66 8.53c.94 1.88 1.33 13.51 1.33 13.51zM1081.93 349.47s-10.5 32.22-12.62 34.47c-2.12 2.25-13 8.37-16.75 9.87s9.87-9.25 11.62-11 17.75-33.34 17.75-33.34zM1021.43 397.82s9.39.12 13.07 0c3.68-.13 9.65-3.29 9.65-3.29s-7.87.58-11.36 0c-3.48-.58-14.23.45-14.86-.56-.63-1.02-.63.86 0 2.48s3.5 1.37 3.5 1.37z"/><path fill="#f0c19f" d="M926.69 609.11c5.06-.75 20.81-11.62 23.44-13.87 2.62-2.25 30-8.06 35.43-15.06 5.44-7 4.16-20.57 4.16-20.57l-43.53 18.7s-21-2.19-25.5-2.56c-4.5-.37-19.69 10.31-23.62 10.69-3.94.38 1.12 4.12 5.44 4.5 4.31.38 15.75-2.81 15.75-2.81l-14.77 19.69c-.01-.01 18.14 2.04 23.2 1.29z"/><path fill="#c88861" d="M904.19 613.05c4.87.56 7.69-1.87 7.69-1.87s5.69 2.96 10.19 1.19c0 0 4.94 2.25 9.19 1.12 0 0 5.09.42 8-1.37s11.25-11.53 16.31-13.03c5.06-1.5 45.17-9.9 45.17-9.9l-11.01-29.58s1.27 13.58-4.16 20.57c-5.44 7-32.81 12.81-35.43 15.06-2.62 2.25-18.37 13.12-23.44 13.87s-23.2-1.3-23.2-1.3l-9.44-1.14c-.02 0 5.26 5.82 10.13 6.38z"/><path fill="#f9d9c4" d="M901.63 585.49c2.62-1.25 14.06-7.5 16.37-8s10.37-.19 15.44.75c5.06.94 1.06 2.06-6.87 2.69s-24.94 4.56-24.94 4.56zM950.44 577.8l35.25-15.37s-6.12 5.37-11.37 7.69-23.88 7.68-23.88 7.68z"/></g><g><path fill="#c15e1b" d="M804.63 787.45s-109.6 21.71-109.45 41.58c.09 12.33 3.04 77.96 5.27 125.99h99.51c4.84 0 8.75-3.66 8.75-8.17V839.93l51.33-31.22-55.41-21.26z"/><path fill="#af5519" d="M804.63 787.45h-.02a9.188 9.188 0 0 0-4.65-1.26h-163.3c-4.84 0-8.75 3.66-8.75 8.17v152.49c0 3.02 1.76 5.65 4.36 7.06v.01l56.06 33.14.91-32.03h11.22c-2.23-48.04-5.18-113.66-5.27-125.99-.16-19.88 109.44-41.59 109.44-41.59z"/><path fill="#ff8e31" d="M813.59 872.9c6.69-31.97 36.32-52.15 51.08-60.4a8.737 8.737 0 0 0-7.51-4.27h-163.3c-4.83 0-8.75 3.92-8.75 8.75v163.3c0 4.84 3.92 8.75 8.75 8.75h9.04c52.91-14.69 102.36-76.33 110.69-116.13z"/><path fill="#dd7426" d="M865.92 980.28v-163.3c0-1.64-.46-3.17-1.24-4.48-14.76 8.25-44.39 28.43-51.08 60.4-8.33 39.8-57.78 101.44-110.69 116.14h154.26c4.83 0 8.75-3.92 8.75-8.76z"/><circle cx="695.18" cy="818.03" r="4.35" fill="#fcb381"/><circle cx="695.18" cy="979.9" r="4.35" fill="#fcb381"/><circle cx="857.1" cy="817.7" r="4.35" fill="#fcb381"/><circle cx="857.1" cy="979.56" r="4.35" fill="#fcb381"/></g><g><path fill="#cecece" d="M404.86 947.01s-1 3.06.75 4.65c1.75 1.6 23.75 2.35 28.5 1.72 4.75-.62 22.5-.62 22.5-.62l-.74-3.35s-1.15-6.78-8.77-6.78-42.24 4.38-42.24 4.38z"/><path fill="#125082" d="M434.86 937.39c-5.5-2.25-16.12-4.37-24.62-5.25-2.21-.23-3.72-.66-4.74-1.17-1.28 5.38-2.5 12.75-.63 16.05 0 0 10.5 3.12 26.12 2.25 6.01-.34 11.07-.39 15.03-.33h-.03c-.01-.01-5.64-9.3-11.13-11.55z"/><path fill="#0d4063" d="m446.01 948.93 9.85.48c0 .01-3.52-.38-9.85-.48z"/><path fill="#0d4063" d="M453.35 927.99s-8.25-2.98-10.75-5.1c-2.5-2.12-16.75-5.62-21-3.75s-14.37 5.5-14.37 5.5-.89 2.72-1.74 6.33c1.02.51 2.53.95 4.74 1.17 8.5.87 19.12 3 24.62 5.25s11.13 11.54 11.13 11.54h.03c6.34.1 9.85.48 9.85.48l-2.51-21.42z"/><path fill="#7f7f7f" d="M453.1 797.1c-4.84-2.31-43.83-8.16-73.18-12.33 16.34 4.65 32.54 9.36 34.68 10.37 4.5 2.12 40.75 29.83 41.25 34.7.5 4.87-30.75 57.76-33.75 61.35s-15.25 16.71-10.75 16.71 30.75-8.04 30.75-8.04-29 13.12-29.75 16.29c-.52 2.22 3.34 7.94 5.72 11.19 4.31-.54 8.59-1.35 11.68-2.17 7.12-1.9 12.84-1.51 12.84-1.51s1.12-12.38 1.87-15.55 24.38-71.09 26.18-80.61c1.81-9.5-9.66-26.64-17.54-30.4z"/><path fill="#606060" d="M412.36 916.16c.75-3.17 29.75-16.29 29.75-16.29s-26.25 8.04-30.75 8.04 7.75-13.12 10.75-16.71 34.25-56.49 33.75-61.35c-.5-4.87-36.75-32.58-41.25-34.7-2.15-1.01-18.35-5.72-34.68-10.37-18.41-2.62-33.03-4.57-33.03-4.57-3.21-.44-6.1 1.04-8.57 3.75-.15 10.36 4.64 28.3 11.32 48.12 26.21.38 78.04 1.58 78.04 1.58 2.08 10.58-15.27 64.16-18.82 72.41-3.55 8.25-5.26 21.42-5.26 21.42 3.18.81 8.85.57 14.47-.13-2.38-3.25-6.25-8.98-5.72-11.2z"/></g><g><path fill="#293a54" d="M623.82 787.45s-109.6 21.71-109.45 41.58c.09 12.33 3.04 77.96 5.27 125.99h99.51c4.83 0 8.75-3.66 8.75-8.17V839.93l51.33-31.22-55.41-21.26z"/><path fill="#1a2535" d="M623.82 787.45h-.02a9.188 9.188 0 0 0-4.65-1.26h-163.3c-4.83 0-8.75 3.66-8.75 8.17v152.49c0 3.02 1.76 5.65 4.36 7.06v.01l56.06 33.14.91-32.03h11.22c-2.23-48.04-5.18-113.66-5.27-125.99-.16-19.88 109.44-41.59 109.44-41.59z"/><path fill="#374b72" d="M632.78 872.9c6.69-31.97 36.32-52.15 51.08-60.4a8.737 8.737 0 0 0-7.51-4.27h-163.3c-4.83 0-8.75 3.92-8.75 8.75v163.3c0 4.84 3.92 8.75 8.75 8.75h9.04C575 974.34 624.45 912.7 632.78 872.9z"/><path fill="#293a54" d="M685.11 980.28v-163.3c0-1.64-.46-3.17-1.24-4.48-14.76 8.25-44.39 28.43-51.08 60.4-8.33 39.8-57.78 101.44-110.69 116.14h154.26c4.83 0 8.75-3.92 8.75-8.76z"/><circle cx="514.37" cy="818.03" r="4.35" fill="#5c749b"/><circle cx="514.37" cy="979.9" r="4.35" fill="#5c749b"/><circle cx="676.29" cy="817.7" r="4.35" fill="#5c749b"/><circle cx="676.29" cy="979.56" r="4.35" fill="#5c749b"/></g><path fill="#f0c19f" d="m408.98 711.41 45.5 3.63-1.25 15-50.25 3.71z"/><path fill="#c88861" d="M406.36 721.19s42.87-2.9 48.12-6.15l-1.25 15-50.25 3.72 3.38-12.57z"/><path fill="#f9d9c4" d="M438.11 715.04s-22-3-23.12-1.5c-1.12 1.5-9.62 4.37 3 3.25 12.62-1.13 20.12-1.75 20.12-1.75z"/><g><path fill="#c15e1b" d="M646.02 599.48s-111.51 6.91-114.01 26.63c-1.55 12.23-7.37 77.67-11.57 125.57l98.62 13.26c4.79.64 9.16-2.46 9.77-6.93l14.25-105.96 55.03-24.1-52.09-28.47z"/><path fill="#af5519" d="M646.02 599.48H646a9.244 9.244 0 0 0-4.44-1.87l-161.85-21.76c-4.79-.64-9.16 2.46-9.77 6.93l-20.32 151.13c-.4 2.99.99 5.83 3.38 7.58v.01l51.14 40.31 5.17-31.63 11.12 1.5c4.2-47.91 10.02-113.34 11.57-125.57 2.5-19.72 114.02-26.63 114.02-26.63z"/><path fill="#ff8e31" d="M643.51 685.37c10.89-30.8 42.95-46.85 58.68-53.05a8.745 8.745 0 0 0-6.87-5.24l-161.85-21.76c-4.79-.64-9.2 2.72-9.84 7.51l-21.76 161.85c-.64 4.79 2.72 9.2 7.51 9.84l8.96 1.2c54.39-7.52 111.61-62.02 125.17-100.35z"/><path fill="#dd7426" d="m681.06 798.76 21.76-161.85c.22-1.63-.03-3.2-.64-4.61-15.73 6.21-47.78 22.26-58.68 53.05-13.56 38.33-70.79 92.83-125.18 100.35l152.89 20.56c4.8.66 9.21-2.7 9.85-7.5z"/><circle cx="533.47" cy="615.21" r="4.35" fill="#fcb381"/><circle cx="511.9" cy="775.63" r="4.35" fill="#fcb381"/><circle cx="693.99" cy="636.46" r="4.35" fill="#fcb381"/><circle cx="672.42" cy="796.88" r="4.35" fill="#fcb381"/></g><g><path fill="#f0c19f" d="M506.72 763.53c-.37-3.12-12.25-8.37-14-11.25-1.75-2.87-14.5-4.5-15.75-4.62-1.25-.13-41.12-11.62-41.12-11.62s-2.84 8.62-.29 10.31c2.54 1.69 31.23 3.94 35.92 4.69s6.56 1.5 8.62 2.72c2.06 1.22 13.18 4.77 13.97 6.28.78 1.49 11.07 6.58 11.35 6.72 1.08.09 1.59-.83 1.3-3.23z"/><path fill="#c88861" d="M494.07 760.04c-.79-1.51-11.91-5.06-13.97-6.28-2.06-1.22-3.94-1.97-8.62-2.72s-33.37-3-35.92-4.69c-2.54-1.69.29-10.31.29-10.31l-8.17 22.05s42.79 3.58 45.67 3.83c2.87.25 5.12 4 5.12 4 1.81 2.12 6.37 6.87 6.37 6.87.44.69 3.06 1.44 3.06 1.44.5.75 4.44 2.28 4.44 2.28s.94 1.47 3 2.47c2.06 1 6.66 1.16 6.66 1.16l-4.67-3.68-5.87-16.67s11 5.75 12.82 6.62c.42.2.8.32 1.12.35-.26-.15-10.55-5.23-11.33-6.72z"/><path fill="#f9d9c4" d="M438.11 738.1s21.69 5.56 23.62 6.31c1.94.75 4.34 1.81 4.83 1.87s-2.2.62-9.58-.75c-7.37-1.37-18-3.5-19.25-4.81-1.25-1.31-1.81-4.93.38-2.62z"/></g><g><path fill="#3b3b3a" d="M405.3 699.67c-.74 5.45-4.6 18.55-9.86 24.08 7.53 1.96 13.13 1.8 14.2.17 3.27-5 5.48-16 .86-27.25-.93-2.26-.81-3.72.02-4.76h-.02s-4.27.82-5.2 7.76zM414.28 600.44l14.32-30.37c-2.47 3.27-10.28 5.7-10.28 5.7s2.03-.71 5.66-5.7 0-18.39 0-18.39c9.32-19.79-8.4-28.26-10.86-29.32-19.3-7.64-44.57-7.74-44.57-7.74-19.69 1.31-17.25 16.69-24.56 18.75-7.31 2.06-11.81 9.19-8.62 17.25s-6.94 14.62-8.44 21.91c-1.5 7.28 9.8 25.96 9.8 25.96s-3.86-19.44-2.49-24.44c1.37-5 8.8-12.75 8.8-12.75l17.05 9.13 26.46-13.06s5.44-1.56 9-4.81c0 0-2.81 3.69 0 3.78s13.81.97 22.06-2.78c0 0-13.75 15.12 0 17.62 0 0-1.27 13.12-5.29 22.25-4.02 9.12-19.96 42.12-18.08 48.5 1.87 6.37 43.83 21.19 39.6 35.12.18-.37.35-.73.52-1.12 7.5-18-22.5-25.75-20.75-29.25s10-10.5 4-16.25-5.56-21.69-5.29-25.19c.05-.76.8-2.5 1.96-4.8z"/><path fill="#121314" d="M394.23 641.92c-1.87-6.37 14.06-39.37 18.08-48.5 4.02-9.12 5.29-22.25 5.29-22.25-13.75-2.5 0-17.62 0-17.62-8.25 3.75-19.25 2.87-22.06 2.78s0-3.78 0-3.78c-3.56 3.25-9 4.81-9 4.81l-26.46 13.06-17.05-9.13s-7.42 7.75-8.8 12.75c-1.37 5 2.49 24.44 2.49 24.44s-4.11 38.93 9.95 80.3c9.47 27.85 33.23 40.92 48.76 44.96 5.26-5.54 9.13-18.63 9.86-24.08.94-6.94 5.19-7.76 5.19-7.76h.02c3.19-4.02 17.06-1.76 23.33-14.86 4.24-13.93-37.72-28.75-39.6-35.12z"/><path fill="#121314" d="M423.98 551.68s3.62 13.41 0 18.39-5.66 5.7-5.66 5.7 7.81-2.43 10.28-5.7l-14.32 30.37c4.24-8.44 14.03-24.51 15.95-27.92 2.44-4.34-1.12-19.66-1.12-19.66s5.06-16.12-2.44-22.69c-3.7-3.24-8.42-5.79-13.55-7.82 2.46 1.07 20.18 9.54 10.86 29.33z"/><path fill="#787779" d="M400 519.93s-31.82-5-36.42-3-11.19 11-12.39 13.87c-1.2 2.87-9.33 4.5-11.2 7 0 0 5.83-2.37 10.16-2 4.34.37 10.59-5.1 14.96-8.67 4.38-3.57 26.22-8.02 34.89-7.2zM331.24 585.74c-.09-.53-4.97-10.41-3-14.56 1.97-4.16 4.87-7.81 4.87-7.81s-2.62 7.12-2.67 10.78c-.04 3.65.8 11.59.8 11.59zM434.14 668.29s-2.41-7.44-6.22-10.06c-3.81-2.62-11.87-7.81-11.87-7.81s9.12 9.5 11.94 12.12c2.8 2.63 6.15 5.75 6.15 5.75z"/></g><g><path fill="#cccccd" d="M265.81 971.25c-.77-2.51-2.13-11.65-1.94-14.81.53-8.88-.16-17.84.31-26.73.4-7.57 4.01-21.71 5.97-21.71s1.92.75 2.88 1.13c-4.16 4.24-6.15 9.08-6.1 15.27.11 12.44-.62 24.89-.78 37.33-.03 2.37.26 5.44 1.69 7.01 6.1 6.7 12.19 13.58 19.24 19.18 6.28 4.98 12.55 3.68 18.87-1.79.77-1.27 1.54-2.54 2.31-3.82 3.72 2.62 1.45 5.18-.4 7.29-4.17 4.76-13.53 6.62-19.18 3.68-9.74-5.06-17.62-12.22-22.87-22.03z"/><path fill="#fdfdfd" d="m381.99 998.98 26.33.06c-8.77-.03-17.55-.05-26.33-.06z"/><path fill="#0d3a52" d="M297.17 965.83c.6.46 1.2.93 1.79 1.39 3.11 5.03 6.21 10.06 9.32 15.1-.77 1.27-1.54 2.54-2.31 3.82-.46-5.7-4.98-8.11-8.93-10.97.04-3.12.09-6.23.13-9.34z"/><path fill="#125082" d="M297.04 975.16c3.95 2.87 8.47 5.27 8.93 10.97-6.32 5.47-12.59 6.77-18.87 1.79-7.06-5.6-13.14-12.48-19.24-19.18-1.43-1.57-1.72-4.64-1.69-7.01.15-12.45.89-24.89.78-37.33-.06-6.19 1.94-11.03 6.1-15.27 3.1-.74 6.26-1.29 9.28-2.29 2.6-.86 2.8.4 2.71 2.33-3.37 6.01-1.65 12.09-.4 18.24 1.04 5.12 3.25 8.66 8.76 10.06 4.15 1.05 6.93 4.59 5.35 8.72-3.64 9.5-7.14 19.24-15.19 26.56 3.87 4.19 8.5 4.19 13.48 2.41z"/><path fill="#0e4063" d="M297.04 975.16c-4.98 1.78-9.6 1.78-13.5-2.4 8.05-7.32 11.55-17.06 15.19-26.56 1.58-4.13-1.2-7.67-5.35-8.72-5.51-1.4-7.72-4.94-8.76-10.06-1.25-6.15-2.97-12.23.4-18.24.29.64.59 1.29.88 1.93 3.15 8.4 5.73 17.12 13.12 23.11 1.71.32 3.43.64 5.14.95l-5.94 24.82-1.05 5.85c-.04 3.1-.09 6.21-.13 9.32z"/><path fill="#7f7f7f" d="M323.35 800.06c23.75 2.59 82.08 12.58 82.14 12.59-16.54-7.4-35.84-14.69-52.63-18.74 0 0-12.04-12.83-21.74-13.78-9.71-.95-72.32-4.36-79.75 9.34 0 0-.6 3.83-1.02 9.64.01 0 49.24-1.64 73 .95zM379.92 840.29s-16.76 5.18-22.67 10.82c-5.9 5.65-14.52 4.95-14.52 4.95l14.52-10.83s-26.14 5.67-34.84 7.78c-8.7 2.1-48.65 3.72-63.14-5.77 2.97 3.73 6.83 6.5 11.85 7.72 28.97 7.01 75.01 10.77 75.01 10.77s17.46-12.96 22.87-12.96c0-.01 4.9-9.89 10.92-12.48z"/><path fill="#b1b0ae" d="M442.89 856.16c2.61-7.92 4.89-17.62.76-22.25-3.57-4-19.02-12.71-38.16-21.27-.06-.01-58.38-10-82.14-12.59-23.76-2.59-73-.95-73-.95-.92 12.97-.88 35.83 8.91 48.13 14.5 9.49 54.44 7.87 63.14 5.77 8.71-2.11 34.84-7.78 34.84-7.78l-14.52 10.83s8.62.7 14.52-4.95 22.67-10.82 22.67-10.82c-6.02 2.59-10.92 12.47-10.92 12.47-5.41 0-22.87 12.96-22.87 12.96s-25.95 19.98-33.13 21.51-28.68 19.45-28.68 19.45 1.72 18.69 6.38 21.31c4.67 2.61 12.81 9.86 12.81 9.86s37.48-33.31 49.95-37.08c12.14-3.66 85.38-42.44 89.44-44.6z"/><path fill="#7f7f7f" d="M371.35 901.13c7.58-2.51 66.53-28.87 67.76-34.03.47-1.95 2.18-6.12 3.77-10.94-4.06 2.15-77.3 40.94-89.42 44.6-12.47 3.77-49.95 37.08-49.95 37.08s4.92-3.33 8.94-6.88 51.33-27.32 58.9-29.83z"/><path fill="#ccc" d="M252.29 806.35s3.44 33.51 8.24 38.65c4.8 5.14 36 8.01 36 8.01s-10.64-12.25-19.91-18.13c-9.27-5.88-24.33-28.53-24.33-28.53zM295.12 900.77s19.07-11.58 24.48-14.14c5.4-2.56 33.92-22.09 37.66-24.68 3.74-2.59-18.13 18.59-23.31 21.18s-46.87 29.08-46.87 29.08-1.21-5.9 8.04-11.44z"/></g><g><path fill="#b22035" d="M256.62 779.98c3.19-4.43 38.62-18.07 35.25-23.32-3.37-5.25-27.56-1.12-27.56-1.12 13.69-7.31 54.18-8.81 60.37-10.12 6.19-1.31 8.06-30.56 4.5-35.06-3.56-4.5-28.31-48.75-28.31-48.75s9.19 9.19 12.19 13.69 49.31 45.75 54.31 45.75 12.96-6.94 12.96-6.94-6.89 9.37-7.03 10.31c-.14.94 11.2 7.31 28.83 9.25 17.62 1.94 35 0 35 0s-11-5.75-23.98-9.91-28.46-14.08-28.46-14.08l-5.04-16s-13.14-21.19-14.82-27.19c-3.49-8.81-6.42-14.62-6.42-14.62s-17.76-16.22-22.08-19.54c-3.98-3.07-7.47-19.5-7.99-22.05-.21.01-.42.02-.63.04-20.34 1.85-39.37 33.87-43.31 44.18-3.94 10.31-10.5 70.49-10.87 78.37-.37 7.87-16.69 26.81-19.87 30.56s-5.62 23.06-6.75 26.62c-1.12 3.56 3.75 7.19 3.75 7.19-6.54-7.64 2.77-12.83 5.96-17.26z"/><path fill="#841832" d="M402.11 733.66c-17.62-1.94-28.97-8.31-28.83-9.25.14-.94 7.03-10.31 7.03-10.31s-7.96 6.94-12.96 6.94c-5 0-51.31-41.25-54.31-45.75s-12.19-13.69-12.19-13.69 24.75 44.25 28.31 48.75c3.56 4.5 1.69 33.75-4.5 35.06-6.19 1.31-46.68 2.81-60.37 10.12 0 0 24.19-4.12 27.56 1.12 3.37 5.25-32.06 18.88-35.25 23.32-3.19 4.43-12.5 9.62-6 17.24l.75-4.56s44.75-9.25 57-9.75 44.5 11 44.5 11-7.5-23.25-10.96-26.37c-3.46-3.12-25.91 1-27.91 1s12.87-5.25 16.16-6.12c3.28-.87 13.09-17.25 13.55-22.75.46-5.5-13.55-27-13.55-27s2.72 2.75 8.34 10.38 18.77 19.62 18.77 19.62 32.35 13.5 38.18 14 18.68 6.5 27.17 5.25c8.5-1.25 14.5-28.25 14.5-28.25s-17.37 1.94-34.99 0zM379.62 693.67s-11.34-18.37-14.82-27.19c1.69 6 14.82 27.19 14.82 27.19zM336.3 632.31c4.31 3.33 22.08 19.54 22.08 19.54l-.39-7.31s-3.35-13.34.32-17.76c-2.4-3.7-12.69-17.73-30-16.52.52 2.55 4.02 18.98 7.99 22.05z"/><path fill="#631229" d="M338.49 723.04c-5.62-7.62-8.34-10.38-8.34-10.38s14.02 21.5 13.55 27c-.46 5.5-10.27 21.87-13.55 22.75-3.28.87-18.16 6.12-16.16 6.12s24.45-4.12 27.91-1c3.46 3.12 10.96 26.37 10.96 26.37s-5-26.75-5.5-31.83c-.5-5.08 9.89-19.42 9.89-19.42s-13.14-11.99-18.76-19.61zM364.8 666.48c-1.69-6-6.42-14.62-6.42-14.62s2.93 5.81 6.42 14.62z"/><path fill="#631229" d="m357.99 644.54.39 7.31s4.73 8.62 6.42 14.62c3.49 8.81 14.82 27.19 14.82 27.19s-6.58-39-8.64-45.93c-2.06-6.94-12.12-20.06-12.12-20.06s-.19-.33-.55-.89c-3.68 4.43-.32 17.76-.32 17.76z"/><path fill="#dd647b" d="M312.12 621.92s-23.75 25.5-25.75 31.5-9.75 65.91-9.75 65.91 9.25-53.56 12.75-59.11c3.5-5.55 13.75-20.3 16.5-23.8s8.75-6 17.5-1.5 26.62 22.36 29.81 25.3 7.64 12.94 6.91 8.07-1.34-13.25-5.03-16.44c-3.69-3.19-23.43-20.19-25.69-23.19-2.26-3 .74-15.05-3.76-15.15-4.49-.09-10.47 5.12-13.49 8.41zM251.37 772.66s1-8.75 4.5-10.5 18.62-7.25 22.87-6.87c4.25.38 0 2.25-9.5 6.12-9.49 3.87-17.87 11.25-17.87 11.25zM365.46 674.73c2.97 2.04 9 12.66 10.31 15.28 1.31 2.62 4.22 6.28.37 3.66-3.84-2.63-15.89-22.51-10.68-18.94z"/></g><g><path fill="none" d="M380.32 624.92c1.56.19 3.02-.29 4.34-1.17-1.75.88-3.11 1.2-4.34 1.17z"/><path fill="#c88861" d="M352.61 596.27s-2.06 13.22-1.22 22.12c.84 8.91 6.59 26.15 6.59 26.15-1.34-7.28 2.22-15.57 5.34-21.1-5.77-7.35-9.6-22.47-10.5-26.28-.14-.56-.21-.89-.21-.89z"/><path fill="#f0c19f" d="M380.27 624.92h.04c1.23.04 2.6-.29 4.34-1.17 5.25-3.51 8.37-13.51 7.32-14.63-1.31-1.41.66-6.37.66-6.37.84.28 7.03 1.41 7.03 1.41s6.28-21 6.84-23.81c.56-2.81 1.22-2.06 2.72-4.12 1.5-2.06 8.37-5.03 8.37-5.03l.72-14.84c-8.06 4.69-31.78 1.03-31.78 1.03s-13.22 1.03-13.97 1.12c-.75.09-13.46 7.91-13.47 7.92l-.25.64s-.62-16.25-13.25-7.87c-12.62 8.37 3.37 18.87 3.37 18.87.5 4.25-20.75 31.87-20.75 31.87 1.5 25.75 29.75 34.62 29.75 34.62s-5.75-17.25-6.59-26.15c-.84-8.91 1.22-22.12 1.22-22.12.04.28.12.59.21.9 1.93 6.74 14.54 20.01 14.54 20.01s4.87 4.62 9.12 6.62c1.09.51 2.07.91 3.14 1.06.21-.01.42 0 .67.04z"/><path fill="#f0c19f" d="M352.61 596.27s.07.33.21.9c-.09-.32-.17-.62-.21-.9z"/><path fill="#814621" d="M363.32 623.44c2.12-3.78 4.04-6.27 4.04-6.27s-12.61-13.27-14.54-20.01c.9 3.82 4.73 18.94 10.5 26.28z"/><path fill="#c88861" d="M409.23 576.21c-1.5 2.06-2.16 1.31-2.72 4.12s-6.84 23.81-6.84 23.81-6.19-1.12-7.03-1.41c0 0-1.97 4.97-.66 6.37 1.05 1.12-2.07 11.12-7.32 14.63 2.49-1.26 5.74-3.67 10.45-7.82 11.62-10.25 22.5-44.75 22.5-44.75s-6.88 2.98-8.38 5.05z"/><path fill="#c88861" d="M386.55 557.36s23.72 3.66 31.78-1.03l-.72 14.84c8.37-29.87-13.87-28.5-33.37-25-17.27 3.1-23.85 17.08-25.13 20.23.02-.01 12.72-7.83 13.47-7.92.75-.08 13.97-1.12 13.97-1.12zM380.27 624.92c-.25-.03-.47-.05-.65-.06.23.03.46.05.69.06h-.04zM353.97 562.43s-1.73-2.53-4.83 0c-3.09 2.53-4.73 4.55-3.47 7.64 0 0 1.17-6.37 4.73-5.95 3.57.42 6.24.51 3.57-1.69z"/><path fill="#f9d9c4" d="M403.61 586.99s-3.94 16.12-4.81 16c-.87-.12-3.12-.87-2.19-2.25.94-1.38 7-13.75 7-13.75z"/><path fill="#3b3b3a" d="M392.22 581.1c-.31.86-1.01.9-1.87.59-.86-.31-1.55-.85-1.24-1.7.31-.86 1.25-1.3 2.11-1 .86.3 1.31 1.25 1 2.11zM410.38 587.87c-.31.86-.94.92-1.71.64s-1.38-.78-1.07-1.64c.31-.86 1.18-1.33 1.95-1.05s1.14 1.19.83 2.05zM409.68 577.54c-.22.66.3 1.45 1.08 2.02s3.49 3.37 3.63 3.54c.14.16.68-1.08.61-2.02-.07-.94-1.15-2.25-2.02-2.65-.86-.4-3.16-1.31-3.3-.89zM398.8 572.49c-.44.16-2.03-.25-3.06-.5-1.03-.25-5.12-1.16-6.7-1.16s-2.52.16-2.52 0 .06-.97 1.37-1.5 3.91-1.41 6.12-.78c2.22.62 4.37.87 4.62 1.62s.17 2.32.17 2.32z"/><path fill="#f9d9c4" d="M346.68 587.2s-14.5 21.91-16 22.35c-1.5.44-1.44 3.06-1.12 4.25.31 1.19 7-4.37 8.19-6.56 1.18-2.19 8.93-20.04 8.93-20.04zM353.17 595.94s5.21 9.47 6.91 11.58c1.71 2.11 3.49 3.47 3.49 3.47s-3.18-5.39-3.49-6.75-6.62-8.16-6.91-8.3z"/><path fill="#6d1419" d="M395.55 610.22s-11.35-4.11-14.49-7.91c0 0-.74 1.5-1.02 3.52 1.57.6 7.12 2.92 7.7 6.03 0 0 .43-1.73-1.14-2.96 0 0 6.25 2.04 6.66 4.62 1.59-1.49 2.29-3.3 2.29-3.3z"/><path fill="#db4646" d="M386.61 608.9c1.56 1.23 1.14 2.96 1.14 2.96-.58-3.11-6.13-5.43-7.7-6.03-.38 2.77.11 6.52 4.62 8.67 4.08 1.95 6.88.67 8.61-.98-.42-2.58-6.67-4.62-6.67-4.62z"/></g><g><path fill="#3b3b3a" d="M410.49 544.38c-9.5-.92-46.96-7.24-51.63 22.67 0 0 7.01-8.47 9.81-8.25 0 0 11.21.97 17.71-1.09.19-.1.43-.19.76-.26 4.23-.93 7.72-4.79 9.18-6.62.37-.59.73-.97.73-.97s-.26.38-.73.97c-.93 1.47-1.92 4.23 2.49 5.5 6.17 1.78 18.79-2.78 18.79-2.78s-.6 12.65-.56 15.94-2.04 9.4-2.04 9.4 8.6-7.96 9.98-16.46c1.38-8.5-4.99-17.13-14.49-18.05z"/><path fill="#121314" d="M386.38 557.71c.26-.08.52-.17.76-.26-.32.07-.57.16-.76.26zM396.32 550.83c.47-.59.73-.97.73-.97s-.36.39-.73.97zM398.81 556.33c-4.41-1.27-3.42-4.03-2.49-5.5-1.45 1.83-4.95 5.69-9.18 6.62 0 0 21.34 4.23 30.47-3.9 0 0-12.62 4.56-18.8 2.78z"/></g><g><path fill="#8e2121" d="M681.53 154.73s-109.6 21.71-109.45 41.58c.09 12.33 3.04 77.96 5.27 125.99h99.51c4.83 0 8.75-3.66 8.75-8.17V207.21l51.33-31.22-55.41-21.26z"/><path fill="#6d1818" d="M681.53 154.73h-.02a9.188 9.188 0 0 0-4.65-1.26h-163.3c-4.83 0-8.75 3.66-8.75 8.17v152.49c0 3.02 1.76 5.65 4.36 7.06v.01l56.06 33.14.91-32.03h11.22c-2.23-48.04-5.18-113.66-5.27-125.99-.16-19.88 109.44-41.59 109.44-41.59z"/><path fill="#ba2525" d="M690.5 240.18c6.69-31.97 36.32-52.15 51.08-60.4a8.737 8.737 0 0 0-7.51-4.27h-163.3c-4.83 0-8.75 3.92-8.75 8.75v163.3c0 4.83 3.92 8.75 8.75 8.75h9.04c52.9-14.69 102.36-76.33 110.69-116.13z"/><path fill="#8e2121" d="M742.82 347.56v-163.3c0-1.64-.46-3.17-1.24-4.48-14.76 8.25-44.39 28.43-51.08 60.4-8.33 39.8-57.78 101.44-110.69 116.14h154.26c4.83 0 8.75-3.92 8.75-8.76z"/><circle cx="572.08" cy="185.31" r="4.35" fill="#d65050"/><circle cx="572.08" cy="347.18" r="4.35" fill="#d65050"/><circle cx="734.01" cy="184.98" r="4.35" fill="#d65050"/><circle cx="734.01" cy="346.85" r="4.35" fill="#d65050"/><path fill="none" stroke="#f7941d" stroke-linecap="round" stroke-miterlimit="10" stroke-width="3" d="M529.22 333.06V173.59c0-5.79 4.7-10.49 10.49-10.49h163.63L611.72 46.85l-18.55 106.63 61.35 22.04v179.87"/><path fill="none" stroke="#f7941d" stroke-linecap="round" stroke-miterlimit="10" stroke-width="3" d="m504.81 242.95 57.2 27.84h180.81M654.52 175.51l-42.8-128.66-79.97 119.93M611.72 46.85v-95.87"/></g></svg>